<svg id="Capa_1" data-name="Capa 1" xmlns="http://www.w3.org/2000/svg" viewBox="0 0 51.5 51.5"><defs><style>.cls-1{fill:#1c3171;}</style></defs><title>pantalla_error</title><path class="cls-1" d="M25.75,0A25.75,25.75,0,1,0,51.5,25.75,25.78,25.78,0,0,0,25.75,0Zm0,49.26A23.51,23.51,0,1,1,49.26,25.75,23.54,23.54,0,0,1,25.75,49.26Z"/><path class="cls-1" d="M19.34,21.06a2.17,2.17,0,1,0-2.17,2.17A2.18,2.18,0,0,0,19.34,21.06Z"/><path class="cls-1" d="M33.07,18.89a2.17,2.17,0,1,0,2.17,2.17A2.18,2.18,0,0,0,33.07,18.89Z"/><path class="cls-1" d="M25.75,31.35A14.66,14.66,0,0,0,14.84,36.2a1.12,1.12,0,0,0,1.67,1.49,12.46,12.46,0,0,1,18.48,0,1.12,1.12,0,0,0,1.67-1.49A14.66,14.66,0,0,0,25.75,31.35Z"/></svg>