<svg xmlns="http://www.w3.org/2000/svg" xmlns:xlink="http://www.w3.org/1999/xlink" viewBox="0 0 647.3 197.6"><defs><style>.cls-1{fill:none;}.cls-2{clip-path:url(#clip-path);}.cls-3{fill:#00498c;}.cls-4{clip-path:url(#clip-path-2);}.cls-5{clip-path:url(#clip-path-3);}.cls-6{clip-path:url(#clip-path-4);}.cls-7{clip-path:url(#clip-path-5);}.cls-8{fill:#ff7800;}.cls-9{clip-path:url(#clip-path-6);}.cls-10{clip-path:url(#clip-path-7);}</style><clipPath id="clip-path" transform="translate(23.5 23.6)"><path class="cls-1" d="M148.6,118.6l8.2-35.5h11c15.5,0,28.4,4.3,28.1,18.8-.4,16.2-17,22.8-35.1,22.8h-8.3c-5-.8-3.9-6.1-3.9-6.1Zm82.3-16.1a29.76,29.76,0,0,0-27.3-31.4c15.5-2.5,35.8-13.9,35.8-34.7,0-22.2-22.4-34.1-56.1-34.1a264.93,264.93,0,0,0-43.5,3.5l-24.2,107s-8.3,27.7,15.4,33.4a79.63,79.63,0,0,0,18.8,2.6c62.8,3.5,81.1-24.8,81.1-46.3ZM169.4,27a116.38,116.38,0,0,1,14.5-.8c12.6,0,21.6,4.5,21.4,14.8-.3,12.6-13,19.6-31.4,19.6h-7.1c-5.2,0-3.7-6-3.7-6Z"/></clipPath><clipPath id="clip-path-2" transform="translate(23.5 23.6)"><path class="cls-1" d="M385,149.2c5.1,0,14.7-2,18.1-16.7,2.6-11.7,7-31.4,7-31.4,3.4,0,8.2.9,13.7.9,54,0,72.7-34.7,72.7-58.2,0-25.7-17.9-40.5-56.9-40.7a182.56,182.56,0,0,0-43,3.1l-31.7,143ZM428.3,28a108.51,108.51,0,0,1,14-.7c12.6,0,23,3.7,23,18.8S453.6,76.2,431,76.4h-4.3c-10.2,0-7.3-8.5-7.3-8.5Z"/></clipPath><clipPath id="clip-path-3" transform="translate(23.5 23.6)"><path class="cls-1" d="M285.8,86.1c0-23.2,15.1-57.9,49.6-57.9,9.1,0,25.1,2.3,34.6,10.7,0,0,3.5-11.9,4.5-16.7s-.8-12.6-15.7-17.6A84.29,84.29,0,0,0,331.1,0C277.1,0,249,44.4,249,87.9c0,46.7,31.4,62.8,63.3,62.8a70.24,70.24,0,0,0,26.5-3.9,16.1,16.1,0,0,0,10.4-11.1l5.3-24a50.79,50.79,0,0,1-32.9,11.5c-22.5,0-35.6-14.5-35.6-37"/></clipPath><clipPath id="clip-path-4" transform="translate(23.5 23.6)"><path class="cls-1" d="M51,13.4C38.7,7.6,25,24,24.2,24.9a67.33,67.33,0,0,0-8.1,13.4l7,3.6A114.93,114.93,0,0,1,57.4,67.5c8.3-20.5,7-48.1-6.4-54.1Z"/></clipPath><clipPath id="clip-path-5" transform="translate(23.5 23.6)"><path class="cls-1" d="M98.9,88.3c-13,20.9-48.6,44.6-58.6,48.1a28.93,28.93,0,0,1-34-8.6A47.63,47.63,0,0,1,0,118.7C79.8,82.6,66.3,20.5,51.2,13.5A134.69,134.69,0,0,1,77.8,31.7a148,148,0,0,1,18.8,20,31.61,31.61,0,0,1,2.3,36.6Z"/></clipPath><clipPath id="clip-path-6" transform="translate(23.5 23.6)"><path class="cls-1" d="M553.8,67.5c8.4-20.5,7-48-6.3-54C535.2,7.7,521.3,24.1,520.8,25a67.75,67.75,0,0,0-8.2,13.4l7,3.6a110.15,110.15,0,0,1,34.2,25.5"/></clipPath><clipPath id="clip-path-7" transform="translate(23.5 23.6)"><path class="cls-1" d="M536.7,136.4a29.25,29.25,0,0,1-34-8.6,52.64,52.64,0,0,1-6.3-9.1c79.8-36.1,66.2-98.2,51.1-105.2a134.69,134.69,0,0,1,26.6,18.2,148,148,0,0,1,18.8,20A31.44,31.44,0,0,1,595,88.3c-12.7,20.8-48.2,44.6-58.3,48.1Z"/></clipPath></defs><g id="Capa_2" data-name="Capa 2"><g id="layer"><g class="cls-2"><rect class="cls-3" x="114.3" y="2.3" width="172.1" height="193.9"/></g><g class="cls-4"><rect class="cls-3" x="365" y="3" width="178.5" height="193.3"/></g><g class="cls-5"><rect class="cls-3" x="249.1" width="172.6" height="197.6"/></g><g class="cls-6"><rect class="cls-3" x="16.2" y="12.3" width="93.4" height="102.2"/></g><g class="cls-7"><rect class="cls-8" y="13.6" width="150.9" height="172.3"/></g><g class="cls-9"><rect class="cls-3" x="512.6" y="12.3" width="93.4" height="102.2"/></g><g class="cls-10"><rect class="cls-8" x="496.4" y="13.6" width="150.9" height="172.3"/></g></g></g></svg>