<svg width="58" height="58" viewBox="0 0 58 58" fill="none" xmlns="http://www.w3.org/2000/svg">
<path d="M29 0C12.9837 0 0 12.9837 0 29C0 45.0163 12.9837 58 29 58C45.0163 58 58 45.0163 58 29C58 12.9837 45.0163 0 29 0ZM29 5.6129C41.9251 5.6129 52.3871 16.0729 52.3871 29C52.3871 41.9251 41.9271 52.3871 29 52.3871C16.0749 52.3871 5.6129 41.9271 5.6129 29C5.6129 16.0749 16.0729 5.6129 29 5.6129ZM45.3948 20.8457L42.7596 18.1892C42.2138 17.639 41.3254 17.6354 40.7752 18.1812L24.2461 34.5775L17.2543 27.529C16.7086 26.9788 15.8201 26.9751 15.2699 27.5209L12.6132 30.1561C12.0631 30.7019 12.0594 31.5904 12.6053 32.1407L23.2208 42.8421C23.7666 43.3923 24.655 43.3959 25.2052 42.8501L45.387 22.8303C45.937 22.2844 45.9406 21.3959 45.3948 20.8457Z" fill="#52C41A"/>
</svg>
