<svg width="55" height="43" viewBox="0 0 55 43" fill="none" xmlns="http://www.w3.org/2000/svg">
<path d="M50.4167 0H4.58333C2.05295 0 0 2.06362 0 4.60714V38.3929C0 40.9364 2.05295 43 4.58333 43H50.4167C52.947 43 55 40.9364 55 38.3929V4.60714C55 2.06362 52.947 0 50.4167 0ZM16.8056 9.21429C20.1762 9.21429 22.9167 11.969 22.9167 15.3571C22.9167 18.7453 20.1762 21.5 16.8056 21.5C13.4349 21.5 10.6944 18.7453 10.6944 15.3571C10.6944 11.969 13.4349 9.21429 16.8056 9.21429ZM27.5 31.9429C27.5 32.9603 26.5451 33.7857 25.3611 33.7857H8.25C7.06597 33.7857 6.11111 32.9603 6.11111 31.9429V30.1C6.11111 27.0478 8.98524 24.5714 12.5278 24.5714H13.0052C14.1797 25.0609 15.4592 25.3393 16.8056 25.3393C18.1519 25.3393 19.441 25.0609 20.6059 24.5714H21.0833C24.6259 24.5714 27.5 27.0478 27.5 30.1V31.9429ZM48.8889 26.875C48.8889 27.2973 48.5451 27.6429 48.125 27.6429H34.375C33.9549 27.6429 33.6111 27.2973 33.6111 26.875V25.3393C33.6111 24.917 33.9549 24.5714 34.375 24.5714H48.125C48.5451 24.5714 48.8889 24.917 48.8889 25.3393V26.875ZM48.8889 20.7321C48.8889 21.1545 48.5451 21.5 48.125 21.5H34.375C33.9549 21.5 33.6111 21.1545 33.6111 20.7321V19.1964C33.6111 18.7741 33.9549 18.4286 34.375 18.4286H48.125C48.5451 18.4286 48.8889 18.7741 48.8889 19.1964V20.7321ZM48.8889 14.5893C48.8889 15.0116 48.5451 15.3571 48.125 15.3571H34.375C33.9549 15.3571 33.6111 15.0116 33.6111 14.5893V13.0536C33.6111 12.6312 33.9549 12.2857 34.375 12.2857H48.125C48.5451 12.2857 48.8889 12.6312 48.8889 13.0536V14.5893Z" fill="#32335C"/>
</svg>
