<svg width="49" height="49" viewBox="0 0 49 49" fill="none" xmlns="http://www.w3.org/2000/svg">
<path d="M24.5 49C38.0324 49 49 38.0324 49 24.5C49 10.9676 38.0324 0 24.5 0C10.9676 0 0 10.9676 0 24.5C0 38.0324 10.9676 49 24.5 49ZM24.5 12.25C25.7729 12.25 26.7969 13.274 26.7969 14.5469V25.2656C26.7969 26.5385 25.7729 27.5625 24.5 27.5625C23.2271 27.5625 22.2031 26.5385 22.2031 25.2656V14.5469C22.2031 13.274 23.2271 12.25 24.5 12.25ZM27.5625 33.6875C27.5625 35.3814 26.1939 36.75 24.5 36.75C22.8061 36.75 21.4375 35.3814 21.4375 33.6875C21.4375 31.9936 22.8061 30.625 24.5 30.625C26.1939 30.625 27.5625 31.9936 27.5625 33.6875Z" fill="#F26E29"/>
</svg>
