<svg width="37" height="21" viewBox="0 0 37 21" fill="none" xmlns="http://www.w3.org/2000/svg">
<path d="M2.38723 9.70273L1.21854 7.99045L12.2025 0.431905C12.947 -0.0804077 13.9054 -0.136248 14.7039 0.286251C15.5023 0.70875 15.9984 1.53423 15.9984 2.44054V3.70049H13.9311V2.44054C13.9311 2.25191 13.8114 2.16044 13.7401 2.12273C13.6688 2.08502 13.5259 2.03762 13.3711 2.14425L2.38723 9.70273Z" fill="#203864"/>
<path d="M1.71334 8.90596L14.9642 10.2899V13.2179C14.9642 16.8862 12.0421 19.9268 8.38897 19.954C4.70681 19.9814 1.71327 16.9924 1.71327 13.3014L1.71334 8.90596L1.80226 8.84473L1.71334 8.90596Z" fill="#374C73"/>
<path d="M34.432 9.72361L23.4177 2.14417C23.2628 2.03768 23.1201 2.08501 23.0487 2.12265C22.9775 2.16036 22.8577 2.25184 22.8577 2.44046V3.70041H20.7904V2.44046C20.7904 1.53416 21.2865 0.70874 22.0849 0.286172C22.8835 -0.136189 23.8419 -0.0804185 24.5864 0.431825L35.6007 8.01127L34.432 9.72361Z" fill="#00CCB2"/>
<path d="M35.0146 8.91368L21.8223 10.2915V13.2195C21.8223 16.8878 24.7444 19.9284 28.3976 19.9556C32.0797 19.983 35.0733 16.994 35.0733 13.303V8.90759L35.0147 8.86725" fill="#00607F"/>
<path d="M34.9076 7.88316L35.1225 9.94763L35.181 9.94154L34.9662 7.87706L34.9076 7.88316Z" fill="black"/>
<path d="M36.1074 7.75788L20.7892 9.35778V10.2024C20.0927 9.75911 19.2697 9.50274 18.3938 9.50274C17.5373 9.50274 16.7104 9.74555 15.9982 10.197V9.35778L0.752831 7.71124L0.680038 13.3047C0.680038 15.3698 1.48393 17.3083 2.94358 18.7632C4.38925 20.2042 6.30302 20.9956 8.33843 20.9955C8.35788 20.9955 8.37753 20.9955 8.39697 20.9953C12.3958 20.9656 15.6833 17.7896 15.9767 13.8022C16.0839 12.5542 17.1428 11.5786 18.3938 11.5786C19.6499 11.5786 20.7048 12.5539 20.8108 13.8051C21.1056 17.7911 24.3924 20.9655 28.3903 20.9953C28.4099 20.9955 28.4293 20.9955 28.4488 20.9955C30.4842 20.9955 32.3982 20.2041 33.8438 18.7632C35.3035 17.3083 36.1074 15.3698 36.1074 13.3047V7.75788ZM8.38168 18.9194C8.36736 18.9196 8.35324 18.9196 8.33892 18.9196C6.85277 18.9196 5.45533 18.3418 4.39991 17.2898C3.33418 16.2276 2.74728 14.8123 2.74728 13.3047V10.0607L13.9308 11.2288V13.2212C13.9309 16.3405 11.4416 18.8967 8.38168 18.9194ZM34.0401 13.3047C34.0401 14.8124 33.4532 16.2277 32.3874 17.2899C31.332 18.3419 29.9347 18.9197 28.4484 18.9197C28.4342 18.9197 28.4199 18.9196 28.4057 18.9195C25.3458 18.8968 22.8565 16.3406 22.8565 13.2212V11.2289L34.0401 10.0609V13.3047Z" fill="#203864"/>
<path d="M34.432 9.72361L23.4177 2.14417C23.2628 2.03768 23.1201 2.08501 23.0487 2.12265C22.9775 2.16036 22.8577 2.25184 22.8577 2.44046V3.70041H20.7904V2.44046C20.7904 1.53416 21.2865 0.70874 22.0849 0.286172C22.8835 -0.136189 23.8419 -0.0804185 24.5864 0.431825L35.6007 8.01127L34.432 9.72361Z" fill="#203864"/>
<path d="M35.0146 8.91368L21.8223 10.2915V13.2195C21.8223 16.8878 24.7444 19.9284 28.3976 19.9556C32.0797 19.983 35.0733 16.994 35.0733 13.303V8.90759L35.0147 8.86725" fill="#263D68"/>
<path d="M34.9067 7.88273L35.1215 9.9472L35.1801 9.94111L34.9653 7.87664L34.9067 7.88273Z" fill="black"/>
<path d="M20.7887 9.35613V10.2007C20.1316 9.78257 19.3734 9.52164 18.3932 9.50109L18.3934 11.5769C19.7166 11.5889 20.7085 12.6018 20.8104 13.8034C21.1052 17.7894 24.392 20.9638 28.3899 20.9937C28.4095 20.9938 28.4289 20.9939 28.4484 20.9939C30.4838 20.9938 32.3977 20.2024 33.8433 18.7615C35.303 17.3067 36.1069 15.3682 36.1069 13.3031V7.75623L20.7887 9.35613ZM34.0396 13.3031C34.0396 14.8108 33.4527 16.2261 32.387 17.2883C31.3315 18.3403 29.9342 18.9181 28.4479 18.9181C28.4338 18.9181 28.4194 18.918 28.4052 18.9178C25.3454 18.8952 22.856 16.3389 22.856 13.2196V11.2272L34.0396 10.0592V13.3031Z" fill="#203864"/>
</svg>
