<svg width="23" height="23" viewBox="0 0 23 23" fill="none" xmlns="http://www.w3.org/2000/svg">
<path d="M0 11.5C0 5.2364 5.07643 0.159973 11.34 0.159973C17.6036 0.159973 22.68 5.2364 22.68 11.5C22.68 17.7636 17.6036 22.84 11.34 22.84C5.07643 22.84 0 17.7636 0 11.5ZM7.75197 9.37817L9.83835 11.4601L7.75197 13.5819C7.34 13.9983 7.34 14.6717 7.75197 15.0482C8.16836 15.5 8.84167 15.5 9.2182 15.0482L11.3002 13.0017L13.422 15.0482C13.8384 15.5 14.5117 15.5 14.8882 15.0482C15.34 14.6717 15.34 13.9983 14.8882 13.5819L12.8417 11.4601L14.8882 9.37817C15.34 9.00164 15.34 8.32833 14.8882 7.91194C14.5117 7.49998 13.8384 7.49998 13.422 7.91194L11.3002 9.99833L9.2182 7.91194C8.84167 7.49998 8.16836 7.49998 7.75197 7.91194C7.34 8.32833 7.34 9.00164 7.75197 9.37817Z" fill="#FF1300"/>
</svg>
