<svg width="35" height="31" viewBox="0 0 35 31" fill="none" xmlns="http://www.w3.org/2000/svg">
<path d="M30.6179 0H4.3217C1.96188 0 0 1.96195 0 4.3827V26.2962C0 28.717 1.96194 30.6789 4.32107 30.6789H30.6173C33.0381 30.6789 35 28.717 35 26.2962V4.3827C35.0006 1.96195 33.0969 0 30.6179 0ZM7.60872 4.3827C9.42412 4.3827 10.8958 5.85433 10.8958 7.66973C10.8958 9.48513 9.48507 10.9568 7.60872 10.9568C5.73238 10.9568 4.3217 9.48513 4.3217 7.66973C4.3217 5.85433 5.85427 4.3827 7.60872 4.3827ZM30.5494 25.721C30.3577 26.0771 29.9879 26.2962 29.5839 26.2962H5.61665C5.20433 26.2962 4.82708 26.0648 4.64013 25.697C4.45318 25.3295 4.48844 24.8883 4.73148 24.5548L9.52506 17.9807C9.7316 17.6952 10.0603 17.5308 10.4095 17.5308C10.7588 17.5308 11.0886 17.698 11.295 17.981L13.5178 21.029L19.907 11.5035C20.1131 11.1417 20.4555 10.9568 20.8185 10.9568C21.1814 10.9568 21.5272 11.1397 21.7299 11.4447L30.4953 24.5928C30.7206 24.9266 30.7412 25.3581 30.5494 25.721Z" fill="black"/>
</svg>
