<svg width="90" height="90" viewBox="0 0 90 90" fill="none" xmlns="http://www.w3.org/2000/svg">
<path d="M0 45C0 20.1445 20.1445 0 45 0C69.8555 0 90 20.1445 90 45C90 69.8555 69.8555 90 45 90C20.1445 90 0 69.8555 0 45ZM30.7617 36.5801L39.041 44.8418L30.7617 53.2617C29.127 54.9141 29.127 57.5859 30.7617 59.0801C32.4141 60.873 35.0859 60.873 36.5801 59.0801L44.8418 50.959L53.2617 59.0801C54.9141 60.873 57.5859 60.873 59.0801 59.0801C60.873 57.5859 60.873 54.9141 59.0801 53.2617L50.959 44.8418L59.0801 36.5801C60.873 35.0859 60.873 32.4141 59.0801 30.7617C57.5859 29.127 54.9141 29.127 53.2617 30.7617L44.8418 39.041L36.5801 30.7617C35.0859 29.127 32.4141 29.127 30.7617 30.7617C29.127 32.4141 29.127 35.0859 30.7617 36.5801Z" fill="#FF1300"/>
</svg>
