<svg width="36" height="27" viewBox="0 0 36 27" fill="none" xmlns="http://www.w3.org/2000/svg">
<path d="M28.4223 20.2307C28.2216 20.5199 24.7042 25.5423 18.3892 26.1325C11.8973 26.7227 13.3727 23.5121 6.88072 22.5914C3.75277 22.1488 2.09436 22.6799 1.49238 23.0695C1.26497 23.2179 0.96193 23.1685 0.793417 22.9555C0.624904 22.7426 0.646479 22.4363 0.84318 22.2491C2.02354 21.1396 4.89772 19.3277 7.76599 17.2798L20.1598 12.6174L28.4223 20.2307Z" fill="#203864"/>
<path d="M24.8818 2.95694C24.8818 2.67365 24.9408 2.44938 24.9408 2.32544C24.9408 0.436867 21.6122 0.206697 21.3997 2.14249L21.3466 2.63824L24.8818 2.95694Z" fill="#203864"/>
<path d="M35.0077 15.6326C35.0077 21.4282 33.8804 20.6373 30.6049 20.354C26.4737 19.994 26.6448 20.6491 15.4373 17.8458C13.0766 17.2556 9.75388 16.8543 7.76497 17.2556C7.76497 17.2556 8.21351 11.6784 10.9401 7.77729C14.617 2.51288 23.1097 2.51288 23.1097 2.51288C25.396 2.90557 27.5786 3.75894 29.5249 5.02114C33.249 7.44679 35.0077 11.1767 35.0077 15.6326Z" fill="#203864"/>
<path d="M23.1097 2.51288C14.8058 3.98833 13.3363 14.9775 13.112 17.3913C11.3479 17.0633 9.54241 17.0214 7.76497 17.2674C7.76497 17.2674 8.21351 11.6902 10.9401 7.78909C14.617 2.51288 23.1097 2.51288 23.1097 2.51288Z" fill="#203864"/>
</svg>
