<svg width="69" height="61" viewBox="0 0 69 61" fill="none" xmlns="http://www.w3.org/2000/svg">
<path d="M54.8024 18.4451C54.612 18.7196 51.2737 23.4861 45.2805 24.0462C39.1193 24.6064 40.5196 21.5594 34.3584 20.6856C31.3898 20.2655 29.8159 20.7696 29.2446 21.1393C29.0288 21.2801 28.7412 21.2333 28.5812 21.0312C28.4213 20.8291 28.4418 20.5384 28.6285 20.3607C29.7487 19.3077 32.4764 17.5882 35.1986 15.6446L46.9609 11.2197L54.8024 18.4451Z" fill="#203864"/>
<path d="M51.442 2.05116C51.442 1.78231 51.498 1.56947 51.498 1.45185C51.498 -0.340507 48.339 -0.558949 48.1373 1.27821L48.0869 1.7487L51.442 2.05116Z" fill="#203864"/>
<path d="M61.0529 14.0821C61.0529 19.5824 59.9831 18.8318 56.8745 18.563C52.9537 18.2213 53.1162 18.843 42.4797 16.1825C40.2392 15.6224 37.0858 15.2415 35.1982 15.6224C35.1982 15.6224 35.6239 10.3294 38.2116 6.62704C41.7011 1.63086 49.7611 1.63086 49.7611 1.63086C51.9309 2.00354 54.0023 2.81343 55.8495 4.01133C59.3838 6.31338 61.0529 9.85328 61.0529 14.0821Z" fill="#203864"/>
<path d="M49.7611 1.63086C41.8804 3.03113 40.4857 13.4604 40.2728 15.7512C38.5986 15.4399 36.8851 15.4002 35.1982 15.6336C35.1982 15.6336 35.6239 10.3406 38.2116 6.63824C41.7011 1.63086 49.7611 1.63086 49.7611 1.63086Z" fill="#203864"/>
<path d="M52.0019 18.2269C47.4258 17.6668 43.0401 16.1601 40.2676 15.7512C40.486 13.4604 41.8807 3.03113 49.7614 1.63086C55.9227 4.81789 52.562 16.401 52.0019 18.2269Z" fill="#203864"/>
<path d="M41.389 53.0469C39.905 53.032 38.4622 52.5566 37.26 51.6865C35.5834 50.5808 34.5529 48.7256 34.5 46.7179V43.843C34.5 42.5727 35.5297 41.543 36.8 41.543H40.25C40.5675 41.543 40.825 41.8004 40.825 42.118C40.825 42.4355 40.5675 42.693 40.25 42.693H36.8C36.1649 42.693 35.65 43.2078 35.65 43.843V46.7179C35.7061 48.3529 36.5564 49.8577 37.9281 50.7492C39.3889 51.8458 41.2884 52.1718 43.0312 51.625C43.227 51.55 43.4481 51.5875 43.6082 51.7229C43.7683 51.8583 43.842 52.0701 43.8005 52.2756C43.7591 52.4811 43.609 52.6478 43.409 52.7106C42.7593 52.935 42.0764 53.0487 41.389 53.0469Z" fill="url(#paint0_linear_4_1251)"/>
<path d="M62.1118 53.0504C61.0292 53.0554 59.9654 52.7686 59.0321 52.2201C58.7585 52.0588 58.6675 51.7062 58.8288 51.4326C58.9901 51.159 59.3427 51.068 59.6163 51.2294C61.3169 52.1682 63.3923 52.1139 65.0414 51.0873C66.6885 50.2346 67.7581 48.5705 67.8497 46.7179V43.843C67.8497 43.2078 67.3348 42.693 66.6997 42.693H63.2497C62.9321 42.693 62.6747 42.4355 62.6747 42.118C62.6747 41.8004 62.9321 41.543 63.2497 41.543H66.6997C67.9699 41.543 68.9997 42.5727 68.9997 43.843V46.7179C68.9085 48.9835 67.6176 51.0289 65.6118 52.0861C64.5489 52.7066 63.3425 53.039 62.1118 53.0504Z" fill="#32335C"/>
<path d="M63.2502 42.1184V48.4434C63.2978 54.5701 58.7265 59.7508 52.6415 60.4666C52.0494 60.5356 51.4512 60.5356 50.8591 60.4666C44.7741 59.7508 40.2028 54.5701 40.2504 48.4434V42.1184L42.5504 42.1127C45.4613 42.0492 48.1876 40.6734 49.9678 38.3694C50.402 37.8323 51.0554 37.5197 51.7461 37.5186C52.4368 37.5174 53.0911 37.8279 53.527 38.3637C55.3082 40.6704 58.0366 42.0484 60.9503 42.1127L63.2502 42.1184Z" fill="#203864"/>
<path d="M63.2499 42.1182V43.2682L60.9499 43.2625C58.0362 43.1982 55.3078 41.8202 53.5267 39.5135C53.0907 38.9777 52.4364 38.6672 51.7457 38.6684C51.055 38.6695 50.4017 38.9821 49.9674 39.5192C48.1872 41.8232 45.4609 43.199 42.55 43.2625L40.25 43.2682V42.1182C40.2519 41.4839 40.7657 40.9701 41.4 40.9682H42.2682C44.5772 40.9409 46.7507 39.8742 48.185 38.0645C49.0574 36.9913 50.3669 36.3682 51.7499 36.3682C53.133 36.3682 54.4425 36.9913 55.3149 38.0645C56.7491 39.8742 58.9227 40.9409 61.2316 40.9682H62.0999C62.7342 40.9701 63.248 41.4839 63.2499 42.1182Z" fill="#203864"/>
<path d="M51.751 51.3117C49.1574 51.3108 46.5789 50.9167 44.1035 50.1428C43.9073 50.0817 43.7586 49.9207 43.7134 49.7203C43.6681 49.5199 43.7332 49.3106 43.8841 49.1712C44.0351 49.0318 44.2489 48.9835 44.4451 49.0445C49.2007 50.5337 54.2978 50.5337 59.0534 49.0445C59.2496 48.9835 59.4635 49.0318 59.6144 49.1712C59.7653 49.3106 59.8304 49.5199 59.7852 49.7203C59.7399 49.9207 59.5912 50.0817 59.395 50.1428C56.9207 50.9163 54.3434 51.3105 51.751 51.3117Z" fill="white"/>
<path d="M51.7494 47.29C49.2171 47.2919 46.6884 47.0985 44.1859 46.7115C43.8753 46.6594 43.6645 46.3671 43.713 46.0559C43.7615 45.7448 44.0513 45.5305 44.363 45.5753C49.2584 46.3286 54.2403 46.3286 59.1358 45.5753C59.34 45.541 59.5468 45.6192 59.6774 45.7799C59.8079 45.9406 59.842 46.1591 59.7665 46.3519C59.6911 46.5447 59.5178 46.6821 59.3129 46.7115C56.8103 47.0985 54.2817 47.2919 51.7494 47.29Z" fill="white"/>
<path d="M51.7507 55.9224C49.0754 55.9146 46.4361 55.3054 44.0279 54.1399C43.829 54.0601 43.6909 53.8762 43.6698 53.6629C43.6487 53.4496 43.748 53.2422 43.9274 53.1249C44.1069 53.0076 44.3367 52.9999 44.5236 53.1049C49.0841 55.3331 54.4174 55.3331 58.9779 53.1049C59.1648 52.9999 59.3946 53.0076 59.574 53.1249C59.7535 53.2422 59.8528 53.4496 59.8316 53.6629C59.8105 53.8762 59.6725 54.0601 59.4735 54.1399C57.0654 55.3054 54.426 55.9146 51.7507 55.9224Z" fill="white"/>
<path d="M1.40311 31.7948L0.442383 30.3872L9.47178 24.1737C10.0838 23.7525 10.8717 23.7066 11.5281 24.0539C12.1844 24.4012 12.5922 25.0798 12.5922 25.8249V26.8606H10.8928V25.8249C10.8928 25.6698 10.7944 25.5946 10.7358 25.5636C10.6771 25.5326 10.5597 25.4936 10.4324 25.5813L1.40311 31.7948Z" fill="#203864"/>
<path d="M0.849666 31.1412L11.7426 32.2788V34.6858C11.7426 37.7013 9.34051 40.2009 6.3374 40.2232C3.31046 40.2458 0.849609 37.7886 0.849609 34.7544L0.849666 31.1412L0.922759 31.0908L0.849666 31.1412Z" fill="#374C73"/>
<path d="M27.7464 31.8119L18.692 25.5812C18.5647 25.4937 18.4473 25.5326 18.3887 25.5635C18.3301 25.5945 18.2317 25.6697 18.2317 25.8248V26.8605H16.5322V25.8248C16.5322 25.0798 16.94 24.4012 17.5964 24.0539C18.2528 23.7066 19.0407 23.7525 19.6527 24.1736L28.7071 30.4043L27.7464 31.8119Z" fill="#00CCB2"/>
<path d="M28.2246 31.1466L17.3799 32.2792V34.6862C17.3799 37.7017 19.782 40.2013 22.7851 40.2236C25.812 40.2462 28.2729 37.789 28.2729 34.7548V31.1416L28.2247 31.1084" fill="#00607F"/>
<path d="M28.1369 30.298L28.3135 31.9951L28.3616 31.9901L28.185 30.293L28.1369 30.298Z" fill="black"/>
<path d="M29.1232 30.1956L16.5308 31.5108V32.2051C15.9583 31.8407 15.2817 31.6299 14.5617 31.6299C13.8576 31.6299 13.1778 31.8295 12.5924 32.2006V31.5108L0.0598391 30.1572L0 34.7554C0 36.453 0.660847 38.0465 1.86076 39.2425C3.04918 40.4271 4.6224 41.0777 6.29562 41.0776C6.31161 41.0776 6.32776 41.0776 6.34374 41.0775C9.63103 41.053 12.3335 38.4422 12.5747 35.1643C12.6628 34.1384 13.5333 33.3364 14.5617 33.3364C15.5943 33.3364 16.4614 34.1382 16.5486 35.1667C16.791 38.4434 19.4929 41.053 22.7794 41.0775C22.7955 41.0776 22.8114 41.0776 22.8275 41.0776C24.5007 41.0776 26.074 40.427 27.2624 39.2425C28.4624 38.0465 29.1232 36.453 29.1232 34.7554V30.1956ZM6.33117 39.371C6.3194 39.3711 6.30779 39.3711 6.29602 39.3711C5.07432 39.3711 3.92555 38.8961 3.05794 38.0314C2.18185 37.1582 1.69939 35.9947 1.69939 34.7553V32.0886L10.8929 33.0488V34.6867C10.8929 37.2509 8.84658 39.3523 6.33117 39.371ZM27.4238 34.7554C27.4238 35.9948 26.9413 37.1582 26.0652 38.0314C25.1976 38.8962 24.049 39.3712 22.8271 39.3712C22.8155 39.3712 22.8037 39.3711 22.792 39.371C20.2766 39.3524 18.2303 37.251 18.2303 34.6867V33.0489L27.4238 32.0887V34.7554Z" fill="#203864"/>
<path d="M27.7464 31.8119L18.692 25.5812C18.5647 25.4937 18.4473 25.5326 18.3887 25.5635C18.3301 25.5945 18.2317 25.6697 18.2317 25.8248V26.8605H16.5322V25.8248C16.5322 25.0798 16.94 24.4012 17.5964 24.0539C18.2528 23.7066 19.0407 23.7525 19.6527 24.1736L28.7071 30.4043L27.7464 31.8119Z" fill="#203864"/>
<path d="M28.2246 31.1466L17.3799 32.2792V34.6862C17.3799 37.7017 19.782 40.2013 22.7851 40.2236C25.812 40.2462 28.2729 37.789 28.2729 34.7548V31.1416L28.2247 31.1084" fill="#263D68"/>
<path d="M28.1359 30.298L28.3125 31.9951L28.3606 31.9901L28.184 30.293L28.1359 30.298Z" fill="black"/>
<path d="M16.5308 31.5095V32.2038C15.9906 31.8601 15.3673 31.6456 14.5615 31.6287L14.5616 33.3352C15.6494 33.345 16.4648 34.1777 16.5486 35.1655C16.7909 38.4422 19.4928 41.0517 22.7793 41.0762C22.7954 41.0764 22.8114 41.0764 22.8275 41.0764C24.5006 41.0764 26.074 40.4258 27.2624 39.2413C28.4623 38.0453 29.1231 36.4518 29.1231 34.7542V30.1943L16.5308 31.5095ZM27.4237 34.7542C27.4237 35.9936 26.9412 37.157 26.0651 38.0302C25.1975 38.895 24.0489 39.37 22.8271 39.37C22.8154 39.37 22.8036 39.3699 22.7919 39.3698C20.2766 39.3511 18.2302 37.2498 18.2302 34.6855V33.0477L27.4237 32.0875V34.7542Z" fill="#203864"/>
<defs>
<linearGradient id="paint0_linear_4_1251" x1="44.4383" y1="54.5497" x2="32.2353" y2="52.3355" gradientUnits="userSpaceOnUse">
<stop stop-color="#485B7E"/>
<stop offset="1" stop-color="#203864"/>
</linearGradient>
</defs>
</svg>
