<svg width="54" height="44" viewBox="0 0 54 44" fill="none" xmlns="http://www.w3.org/2000/svg">
<path d="M27.0101 32.5785C24.9494 32.5785 22.8788 32.5686 20.8182 32.5885C20.4615 32.5885 20.2535 32.4987 20.1247 32.1293C19.1538 29.4137 17.6974 26.9677 15.8547 24.7713C13.7346 22.2554 12.4665 19.3701 12.2287 16.0954C11.9712 12.5013 12.8925 9.17667 14.9829 6.22148C17.2714 2.9568 20.412 0.950074 24.2955 0.261196C29.0212 -0.577437 33.2614 0.600643 36.8775 3.83537C39.7307 6.39121 41.3555 9.61595 41.7418 13.4597C42.1678 17.7427 40.8799 21.4766 38.1654 24.7613C36.3227 26.9876 34.8564 29.4337 33.8756 32.1692C33.7568 32.4987 33.5784 32.5885 33.2515 32.5885C31.1611 32.5785 29.0806 32.5785 27.0101 32.5785ZM17.4498 14.6278C17.4498 14.6777 17.4498 14.7276 17.4498 14.7775C17.4498 15.706 18.0145 16.355 18.8466 16.3749C19.659 16.3949 20.2733 15.736 20.3129 14.8275C20.3327 14.498 20.3624 14.1685 20.412 13.8391C20.6795 12.2816 21.3829 10.9638 22.5618 9.90548C23.8299 8.7873 25.3159 8.24818 26.9902 8.18828C27.8522 8.15833 28.4664 7.4994 28.4367 6.68074C28.4069 5.90201 27.7531 5.293 26.911 5.31297C26.3067 5.33293 25.6924 5.40282 25.098 5.51264C20.8776 6.29137 17.5686 10.1451 17.4498 14.6278Z" fill="#203864"/>
<path d="M27.0399 35.5436C29.0411 35.5436 31.0325 35.5436 33.0337 35.5436C33.6974 35.5436 33.6975 35.5436 33.6975 36.2424C33.6975 37.0212 33.747 37.8099 33.6776 38.5886C33.6281 39.0978 33.4993 39.6469 33.2615 40.0962C32.8256 40.8949 32.3105 41.6536 31.7755 42.3825C31.2405 43.1213 30.4678 43.5206 29.5761 43.5406C27.8622 43.5805 26.1483 43.5805 24.4245 43.5406C23.5229 43.5206 22.7601 43.1013 22.2251 42.3725C21.6901 41.6337 21.1749 40.8749 20.739 40.0762C20.5112 39.6569 20.3725 39.1477 20.3328 38.6685C20.2635 37.8099 20.3328 36.9413 20.3031 36.0727C20.2932 35.6434 20.4517 35.5336 20.848 35.5436C22.9186 35.5536 24.9793 35.5436 27.0399 35.5436Z" fill="#203864"/>
<path d="M4.60023 18.2916C3.82748 18.2916 3.04482 18.2717 2.27207 18.2916C0.9049 18.3316 0.112337 17.5129 0.0132663 16.5345C-0.105618 15.3364 0.577968 14.4379 1.92533 14.358C3.79776 14.2482 5.6801 14.2881 7.55253 14.398C8.65221 14.4579 9.38533 15.4263 9.31598 16.3747C9.23672 17.473 8.37481 18.2717 7.22559 18.2916C6.35378 18.3016 5.47205 18.2916 4.60023 18.2916Z" fill="#203864"/>
<path d="M49.3611 18.2921C48.4892 18.2921 47.6174 18.3021 46.7357 18.2921C45.1208 18.2622 44.1797 16.6049 45.0218 15.2471C45.4676 14.5282 46.1809 14.3186 46.9338 14.3086C48.5487 14.2786 50.1635 14.2786 51.7784 14.3086C53.0068 14.3286 53.8886 15.0374 53.9876 16.0358C54.1164 17.2638 53.2248 18.2622 51.9765 18.2921C51.9567 18.2921 51.9468 18.2921 51.927 18.2921C51.0849 18.2921 50.223 18.2921 49.3611 18.2921Z" fill="#203864"/>
<path d="M5.24452 1.63965C5.61108 1.76944 6.00736 1.84931 6.3442 2.039C7.89961 2.91757 9.4352 3.8161 10.9708 4.72462C11.7832 5.20384 12.1101 6.07243 11.8822 6.95099C11.6742 7.74969 10.951 8.33873 10.0593 8.37867C9.81167 8.38865 9.51445 8.32875 9.2965 8.20895C7.56277 7.22056 5.82903 6.23217 4.12502 5.19386C3.40181 4.74459 3.17394 3.8161 3.45134 3.02739C3.72874 2.19874 4.39251 1.70953 5.24452 1.63965Z" fill="#203864"/>
<path d="M50.6395 28.7444C50.6494 30.1921 49.3615 31.1805 48.1528 30.7612C47.6277 30.5814 47.1522 30.2719 46.6667 29.9924C45.4284 29.2736 44.1702 28.5647 42.9615 27.796C42.05 27.2169 41.8222 26.0988 42.3572 25.1703C42.8525 24.3117 43.9819 23.9523 44.9033 24.4714C46.5776 25.3999 48.2221 26.3783 49.8667 27.3667C50.4116 27.6962 50.58 28.2852 50.6395 28.7444Z" fill="#203864"/>
<path d="M5.27361 30.9611C4.37207 30.8712 3.7182 30.402 3.44081 29.5833C3.16341 28.7647 3.39127 27.8561 4.10458 27.4168C5.72934 26.4085 7.38381 25.4301 9.0581 24.5016C9.9002 24.0324 10.8216 24.252 11.4061 24.9109C11.9807 25.5499 12.0798 26.5183 11.5745 27.2671C11.3764 27.5666 11.0494 27.8162 10.7324 28.0059C9.31569 28.8545 7.88907 29.6931 6.45255 30.5018C6.0959 30.7215 5.66989 30.8213 5.27361 30.9611Z" fill="#203864"/>
<path d="M42.098 6.58045C42.0881 5.76178 42.2961 5.19271 42.8509 4.86324C44.5351 3.85489 46.2292 2.84653 47.9432 1.89807C48.6862 1.48874 49.6274 1.77827 50.1722 2.43719C50.7171 3.08614 50.7964 4.00464 50.3208 4.71349C50.1524 4.96308 49.9147 5.20269 49.6472 5.36243C48.1413 6.26097 46.6255 7.13954 45.1097 8.0181C44.4856 8.37752 43.8416 8.47736 43.168 8.15788C42.4546 7.81843 42.1376 7.18945 42.098 6.58045Z" fill="#203864"/>
</svg>
