<svg width="29" height="23" viewBox="0 0 29 23" fill="none" xmlns="http://www.w3.org/2000/svg">
<path d="M14.114 17.14C13.0372 17.14 11.9552 17.1348 10.8784 17.1453C10.692 17.1453 10.5833 17.0983 10.516 16.9053C10.0087 15.4863 9.24765 14.2081 8.28475 13.0604C7.17689 11.7457 6.51424 10.238 6.39 8.52681C6.2554 6.64869 6.73685 4.91144 7.82918 3.36721C9.02505 1.66125 10.6661 0.61264 12.6955 0.252668C15.1649 -0.185559 17.3806 0.430046 19.2702 2.12035C20.7611 3.4559 21.6101 5.14098 21.812 7.14952C22.0346 9.38761 21.3616 11.3388 19.9432 13.0552C18.9802 14.2185 18.2141 15.4967 17.7015 16.9262C17.6394 17.0983 17.5462 17.1453 17.3754 17.1453C16.2831 17.14 15.1959 17.14 14.114 17.14ZM9.11823 7.75991C9.11823 7.786 9.11823 7.81208 9.11823 7.83816C9.11823 8.32334 9.41331 8.66245 9.84817 8.67288C10.2727 8.68332 10.5936 8.33899 10.6144 7.86425C10.6247 7.69209 10.6402 7.51993 10.6661 7.34777C10.8059 6.53392 11.1735 5.84528 11.7895 5.29228C12.4522 4.70797 13.2287 4.42626 14.1036 4.39495C14.554 4.3793 14.875 4.03498 14.8594 3.60719C14.8439 3.20026 14.5022 2.88203 14.0622 2.89246C13.7464 2.9029 13.4254 2.93942 13.1148 2.9968C10.9094 3.40373 9.18035 5.41748 9.11823 7.75991Z" fill="#203864"/>
<path d="M14.1296 18.6893C15.1753 18.6893 16.2159 18.6893 17.2616 18.6893C17.6085 18.6893 17.6085 18.6893 17.6085 19.0545C17.6085 19.4615 17.6344 19.8736 17.5981 20.2805C17.5722 20.5466 17.505 20.8335 17.3807 21.0683C17.1529 21.4857 16.8837 21.8821 16.6042 22.263C16.3246 22.649 15.9208 22.8577 15.4549 22.8682C14.5593 22.889 13.6637 22.889 12.7629 22.8682C12.2918 22.8577 11.8932 22.6386 11.6136 22.2578C11.3341 21.8717 11.0649 21.4752 10.8371 21.0579C10.718 20.8387 10.6455 20.5727 10.6248 20.3223C10.5886 19.8736 10.6248 19.4197 10.6093 18.9658C10.6041 18.7415 10.687 18.6841 10.894 18.6893C11.976 18.6946 13.0528 18.6893 14.1296 18.6893Z" fill="#203864"/>
<path d="M2.40384 9.67408C2.00004 9.67408 1.59107 9.66365 1.18727 9.67408C0.472854 9.69495 0.0587014 9.26716 0.0069323 8.7559C-0.0551907 8.12986 0.302016 7.66033 1.00608 7.61859C1.98451 7.56121 2.96813 7.58207 3.94656 7.63946C4.5212 7.67076 4.90429 8.17681 4.86805 8.67242C4.82664 9.24629 4.37625 9.66365 3.77572 9.67408C3.32016 9.6793 2.85941 9.67408 2.40384 9.67408Z" fill="#203864"/>
<path d="M25.7934 9.67385C25.3378 9.67385 24.8823 9.67907 24.4215 9.67385C23.5777 9.6582 23.0859 8.79218 23.5259 8.08267C23.7589 7.70705 24.1316 7.59749 24.5251 7.59227C25.3689 7.57662 26.2127 7.57662 27.0566 7.59227C27.6985 7.60271 28.1593 7.97311 28.211 8.49481C28.2783 9.1365 27.8124 9.6582 27.1601 9.67385C27.1498 9.67385 27.1446 9.67385 27.1342 9.67385C26.6942 9.67385 26.2438 9.67385 25.7934 9.67385Z" fill="#203864"/>
<path d="M2.74038 0.972748C2.93192 1.04057 3.139 1.0823 3.31501 1.18143C4.12779 1.64052 4.93021 2.11005 5.73263 2.5848C6.15714 2.83521 6.32798 3.28909 6.20891 3.74818C6.10019 4.16554 5.72228 4.47335 5.25636 4.49421C5.12693 4.49943 4.97163 4.46813 4.85773 4.40552C3.95177 3.88904 3.04581 3.37256 2.15539 2.82999C1.77747 2.59523 1.6584 2.11005 1.80336 1.69791C1.94831 1.2649 2.29516 1.00927 2.74038 0.972748Z" fill="#203864"/>
<path d="M26.4613 15.1365C26.4664 15.893 25.7934 16.4095 25.1619 16.1904C24.8875 16.0965 24.639 15.9347 24.3853 15.7887C23.7382 15.413 23.0807 15.0426 22.4491 14.6409C21.9729 14.3383 21.8538 13.754 22.1334 13.2689C22.3922 12.8202 22.9824 12.6324 23.4638 12.9037C24.3387 13.3889 25.1981 13.9001 26.0575 14.4166C26.3422 14.5888 26.4302 14.8966 26.4613 15.1365Z" fill="#203864"/>
<path d="M2.75564 16.2949C2.28454 16.2479 1.94286 16.0027 1.79791 15.5749C1.65296 15.1471 1.77202 14.6724 2.14476 14.4428C2.99378 13.9159 3.85832 13.4047 4.73322 12.9195C5.17326 12.6743 5.65471 12.7891 5.96015 13.1334C6.26041 13.4673 6.31218 13.9733 6.04815 14.3646C5.94462 14.5211 5.77378 14.6515 5.60812 14.7506C4.86782 15.1941 4.12234 15.6323 3.37169 16.0549C3.18532 16.1697 2.96271 16.2218 2.75564 16.2949Z" fill="#203864"/>
<path d="M21.9981 3.55464C21.9929 3.12685 22.1016 2.82948 22.3915 2.65732C23.2716 2.1304 24.1569 1.60349 25.0525 1.10787C25.4407 0.893975 25.9326 1.04527 26.2173 1.38959C26.502 1.72869 26.5434 2.20866 26.2949 2.57906C26.2069 2.70949 26.0827 2.83469 25.9429 2.91817C25.156 3.3877 24.364 3.84679 23.5719 4.30589C23.2457 4.4937 22.9092 4.54587 22.5572 4.37892C22.1845 4.20155 22.0188 3.87288 21.9981 3.55464Z" fill="#203864"/>
</svg>
