<svg width="36" height="32" viewBox="0 0 36 32" fill="none" xmlns="http://www.w3.org/2000/svg">
<path d="M36 7.82609V27.9503C36 29.802 34.4883 31.3043 32.625 31.3043H3.375C1.51172 31.3043 0 29.802 0 27.9503V7.82609C0 5.97438 1.51172 4.47205 3.375 4.47205H9.5625L10.4273 2.17314C10.9195 0.866459 12.1781 0 13.5844 0H22.4086C23.8148 0 25.0734 0.866459 25.5656 2.17314L26.4375 4.47205H32.625C34.4883 4.47205 36 5.97438 36 7.82609ZM26.4375 17.8882C26.4375 13.2624 22.6547 9.50311 18 9.50311C13.3453 9.50311 9.5625 13.2624 9.5625 17.8882C9.5625 22.514 13.3453 26.2733 18 26.2733C22.6547 26.2733 26.4375 22.514 26.4375 17.8882ZM24.1875 17.8882C24.1875 21.2772 21.4102 24.0373 18 24.0373C14.5898 24.0373 11.8125 21.2772 11.8125 17.8882C11.8125 14.4992 14.5898 11.7391 18 11.7391C21.4102 11.7391 24.1875 14.4992 24.1875 17.8882Z" fill="black"/>
</svg>
