<svg width="84" height="84" viewBox="0 0 84 84" fill="none" xmlns="http://www.w3.org/2000/svg">
<circle cx="41.625" cy="41.625" r="41.625" fill="#F3F3F3"/>
<circle cx="41.6252" cy="41.6243" r="34.3859" fill="#F3F3F3"/>
<path d="M63.9459 32.3647V56.645C63.9459 58.8791 62.122 60.6917 59.8739 60.6917H24.5832C22.3351 60.6917 20.5112 58.8791 20.5112 56.645V32.3647C20.5112 30.1306 22.3351 28.318 24.5832 28.318H32.0485L33.092 25.5443C33.6858 23.9677 35.2043 22.9223 36.901 22.9223H47.5476C49.2443 22.9223 50.7628 23.9677 51.3566 25.5443L52.4086 28.318H59.8739C62.122 28.318 63.9459 30.1306 63.9459 32.3647ZM52.4086 44.5048C52.4086 38.9237 47.8445 34.388 42.2285 34.388C36.6126 34.388 32.0485 38.9237 32.0485 44.5048C32.0485 50.0859 36.6126 54.6216 42.2285 54.6216C47.8445 54.6216 52.4086 50.0859 52.4086 44.5048ZM49.6939 44.5048C49.6939 48.5937 46.343 51.9238 42.2285 51.9238C38.1141 51.9238 34.7632 48.5937 34.7632 44.5048C34.7632 40.416 38.1141 37.0859 42.2285 37.0859C46.343 37.0859 49.6939 40.416 49.6939 44.5048Z" fill="black"/>
</svg>
