<svg width="56" height="51" viewBox="0 0 56 51" fill="none" xmlns="http://www.w3.org/2000/svg">
<path d="M40.15 8.72826V31.1724C40.15 33.2375 38.464 34.913 36.3859 34.913H3.76406C1.68599 34.913 0 33.2375 0 31.1724V8.72826C0 6.66309 1.68599 4.98758 3.76406 4.98758H10.6648L11.6294 2.42365C12.1783 0.966343 13.582 0 15.1504 0H24.9918C26.5602 0 27.9639 0.966343 28.5128 2.42365L29.4852 4.98758H36.3859C38.464 4.98758 40.15 6.66309 40.15 8.72826ZM29.4852 19.9503C29.4852 14.7913 25.2663 10.5986 20.075 10.5986C14.8837 10.5986 10.6648 14.7913 10.6648 19.9503C10.6648 25.1093 14.8837 29.302 20.075 29.302C25.2663 29.302 29.4852 25.1093 29.4852 19.9503ZM26.9758 19.9503C26.9758 23.73 23.8783 26.8082 20.075 26.8082C16.2717 26.8082 13.1742 23.73 13.1742 19.9503C13.1742 16.1707 16.2717 13.0924 20.075 13.0924C23.8783 13.0924 26.9758 16.1707 26.9758 19.9503Z" fill="#203864"/>
<g clip-path="url(#clip0_4_1289)">
<path d="M46.6667 37.7881H48C49.4708 37.7881 50.6667 38.9652 50.6667 40.4131V48.2881C50.6667 49.7359 49.4708 50.9131 48 50.9131H34.6667C33.1938 50.9131 32 49.7359 32 48.2881V40.4131C32 38.9652 33.1938 37.7881 34.6667 37.7881H44V35.8193C44 32.5574 46.6875 29.9131 50 29.9131C53.3125 29.9131 56 32.5574 56 35.8193V37.7881C56 38.5141 55.4042 39.1006 54.6667 39.1006C53.9292 39.1006 53.3333 38.5141 53.3333 37.7881V35.8193C53.3333 34.0073 51.8417 32.5381 50 32.5381C48.1583 32.5381 46.6667 34.0073 46.6667 35.8193V37.7881Z" fill="#203864"/>
</g>
<defs>
<clipPath id="clip0_4_1289">
<rect width="24" height="21" fill="white" transform="translate(32 29.9131)"/>
</clipPath>
</defs>
</svg>
