<svg width="35" height="23" viewBox="0 0 35 23" fill="none" xmlns="http://www.w3.org/2000/svg">
<path d="M17.5604 11.5C20.47 11.5 22.828 9.14151 22.828 6.23239C22.828 3.32327 20.47 0.964783 17.5604 0.964783C14.6509 0.964783 12.2928 3.32327 12.2928 6.23239C12.2928 9.14151 14.6509 11.5 17.5604 11.5ZM19.6469 13.4753H15.474C11.5344 13.4753 8.34213 16.6688 8.34213 20.6072C8.34213 21.3973 8.98083 22.0352 9.7685 22.0352H25.3507C26.1409 22.0352 26.7787 21.3973 26.7787 20.6072C26.7787 16.6688 23.5853 13.4753 19.6469 13.4753ZM28.0586 14.1338H25.0195C26.9104 15.6853 28.0956 18.0063 28.0956 20.6072C28.0956 21.1339 27.9393 21.6196 27.6841 22.0352H33.3633C34.0917 22.0352 34.6802 21.4426 34.6802 20.6813C34.6802 17.0804 31.7336 14.1338 28.0586 14.1338ZM26.1203 11.5C28.6677 11.5 30.7295 9.43822 30.7295 6.89084C30.7295 4.34346 28.6677 2.28168 26.1203 2.28168C25.0869 2.28168 24.1433 2.63375 23.3746 3.20804C23.8486 4.11835 24.1449 5.13771 24.1449 6.23239C24.1449 7.69415 23.654 9.03656 22.8449 10.13C23.6799 10.9732 24.8363 11.5 26.1203 11.5Z" fill="#203864"/>
<path d="M17.7998 11.5C14.8902 11.5 12.5322 9.14151 12.5322 6.23239C12.5322 3.32327 14.8902 0.964783 17.7998 0.964783C20.7093 0.964783 23.0674 3.32327 23.0674 6.23239C23.0674 9.14151 20.7093 11.5 17.7998 11.5ZM15.7133 13.4753H19.8862C23.8258 13.4753 27.0181 16.6688 27.0181 20.6072C27.0181 21.3973 26.3794 22.0352 25.5917 22.0352H10.0095C9.21932 22.0352 8.58145 21.3973 8.58145 20.6072C8.58145 16.6688 11.7749 13.4753 15.7133 13.4753ZM7.30159 14.1338H10.3407C8.44976 15.6853 7.26455 18.0063 7.26455 20.6072C7.26455 21.134 7.42093 21.6196 7.67608 22.0352H1.99694C1.26853 22.0352 0.680042 21.4426 0.680042 20.6813C0.680042 17.0804 3.62661 14.1338 7.30159 14.1338ZM9.2399 11.5C6.69252 11.5 4.63074 9.43822 4.63074 6.89084C4.63074 4.34346 6.69252 2.28168 9.2399 2.28168C10.2733 2.28168 11.2169 2.63375 11.9856 3.20804C11.5116 4.11835 11.2153 5.13771 11.2153 6.23239C11.2153 7.69415 11.7062 9.03657 12.5153 10.13C11.6803 10.9732 10.5239 11.5 9.2399 11.5Z" fill="#203864"/>
</svg>
