<svg width="38" height="27" viewBox="0 0 38 27" fill="none" xmlns="http://www.w3.org/2000/svg">
<path d="M7.93515 18.3492C6.37227 18.3335 4.85283 17.8328 3.58668 16.9165C1.82101 15.752 0.735717 13.7983 0.680038 11.6839V8.65615C0.680038 7.31841 1.7645 6.23395 3.10224 6.23395H6.73555C7.06999 6.23395 7.3411 6.50506 7.3411 6.8395C7.3411 7.17394 7.06999 7.44505 6.73555 7.44505H3.10224C2.43337 7.44505 1.89114 7.98728 1.89114 8.65615V11.6839C1.95018 13.4058 2.84574 14.9905 4.29034 15.9294C5.82874 17.0843 7.82919 17.4276 9.6646 16.8517C9.8708 16.7727 10.1036 16.8122 10.2722 16.9548C10.4408 17.0974 10.5184 17.3205 10.4748 17.5369C10.4311 17.7533 10.2731 17.9289 10.0625 17.995C9.37819 18.2313 8.65908 18.3511 7.93515 18.3492Z" fill="url(#paint0_linear_1_241)"/>
<path d="M29.7589 18.3528C28.6188 18.3581 27.4984 18.056 26.5155 17.4784C26.2274 17.3085 26.1316 16.9372 26.3015 16.6491C26.4714 16.361 26.8427 16.2652 27.1308 16.4351C28.9217 17.4238 31.1074 17.3666 32.8442 16.2855C34.5788 15.3874 35.7052 13.6349 35.8017 11.6839V8.65615C35.8017 7.98728 35.2594 7.44505 34.5906 7.44505H30.9573C30.6228 7.44505 30.3517 7.17394 30.3517 6.8395C30.3517 6.50506 30.6228 6.23395 30.9573 6.23395H34.5906C35.9283 6.23395 37.0128 7.31841 37.0128 8.65615V11.6839C36.9167 14.0698 35.5572 16.224 33.4449 17.3373C32.3255 17.9908 31.055 18.3408 29.7589 18.3528Z" fill="#32335C"/>
<path d="M30.9582 6.83806V13.4991C31.0082 19.9515 26.1941 25.4075 19.7858 26.1612C19.1621 26.2339 18.5322 26.2339 17.9085 26.1612C11.5002 25.4075 6.68608 19.9515 6.73612 13.4991V6.83806L9.15833 6.832C12.2239 6.76518 15.0951 5.31625 16.9699 2.88986C17.4272 2.32418 18.1153 1.99495 18.8427 1.99378C19.5701 1.9926 20.2592 2.31961 20.7183 2.88381C22.5941 5.31314 25.4675 6.76432 28.536 6.832L30.9582 6.83806Z" fill="#203864"/>
<path d="M30.9578 6.83966V8.05076L28.5356 8.04471C25.4671 7.97702 22.5937 6.52584 20.7179 4.09651C20.2588 3.53231 19.5697 3.20531 18.8423 3.20648C18.1149 3.20766 17.4268 3.53689 16.9696 4.10257C15.0947 6.52896 12.2236 7.97789 9.15794 8.04471L6.73573 8.05076V6.83966C6.73773 6.17162 7.27879 5.63055 7.94684 5.62856H8.86122C11.2928 5.59978 13.5819 4.47637 15.0923 2.57052C16.0111 1.44026 17.3902 0.784058 18.8468 0.784058C20.3033 0.784058 21.6824 1.44026 22.6012 2.57052C24.1116 4.47637 26.4007 5.59978 28.8323 5.62856H29.7467C30.4147 5.63055 30.9558 6.17162 30.9578 6.83966Z" fill="#203864"/>
<path d="M18.8475 16.5212C16.1161 16.5202 13.4006 16.1051 10.7937 15.2901C10.5871 15.2258 10.4304 15.0562 10.3828 14.8452C10.3351 14.6341 10.4037 14.4137 10.5626 14.2669C10.7216 14.1201 10.9468 14.0692 11.1534 14.1335C16.1617 15.7018 21.5297 15.7018 26.538 14.1335C26.7446 14.0692 26.9698 14.1201 27.1287 14.2669C27.2877 14.4137 27.3563 14.6341 27.3086 14.8452C27.2609 15.0562 27.1043 15.2258 26.8977 15.2901C24.2919 16.1047 21.5777 16.5198 18.8475 16.5212Z" fill="white"/>
<path d="M18.8462 12.2873C16.1793 12.2893 13.5163 12.0857 10.8808 11.6781C10.5537 11.6231 10.3317 11.3153 10.3828 10.9877C10.4339 10.66 10.739 10.4343 11.0673 10.4815C16.2229 11.2748 21.4695 11.2748 26.6251 10.4815C26.8401 10.4454 27.058 10.5277 27.1955 10.6969C27.333 10.8662 27.3688 11.0963 27.2894 11.2993C27.2099 11.5024 27.0274 11.6471 26.8116 11.6781C24.1761 12.0857 21.5131 12.2893 18.8462 12.2873Z" fill="white"/>
<path d="M18.8473 21.3779C16.0298 21.3697 13.2502 20.7281 10.7141 19.5006C10.5046 19.4166 10.3592 19.223 10.3369 18.9983C10.3147 18.7736 10.4193 18.5552 10.6082 18.4317C10.7972 18.3082 11.0392 18.3001 11.2361 18.4107C16.0389 20.7572 21.6556 20.7572 26.4584 18.4107C26.6553 18.3001 26.8973 18.3082 27.0863 18.4317C27.2752 18.5552 27.3798 18.7736 27.3576 18.9983C27.3353 19.223 27.19 19.4166 26.9804 19.5006C24.4443 20.7281 21.6647 21.3697 18.8473 21.3779Z" fill="white"/>
<defs>
<linearGradient id="paint0_linear_1_241" x1="11.1465" y1="19.9319" x2="-1.70502" y2="17.6" gradientUnits="userSpaceOnUse">
<stop stop-color="#485B7E"/>
<stop offset="1" stop-color="#203864"/>
</linearGradient>
</defs>
</svg>
