<svg width="65" height="40" viewBox="0 0 65 40" fill="none" xmlns="http://www.w3.org/2000/svg">
<path d="M32.5 20C38.0234 20 42.5 15.5227 42.5 10C42.5 4.47734 38.0234 0 32.5 0C26.9766 0 22.5 4.47734 22.5 10C22.5 15.5227 26.9766 20 32.5 20ZM36.4609 23.75H28.5391C21.0602 23.75 15 29.8125 15 37.2891C15 38.7891 16.2125 40 17.7078 40H47.2891C48.7891 40 50 38.7891 50 37.2891C50 29.8125 43.9375 23.75 36.4609 23.75ZM52.4297 25H46.6602C50.25 27.9453 52.5 32.3516 52.5 37.2891C52.5 38.2891 52.2031 39.2109 51.7188 40H62.5C63.8828 40 65 38.875 65 37.4297C65 30.5938 59.4063 25 52.4297 25ZM48.75 20C53.5859 20 57.5 16.0859 57.5 11.25C57.5 6.41406 53.5859 2.5 48.75 2.5C46.7883 2.5 44.9969 3.16836 43.5375 4.25859C44.4375 5.98672 45 7.92188 45 10C45 12.775 44.068 15.3234 42.532 17.3992C44.1172 19 46.3125 20 48.75 20Z" fill="#203864"/>
<path d="M32.9541 20C27.4307 20 22.9541 15.5227 22.9541 10C22.9541 4.47734 27.4307 0 32.9541 0C38.4775 0 42.9541 4.47734 42.9541 10C42.9541 15.5227 38.4775 20 32.9541 20ZM28.9932 23.75H36.915C44.3939 23.75 50.4541 29.8125 50.4541 37.2891C50.4541 38.7891 49.2416 40 47.7463 40H18.165C16.665 40 15.4541 38.7891 15.4541 37.2891C15.4541 29.8125 21.5166 23.75 28.9932 23.75ZM13.0244 25H18.7939C15.2041 27.9453 12.9541 32.3516 12.9541 37.2891C12.9541 38.2891 13.251 39.2109 13.7354 40H2.9541C1.57129 40 0.454102 38.875 0.454102 37.4297C0.454102 30.5938 6.04785 25 13.0244 25ZM16.7041 20C11.8682 20 7.9541 16.0859 7.9541 11.25C7.9541 6.41406 11.8682 2.5 16.7041 2.5C18.6658 2.5 20.4572 3.16836 21.9166 4.25859C21.0166 5.98672 20.4541 7.92188 20.4541 10C20.4541 12.775 21.3861 15.3234 22.9221 17.3992C21.3369 19 19.1416 20 16.7041 20Z" fill="#203864"/>
</svg>
