<svg width="90" height="90" viewBox="0 0 90 90" fill="none" xmlns="http://www.w3.org/2000/svg">
<path d="M45 90C20.1445 90 0 69.8555 0 45C0 20.1445 20.1445 0 45 0C69.8555 0 90 20.1445 90 45C90 69.8555 69.8555 90 45 90ZM40.7812 45C40.7812 46.4062 41.4844 47.7246 42.6621 48.3574L59.5371 59.6074C61.4707 61.0488 64.0898 60.5215 65.2324 58.5879C66.6738 56.6543 66.1465 54.0352 64.2129 52.7344L49.2188 42.75V21.0938C49.2188 18.7559 47.3379 16.875 44.8418 16.875C42.6621 16.875 40.623 18.7559 40.623 21.0938L40.7812 45Z" fill="#203864"/>
</svg>
