<svg width="23" height="23" viewBox="0 0 23 23" fill="none" xmlns="http://www.w3.org/2000/svg">
<path d="M0 11.5C0 5.14805 5.14805 0 11.5 0C17.852 0 23 5.14805 23 11.5C23 17.852 17.852 23 11.5 23C5.14805 23 0 17.852 0 11.5ZM16.702 9.51445C17.1916 9.0248 17.1916 8.2252 16.702 7.73555C16.2123 7.2459 15.4127 7.2459 14.923 7.73555L10.0625 12.5961L8.07695 10.6105C7.5873 10.1209 6.7877 10.1209 6.29805 10.6105C5.8084 11.1002 5.8084 11.8998 6.29805 12.3895L9.17305 15.2645C9.6627 15.7541 10.4623 15.7541 10.952 15.2645L16.702 9.51445Z" fill="#52C41A"/>
</svg>
