<svg width="118" height="79" viewBox="0 0 118 79" fill="none" xmlns="http://www.w3.org/2000/svg">
<rect x="1" y="1" width="116.118" height="77" rx="6.64796" fill="#C0E1F6" stroke="#32335C" stroke-width="1.35882"/>
<rect x="9.30957" y="55.0146" width="40.7188" height="6.64796" rx="3.32398" fill="#53607E"/>
<rect x="15.958" y="66.6484" width="28.2538" height="6.64796" rx="3.32398" fill="#203864"/>
<rect x="57.5078" y="55.0146" width="54.0147" height="6.64796" rx="3.32398" fill="#53607E"/>
<rect x="57.5078" y="64.9863" width="54.0147" height="6.64796" rx="3.32398" fill="#53607E"/>
<rect x="70.8037" y="10.1406" width="40.7188" height="34.0708" rx="3.32398" fill="white"/>
<g clip-path="url(#clip0_4_330)">
<path d="M90.757 27.172C90.757 27.7097 91.1932 28.1093 91.6943 28.1093C94.6259 28.0637 97.452 28.439 100.276 29.2353C100.71 29.3794 101.55 29.1805 101.55 28.3325C101.55 27.9065 101.271 27.5161 100.84 27.3944C98.8977 26.8466 95.7519 26.1731 91.7308 26.1974C91.1952 26.1982 90.757 26.6324 90.757 27.172ZM87.4419 27.2086C87.4338 29.7283 89.349 31.4285 91.5441 31.3919C93.4865 31.3615 95.4342 31.5441 97.3262 31.9344C97.8172 32.046 98.3658 31.7062 98.4774 31.1789C98.5839 30.6879 98.2491 30.1394 97.7218 30.0278C95.6882 29.607 93.5993 29.4143 91.5502 29.4447C90.4567 29.4605 89.3814 28.6733 89.3896 27.237C89.4098 25.9641 90.419 24.9144 91.6415 24.899C93.5527 24.8635 95.547 25.0106 97.4642 25.3299C97.9551 25.4161 98.4936 25.056 98.5849 24.5236C98.7168 23.7174 97.9714 23.4382 97.7786 23.4078C95.7864 23.0731 93.6764 22.916 91.6476 22.9513C89.3409 22.9887 87.4744 24.8957 87.4419 27.2086ZM86.6385 31.6963C86.2977 32.1182 86.3585 32.7269 86.7765 33.0718C88.0546 34.1044 89.6736 34.6672 91.321 34.6421C92.8474 34.6167 94.3792 34.7384 95.8695 35.0072C96.3605 35.1036 96.9042 34.7537 97.0004 34.2261C97.1424 33.4097 96.397 33.1257 96.2144 33.1265C94.5967 32.8375 92.9432 32.7005 91.2885 32.7309C90.0794 32.7107 88.9432 32.3211 88.01 31.5948C87.588 31.2175 86.9794 31.2783 86.6385 31.6963ZM84.1082 27.2938C84.0932 27.8821 84.1642 28.511 84.3111 29.1156C84.3963 29.6378 84.9238 29.9624 85.4825 29.8407C86.0047 29.7139 86.3245 29.228 86.2027 28.7005C86.1029 28.2148 86.0502 27.7563 86.0542 27.2816C86.0999 24.2234 88.5496 21.6983 91.5157 21.6456C93.0524 21.6253 94.563 21.7014 96.1252 21.8738C96.6575 21.9347 97.103 21.5492 97.2004 21.0168C97.2451 20.3372 96.7188 19.9821 96.3435 19.9416C94.7306 19.7539 93.1075 19.6728 91.4865 19.6982C87.4825 19.7669 84.1691 23.155 84.1082 27.2938ZM89.0366 17.0281C88.5456 17.1447 88.1743 17.6574 88.2908 18.1897C88.4074 18.6807 88.9298 19.0467 89.452 18.9303C90.3244 18.7375 90.9736 18.7324 91.9523 18.7375C92.49 18.7426 92.931 18.3115 92.9363 17.7738C92.9363 17.2415 92.5054 16.7951 91.9678 16.7899C91.0735 16.7846 90.1808 16.7765 89.0366 17.0281ZM85.3563 18.6917C82.5416 20.6697 80.824 23.9016 80.7753 27.3465C80.7398 30.1763 81.7832 32.7918 83.7357 34.7394C85.6172 36.621 88.1179 37.6341 90.7797 37.5936L91.6521 37.5986C92.1934 37.5783 92.6397 37.1574 92.6559 36.6197C92.66 36.6096 92.66 36.5994 92.66 36.5893C92.66 36.0983 92.2392 35.6309 91.7117 35.652L90.7533 35.6469C88.6227 35.641 86.6182 34.8348 85.1129 33.3274C83.5405 31.7502 82.6937 29.62 82.7242 27.3343C82.7282 24.5196 84.1695 21.8688 86.4722 20.2498C86.9132 19.9404 87.0199 19.3368 86.7105 18.8958C86.3991 18.4888 85.7986 18.3468 85.3563 18.6917Z" fill="#32335C"/>
</g>
<rect x="9.72507" y="6.40085" width="44.0427" height="44.0427" rx="1.24649" fill="#53607E" fill-opacity="0.4" stroke="#32335C" stroke-width="0.830995"/>
<path fill-rule="evenodd" clip-rule="evenodd" d="M39.8267 24.6375L39.8265 24.6338C39.9322 23.4607 40.0957 20.0743 38.7239 17.8419C37.0603 15.1478 34.3342 14.3593 32.0281 14.3978C29.7187 14.3593 26.9926 15.1478 25.329 17.8419C23.9588 20.0647 24.1223 23.4559 24.2296 24.6242V24.6333C23.8446 24.505 23.4249 24.5305 23.0581 24.7043C22.2183 25.1034 21.8529 26.4368 22.6543 27.6564C23.2614 28.5831 24.2859 28.7484 25.0671 28.5699C25.0961 28.6452 25.1247 28.7209 25.1531 28.796C25.1771 28.8596 25.201 28.9228 25.2249 28.985L25.3242 29.2334C25.8291 30.5226 26.5723 31.7051 27.515 32.7191C27.9213 33.1487 28.3757 33.5299 28.8693 33.8554C29.7553 34.4556 30.7948 34.7893 31.8646 34.817H32.1851C33.255 34.7898 34.2946 34.456 35.1804 33.8554C35.554 33.6089 35.9052 33.3305 36.2301 33.0235C35.905 33.3328 35.5532 33.6134 35.1788 33.8618C34.293 34.4624 33.2534 34.7962 32.1835 34.8234H31.863C30.7932 34.7957 29.7537 34.462 28.8677 33.8618C28.3741 33.5363 27.9197 33.1551 27.5134 32.7255V38.035C27.5952 38.5527 28.6321 38.995 30.1001 39.2018C30.7177 39.2875 31.3404 39.3309 31.9639 39.3316H32.0761C32.6997 39.3309 33.3224 39.2875 33.94 39.2018C35.416 38.9886 36.4561 38.5479 36.5282 38.027V32.726L36.5363 32.7175C37.4784 31.704 38.2211 30.522 38.7255 29.2334L38.8248 28.985C38.8802 28.8488 38.9325 28.708 38.9832 28.5686C39.7651 28.7492 40.7932 28.5854 41.4019 27.6564C42.1968 26.4368 41.8378 25.1034 40.9948 24.7092C40.6291 24.5357 40.2107 24.51 39.8267 24.6375ZM24.7441 27.5731C24.7762 27.6839 24.8091 27.7938 24.843 27.9026C24.8076 27.7968 24.7725 27.6901 24.7377 27.5827C24.712 27.4977 24.6816 27.392 24.6624 27.3198L24.6623 27.3196L24.6622 27.3194C24.643 27.2474 24.6175 27.1514 24.6047 27.0971C24.5996 27.0754 24.5955 27.057 24.5913 27.0381L24.5912 27.0379C24.5849 27.0095 24.5784 26.9801 24.5678 26.9368C24.559 26.9008 24.5514 26.8635 24.5438 26.8262C24.5361 26.789 24.5285 26.7517 24.5197 26.7157C24.5021 26.6435 24.4877 26.5714 24.4732 26.4961L24.4636 26.4464C24.446 26.3503 24.4284 26.2525 24.4123 26.1531C24.3995 26.0837 24.3883 26.0132 24.3787 25.9416C24.377 25.9333 24.3752 25.925 24.3734 25.9166L24.3734 25.9164C24.3665 25.8842 24.3595 25.8515 24.3595 25.8198C24.345 25.7188 24.3306 25.6162 24.3178 25.5121C24.3028 25.3978 24.29 25.2872 24.2793 25.1803C24.2697 25.1355 24.2649 25.0906 24.2649 25.0457C24.2649 25.0457 24.2761 25.0153 24.2649 24.9912C24.2588 24.9782 24.2584 24.9571 24.258 24.9375C24.2577 24.921 24.2573 24.9055 24.2537 24.8967C24.2488 24.8848 24.2487 24.8827 24.2482 24.8713C24.2479 24.8641 24.2475 24.8533 24.2457 24.8342L24.2448 24.8255L24.2441 24.8192C24.2446 24.8212 24.2451 24.823 24.2457 24.8245C24.2493 24.8347 24.249 24.8406 24.2486 24.8476C24.2481 24.856 24.2476 24.8661 24.2537 24.887C24.2598 24.908 24.2602 24.9238 24.2606 24.9394C24.2609 24.9525 24.2613 24.9656 24.2649 24.9816C24.2729 25.0169 24.2729 25.0361 24.2729 25.0361C24.2742 25.054 24.2765 25.072 24.2788 25.0899C24.2823 25.1169 24.2857 25.1438 24.2857 25.1707C24.2961 25.2748 24.3093 25.3816 24.3214 25.4797L24.3242 25.5025C24.337 25.6066 24.3514 25.7092 24.3659 25.8102C24.3681 25.8241 24.3701 25.8382 24.3722 25.8524C24.376 25.879 24.3799 25.9058 24.3851 25.932C24.3947 26.0035 24.4059 26.0741 24.4188 26.1435C24.4348 26.2429 24.4524 26.3406 24.47 26.4368L24.4797 26.4865C24.4869 26.5241 24.4949 26.5602 24.5029 26.5963C24.5109 26.6323 24.5189 26.6684 24.5261 26.706C24.5343 26.749 24.5452 26.7965 24.555 26.8399C24.5625 26.8727 24.5694 26.9031 24.5742 26.9272C24.5854 26.9833 24.5982 27.0362 24.6111 27.0875L24.6211 27.1269C24.6358 27.1847 24.6491 27.2367 24.6688 27.3102C24.6928 27.4 24.7184 27.4881 24.7441 27.5731ZM24.2352 24.7339C24.2359 24.7438 24.2366 24.7535 24.2373 24.7626C24.2343 24.7367 24.2317 24.7099 24.2313 24.6819C24.2328 24.6992 24.2341 24.7169 24.2352 24.7339Z" fill="#FFD6CB"/>
<g style="mix-blend-mode:multiply" opacity="0.15">
<path fill-rule="evenodd" clip-rule="evenodd" d="M36.2079 33.0472V37.7429C32.2141 37.8054 29.2557 35.7492 27.8438 34.52V33.0439C28.1614 33.3475 28.5064 33.6211 28.8742 33.8613C29.7605 34.461 30.7998 34.7946 31.8696 34.8229H32.1901C33.2598 34.7946 34.2991 34.461 35.1854 33.8613C35.5498 33.6209 35.892 33.3485 36.2079 33.0472Z" fill="#7C3830"/>
</g>
<path d="M12.2031 50.3363C12.2343 50.2124 12.2507 50.1464 12.2824 50.0262C12.3045 49.9427 12.3264 49.8601 12.3474 49.7786C12.4372 49.458 12.5285 49.1375 12.6215 48.8442L12.6548 48.7385C12.6788 48.6624 12.7026 48.5871 12.7256 48.5125L12.7256 48.5125C12.7513 48.4323 12.7769 48.3522 12.8026 48.2785C12.8731 48.0669 12.9436 47.8618 13.0141 47.6647C13.1733 47.2224 13.3336 46.8153 13.4949 46.4435C13.535 46.3489 13.575 46.256 13.6151 46.1662L13.6391 46.1133C13.7257 45.9146 13.8138 45.7287 13.902 45.5524C14.1525 45.0274 14.4497 44.5259 14.7898 44.0539C14.7943 44.0472 14.7992 44.0408 14.8039 44.0346L14.8039 44.0346L14.8039 44.0346C14.8093 44.0275 14.8144 44.0207 14.8187 44.0139C14.9068 43.8985 14.9918 43.7943 15.0735 43.7046L15.0831 43.6934C15.1407 43.6286 15.2018 43.5656 15.2625 43.5031L15.3235 43.4401C15.8403 42.9203 16.409 42.4547 17.0207 42.0507L17.2066 41.9273C17.3006 41.8653 17.3968 41.8044 17.4951 41.7446C17.7323 41.5971 17.9759 41.4545 18.2275 41.315C18.6426 41.0843 19.0721 40.8663 19.5096 40.6596C20.0385 40.4096 20.5769 40.1788 21.1122 39.9608L21.476 39.8166C21.5802 39.7749 21.686 39.7349 21.7965 39.6964C22.2645 39.5185 22.7293 39.355 23.1828 39.2028C24.0611 38.9079 24.8928 38.6611 25.6268 38.4576C26.3865 38.2476 27.0372 38.0841 27.5163 37.9688C27.514 37.9911 27.514 38.0137 27.5163 38.0361C27.5981 38.5537 28.6382 38.9976 30.103 39.2028C30.7206 39.2885 31.3433 39.3319 31.9669 39.3326H32.079C32.7026 39.3319 33.3253 39.2885 33.9429 39.2028C35.4189 38.9944 36.459 38.5489 36.5312 38.028C36.5327 38.0083 36.5327 37.9885 36.5312 37.9688C37.0119 38.0857 37.669 38.2492 38.4335 38.4608C39.1643 38.6627 39.9912 38.9095 40.8647 39.2028C41.4192 39.3887 41.9865 39.5922 42.5651 39.8166C42.8589 39.9298 43.1522 40.049 43.4449 40.174L43.7799 40.3166L44.0491 40.4352C44.6533 40.7077 45.2479 40.9993 45.812 41.315C46.1646 41.5106 46.5076 41.7141 46.8345 41.9273L46.9258 41.9882C47.0861 42.0907 47.2464 42.1965 47.3874 42.3087C47.8612 42.6444 48.3056 43.0197 48.716 43.4305C48.8025 43.5171 48.8859 43.6052 48.966 43.695C49.0638 43.8033 49.1558 43.9167 49.2416 44.0347V44.0443C49.3154 44.1437 49.3923 44.2527 49.4676 44.3649C49.7125 44.742 49.9341 45.1338 50.1311 45.538C50.2257 45.7303 50.3202 45.9338 50.418 46.1518C50.4789 46.2896 50.5398 46.4323 50.6007 46.5797C50.6424 46.6789 50.6828 46.7807 50.7242 46.8851L50.7385 46.9211C50.8293 47.1518 50.9207 47.3949 51.0126 47.6503C51.0831 47.8474 51.1536 48.0525 51.2241 48.2641C51.3053 48.513 51.387 48.7716 51.4693 49.0397L51.5051 49.1598L51.5055 49.1611C51.5277 49.2354 51.5501 49.3103 51.5719 49.3859L51.5817 49.4199L51.5818 49.4203C51.6129 49.5286 51.6474 49.6483 51.6792 49.7641C51.7353 49.9629 51.7385 50.1263 51.7882 50.3363H12.2031Z" fill="#F26E29"/>
<g style="mix-blend-mode:soft-light" opacity="0.8">
<path d="M38.4419 38.4594C38.046 39.0652 37.3841 39.546 36.5348 39.9018C35.8082 40.195 35.0481 40.3968 34.2718 40.5028C32.7871 40.7122 31.2804 40.7122 29.7957 40.5028C29.015 40.3957 28.2506 40.1922 27.5199 39.897C26.6754 39.5412 26.0183 39.0604 25.624 38.4546C26.3837 38.2447 27.0343 38.0812 27.5135 37.9658C27.5112 37.9882 27.5112 38.0108 27.5135 38.0331C27.5953 38.5508 28.6354 38.9947 30.1002 39.1998C30.7178 39.2856 31.3405 39.329 31.964 39.3297H32.0762C32.6997 39.329 33.3225 39.2856 33.9401 39.1998C35.4161 38.9915 36.4562 38.546 36.5283 38.0251C36.5299 38.0054 36.5299 37.9856 36.5283 37.9658C37.022 38.0844 37.6774 38.2479 38.4419 38.4594Z" fill="white"/>
</g>
<path fill-rule="evenodd" clip-rule="evenodd" d="M32.2021 14.0851L32.0408 14.0865C30.2779 14.0545 27.0309 14.4856 25.0853 17.6812C23.8473 19.6907 23.8064 22.5447 23.8989 24.1087L23.9066 24.2326C23.5707 24.201 23.2296 24.2601 22.9202 24.4075C22.4506 24.6471 22.1072 25.0776 21.9778 25.5886C21.7833 26.3602 21.9317 27.1782 22.3849 27.8323L22.4162 27.8796C22.8824 28.5667 23.666 28.9724 24.4988 28.9542C24.6205 28.9511 24.7418 28.9405 24.8617 28.922C24.885 28.9844 24.9087 29.047 24.9331 29.1096L25.0324 29.3596C25.5378 30.6425 26.2709 31.8231 27.1958 32.8447L27.204 32.8536L27.2041 37.7105C26.6502 37.8463 26.0913 37.993 25.5261 38.1485C24.6526 38.3905 23.8481 38.6357 23.066 38.8985C22.558 39.0748 22.0996 39.2351 21.6701 39.3953C21.6338 39.4081 21.5996 39.4208 21.5657 39.4337L21.2274 39.5646C21.1457 39.5967 21.0638 39.6298 20.9826 39.663L20.7478 39.7575C20.2787 39.949 19.8124 40.1541 19.3591 40.3697C18.8976 40.5877 18.4584 40.8105 18.0578 41.0348C17.7821 41.1887 17.5385 41.3313 17.3158 41.4691L17.2395 41.516C17.1639 41.5629 17.0906 41.6098 17.0209 41.6566C16.9552 41.6983 16.8895 41.7416 16.8302 41.7832C16.2013 42.1944 15.616 42.6685 15.0833 43.1984C15.0337 43.2552 14.9846 43.305 14.938 43.3521C14.9018 43.3888 14.8671 43.4239 14.8349 43.4596L14.8237 43.474C14.7403 43.5638 14.6506 43.6728 14.5512 43.8042C14.545 43.811 14.5396 43.8185 14.5352 43.8266L14.5192 43.8474L14.4322 43.9698C14.1169 44.4208 13.8393 44.8971 13.6025 45.394C13.5246 45.5371 13.4615 45.6736 13.4026 45.8071L13.3332 45.9661L13.268 46.113C13.2408 46.1752 13.2141 46.2386 13.1874 46.3027L13.134 46.4292C12.9915 46.7707 12.849 47.1441 12.7066 47.5415C12.6361 47.7402 12.564 47.9486 12.4934 48.1617L12.4666 48.2411L12.4133 48.4021L12.2715 48.8598C12.2191 49.0299 12.1662 49.2085 12.1131 49.3937L12.0335 49.6762C12.0082 49.7758 11.9817 49.8769 11.9551 49.9788L11.9549 49.9795C11.9276 50.084 11.9 50.1894 11.8732 50.2948L11.83 50.4551C11.8163 50.508 11.8166 50.6019 11.8027 50.657H52.2692L52.1442 50.2323C52.1442 50.2323 52.0448 49.8573 51.9935 49.6778C51.9679 49.5833 51.9407 49.4871 51.9134 49.3942L51.8862 49.2964L51.782 48.9454C51.7409 48.8193 51.7023 48.6952 51.6644 48.5732L51.6642 48.5729L51.6642 48.5726C51.6207 48.4329 51.578 48.296 51.5336 48.1617C51.4631 47.9486 51.391 47.7402 51.3204 47.5415C51.2259 47.2835 51.1329 47.0319 51.0416 46.8027L51.0272 46.7626C50.9855 46.6569 50.9438 46.5543 50.9021 46.4565C50.8412 46.3059 50.7787 46.1616 50.7162 46.0206C50.6369 45.8439 50.5639 45.6853 50.4938 45.5379L50.4246 45.394C50.2211 44.9799 49.9937 44.578 49.7434 44.1904C49.7108 44.1445 49.6793 44.0983 49.6473 44.0513L49.6472 44.0512L49.6468 44.0505L49.6464 44.05L49.6463 44.0498C49.6015 43.9842 49.5558 43.9172 49.5047 43.8474L49.4918 43.8314C49.3877 43.6904 49.2883 43.5686 49.2034 43.4756C49.1184 43.3827 49.0303 43.2881 48.9421 43.2C48.5188 42.7763 48.0604 42.3892 47.5719 42.0429C47.4116 41.9275 47.253 41.8185 47.1039 41.7223C47.0703 41.6999 47.0366 41.6759 47.0078 41.6582L46.9006 41.589C46.6125 41.4046 46.3049 41.2227 45.9644 41.0332C45.4211 40.7319 44.8362 40.4402 44.1727 40.1422L43.8986 40.022L43.8137 39.9851L43.5637 39.8777C43.2768 39.7559 42.9867 39.6389 42.6742 39.5171C42.1309 39.3056 41.57 39.1036 40.9594 38.8985C40.1709 38.6325 39.3472 38.3825 38.5122 38.1517C38.0121 38.0128 37.5648 37.8966 37.1935 37.8031L36.8485 37.7172L36.8488 32.8752C37.7884 31.8461 38.5321 30.6536 39.0427 29.3564L39.1436 29.1032C39.1655 29.0465 39.1872 28.9893 39.2087 28.9322C39.3237 28.9464 39.4395 28.9538 39.5555 28.9542C40.4028 28.9717 41.1991 28.5506 41.6614 27.8403L41.6994 27.7839C42.1223 27.1394 42.2575 26.3465 42.07 25.5967C41.9396 25.0857 41.5957 24.6554 41.1261 24.4155C40.8303 24.2743 40.5054 24.2142 40.1838 24.2372C40.2839 22.7027 40.2736 19.7422 39.0042 17.6828C37.089 14.5815 33.9825 14.0844 32.2021 14.0851ZM25.2831 38.8948L25.4981 38.8338C25.9238 39.3839 26.56 39.8395 27.3931 40.1902C28.1512 40.4974 28.9448 40.7085 29.7554 40.8185C30.5123 40.9273 31.2761 40.9808 32.0408 40.9787C32.8026 40.9832 33.5637 40.9323 34.3181 40.8265C35.1201 40.7161 35.9055 40.5073 36.6563 40.2047C37.5002 39.8525 38.1428 39.3907 38.5704 38.8365C39.3225 39.048 40.0637 39.2764 40.7767 39.5155C41.3777 39.7175 41.929 39.9162 42.4627 40.1245C42.7688 40.2431 43.0541 40.3585 43.3361 40.4787L43.6679 40.6197L43.9307 40.7367C44.5766 41.0268 45.1471 41.3105 45.6744 41.6038C46.0414 41.8089 46.3715 42.006 46.6824 42.2079L46.8586 42.3233C46.9767 42.4015 47.0975 42.4849 47.2193 42.5733C47.6766 42.8992 48.1056 43.2632 48.5014 43.6615L48.5022 43.6623L48.5023 43.6625L48.5026 43.6627C48.5823 43.7441 48.6636 43.827 48.7418 43.9164C48.8321 44.0156 48.9166 44.12 48.995 44.2289L49.0094 44.2465C49.088 44.3507 49.1553 44.45 49.221 44.551C49.4574 44.917 49.6715 45.297 49.862 45.6889L49.8953 45.7565C49.9509 45.8708 50.0081 45.993 50.0685 46.1256L50.1425 46.2899C50.2034 46.4261 50.2627 46.5655 50.3236 46.7129L50.3637 46.8101C50.3904 46.8755 50.4171 46.9421 50.4438 47.0094L50.4582 47.0479C50.5464 47.2707 50.6377 47.5127 50.7291 47.7675L50.7817 47.9146C50.834 48.0635 50.8857 48.217 50.9374 48.3733L50.9866 48.5219C51.0521 48.7215 51.1169 48.9274 51.181 49.1393L51.2179 49.2627L51.3108 49.5801C51.3188 49.6086 51.327 49.6374 51.3353 49.6663C51.3534 49.7299 51.3717 49.7945 51.3894 49.8605L51.439 50.04L12.6041 50.016L12.696 49.7232C12.7759 49.4387 12.8554 49.1696 12.9326 48.9214L13.0367 48.5912C13.0431 48.5719 13.0493 48.5527 13.0555 48.5337L13.0562 48.5313L13.0564 48.5306C13.075 48.4736 13.0931 48.4178 13.1121 48.3621L13.1542 48.2369C13.2102 48.0711 13.2656 47.9098 13.322 47.7547C13.471 47.3187 13.6313 46.9149 13.7916 46.5495C13.83 46.4581 13.8701 46.3668 13.9086 46.2802L13.9812 46.1157C14.045 45.973 14.1137 45.8286 14.1906 45.676C14.432 45.1702 14.719 44.6874 15.048 44.2337L15.0801 44.1888L15.1059 44.1563C15.1816 44.0608 15.2479 43.9772 15.3013 43.9196L15.3253 43.8939C15.3926 43.8138 15.4727 43.7337 15.5529 43.6535C16.0556 43.1541 16.6076 42.7069 17.2004 42.3185L17.3831 42.1983C17.4744 42.139 17.5658 42.0797 17.6635 42.0204L17.7456 41.9698C17.9393 41.8512 18.1489 41.7294 18.3831 41.5989C18.771 41.3874 19.1957 41.171 19.646 40.9579C20.1636 40.7127 20.6973 40.4803 21.2358 40.2672L21.3425 40.2238L21.6995 40.0829C21.7675 40.0563 21.8363 40.03 21.9057 40.0043L22.0339 39.9562C22.335 39.844 22.6497 39.7314 22.9865 39.6156L23.2808 39.5155C23.9232 39.2992 24.5822 39.0951 25.2831 38.8948ZM26.1879 38.645C26.558 38.546 26.9282 38.4507 27.2954 38.36C27.6934 39.076 29.1551 39.3902 29.9305 39.5093L30.0599 39.5283C30.6924 39.6163 31.3301 39.6608 31.9686 39.6614H32.0824C32.7204 39.6608 33.3577 39.6164 33.9896 39.5283C34.6981 39.4293 36.2308 39.1362 36.7112 38.4386C36.7288 38.4135 36.745 38.388 36.7598 38.3618L36.7595 38.3618L36.7653 38.352C36.7635 38.3553 36.7617 38.3586 36.7598 38.3618C36.9829 38.4129 37.2403 38.4781 37.5289 38.5541L37.89 38.6505C37.4709 39.0677 36.9695 39.3929 36.4176 39.6053L36.2856 39.6572C35.6237 39.9115 34.9345 40.0883 34.2316 40.1838C32.7782 40.389 31.3033 40.389 29.85 40.1838C29.0958 40.0807 28.3573 39.8847 27.6511 39.6005C27.0997 39.3856 26.5992 39.0581 26.1815 38.6389L26.1879 38.645ZM27.8403 33.4768V37.9978C27.9108 38.2446 28.6544 38.6693 30.1513 38.8793C30.7545 38.9634 31.3628 39.0057 31.9718 39.0059H32.0824C32.691 39.0057 33.2987 38.9634 33.9014 38.8793C34.5411 38.789 35.043 38.6601 35.4136 38.5229L35.4459 38.5107C35.9361 38.3228 36.1821 38.1214 36.2012 37.9834C36.2013 37.9527 36.2057 37.9225 36.2138 37.8935L36.2141 33.4908C35.9869 33.6876 35.7488 33.8716 35.5007 34.0419L35.3758 34.1259C34.5748 34.668 33.655 35.0036 32.6982 35.1065C32.5271 35.1258 32.3548 35.1376 32.1818 35.1419H31.8693L31.8591 35.1415L31.8565 35.1419C31.6803 35.1372 31.505 35.1246 31.3309 35.1044L31.1688 35.0832L31.0756 35.069L30.9411 35.0458L30.8335 35.0249C30.1066 34.8773 29.411 34.594 28.7843 34.1869L28.6993 34.1307C28.3977 33.9335 28.1106 33.7149 27.8403 33.4768ZM31.8774 14.7297L32.0279 14.7308C33.645 14.7052 36.6323 15.0946 38.4385 18.0226C39.7205 20.1009 39.5974 23.3338 39.5046 24.4739L39.493 24.6078V24.6287L39.7848 24.6534L39.4978 24.6463L39.4976 24.6481L39.493 24.6479C39.4855 24.72 39.4784 24.7827 39.4722 24.8342L39.4513 24.9957C39.4506 25.0047 39.4506 25.0138 39.4513 25.0229L39.4417 25.1447C39.4161 25.3755 39.392 25.5742 39.36 25.7858C39.3279 25.9973 39.2927 26.2024 39.2558 26.3964L39.2372 26.4948C39.2243 26.5605 39.2104 26.6261 39.1965 26.688L39.1556 26.8735L39.134 26.9653V26.9797C39.1236 27.0246 39.1128 27.0671 39.102 27.1083L39.0699 27.2297L39.07 27.2472C39.0484 27.3332 39.0254 27.4082 39.001 27.4862L38.9671 27.5953L38.9375 27.6886L38.9305 27.7089C38.8584 27.9445 38.7766 28.1897 38.6789 28.459V28.475C38.6403 28.5829 38.5997 28.6908 38.5604 28.7954L38.5314 28.8724L38.3822 29.2439C37.8926 30.4455 37.1902 31.5494 36.3086 32.5024L36.3382 32.4699C36.325 32.4796 36.3124 32.4905 36.3006 32.5024C35.9117 32.9149 35.476 33.2806 35.0024 33.5922L34.9239 33.6447C34.1081 34.1799 33.1584 34.4768 32.1818 34.5009H31.8693C31.837 34.5 31.8048 34.4989 31.7727 34.4975L31.6909 34.4931L31.5713 34.4844C30.671 34.4082 29.8036 34.1017 29.0535 33.5922L28.945 33.5194C28.5139 33.2245 28.1156 32.8841 27.7569 32.504C27.7476 32.4942 27.7378 32.4851 27.7273 32.4772C26.8262 31.497 26.1141 30.3586 25.627 29.1192L25.5293 28.8756C25.5127 28.8324 25.4961 28.7884 25.4796 28.744L25.3802 28.4766L25.3514 28.4606C25.2392 28.148 25.1318 27.8195 25.0308 27.4862C25.0196 27.4479 25.0069 27.4025 24.9948 27.3592L24.9947 27.3588L24.983 27.3169L24.9499 27.2025C24.944 27.1813 24.938 27.1582 24.9319 27.1336L24.8954 26.9855C24.8933 26.9767 24.8914 26.9679 24.8894 26.9589C24.8878 26.9519 24.8863 26.9449 24.8847 26.9377C24.8793 26.9129 24.8735 26.8862 24.8658 26.8547L24.8499 26.788C24.8394 26.7429 24.8294 26.6966 24.8209 26.6496V26.6336C24.8049 26.5678 24.7904 26.5005 24.7776 26.4284L24.768 26.3835L24.7056 26.0251C24.6984 25.9822 24.6916 25.938 24.6863 25.8931C24.6863 25.891 24.6875 25.8905 24.6888 25.8899C24.6913 25.8889 24.6938 25.8878 24.6863 25.8739C24.6751 25.8531 24.6751 25.8306 24.6751 25.8098V25.7681C24.6702 25.7355 24.6656 25.7022 24.661 25.6686L24.6229 25.3883C24.6127 25.3103 24.6033 25.2288 24.5949 25.1447L24.5859 25.0634L24.5837 25.0229C24.5846 25.0128 24.5846 25.0026 24.5837 24.9925L24.566 24.8447L24.5661 24.7873C24.565 24.7743 24.5632 24.7601 24.5611 24.7446C24.5568 24.7121 24.5517 24.6736 24.5517 24.6271L24.5507 24.6024C24.5488 24.578 24.5442 24.5542 24.537 24.5314L24.5289 24.4344C24.4362 23.2611 24.326 20.0819 25.5966 18.0226C27.3501 15.1824 30.2165 14.7308 31.8774 14.7297ZM40.1635 24.8886L40.1324 24.8936L40.114 25.0413C40.1117 25.058 40.1098 25.0707 40.1084 25.079L40.0988 25.1992C40.075 25.4222 40.0511 25.623 40.0241 25.804L40.0123 25.8803L40.0038 25.9334L40.0037 25.9341C39.9737 26.1217 39.94 26.3329 39.9049 26.5214C39.8921 26.5919 39.8785 26.661 39.8643 26.7296L39.8424 26.8323L39.8373 26.8556C39.8172 26.9475 39.8006 27.0235 39.7799 27.1063V27.1224L39.7647 27.1838C39.9793 27.1727 40.1793 27.0632 40.3039 26.8836C40.4582 26.6716 40.4834 26.3921 40.3696 26.156C40.322 26.0816 40.3435 25.9827 40.4177 25.9348C40.4921 25.8871 40.591 25.9086 40.6389 25.9829C40.8077 26.3039 40.797 26.6897 40.6108 27.0009C40.4246 27.3122 40.0897 27.5039 39.727 27.507L39.7334 27.5102C39.7153 27.5101 39.6973 27.5095 39.6793 27.5082L39.6561 27.5894L39.6324 27.6689C39.6052 27.7586 39.5828 27.8291 39.5555 27.906C39.5158 28.0354 39.4719 28.1713 39.4237 28.3138L39.4113 28.3131C40.0761 28.3745 40.7213 28.0743 41.1029 27.5297L41.1325 27.4862C41.4789 26.9876 41.5956 26.3647 41.453 25.7745C41.3729 25.4419 41.1541 25.1595 40.852 24.9989C40.6531 24.9031 40.4325 24.8634 40.2139 24.883L40.1635 24.8886ZM23.1942 24.9941C23.3588 24.9152 23.539 24.8741 23.7215 24.8739C23.7953 24.875 23.8688 24.883 23.9411 24.8979V24.9348C23.9461 24.9524 23.9463 24.9673 23.9465 24.9815C23.9467 24.9944 23.9468 25.0067 23.9507 25.0197C23.9555 25.0361 23.9574 25.0501 23.9582 25.0615L23.9587 25.0806C23.9613 25.1246 23.9661 25.1685 23.9731 25.212C23.9768 25.2505 23.9809 25.2888 23.9852 25.3268L24.0116 25.5502C24.0244 25.6592 24.0388 25.7633 24.0548 25.8707V25.9076L24.0693 25.9941C24.0741 26.031 24.0797 26.0678 24.0855 26.1035L24.1199 26.3067C24.1302 26.3654 24.1413 26.4244 24.1525 26.4838L24.1574 26.5102L24.1654 26.5566L24.2197 26.8142L24.2616 27.0038L24.3 27.164V27.1817L24.3016 27.188C24.0731 27.1882 23.8571 27.0759 23.7263 26.8852C23.5732 26.6733 23.5486 26.3946 23.6622 26.1592C23.7099 26.0848 23.6884 25.9859 23.6141 25.938C23.5397 25.8903 23.4408 25.9119 23.393 25.9861C23.2242 26.3071 23.2348 26.6929 23.421 27.0042C23.6072 27.3154 23.9422 27.5072 24.3048 27.5102C24.3322 27.5107 24.3596 27.5098 24.3869 27.5076L24.3965 27.5068L24.4106 27.5054C24.4059 27.5059 24.4012 27.5064 24.3965 27.5068C24.3933 27.5071 24.3901 27.5074 24.3869 27.5076L24.3865 27.5077L24.4331 27.6673C24.4988 27.8852 24.5661 28.0984 24.6366 28.3083C23.9542 28.3716 23.2924 28.0537 22.9154 27.4814L22.8814 27.4311C22.5605 26.9417 22.456 26.3402 22.5948 25.7697C22.6744 25.4373 22.8926 25.1549 23.1942 24.9941Z" fill="#32335C"/>
<path fill-rule="evenodd" clip-rule="evenodd" d="M36.7598 38.3618C36.7617 38.3586 36.7635 38.3553 36.7653 38.352L36.7595 38.3618L36.7598 38.3618ZM24.3965 27.5068L24.4106 27.5054C24.4059 27.5059 24.4012 27.5064 24.3965 27.5068Z" fill="#32335C"/>
<g style="mix-blend-mode:multiply" opacity="0.15">
<path fill-rule="evenodd" clip-rule="evenodd" d="M29.2717 28.1834C29.2717 29.1617 28.5541 29.9548 27.669 29.9548C26.7839 29.9548 26.0664 29.1617 26.0664 28.1834C26.0664 27.2052 26.7839 26.4121 27.669 26.4121C28.5541 26.4121 29.2717 27.2052 29.2717 28.1834ZM37.9265 28.1834C37.9265 29.1617 37.209 29.9548 36.3239 29.9548C35.4388 29.9548 34.7213 29.1617 34.7213 28.1834C34.7213 27.2052 35.4388 26.4121 36.3239 26.4121C37.209 26.4121 37.9265 27.2052 37.9265 28.1834Z" fill="#FF1300"/>
</g>
<path d="M31.987 30.0443C31.3315 30.0443 30.7273 29.8183 30.3731 29.4417C30.3044 29.3687 30.2799 29.2646 30.3088 29.1686C30.3376 29.0726 30.4155 28.9992 30.5131 28.9762C30.6107 28.9532 30.7131 28.984 30.7818 29.057C31.0286 29.3199 31.4902 29.4833 31.987 29.4833C32.4838 29.4833 32.9486 29.3231 33.1922 29.057C33.2609 28.984 33.3633 28.9532 33.4609 28.9762C33.5585 28.9992 33.6364 29.0726 33.6652 29.1686C33.6941 29.2646 33.6696 29.3687 33.6009 29.4417C33.2435 29.8183 32.6425 30.0443 31.987 30.0443Z" fill="#32335C"/>
<path d="M32.4145 30.8088H31.5587C31.4702 30.8088 31.3984 30.7371 31.3984 30.6485C31.3984 30.56 31.4702 30.4883 31.5587 30.4883H32.4145C32.503 30.4883 32.5748 30.56 32.5748 30.6485C32.5748 30.7371 32.503 30.8088 32.4145 30.8088Z" fill="#32335C"/>
<path d="M31.9919 27.946C31.6419 27.9507 31.3128 27.7798 31.1153 27.4909C31.0312 27.3607 31.0685 27.1871 31.1986 27.103C31.3287 27.0189 31.5023 27.0562 31.5864 27.1864C31.684 27.3132 31.8355 27.3869 31.9955 27.3854C32.1555 27.3838 32.3055 27.3071 32.4006 27.1783C32.4811 27.0456 32.654 27.0032 32.7868 27.0838C32.9196 27.1643 32.9619 27.3373 32.8814 27.47C32.6875 27.7722 32.3509 27.9523 31.9919 27.946V27.946Z" fill="#32335C"/>
<path d="M28.7634 26.0169C29.475 26.0169 29.4766 24.9111 28.7634 24.9111C28.0502 24.9111 28.0502 26.0169 28.7634 26.0169Z" fill="#32335C"/>
<path d="M35.3292 26.0169C36.0392 26.0169 36.0408 24.9111 35.3292 24.9111C34.6176 24.9111 34.616 26.0169 35.3292 26.0169Z" fill="#32335C"/>
<path d="M30.2172 24.101C30.1659 24.1012 30.1154 24.0891 30.0698 24.0657C28.8085 23.4167 27.5055 24.0657 27.5055 24.0657C27.348 24.1467 27.1546 24.0847 27.0736 23.9271C26.9926 23.7696 27.0547 23.5762 27.2123 23.4952C27.2764 23.4632 28.8149 22.6939 30.3695 23.4952C30.5012 23.5627 30.5696 23.7116 30.5349 23.8555C30.5003 23.9994 30.3716 24.1009 30.2236 24.101H30.2172Z" fill="#32335C"/>
<path d="M36.722 24.1014C36.6713 24.1013 36.6213 24.0892 36.5761 24.0661C35.3133 23.417 34.0119 24.0661 34.0119 24.0661C33.9096 24.1223 33.7847 24.1184 33.6861 24.0559C33.5875 23.9934 33.5306 23.8822 33.5377 23.7657C33.5448 23.6491 33.6147 23.5456 33.7202 23.4956C33.7843 23.4619 35.3229 22.6943 36.8774 23.4956C37.0109 23.5638 37.0793 23.7154 37.042 23.8607C37.0048 24.0059 36.8718 24.1059 36.722 24.1014Z" fill="#32335C"/>
<path d="M32.0577 12.2111C32.8979 12.21 33.735 12.3134 34.5498 12.5188C34.3711 12.1033 34.1452 11.7097 33.8767 11.3457C33.0273 10.2014 31.4471 8.95778 28.6377 9.17414C23.6791 9.55877 21.9323 15.8122 21.3681 19.2707C20.9497 21.8315 19.54 23.2909 18.3128 24.5614C16.875 26.05 15.6876 27.2792 16.6388 29.7167C16.6388 29.7167 15.44 33.5277 19.7447 33.3867C19.7447 33.3867 21.3409 35.7362 23.6262 33.3867C24.6647 32.3178 24.9436 30.502 24.9212 28.6317C24.0559 28.7912 23.179 28.4184 22.6935 27.6845C21.8986 26.4649 22.2576 25.1316 23.0974 24.7325C23.1561 24.7046 23.2166 24.6807 23.2785 24.6609V24.662C23.6001 24.556 23.9473 24.556 24.2689 24.662L24.4724 24.0498L26.1119 18.6377C26.1119 18.6377 26.1119 20.3926 26.5655 21.4487C26.6446 21.6293 26.8234 21.7458 27.0206 21.7452H37.2053C37.4088 21.7436 37.5906 21.6178 37.6637 21.4279C38.0323 20.4663 38.0323 18.923 38.0323 18.923L39.8433 24.662C40.1649 24.556 40.5121 24.556 40.8337 24.662V19.7179C40.8337 16.3155 38.183 13.4403 34.5482 12.5204C33.7334 12.315 32.8963 12.2116 32.0561 12.2127C28.5153 12.2127 25.4644 14.008 24.0766 16.5889C25.139 14.6107 27.1782 13.0947 29.6666 12.4932C30.4497 12.3054 31.2523 12.2107 32.0577 12.2111Z" fill="#78B2FF"/>
<path fill-rule="evenodd" clip-rule="evenodd" d="M34.1299 11.1487C34.3869 11.4933 34.6069 11.8639 34.7866 12.2542C38.5514 13.2688 41.1623 16.321 41.1623 19.7228V24.6669C41.1625 24.7703 41.1129 24.8675 41.029 24.9279C40.945 24.9882 40.8371 25.0045 40.7392 24.9714C40.4791 24.8846 40.1979 24.8846 39.9378 24.9714C39.9075 24.9795 39.8763 24.9833 39.8449 24.9826C39.7052 24.983 39.5814 24.8928 39.5388 24.7598L38.215 20.5641C38.1621 20.897 38.0784 21.2243 37.965 21.5417C37.8424 21.8562 37.5397 22.0635 37.2021 22.0642H27.0174C26.6923 22.0652 26.3979 21.8723 26.269 21.5738C26.1081 21.1733 25.9946 20.7554 25.9308 20.3285L24.7801 24.1284V24.1508L24.5766 24.763C24.5216 24.9295 24.3431 25.0208 24.1759 24.9682C23.936 24.8889 23.6782 24.8836 23.4359 24.9523L23.3842 24.9682C23.3572 24.9773 23.3293 24.9827 23.3014 24.9844C23.2773 24.9934 23.2537 25.0036 23.2304 25.0146C22.929 25.1758 22.7109 25.4581 22.631 25.7903C22.4928 26.3608 22.5972 26.962 22.9176 27.4517L22.9515 27.5019C23.5605 28.4283 24.5686 28.3529 24.8619 28.3032C24.9538 28.289 25.0473 28.3153 25.1183 28.3754C25.1892 28.4352 25.2308 28.5229 25.2321 28.6158C25.2589 30.9427 24.8214 32.5584 23.8905 33.5515L23.8458 33.5983C23.1134 34.3692 22.3586 34.7522 21.6037 34.7522C21.5375 34.7522 21.4718 34.749 21.4066 34.7426C20.4691 34.6609 19.8296 34.0054 19.5844 33.7089C18.235 33.725 17.2654 33.3515 16.6997 32.6047C15.9064 31.5598 16.1932 30.1383 16.2974 29.7296C15.382 27.2679 16.5698 25.9022 17.9098 24.5109L18.2917 24.1148C19.4383 22.9201 20.666 21.5327 21.0476 19.2083L21.078 19.0249C21.5984 15.9544 23.3505 9.25095 28.6088 8.84888C31.5913 8.61971 33.2565 9.97073 34.1299 11.1487ZM28.6569 9.48994C23.7448 9.86655 22.1406 16.4854 21.679 19.3141C21.2566 21.9 19.8852 23.3792 18.6426 24.666L18.2758 25.046C16.9779 26.3995 16.1143 27.4718 16.9287 29.575L16.9459 29.6056C17.0647 29.8068 17.4722 30.3035 18.501 30.0453C18.5869 30.0241 18.6736 30.0765 18.6949 30.1623C18.7161 30.2481 18.6638 30.3349 18.5779 30.3562C18.3767 30.411 18.1695 30.4406 17.9609 30.4444C17.4351 30.4444 17.0953 30.2418 16.8876 30.0403L16.8757 30.101C16.7862 30.5781 16.6946 31.5296 17.2141 32.2073C17.6709 32.8067 18.5187 33.0919 19.7318 33.0502L19.7399 33.0631C19.8371 33.0634 19.9284 33.1078 19.9886 33.1829L20.0215 33.2275C20.1234 33.3625 20.6703 34.037 21.4675 34.1048C22.0861 34.1577 22.7336 33.8403 23.3907 33.164C24.1824 32.3483 24.5782 30.9796 24.5958 28.9828C23.7239 29.0182 22.8976 28.592 22.4211 27.8609C21.9669 27.2073 21.8179 26.389 22.0124 25.6172C22.1414 25.106 22.4849 24.6754 22.9547 24.4361V19.7083C22.9547 16.2162 25.6792 13.1183 29.5864 12.1759C31.0204 11.8341 32.5097 11.7938 33.96 12.0574C33.8544 11.8764 33.7389 11.7014 33.6139 11.5333C32.8382 10.4868 31.3461 9.28961 28.6569 9.48994ZM27.4761 13.6706C28.7961 12.9472 30.3675 12.5269 32.0529 12.5269C32.8666 12.5263 33.6773 12.6264 34.4665 12.825C38.0243 13.7305 40.51 16.5624 40.51 19.7163V24.2678C40.3587 24.2548 40.2064 24.2602 40.0564 24.2838L38.3352 18.8269C38.2882 18.6754 38.1373 18.5811 37.9805 18.6051C37.8237 18.6292 37.708 18.7644 37.7086 18.923C37.7086 18.9375 37.7038 20.4135 37.3608 21.3142L37.3518 21.3331C37.3216 21.3877 37.264 21.4226 37.2005 21.4231L35.9138 21.4231C36.263 20.0335 35.8155 18.4474 35.702 18.0848L35.678 18.0111C35.6492 17.9275 35.5581 17.8831 35.4745 17.9118C35.4341 17.9253 35.4007 17.9544 35.3817 17.9926C35.3628 18.0308 35.3598 18.0749 35.3735 18.1153C35.3811 18.1349 35.9881 19.9516 35.5826 21.4231L32.1111 21.4231C31.8276 20.2262 32.0676 18.7466 32.1721 18.204L32.2182 17.9735C32.2283 17.894 32.1774 17.8178 32.0978 17.798C32.0563 17.7879 32.0125 17.7947 31.9761 17.817C31.9397 17.8392 31.9137 17.8751 31.9038 17.9166L31.9012 17.9264C31.8575 18.0974 31.4448 19.9178 31.7742 21.4231L28.6099 21.4232C28.4336 20.8811 28.1738 19.6059 28.8797 18.0192C28.8969 17.9803 28.898 17.9361 28.8827 17.8964C28.8673 17.8568 28.8368 17.8248 28.7979 17.8076C28.7591 17.7904 28.7149 17.7893 28.6752 17.8046C28.6355 17.8199 28.6036 17.8504 28.5864 17.8893C27.9022 19.4188 28.0567 20.6633 28.2376 21.3265L28.2653 21.4231L27.0158 21.4231C26.9467 21.424 26.8837 21.3837 26.8555 21.3206C26.5013 20.5072 26.4403 19.2126 26.4298 18.7812L26.4276 18.6362C26.4293 18.476 26.3125 18.3393 26.154 18.3158C25.9956 18.2924 25.8442 18.3895 25.7994 18.5432L24.1599 23.9553V23.9649L24.0525 24.2854C23.9544 24.2708 23.8553 24.2633 23.7561 24.263L23.5974 24.2629L23.5974 19.7083C23.5974 17.2716 25.0674 15.0391 27.3699 13.7297L27.4761 13.6706Z" fill="#32335C"/>
<path fill-rule="evenodd" clip-rule="evenodd" d="M34.3355 12.0829C34.3779 12.1626 34.3703 12.2597 34.3161 12.3318C34.2618 12.404 34.1706 12.4382 34.0823 12.4195C33.4159 12.2851 32.7379 12.2174 32.0581 12.2176V12.2176C31.3506 12.2176 30.6449 12.2906 29.9523 12.4355C29.8831 12.4511 29.8105 12.4344 29.7551 12.3901C29.6996 12.3459 29.6672 12.2789 29.667 12.2079V12.2079C29.6641 11.7489 29.9708 11.3455 30.4138 11.2255C31.0405 11.0653 32.071 10.9467 33.5294 11.2704C33.7621 11.3232 33.9647 11.4653 34.0935 11.6662C34.1816 11.8041 34.2634 11.9435 34.3355 12.0829Z" fill="#F26E29"/>
<path fill-rule="evenodd" clip-rule="evenodd" d="M33.5948 10.9512C33.9087 11.0233 34.1823 11.2147 34.3577 11.4849C34.4262 11.5919 34.4929 11.7016 34.5557 11.8126L34.6173 11.924C34.7205 12.112 34.7035 12.343 34.574 12.5138C34.4465 12.6878 34.229 12.7712 34.0179 12.727C32.6949 12.4628 31.3322 12.4683 30.0113 12.743C29.9734 12.7511 29.9347 12.7554 29.8959 12.7558C29.5897 12.7558 29.3414 12.5075 29.3414 12.2013C29.3398 11.8181 29.5018 11.4647 29.7695 11.2173C29.1306 10.9708 28.401 11.0441 27.8173 11.4352C27.4473 11.6654 27.1216 11.9602 26.8557 12.3055C26.8235 12.3498 26.7709 12.3745 26.7163 12.3712C26.6825 12.3718 26.6494 12.3617 26.6217 12.3423C26.587 12.3176 26.5635 12.2799 26.5566 12.2378C26.5509 12.2027 26.557 12.1669 26.5736 12.1359L26.5849 12.118L26.5867 12.1156C26.6479 12.0345 28.128 10.0748 30.0709 11.0079C30.1514 10.9669 30.2371 10.9338 30.327 10.9096C30.9681 10.7397 32.0563 10.6099 33.5948 10.9512ZM37.1655 15.312C36.7315 14.7666 36.1281 14.3814 35.4506 14.2174C35.3621 14.1993 35.2757 14.2563 35.2575 14.3448C35.2394 14.4333 35.2964 14.5198 35.3849 14.5379L35.4429 14.553C35.6586 14.6123 36.4266 14.8596 36.9074 15.5107C36.938 15.5515 36.9862 15.5754 37.0373 15.5749C37.0721 15.5727 37.1053 15.5592 37.1318 15.5364C37.1661 15.5111 37.1889 15.4733 37.1952 15.4312C37.2015 15.3891 37.1908 15.3462 37.1655 15.312ZM22.9276 30.1755C23.0075 30.2069 23.0485 30.2956 23.0206 30.3768C22.8901 30.7093 22.7331 31.0309 22.5511 31.3383C22.523 31.3882 22.4705 31.4194 22.4132 31.4201C22.3556 31.4201 22.3025 31.3892 22.274 31.3391C22.2455 31.2891 22.246 31.2276 22.2754 31.1781C22.4484 30.8842 22.5979 30.5772 22.7225 30.2598C22.7573 30.1813 22.8477 30.1442 22.9276 30.1755ZM21.9593 31.8121C22.0159 31.8214 22.0632 31.8602 22.0835 31.9139C22.1037 31.9676 22.0938 32.028 22.0574 32.0724C21.046 33.3013 19.5872 33.4729 18.9222 33.4822L18.8618 33.4827L18.8004 33.4822C18.6763 33.4803 18.591 33.4732 18.5714 33.4716L18.5713 33.4716L18.5701 33.4714C18.4816 33.4622 18.4174 33.3829 18.4267 33.2944C18.4353 33.2122 18.5043 33.1509 18.585 33.15L18.6867 33.1555C19.076 33.1711 20.7449 33.1622 21.809 31.8688C21.8454 31.8244 21.9027 31.8028 21.9593 31.8121ZM30.4889 11.5282C30.9049 11.4241 31.3325 11.3735 31.7614 11.3775C32.3316 11.3818 32.8996 11.4485 33.4554 11.5763C33.6055 11.6118 33.736 11.7043 33.8192 11.8343L33.8552 11.8881C33.8911 11.9439 33.9265 12.0046 33.9602 12.0635C32.6467 11.8252 31.3002 11.8355 29.9905 12.0939C30.03 11.8233 30.2254 11.6015 30.4889 11.5282Z" fill="#32335C"/>
<path d="M31.885 47.0379C28.84 47.0379 26.1764 43.823 25.0867 38.8468C25.0486 38.6738 25.158 38.5026 25.3311 38.4646C25.5041 38.4265 25.6752 38.536 25.7133 38.709C26.7197 43.3069 29.2006 46.4016 31.885 46.4016C34.5694 46.4016 37.0487 43.3118 38.0568 38.709C38.0948 38.536 38.266 38.4265 38.439 38.4646C38.612 38.5026 38.7215 38.6738 38.6834 38.8468C37.592 43.823 34.9236 47.0379 31.885 47.0379Z" fill="#32335C"/>
<path fill-rule="evenodd" clip-rule="evenodd" d="M31.8161 46.7158C31.8161 46.7158 29.973 47.2206 30.7599 48.7207C31.0333 49.2497 31.3899 49.7313 31.8161 50.1471C31.8161 50.1471 34.9412 47.6341 31.8161 46.7158Z" fill="#EBB759"/>
<path fill-rule="evenodd" clip-rule="evenodd" d="M31.603 50.3842C31.6614 50.4373 31.7372 50.467 31.8161 50.4676C31.8914 50.4685 31.9646 50.443 32.0229 50.3954C32.1992 50.2528 33.7473 48.9675 33.5053 47.7479C33.3835 47.1341 32.8466 46.6821 31.9123 46.4081C31.8553 46.3913 31.7946 46.3913 31.7376 46.4081C31.6943 46.4193 30.6991 46.6998 30.3593 47.4787C30.1766 47.9082 30.2167 48.3681 30.4811 48.8697C30.7701 49.4323 31.149 49.9439 31.603 50.3842ZM30.9396 47.7363C31.0967 47.3726 31.5662 47.1402 31.8162 47.052H31.8194C32.4493 47.2524 32.8035 47.528 32.8676 47.8742C32.9894 48.4784 32.2906 49.2797 31.8323 49.706C31.5223 49.3621 31.2564 48.9809 31.0406 48.5713C30.8707 48.246 30.837 47.9735 30.9396 47.7363Z" fill="#32335C"/>
<path fill-rule="evenodd" clip-rule="evenodd" d="M29.8806 46.1802C29.8806 46.1802 28.3709 45.8597 28.3789 47.2251C28.3788 47.7059 28.4556 48.1837 28.6065 48.6402C28.6065 48.6402 31.7797 47.9992 29.8806 46.1802Z" fill="#FF8EC1"/>
<path fill-rule="evenodd" clip-rule="evenodd" d="M28.307 48.7536C28.3537 48.8787 28.4731 48.9617 28.6067 48.9619C28.632 48.9631 28.6573 48.9609 28.682 48.9555C28.8663 48.9187 30.485 48.5629 30.7751 47.5644C30.9145 47.0548 30.6997 46.5115 30.1132 45.9506C30.0688 45.908 30.0132 45.8791 29.9529 45.8673C29.9517 45.867 29.9504 45.8668 29.949 45.8665C29.8384 45.8458 29.0502 45.6981 28.5105 46.1381C28.3022 46.3064 28.0586 46.6333 28.0586 47.2279C28.0583 47.7466 28.1422 48.2618 28.307 48.7536ZM28.9124 46.6281C29.0913 46.5097 29.3041 46.4534 29.5182 46.4679H29.5198C29.5893 46.465 29.6589 46.4666 29.7281 46.4727C29.9878 46.7355 30.2346 47.0769 30.148 47.3766C30.023 47.8061 29.297 48.1058 28.8258 48.2468C28.7441 47.9093 28.7016 47.5635 28.6992 47.2163C28.6747 46.9977 28.7535 46.7802 28.9124 46.6281Z" fill="#32335C"/>
<path fill-rule="evenodd" clip-rule="evenodd" d="M33.8892 46.1802C33.8892 46.1802 35.3988 45.8597 35.3908 47.2251C35.3909 47.706 35.3135 48.1839 35.1616 48.6402C35.1616 48.6402 31.99 47.9992 33.8892 46.1802Z" fill="#FF8EC1"/>
<path fill-rule="evenodd" clip-rule="evenodd" d="M35.099 48.9614C35.1198 48.9638 35.1408 48.9638 35.1615 48.9614C35.2975 48.9669 35.4222 48.886 35.4725 48.7595C35.6392 48.2681 35.7236 47.7526 35.7225 47.2338C35.7257 46.6392 35.4789 46.3042 35.2705 46.144C34.7192 45.6984 33.9179 45.8555 33.8282 45.8731C33.7679 45.885 33.7122 45.9139 33.6679 45.9565C33.0813 46.5174 32.8586 47.0607 33.006 47.5703C33.2961 48.5687 34.9147 48.9245 35.099 48.9614ZM33.6204 47.3856C33.5339 47.0859 33.7855 46.7381 34.0403 46.4801H34.0419C34.2438 46.4545 34.6301 46.4513 34.8528 46.634C35.0136 46.7857 35.0937 47.0041 35.0692 47.2237C35.0662 47.571 35.0232 47.9168 34.941 48.2542C34.4714 48.1148 33.7454 47.8151 33.6204 47.3856Z" fill="#32335C"/>
<path fill-rule="evenodd" clip-rule="evenodd" d="M28.5047 45.1457C28.5047 45.1457 27.4581 44.5159 27.1136 45.54C26.9897 45.9011 26.9253 46.28 26.9229 46.6618C26.9229 46.6618 29.4582 46.9904 28.5047 45.1457Z" fill="#F26E29"/>
<path fill-rule="evenodd" clip-rule="evenodd" d="M26.8808 46.9735C27.0355 46.9928 27.1912 47.0024 27.3471 47.0023C27.8247 47.0023 28.5347 46.9142 28.8664 46.4398C29.1229 46.0776 29.0972 45.5904 28.7895 44.9974C28.7626 44.9445 28.7215 44.9002 28.6709 44.8692C28.6052 44.8308 28.0202 44.4942 27.4689 44.6977C27.1449 44.8264 26.9011 45.1011 26.8119 45.4382C26.6758 45.8332 26.6054 46.2479 26.6035 46.6658C26.6084 46.8223 26.7256 46.9524 26.8808 46.9735ZM28.3418 46.0756C28.1751 46.3128 27.6543 46.3608 27.26 46.3608V46.3592C27.2874 46.1155 27.3406 45.8754 27.4187 45.6429C27.5116 45.3672 27.6447 45.3159 27.6895 45.2999C27.8844 45.2581 28.0878 45.287 28.2633 45.3816C28.3755 45.6188 28.4604 45.9041 28.3418 46.0756Z" fill="#32335C"/>
<path fill-rule="evenodd" clip-rule="evenodd" d="M35.2643 45.1457C35.2643 45.1457 36.3092 44.5159 36.6537 45.54C36.7776 45.9012 36.8425 46.28 36.8461 46.6618C36.8461 46.6618 34.3107 46.9904 35.2643 45.1457Z" fill="#F26E29"/>
<path fill-rule="evenodd" clip-rule="evenodd" d="M34.9045 46.4437C35.2362 46.9149 35.943 47.003 36.4238 47.003C36.5791 47.0043 36.7343 46.9957 36.8885 46.9774C37.0443 46.957 37.1624 46.8267 37.1674 46.6697C37.1646 46.2519 37.0942 45.8374 36.9591 45.4421C36.8693 45.1048 36.6249 44.8301 36.3004 44.7016C35.7411 44.4981 35.1641 44.8347 35.1 44.8731C35.0488 44.9038 35.0071 44.9482 34.9798 45.0013C34.6737 45.5911 34.6481 46.0783 34.9045 46.4437ZM35.4279 46.0751C35.3077 45.9036 35.3942 45.6183 35.5048 45.3811C35.6797 45.2883 35.8814 45.2594 36.0753 45.2994C36.0787 45.3011 36.0825 45.3028 36.0868 45.3048C36.1398 45.3296 36.2603 45.3857 36.3478 45.6423C36.4264 45.8753 36.4801 46.116 36.508 46.3603C36.1186 46.3699 35.5961 46.3138 35.4279 46.0751Z" fill="#32335C"/>
<path fill-rule="evenodd" clip-rule="evenodd" d="M22.9904 32.1721C21.9054 31.5086 23.4824 29.4893 23.4824 29.4893C23.4824 29.4893 25.0578 31.507 23.976 32.1721C23.6725 32.3532 23.294 32.3532 22.9904 32.1721Z" fill="#F26E29"/>
<path fill-rule="evenodd" clip-rule="evenodd" d="M22.8241 32.4438C23.0223 32.5651 23.2504 32.6289 23.4828 32.6281C23.7157 32.6291 23.9443 32.5653 24.143 32.4438C24.4143 32.2822 24.6012 32.0099 24.6543 31.6986C24.8306 30.737 23.8482 29.4405 23.736 29.2947C23.6748 29.2173 23.5814 29.1723 23.4828 29.1729C23.3847 29.1728 23.292 29.2177 23.2312 29.2947C23.1126 29.4341 22.1349 30.7274 22.3112 31.6986C22.3645 32.0103 22.552 32.2827 22.8241 32.4438ZM22.9414 31.5854C22.8677 31.1799 23.1754 30.5293 23.4831 30.0485C23.7619 30.4892 24.1033 31.1527 24.0232 31.5774C24.0043 31.7119 23.9245 31.8301 23.8068 31.8979C23.6071 32.018 23.3574 32.018 23.1577 31.8979C23.0423 31.8316 22.9628 31.7168 22.9414 31.5854Z" fill="#32335C"/>
<path d="M23.4822 32.3223C23.4317 32.3223 23.3842 32.2986 23.3539 32.2582C23.0334 31.8335 23.3283 31.271 23.3411 31.247C23.3656 31.1923 23.4186 31.1559 23.4784 31.1526C23.5382 31.1492 23.5948 31.1795 23.6253 31.2311C23.6558 31.2826 23.655 31.3469 23.6232 31.3976C23.6232 31.4072 23.4148 31.8063 23.6104 32.0643C23.6359 32.0983 23.6468 32.1411 23.6408 32.1831C23.6348 32.2252 23.6123 32.2632 23.5783 32.2887C23.5508 32.3101 23.517 32.3219 23.4822 32.3223Z" fill="#32335C"/>
<path d="M23.4825 29.6492C23.394 29.6492 23.3223 29.5775 23.3223 29.489V28.67C23.3223 28.5815 23.394 28.5098 23.4825 28.5098C23.571 28.5098 23.6428 28.5815 23.6428 28.67V29.4954C23.6393 29.5814 23.5686 29.6493 23.4825 29.6492V29.6492Z" fill="#32335C"/>
<path fill-rule="evenodd" clip-rule="evenodd" d="M39.7101 32.1252C38.6251 31.4617 40.2021 29.4424 40.2021 29.4424C40.2021 29.4424 41.7775 31.4617 40.6941 32.1252C40.3916 32.3079 40.0127 32.3079 39.7101 32.1252Z" fill="#F26E29"/>
<path fill-rule="evenodd" clip-rule="evenodd" d="M39.5415 32.3982C39.741 32.5179 39.9692 32.581 40.2018 32.5809C40.4347 32.5816 40.6632 32.5178 40.8621 32.3966C41.1334 32.235 41.3202 31.9626 41.3733 31.6514C41.5496 30.6898 40.5672 29.3917 40.455 29.2474C40.3942 29.1694 40.3007 29.1239 40.2018 29.124C40.1029 29.1239 40.0094 29.1694 39.9486 29.2474C39.83 29.3885 38.854 30.6898 39.0287 31.6514C39.0819 31.9634 39.2694 32.2364 39.5415 32.3982ZM40.2009 30.0017C40.2012 30.0013 40.2015 30.0009 40.2017 30.0005H40.2001C40.2004 30.0009 40.2007 30.0013 40.2009 30.0017ZM39.6616 31.5374C39.588 31.1323 39.8935 30.4824 40.2009 30.0017C40.4812 30.4424 40.8171 31.1051 40.7434 31.5374C40.7237 31.6691 40.6445 31.7843 40.5287 31.8499C40.3285 31.9703 40.0782 31.9703 39.878 31.8499C39.7619 31.7843 39.6822 31.6692 39.6616 31.5374Z" fill="#32335C"/>
<path d="M40.1437 32.2758C40.109 32.2758 40.0752 32.2646 40.0475 32.2438C40.0135 32.2183 39.991 32.1803 39.985 32.1382C39.979 32.0961 39.9899 32.0534 40.0154 32.0194C40.2126 31.7598 40.0042 31.3559 40.0026 31.3527C39.974 31.3023 39.9744 31.2405 40.0037 31.1905C40.0331 31.1405 40.0868 31.11 40.1448 31.1104C40.2027 31.1108 40.2561 31.142 40.2847 31.1924C40.2975 31.2165 40.5924 31.779 40.2719 32.2037C40.2433 32.2471 40.1955 32.274 40.1437 32.2758Z" fill="#32335C"/>
<path d="M40.2023 29.6029C40.1137 29.6029 40.042 29.5312 40.042 29.4427V28.6173C40.042 28.5288 40.1137 28.457 40.2023 28.457C40.2908 28.457 40.3625 28.5288 40.3625 28.6173V29.4427C40.3625 29.5312 40.2908 29.6029 40.2023 29.6029Z" fill="#32335C"/>
<path fill-rule="evenodd" clip-rule="evenodd" d="M39.7131 25.3831C40.1336 23.444 39.9839 21.4247 39.282 19.5688C39.2499 19.4838 39.2162 19.4085 39.181 19.3172C39.0977 19.1168 39.0063 18.9197 38.9101 18.7274C38.279 17.4506 37.3365 16.3533 36.1696 15.5366C35.9966 15.4164 35.8203 15.3042 35.6376 15.2C35.4885 15.1135 35.3363 15.0397 35.1808 14.958C34.6023 14.6719 33.9885 14.4633 33.3554 14.3378H33.3154L33.2625 14.3282C32.2464 14.1416 31.2034 14.1574 30.1934 14.3747L30.0796 14.3971C29.6062 14.501 29.1416 14.6419 28.6902 14.8186C28.594 14.8554 28.501 14.8939 28.4097 14.934C28.0518 15.0838 27.7048 15.2584 27.3712 15.4564C26.1546 16.1599 25.1795 17.2153 24.5746 18.4838C24.4784 18.6873 24.3919 18.8925 24.315 19.0976C24.2829 19.1825 24.2525 19.2691 24.2252 19.3556C24.2156 19.3829 24.206 19.4117 24.198 19.439C24.1403 19.6153 24.0906 19.7899 24.0473 19.9646C23.3774 22.6362 24.1002 25.1844 24.1002 25.1844C24.1002 25.1844 22.4287 23.1907 23.2989 19.1393C23.3229 19.0303 23.3486 18.9181 23.3758 18.8059C23.4191 18.6264 23.4688 18.4421 23.5233 18.2546C23.5778 18.0671 23.6322 17.9036 23.6947 17.7354C23.7092 17.6937 23.7252 17.652 23.7412 17.6104C23.9334 17.1168 24.1795 16.6459 24.4752 16.2065C25.3467 14.9541 26.5754 13.9935 28.001 13.4499C28.2863 13.3356 28.5764 13.2357 28.8713 13.1502C29.4084 12.9931 29.9571 12.879 30.5123 12.8089H30.5572C32.0449 12.6185 33.5559 12.7442 34.9917 13.1775C35.0927 13.2079 35.192 13.2416 35.2898 13.2768C35.4661 13.3393 35.636 13.4083 35.801 13.482C36.085 13.6075 36.3588 13.7548 36.62 13.9227C36.8205 14.0425 37.0137 14.1741 37.1985 14.317C37.3219 14.4083 37.4582 14.5173 37.6056 14.6375C37.8011 14.7977 38.0159 15.0045 38.237 15.2337C39.1616 16.1826 39.8505 17.3354 40.2483 18.5992C40.2793 18.6986 40.3082 18.7995 40.3349 18.9021C40.4006 19.1457 40.4551 19.3989 40.4952 19.6617C40.7708 21.2275 40.6266 23.1298 39.7131 25.3831Z" fill="#F26E29"/>
<path fill-rule="evenodd" clip-rule="evenodd" d="M39.6204 25.6897C39.6504 25.6992 39.6818 25.7041 39.7133 25.7041C39.842 25.7082 39.9606 25.635 40.0146 25.5182C40.8608 23.4267 41.1348 21.4411 40.8303 19.6157C40.7823 19.3384 40.7246 19.0724 40.6589 18.8272C40.63 18.715 40.6012 18.6108 40.5691 18.5066C40.1598 17.1941 39.4459 15.997 38.4857 15.0129C38.279 14.7998 38.0594 14.5914 37.8318 14.3959C37.6844 14.2693 37.5401 14.1539 37.4087 14.0561C37.2149 13.908 37.0132 13.7705 36.8045 13.6443C36.5314 13.4694 36.2453 13.3156 35.9487 13.1843C35.766 13.1026 35.5913 13.0321 35.4151 12.9712C35.3125 12.9327 35.2083 12.8974 35.1057 12.867C33.6275 12.4204 32.0717 12.2904 30.5398 12.4856H30.4886C29.9166 12.5588 29.3513 12.6767 28.7978 12.8381C28.4901 12.9279 28.1872 13.0321 27.8987 13.1474C26.3233 13.7789 25.0861 14.7405 24.2239 16.0226C23.9122 16.4846 23.6536 16.9802 23.453 17.5002L23.4081 17.6188C23.3652 17.7353 23.3314 17.8427 23.2955 17.9568C23.2751 18.0216 23.254 18.0885 23.2302 18.1605C23.1645 18.3592 23.1132 18.5483 23.07 18.7262C23.0427 18.84 23.0171 18.9538 22.9914 19.0676C22.0924 23.2232 23.7815 25.2986 23.8553 25.3852C23.9527 25.4996 24.1166 25.5309 24.2494 25.4604C24.3822 25.39 24.4482 25.2367 24.4082 25.0919L24.4078 25.0906C24.3895 25.023 23.7232 22.5671 24.3585 20.0372C24.4002 19.8673 24.4482 19.6974 24.5043 19.5259C24.5107 19.5035 24.5188 19.4811 24.5316 19.4474C24.5556 19.3657 24.5845 19.2855 24.6149 19.2054C24.6886 19.0067 24.7736 18.8079 24.8633 18.6172C25.4434 17.4088 26.3744 16.4034 27.5349 15.7325C27.8572 15.541 28.1924 15.3724 28.5382 15.2277C28.6247 15.1892 28.7128 15.1523 28.8058 15.1171C29.2442 14.9457 29.6954 14.809 30.1552 14.7084L30.2594 14.6892C31.2281 14.4802 32.2286 14.4644 33.2034 14.6427L33.2515 14.6523H33.2755H33.2932C33.5373 14.7003 33.7786 14.7619 34.016 14.8366C34.3685 14.9466 34.7119 15.0838 35.0432 15.2469C35.0608 15.256 35.0781 15.2649 35.0953 15.2738C35.2152 15.3356 35.3306 15.3952 35.4792 15.4793C35.649 15.5754 35.8157 15.6812 35.9872 15.7998C37.109 16.5867 38.0155 17.6425 38.6235 18.8704C38.7261 19.066 38.8094 19.2583 38.8864 19.4426C38.8985 19.4736 38.9109 19.504 38.9233 19.5343C38.9435 19.5837 38.9636 19.6329 38.9825 19.6846C39.6629 21.4826 39.8076 23.4393 39.3992 25.3178C39.3656 25.4803 39.4615 25.6417 39.6204 25.6897ZM30.6052 13.1235C31.0455 13.0705 31.4886 13.0437 31.9321 13.0434C32.9459 13.0212 33.9571 13.1542 34.9307 13.4376C35.0252 13.4665 35.1198 13.4985 35.2143 13.5322C35.3746 13.5899 35.5349 13.654 35.6951 13.7293C35.9643 13.8474 36.2237 13.9868 36.4708 14.146L36.4868 14.1556C36.6756 14.2695 36.858 14.3937 37.0333 14.5274C37.0557 14.5456 37.0783 14.564 37.1011 14.5826C37.203 14.6654 37.3099 14.7524 37.4212 14.8479C37.6327 15.0306 37.8394 15.2246 38.0318 15.4249C38.9232 16.3354 39.5861 17.4443 39.9661 18.6606C39.9966 18.7568 40.0238 18.8545 40.0511 18.9539C40.1152 19.1799 40.1681 19.4267 40.2113 19.6831C40.3491 20.5315 40.3604 21.3956 40.245 22.2473C40.1662 21.2835 39.9503 20.3359 39.6039 19.4331C39.5703 19.3449 39.535 19.2568 39.4982 19.1718C39.418 18.9763 39.3235 18.7712 39.2177 18.5612C38.562 17.2371 37.5844 16.0986 36.3746 15.2502C36.1871 15.122 35.9948 14.9922 35.8201 14.9008C35.7597 14.8692 35.7013 14.8378 35.6447 14.8073C35.5377 14.7497 35.4368 14.6953 35.3393 14.6492C34.7363 14.3537 34.0974 14.1382 33.4386 14.0082H33.4066H33.3889L33.3376 13.9985C32.2845 13.8053 31.2037 13.8205 30.1564 14.0434L30.0266 14.0691C29.5353 14.1769 29.053 14.3227 28.5842 14.505C28.4833 14.5434 28.3855 14.5835 28.2942 14.6236C27.9232 14.7798 27.5633 14.9613 27.2172 15.1669C25.946 15.9032 24.9271 17.0065 24.294 18.3321C24.1946 18.5436 24.1049 18.7584 24.0247 18.9731C23.9895 19.0645 23.9574 19.1558 23.9318 19.2375C23.9286 19.2467 23.9249 19.256 23.9212 19.2652C23.9119 19.2882 23.9029 19.3106 23.9029 19.3289C23.8404 19.5084 23.7875 19.6927 23.7427 19.8754C23.5363 20.7181 23.4367 21.5833 23.4462 22.4508C23.3185 21.3642 23.3786 20.2637 23.6241 19.1975C23.6336 19.1576 23.6431 19.1165 23.6528 19.0745C23.6676 19.0102 23.6829 18.9439 23.6994 18.877C23.7395 18.7087 23.7892 18.5276 23.8436 18.3385C23.8837 18.1766 23.9398 18.0083 24.0039 17.8352C24.0111 17.8126 24.0196 17.7906 24.0291 17.7663C24.0343 17.7528 24.0398 17.7385 24.0456 17.7231C24.2289 17.2515 24.4638 16.8016 24.7459 16.3817C25.536 15.2149 26.6739 14.3271 28.1291 13.7437C28.3983 13.6347 28.682 13.5386 28.9705 13.4536C29.4891 13.3012 30.0191 13.1908 30.5555 13.1235H30.6052Z" fill="#32335C"/>
<path fill-rule="evenodd" clip-rule="evenodd" d="M37.6153 14.6454C37.0912 14.8056 36.3476 15.0396 35.6376 15.2143C34.9175 14.7967 34.1326 14.5026 33.3154 14.3441C33.9258 13.9011 34.5932 13.5426 35.2995 13.2783C35.7661 13.4401 36.2125 13.6552 36.6297 13.9194C36.979 14.1318 37.3088 14.3748 37.6153 14.6454Z" fill="#53607E"/>
<path fill-rule="evenodd" clip-rule="evenodd" d="M35.4779 15.4843C35.5266 15.5125 35.5819 15.5275 35.6382 15.5276C35.664 15.528 35.6899 15.5253 35.7151 15.5196C36.4491 15.3385 37.2071 15.1045 37.7136 14.9442C37.8239 14.9086 37.9064 14.8162 37.9294 14.7025C37.9523 14.5889 37.9121 14.4717 37.8241 14.3961C37.5043 14.1161 37.1606 13.8646 36.7969 13.6445C36.3611 13.3671 35.8948 13.1407 35.4074 12.9698C35.3363 12.945 35.2589 12.945 35.1878 12.9698C34.4541 13.2444 33.7608 13.6169 33.1268 14.0772C33.0237 14.1524 32.975 14.2815 33.0028 14.4061C33.0307 14.5306 33.1297 14.6268 33.255 14.6509C34.0371 14.8033 34.7884 15.085 35.4779 15.4843ZM35.6847 14.8642C35.1839 14.5853 34.6539 14.3623 34.1045 14.1991C34.4864 13.969 34.8868 13.7712 35.3016 13.6077C35.7057 13.7565 36.0925 13.9483 36.4555 14.1798L36.4716 14.191C36.6346 14.2888 36.7919 14.3958 36.9427 14.5116C36.5597 14.6286 36.1206 14.7552 35.6847 14.8642Z" fill="#32335C"/>
<path fill-rule="evenodd" clip-rule="evenodd" d="M38.2471 15.233C37.5597 15.3795 36.8639 15.4828 36.1636 15.5423C35.9905 15.4221 35.8143 15.31 35.6316 15.2058C35.4825 15.1193 35.3303 15.0455 35.1748 14.9638V14.9638C35.811 14.6384 36.4956 14.4181 37.2021 14.3115C37.3255 14.4029 37.4618 14.5119 37.6092 14.6321C37.8111 14.8051 38.0259 15.0039 38.2471 15.233Z" fill="#FF9966"/>
<path fill-rule="evenodd" clip-rule="evenodd" d="M35.9878 15.8062C36.0414 15.8436 36.1052 15.8638 36.1705 15.8639L36.1994 15.8671C36.9116 15.8047 37.6192 15.6977 38.3181 15.5466C38.431 15.5212 38.5215 15.4368 38.5547 15.3258C38.588 15.2149 38.5587 15.0947 38.4783 15.0113C38.2716 14.7982 38.052 14.5898 37.8245 14.3943C37.677 14.2677 37.5328 14.1523 37.3998 14.053C37.3316 14.0026 37.2464 13.9813 37.1626 13.9937C36.4176 14.1051 35.6959 14.3379 35.0263 14.6828C34.9208 14.7409 34.8568 14.8531 34.8605 14.9735C34.8642 15.0938 34.935 15.2019 35.0439 15.2533C35.0614 15.2624 35.0787 15.2713 35.0959 15.2802C35.2158 15.3421 35.3313 15.4016 35.4798 15.4857C35.6497 15.5819 35.8164 15.6876 35.9878 15.8062ZM36.2565 15.2133C36.1379 15.1331 36.0193 15.0594 35.9023 14.9889C36.2972 14.8349 36.7062 14.7201 37.1235 14.6459C37.2133 14.7165 37.3078 14.7934 37.4056 14.8767L37.5835 15.037C37.1444 15.1123 36.6748 15.1764 36.2565 15.2133Z" fill="#32335C"/>
<path fill-rule="evenodd" clip-rule="evenodd" d="M24.5746 18.4814C24.4784 18.685 24.3919 18.8901 24.315 19.0953C24.2829 19.1802 24.2525 19.2667 24.2252 19.3533C24.2156 19.3805 24.206 19.4094 24.198 19.4366C23.8877 18.9213 23.7165 18.3343 23.7012 17.733C23.7156 17.6913 23.7316 17.6497 23.7476 17.608C23.9398 17.1144 24.186 16.6436 24.4817 16.2041C24.4416 16.7506 24.5345 17.709 24.5746 18.4814Z" fill="#53607E"/>
<path fill-rule="evenodd" clip-rule="evenodd" d="M23.93 19.6126C23.9893 19.7026 24.0898 19.7568 24.1976 19.7568L24.2441 19.76C24.3672 19.7415 24.4684 19.6534 24.5037 19.5341C24.5101 19.5116 24.5181 19.4892 24.531 19.4555C24.555 19.3738 24.5839 19.2937 24.6143 19.2135C24.688 19.0148 24.773 18.8161 24.8627 18.6238C24.8874 18.5742 24.8979 18.5187 24.8932 18.4635C24.8819 18.2488 24.8675 18.018 24.8515 17.7872C24.8048 17.2683 24.7876 16.7471 24.8002 16.2262C24.8101 16.0818 24.7219 15.9486 24.585 15.9014C24.4481 15.8541 24.2966 15.9045 24.2152 16.0243C23.9036 16.4863 23.645 16.982 23.4444 17.5019C23.4284 17.5436 23.4123 17.5869 23.3979 17.6285C23.3842 17.6676 23.3782 17.709 23.3803 17.7503C23.3949 18.4089 23.5846 19.0517 23.93 19.6126ZM24.1677 18.6032C24.0898 18.3348 24.042 18.0585 24.025 17.7795L24.025 17.7795C24.0315 17.7618 24.0379 17.7442 24.0459 17.725C24.0891 17.6128 24.1356 17.5022 24.1853 17.3948C24.1933 17.5391 24.2029 17.6849 24.2125 17.8291C24.227 18.0295 24.2398 18.2282 24.2494 18.4189C24.2423 18.4348 24.235 18.4509 24.2278 18.467C24.2073 18.5124 24.1866 18.5583 24.1677 18.6032Z" fill="#32335C"/>
<path fill-rule="evenodd" clip-rule="evenodd" d="M40.5106 19.6608C40.0997 19.6639 39.6893 19.635 39.2829 19.5743C39.2509 19.4894 39.2172 19.414 39.182 19.3227C39.0986 19.1224 39.0073 18.9252 38.9111 18.7329C39.3434 18.582 39.8054 18.5359 40.2589 18.5983C40.2899 18.6977 40.3188 18.7986 40.3455 18.9012C40.4176 19.1448 40.4657 19.398 40.5106 19.6608Z" fill="#8BCBC9"/>
<path fill-rule="evenodd" clip-rule="evenodd" d="M39.2331 19.8919C39.6253 19.9494 40.021 19.9794 40.4174 19.9817L40.5136 19.9881C40.6075 19.9865 40.6959 19.9437 40.7556 19.8711C40.815 19.7992 40.8401 19.705 40.8245 19.6131C40.7764 19.3358 40.7187 19.0698 40.653 18.8246C40.6241 18.7124 40.5953 18.6082 40.5632 18.5041C40.5274 18.3869 40.4278 18.3004 40.3068 18.2813C39.8015 18.2115 39.2869 18.2626 38.8051 18.4303C38.718 18.4603 38.6479 18.5262 38.6128 18.6114C38.5778 18.6969 38.5813 18.7932 38.6224 18.8759C38.725 19.0714 38.8084 19.2637 38.8853 19.448C38.8905 19.4609 38.8959 19.4739 38.9012 19.4869C38.9283 19.5529 38.9557 19.6198 38.9798 19.6868C39.0206 19.7962 39.1176 19.8748 39.2331 19.8919ZM40.1196 19.3338C39.9208 19.3242 39.7141 19.3065 39.5106 19.2809H39.5122L39.5122 19.2809C39.5009 19.2536 39.4897 19.2264 39.4801 19.1991C39.4449 19.1142 39.408 19.0277 39.3679 18.9411C39.5787 18.8981 39.7941 18.8819 40.009 18.893C40.0118 18.9038 40.0158 18.9145 40.0199 18.9253C40.0272 18.945 40.0346 18.9647 40.0346 18.9844C40.0635 19.0966 40.0923 19.2136 40.1196 19.3338Z" fill="#32335C"/>
<path fill-rule="evenodd" clip-rule="evenodd" d="M40.6249 21.1726C40.3068 21.2283 39.9794 21.1619 39.7082 20.9867V20.9867C39.6025 20.502 39.4594 20.0262 39.2803 19.5635C39.6814 19.5264 40.0845 19.5157 40.4871 19.5315C40.5862 20.0727 40.6324 20.6224 40.6249 21.1726Z" fill="#53607E"/>
<path fill-rule="evenodd" clip-rule="evenodd" d="M39.5443 21.2618C39.7996 21.4256 40.0967 21.5124 40.4001 21.5118C40.4901 21.5139 40.5802 21.5085 40.6693 21.4958C40.8254 21.4697 40.9391 21.3335 40.937 21.1752C40.9437 20.604 40.8948 20.0334 40.7911 19.4716C40.764 19.3262 40.6408 19.2183 40.493 19.2104C40.0761 19.194 39.6585 19.2053 39.243 19.2441C39.1425 19.2525 39.0518 19.3077 38.9982 19.3931C38.9446 19.4786 38.9344 19.5842 38.9705 19.6784C39.1441 20.1252 39.2823 20.585 39.384 21.0534C39.4052 21.1426 39.4635 21.2184 39.5443 21.2618ZM40.3037 20.8659C40.1926 20.855 40.0842 20.8252 39.9832 20.7777H39.9864C39.9137 20.4658 39.8299 20.1575 39.7348 19.853C39.895 19.8434 40.0553 19.8434 40.2156 19.8434C40.2661 20.1821 40.2955 20.5236 40.3037 20.8659Z" fill="#32335C"/>
<path fill-rule="evenodd" clip-rule="evenodd" d="M28.9867 14.4208C29.1998 14.4545 31.5285 14.9257 31.7112 12.113C31.7112 12.081 31.6871 12.0762 31.6567 12.0762C31.1036 12.095 30.5536 12.1664 30.014 12.2893C28.1597 12.7188 28.8793 14.2125 28.9611 14.4016C28.9656 14.4121 28.9753 14.4195 28.9867 14.4208V14.4208Z" fill="#53607E"/>
<path fill-rule="evenodd" clip-rule="evenodd" d="M28.9609 14.7414C29.1495 14.7729 29.3403 14.789 29.5315 14.7895C30.091 14.8087 30.6402 14.6356 31.0876 14.2991C31.655 13.8487 31.9739 13.1211 32.038 12.1371C32.0452 12.0407 32.0122 11.9455 31.9466 11.8743C31.8742 11.7981 31.7729 11.7562 31.6678 11.7589C31.0894 11.778 30.5141 11.8521 29.9498 11.9801C29.275 12.1371 28.8199 12.4432 28.5939 12.892C28.4385 13.2029 28.3247 13.735 28.666 14.5122V14.5315C28.7143 14.6446 28.8183 14.7243 28.9401 14.7414H28.9609ZM30.6813 13.7943C30.3176 14.0844 29.7935 14.2014 29.1957 14.1276H29.1989C29.0146 13.6516 29.0739 13.3487 29.1605 13.1757C29.2951 12.9064 29.606 12.7125 30.0868 12.6019C30.5062 12.5095 30.9313 12.4447 31.3593 12.408C31.2711 13.0426 31.0451 13.5042 30.6813 13.7943Z" fill="#32335C"/>
<path fill-rule="evenodd" clip-rule="evenodd" d="M28.5464 14.4377C28.2259 14.4938 25.3411 15.8656 24.4565 11.1347C24.4469 11.0882 24.4885 11.0689 24.535 11.077C25.1292 11.1941 25.7304 11.2728 26.3348 11.3125C29.4887 11.6507 28.6986 14.122 28.5784 14.4072C28.5731 14.4218 28.5613 14.4331 28.5464 14.4377V14.4377Z" fill="#53607E"/>
<path fill-rule="evenodd" clip-rule="evenodd" d="M26.0042 14.6225C26.4098 14.8652 26.8745 14.9911 27.3472 14.9863C27.7423 14.982 28.1343 14.916 28.5091 14.7908L28.6037 14.7619C28.7298 14.7397 28.8354 14.6535 28.8825 14.5343C28.9033 14.4895 29.3761 13.2699 28.7607 12.2458C28.3392 11.5454 27.5347 11.1271 26.368 11.0037C26.1596 10.9813 25.9946 10.9653 25.8503 10.9525C25.429 10.9202 25.0103 10.8597 24.5971 10.7714C24.4691 10.7441 24.3359 10.7819 24.2413 10.8723C24.1573 10.9563 24.1197 11.0759 24.1403 11.1929C24.4625 12.9189 25.0891 14.0728 26.0042 14.6225ZM26.3346 14.0721C25.6518 13.6602 25.1502 12.782 24.8505 11.463C25.2474 11.5329 25.476 11.554 25.7841 11.5824L25.7929 11.5832L26.3009 11.6313C27.2497 11.7339 27.8987 12.0496 28.2112 12.5673C28.5702 13.1666 28.4116 13.8894 28.3282 14.1699H28.317L28.3059 14.1734C27.9424 14.2876 27.1134 14.548 26.3346 14.0721Z" fill="#32335C"/>
<path d="M28.3852 14.5796C27.1479 14.5796 26.2168 13.3728 26.1751 13.3183C26.1216 13.2475 26.1356 13.1467 26.2064 13.0932C26.2772 13.0396 26.378 13.0536 26.4315 13.1244C26.4315 13.1356 27.2713 14.211 28.3194 14.2575C28.1151 13.8793 27.8831 13.5166 27.6255 13.1725C27.5891 13.1281 27.5792 13.0677 27.5995 13.0141C27.6197 12.9604 27.6671 12.9216 27.7237 12.9123C27.7803 12.903 27.8376 12.9246 27.8739 12.969C28.1925 13.4011 28.4776 13.8571 28.7265 14.3328C28.7516 14.3799 28.7516 14.4364 28.7265 14.4835C28.7016 14.5298 28.6554 14.561 28.6031 14.5668C28.5308 14.5758 28.458 14.58 28.3852 14.5796V14.5796Z" fill="#32335C"/>
<path d="M28.9861 14.5815H28.9749C28.8876 14.5747 28.822 14.4991 28.8275 14.4117C28.8275 14.37 28.9076 13.3812 30.1865 12.9997C30.271 12.9748 30.3598 13.0228 30.3852 13.1071C30.3977 13.1479 30.3934 13.192 30.3732 13.2296C30.353 13.2672 30.3187 13.2952 30.2779 13.3074C29.2201 13.628 29.156 14.4004 29.1464 14.4293C29.1421 14.5147 29.0716 14.5816 28.9861 14.5815Z" fill="#32335C"/>
<defs>
<clipPath id="clip0_4_330">
<rect width="20.7749" height="20.7749" fill="white" transform="translate(80.7754 37.5635) rotate(-90)"/>
</clipPath>
</defs>
</svg>
