<svg width="59" height="109" viewBox="0 0 59 109" fill="none" xmlns="http://www.w3.org/2000/svg">
<rect x="1" y="1" width="56.3158" height="107" rx="7.33866" fill="#C0E1F6" stroke="#32335C" stroke-width="1.5"/>
<path fill-rule="evenodd" clip-rule="evenodd" d="M38.9595 52.9117L38.9593 52.9074C39.0844 51.5204 39.2776 47.5167 37.6557 44.8772C35.6889 41.692 32.4658 40.7598 29.7392 40.8053C27.0088 40.7598 23.7857 41.692 21.8189 44.8772C20.1989 47.5053 20.3921 51.5147 20.5191 52.896V52.9068C20.0639 52.7551 19.5676 52.7852 19.134 52.9908C18.1411 53.4626 17.7091 55.039 18.6565 56.481C19.3743 57.5766 20.5856 57.7721 21.5092 57.5611C21.5436 57.65 21.5774 57.7395 21.6109 57.8283C21.6393 57.9035 21.6675 57.9782 21.6958 58.0518L21.8132 58.3455C22.4102 59.8697 23.2889 61.2678 24.4034 62.4667C24.8837 62.9745 25.421 63.4253 26.0046 63.8101C27.0521 64.5198 28.2811 64.9143 29.5459 64.947H29.9249C31.1899 64.9148 32.419 64.5202 33.4663 63.8101C33.908 63.5187 34.3232 63.1896 34.7074 62.8266C34.3229 63.1923 33.9071 63.524 33.4644 63.8177C32.4171 64.5278 31.188 64.9224 29.923 64.9545H29.544C28.2792 64.9219 27.0502 64.5273 26.0027 63.8177C25.4191 63.4329 24.8819 62.9821 24.4015 62.4743V68.7517C24.4982 69.3638 25.7241 69.8867 27.4598 70.1311C28.1899 70.2325 28.9262 70.2838 29.6634 70.2846H29.796C30.5332 70.2838 31.2695 70.2325 31.9997 70.1311C33.7448 69.8791 34.9745 69.3581 35.0598 68.7423V62.4748L35.0693 62.4648C36.1832 61.2665 37.0613 59.869 37.6576 58.3455L37.7751 58.0518C37.8406 57.8908 37.9024 57.7243 37.9623 57.5595C38.8868 57.773 40.1023 57.5793 40.8219 56.481C41.7617 55.039 41.3373 53.4626 40.3406 52.9964C39.9083 52.7913 39.4136 52.761 38.9595 52.9117ZM21.1273 56.3825C21.1652 56.5135 21.2042 56.6434 21.2443 56.772C21.2024 56.6469 21.1609 56.5209 21.1197 56.3938C21.0894 56.2934 21.0534 56.1683 21.0307 56.0831L21.0306 56.0828L21.0306 56.0826C21.0078 55.9974 20.9776 55.884 20.9625 55.8197C20.9564 55.794 20.9516 55.7723 20.9467 55.75L20.9466 55.7498C20.9391 55.7162 20.9314 55.6814 20.9189 55.6302C20.9085 55.5876 20.8995 55.5435 20.8905 55.4995C20.8815 55.4554 20.8725 55.4114 20.8621 55.3687C20.8412 55.2835 20.8242 55.1982 20.8071 55.1091L20.7957 55.0504C20.7749 54.9367 20.7541 54.8211 20.7351 54.7037C20.7199 54.6216 20.7067 54.5382 20.6953 54.4535C20.6934 54.4438 20.6912 54.4339 20.6891 54.424L20.6891 54.4237C20.6809 54.3857 20.6726 54.347 20.6726 54.3095C20.6555 54.1902 20.6385 54.0689 20.6233 53.9457C20.6056 53.8106 20.5905 53.6798 20.5778 53.5535C20.5665 53.5005 20.5608 53.4474 20.5608 53.3944C20.5608 53.3944 20.574 53.3584 20.5608 53.3299C20.5536 53.3145 20.5531 53.2896 20.5526 53.2664C20.5522 53.2469 20.5519 53.2285 20.5475 53.2181C20.5417 53.2042 20.5416 53.2016 20.5411 53.1881C20.5407 53.1797 20.5402 53.1669 20.538 53.1442L20.537 53.134L20.5362 53.1265C20.5368 53.1289 20.5374 53.131 20.538 53.1329C20.5423 53.1449 20.542 53.1519 20.5415 53.1602C20.5409 53.1701 20.5403 53.182 20.5475 53.2068C20.5548 53.2316 20.5552 53.2502 20.5557 53.2687C20.5561 53.2842 20.5565 53.2996 20.5608 53.3186C20.5703 53.3602 20.5703 53.383 20.5703 53.383C20.5718 53.4042 20.5745 53.4254 20.5772 53.4467C20.5813 53.4785 20.5854 53.5103 20.5854 53.5421C20.5977 53.6652 20.6133 53.7915 20.6276 53.9074L20.6309 53.9344C20.646 54.0575 20.6631 54.1788 20.6802 54.2982C20.6828 54.3147 20.6852 54.3314 20.6876 54.3482C20.6921 54.3796 20.6967 54.4113 20.7029 54.4422C20.7143 54.5268 20.7275 54.6102 20.7427 54.6923C20.7616 54.8098 20.7825 54.9254 20.8033 55.039L20.8147 55.0978C20.8232 55.1423 20.8327 55.185 20.8422 55.2276C20.8516 55.2702 20.8611 55.3128 20.8696 55.3574C20.8793 55.4081 20.8921 55.4644 20.9038 55.5157C20.9126 55.5544 20.9208 55.5904 20.9265 55.6189C20.9397 55.6852 20.9549 55.7477 20.9701 55.8083L20.9819 55.8549C20.9993 55.9233 21.015 55.9848 21.0383 56.0717C21.0667 56.1778 21.097 56.282 21.1273 56.3825ZM20.5257 53.0257C20.5265 53.0374 20.5273 53.0489 20.5281 53.0597C20.5246 53.029 20.5216 52.9973 20.5211 52.9642C20.5228 52.9846 20.5243 53.0056 20.5257 53.0257Z" fill="#FFD6CB"/>
<g style="mix-blend-mode:multiply" opacity="0.15">
<path fill-rule="evenodd" clip-rule="evenodd" d="M34.681 62.8544V68.4061C29.9591 68.48 26.4613 66.049 24.792 64.5957V62.8506C25.1675 63.2095 25.5754 63.5329 26.0104 63.8169C27.0582 64.5259 28.287 64.9204 29.5517 64.9538H29.9307C31.1954 64.9204 32.4242 64.5259 33.4721 63.8169C33.9029 63.5328 34.3075 63.2106 34.681 62.8544Z" fill="#7C3830"/>
</g>
<path d="M6.30078 83.296C6.33766 83.1496 6.35698 83.0715 6.39456 82.9294L6.39461 82.9293C6.42071 82.8305 6.44653 82.7329 6.47138 82.6366C6.57749 82.2577 6.6855 81.8787 6.7954 81.532L6.8348 81.407C6.8632 81.317 6.89132 81.2279 6.91856 81.1397L6.91856 81.1397C6.94888 81.045 6.97919 80.9503 7.00951 80.8631C7.09288 80.613 7.17625 80.3704 7.25962 80.1374C7.44784 79.6144 7.63732 79.1331 7.82806 78.6935C7.87543 78.5818 7.9228 78.4719 7.97017 78.3657L7.99859 78.3032C8.10091 78.0683 8.20513 77.8485 8.30934 77.64C8.60555 77.0193 8.95686 76.4263 9.35906 75.8684C9.36438 75.8604 9.37011 75.8529 9.37568 75.8455L9.37569 75.8455C9.38202 75.8372 9.38813 75.8291 9.39317 75.821C9.49738 75.6846 9.59781 75.5614 9.69444 75.4553L9.70581 75.4421C9.77386 75.3655 9.84615 75.2911 9.91793 75.2172L9.91797 75.2171C9.94211 75.1923 9.96619 75.1675 9.99003 75.1427C10.6011 74.528 11.2734 73.9776 11.9966 73.4999L12.2164 73.354C12.3276 73.2807 12.4413 73.2087 12.5575 73.138C12.8379 72.9637 13.1259 72.795 13.4234 72.6302C13.9142 72.3573 14.422 72.0996 14.9393 71.8552C15.5645 71.5596 16.2012 71.2868 16.8341 71.0291L17.2642 70.8585C17.3873 70.8093 17.5124 70.7619 17.6431 70.7164C18.1964 70.5061 18.7459 70.3128 19.2821 70.1328C20.3205 69.7842 21.3039 69.4924 22.1717 69.2517C23.0699 69.0035 23.8391 68.8103 24.4057 68.6738C24.4029 68.7003 24.4029 68.727 24.4057 68.7534C24.5023 69.3654 25.7321 69.8903 27.4639 70.1328C28.1941 70.2342 28.9304 70.2855 29.6676 70.2863H29.8002C30.5374 70.2855 31.2737 70.2342 32.0039 70.1328C33.749 69.8865 34.9787 69.3597 35.064 68.7439C35.0658 68.7206 35.0658 68.6972 35.064 68.6738C35.6324 68.8121 36.4093 69.0054 37.3131 69.2555C38.1771 69.4943 39.1548 69.7861 40.1875 70.1328C40.8431 70.3526 41.5139 70.5933 42.1979 70.8585C42.5453 70.9924 42.892 71.1333 43.2381 71.2811L43.6342 71.4497L43.9525 71.5899C44.6668 71.912 45.3698 72.2569 46.0368 72.6302C46.4536 72.8613 46.8591 73.102 47.2456 73.354L47.3536 73.426C47.5431 73.5473 47.7326 73.6723 47.8994 73.805C48.4595 74.2019 48.985 74.6456 49.4701 75.1313C49.5725 75.2336 49.671 75.3378 49.7657 75.444C49.8814 75.572 49.9902 75.7061 50.0916 75.8457V75.857C50.1788 75.9745 50.2698 76.1033 50.3588 76.236C50.6483 76.6819 50.9103 77.1451 51.1433 77.623C51.255 77.8504 51.3668 78.091 51.4824 78.3487C51.5544 78.5116 51.6264 78.6803 51.6984 78.8546C51.7477 78.9719 51.7955 79.0923 51.8445 79.2157L51.8614 79.2582C51.9688 79.531 52.0768 79.8184 52.1854 80.1203C52.2688 80.3534 52.3521 80.5959 52.4355 80.846C52.5315 81.1404 52.6282 81.4461 52.7254 81.7631C52.7389 81.8089 52.7527 81.8548 52.7665 81.901L52.7677 81.9051C52.7942 81.9934 52.8208 82.0825 52.8467 82.1724L52.8583 82.2126C52.8951 82.3408 52.9359 82.4825 52.9736 82.6196C53.04 82.8545 53.0437 83.0478 53.1024 83.296H6.30078Z" fill="#F26E29"/>
<g style="mix-blend-mode:soft-light" opacity="0.8">
<path d="M37.3226 69.2535C36.8546 69.9698 36.072 70.5382 35.0678 70.9588C34.2088 71.3055 33.3101 71.5441 32.3923 71.6694C30.6369 71.917 28.8555 71.917 27.1001 71.6694C26.1771 71.5428 25.2733 71.3022 24.4095 70.9532C23.411 70.5325 22.6341 69.9641 22.168 69.2478C23.0661 68.9996 23.8354 68.8063 24.4019 68.6699C24.3991 68.6964 24.3991 68.723 24.4019 68.7495C24.4986 69.3615 25.7283 69.8864 27.4602 70.1289C28.1903 70.2303 28.9266 70.2816 29.6638 70.2824H29.7964C30.5336 70.2816 31.2699 70.2303 32.0001 70.1289C33.7452 69.8826 34.9749 69.3558 35.0602 68.74C35.0621 68.7167 35.0621 68.6933 35.0602 68.6699C35.6438 68.8101 36.4188 69.0034 37.3226 69.2535Z" fill="white"/>
</g>
<path fill-rule="evenodd" clip-rule="evenodd" d="M29.9454 40.4357L29.7547 40.4374C27.6704 40.3995 23.8315 40.9092 21.5312 44.6875C20.0675 47.0633 20.0192 50.4375 20.1285 52.2866L20.1377 52.4332C19.7404 52.3958 19.3371 52.4656 18.9714 52.6399C18.4162 52.9233 18.0101 53.4322 17.8572 54.0364C17.6272 54.9487 17.8027 55.9158 18.3385 56.6891L18.3755 56.745C18.9267 57.5574 19.8532 58.037 20.8377 58.0155C20.9816 58.0119 21.125 57.9993 21.2669 57.9775C21.2944 58.0513 21.3225 58.1253 21.3512 58.1993L21.4687 58.4949C22.0662 60.0117 22.9329 61.4075 24.0265 62.6153L24.0361 62.6258L24.0363 68.3682C23.3814 68.5288 22.7206 68.7022 22.0523 68.886C21.0196 69.1721 20.0685 69.462 19.1438 69.7728C18.5431 69.9812 18.0012 70.1707 17.4934 70.3601C17.4505 70.3753 17.41 70.3902 17.3699 70.4055L16.97 70.5602C16.8734 70.5983 16.7765 70.6374 16.6805 70.6766L16.403 70.7884C15.8483 71.0147 15.2971 71.2572 14.7611 71.5122C14.2154 71.7699 13.6962 72.0333 13.2225 72.2985C12.8966 72.4804 12.6086 72.6491 12.3452 72.812L12.2551 72.8674C12.1657 72.9229 12.079 72.9783 11.9966 73.0337C11.9189 73.083 11.8412 73.1341 11.7711 73.1834C11.0276 73.6695 10.3356 74.2301 9.70578 74.8565C9.64715 74.9237 9.58904 74.9825 9.53397 75.0383C9.49118 75.0816 9.45018 75.1231 9.41208 75.1654L9.39882 75.1824C9.30029 75.2885 9.19418 75.4174 9.0767 75.5727C9.06933 75.5808 9.06297 75.5897 9.05775 75.5993L9.03881 75.6239L8.93602 75.7686C8.56318 76.3017 8.23504 76.8649 7.95498 77.4524C7.86295 77.6216 7.78831 77.783 7.71865 77.9409L7.63665 78.1288L7.55953 78.3025C7.52738 78.376 7.4958 78.451 7.46422 78.5267L7.40106 78.6763C7.23264 79.08 7.06421 79.5215 6.89578 79.9914C6.81241 80.2264 6.72715 80.4727 6.64378 80.7247L6.61205 80.8186L6.54904 81.0089L6.38137 81.5501C6.31937 81.7512 6.25683 81.9623 6.19412 82.1812L6.09997 82.5153C6.07007 82.633 6.03878 82.7526 6.00726 82.8731L6.00707 82.8738C5.97472 82.9975 5.94212 83.1221 5.91049 83.2467L5.85933 83.4362C5.84322 83.4987 5.84349 83.6098 5.82715 83.6749H53.6709L53.5231 83.1728C53.5231 83.1728 53.4056 82.7294 53.345 82.5172C53.3147 82.4054 53.2825 82.2917 53.2502 82.1818L53.218 82.0662L53.0949 81.6513C53.0463 81.5021 53.0007 81.3554 52.9558 81.2112L52.9556 81.2108L52.9556 81.2105C52.9041 81.0453 52.8537 80.8834 52.8012 80.7247C52.7178 80.4727 52.6325 80.2264 52.5492 79.9914C52.4374 79.6864 52.3275 79.3889 52.2195 79.1179L52.2024 79.0705C52.1532 78.9455 52.1039 78.8242 52.0546 78.7086C51.9826 78.5305 51.9087 78.36 51.8348 78.1933C51.741 77.9844 51.6547 77.7968 51.5718 77.6225L51.49 77.4524C51.2494 76.9628 50.9806 76.4877 50.6847 76.0294C50.6461 75.9751 50.6089 75.9204 50.571 75.8649L50.5709 75.8648L50.5704 75.864L50.57 75.8634L50.5698 75.8632C50.5169 75.7856 50.4628 75.7064 50.4024 75.6239L50.3872 75.605C50.264 75.4382 50.1466 75.2942 50.0461 75.1843C49.9457 75.0744 49.8415 74.9626 49.7373 74.8584C49.2368 74.3575 48.6949 73.8999 48.1172 73.4904C47.9277 73.3539 47.7402 73.2251 47.5639 73.1114C47.5241 73.0849 47.4844 73.0564 47.4503 73.0356L47.3235 72.9537C46.9829 72.7357 46.6193 72.5206 46.2167 72.2966C45.5744 71.9404 44.8828 71.5956 44.0983 71.2431L43.7743 71.101L43.6739 71.0574L43.3783 70.9305C43.0392 70.7865 42.6962 70.6481 42.3267 70.5041C41.6844 70.254 41.0212 70.0153 40.2993 69.7728C39.367 69.4582 38.3931 69.1626 37.4059 68.8898C36.8146 68.7255 36.2857 68.5881 35.8468 68.4776L35.4389 68.3761L35.4392 62.6514C36.5502 61.4347 37.4294 60.0248 38.0331 58.4911L38.1525 58.1917C38.1784 58.1247 38.204 58.057 38.2294 57.9895C38.3653 58.0063 38.5022 58.015 38.6394 58.0155C39.6411 58.0363 40.5826 57.5383 41.1292 56.6986L41.1742 56.6318C41.6742 55.8699 41.834 54.9324 41.6124 54.0459C41.4581 53.4418 41.0516 52.9331 40.4963 52.6494C40.1466 52.4825 39.7625 52.4114 39.3822 52.4385C39.5006 50.6243 39.4884 47.1241 37.9876 44.6894C35.7232 41.0226 32.0504 40.4348 29.9454 40.4357ZM21.765 69.7684L22.0193 69.6962C22.5225 70.3467 23.2747 70.8853 24.2598 71.3C25.1561 71.6631 26.0944 71.9127 27.0527 72.0427C27.9476 72.1714 28.8506 72.2347 29.7547 72.2322C30.6554 72.2375 31.5552 72.1773 32.4472 72.0522C33.3954 71.9217 34.3239 71.6748 35.2117 71.317C36.2094 70.9006 36.9692 70.3547 37.4747 69.6995C38.364 69.9495 39.2403 70.2195 40.0833 70.5023C40.7938 70.741 41.4456 70.976 42.0766 71.2223C42.4385 71.3625 42.7758 71.4989 43.1093 71.641L43.5015 71.8078L43.8122 71.9461C44.5758 72.289 45.2504 72.6244 45.8738 72.9712C46.3077 73.2137 46.698 73.4468 47.0656 73.6855L47.2739 73.8219C47.4136 73.9144 47.5564 74.0129 47.7004 74.1175C48.2411 74.5028 48.7482 74.9332 49.2162 75.4041L49.2171 75.4051L49.2173 75.4052L49.2176 75.4055C49.3119 75.5017 49.408 75.5998 49.5004 75.7054C49.6072 75.8227 49.7071 75.9461 49.7998 76.0749L49.8169 76.0957C49.9097 76.2189 49.9893 76.3363 50.067 76.4557C50.3465 76.8885 50.5996 77.3377 50.8249 77.801L50.8642 77.881C50.93 78.0161 50.9976 78.1607 51.069 78.3174L51.1565 78.5116C51.2285 78.6726 51.2986 78.8375 51.3706 79.0118L51.418 79.1267C51.4495 79.204 51.4811 79.2828 51.5127 79.3624L51.5298 79.4078C51.634 79.6712 51.742 79.9573 51.85 80.2586L51.9122 80.4326C51.9741 80.6085 52.0352 80.7901 52.0963 80.9748L52.1545 81.1505C52.2319 81.3866 52.3085 81.6299 52.3843 81.8805L52.4279 82.0264L52.5378 82.4016C52.5473 82.4354 52.557 82.4694 52.5667 82.5036C52.5881 82.5788 52.6098 82.6551 52.6306 82.7332L52.6894 82.9454L6.77455 82.917L6.88322 82.5709C6.97767 82.2344 7.07176 81.9163 7.16295 81.6228L7.28611 81.2325C7.29359 81.2096 7.30095 81.1869 7.30826 81.1645L7.30916 81.1617L7.30942 81.1609C7.33133 81.0934 7.35273 81.0275 7.37517 80.9616L7.42499 80.8136C7.49121 80.6175 7.55669 80.4268 7.62339 80.2434C7.79961 79.728 7.98909 79.2506 8.17857 78.8185C8.22404 78.7105 8.27141 78.6025 8.31689 78.5002L8.40274 78.3057C8.47817 78.1369 8.55942 77.9663 8.65037 77.7859C8.93577 77.1878 9.27508 76.617 9.66409 76.0805L9.70199 76.0275L9.73245 75.9891C9.82203 75.8762 9.90041 75.7773 9.96347 75.7092L9.99189 75.6789C10.0715 75.5841 10.1662 75.4894 10.261 75.3946C10.8554 74.8042 11.508 74.2754 12.2088 73.8163L12.4248 73.6741C12.5328 73.604 12.6408 73.5339 12.7564 73.4638L12.8534 73.4039C13.0824 73.2637 13.3303 73.1197 13.6072 72.9655C14.0657 72.7154 14.5678 72.4596 15.1003 72.2076C15.7123 71.9177 16.3433 71.6429 16.9799 71.3909L17.1061 71.3397L17.5282 71.1731C17.6086 71.1416 17.6898 71.1105 17.772 71.0802L17.9235 71.0233C18.2795 70.8906 18.6516 70.7574 19.0498 70.6206L19.3977 70.5023C20.1572 70.2465 20.9364 70.0051 21.765 69.7684ZM22.8348 69.473C23.2724 69.356 23.7101 69.2433 24.1442 69.1361C24.6148 69.9825 26.3429 70.3541 27.2598 70.4949L27.4127 70.5174C28.1605 70.6214 28.9145 70.674 29.6694 70.6747H29.804C30.5583 70.6741 31.3117 70.6215 32.0588 70.5174C32.8964 70.4004 34.7086 70.0538 35.2766 69.229C35.2974 69.1994 35.3166 69.1691 35.3341 69.1382L35.3337 69.1382L35.3406 69.1266C35.3384 69.1305 35.3363 69.1344 35.3341 69.1382C35.5978 69.1987 35.9022 69.2756 36.2433 69.3656L36.6702 69.4795C36.1748 69.9728 35.5819 70.3573 34.9294 70.6084L34.7733 70.6697C33.9908 70.9705 33.1759 71.1795 32.3449 71.2924C30.6266 71.5349 28.8828 71.5349 27.1645 71.2924C26.2728 71.1704 25.3997 70.9388 24.5648 70.6027C23.9129 70.3487 23.3211 69.9615 22.8273 69.4658L22.8348 69.473ZM24.7884 63.3626V68.7079C24.8718 68.9997 25.751 69.5018 27.5207 69.75C28.2339 69.8495 28.9531 69.8995 29.6732 69.8997H29.804C30.5234 69.8995 31.242 69.8494 31.9546 69.75C32.7109 69.6432 33.3042 69.4909 33.7424 69.3287L33.7806 69.3143C34.3602 69.0921 34.651 68.854 34.6736 68.6908C34.6738 68.6545 34.6789 68.6188 34.6885 68.5845L34.6888 63.3792C34.4203 63.6119 34.1387 63.8294 33.8454 64.0307L33.6978 64.13C32.7507 64.771 31.6632 65.1677 30.532 65.2894C30.3297 65.3122 30.126 65.3262 29.9214 65.3313H29.5519L29.5399 65.3308L29.5368 65.3313C29.3285 65.3257 29.1212 65.3108 28.9154 65.2869L28.7238 65.2618L28.6135 65.2451L28.4545 65.2177L28.3273 65.193C27.4679 65.0185 26.6455 64.6835 25.9046 64.2022L25.804 64.1357C25.4475 63.9025 25.1081 63.6442 24.7884 63.3626ZM29.5615 41.1978L29.7395 41.1991C31.6514 41.1688 35.1833 41.6292 37.3187 45.091C38.8345 47.5483 38.6889 51.3705 38.5792 52.7184L38.5655 52.8768V52.9014L38.9105 52.9306L38.5712 52.9223L38.571 52.9244L38.5655 52.9242C38.5567 53.0094 38.5483 53.0835 38.541 53.1445L38.5163 53.3353C38.5153 53.3461 38.5153 53.3568 38.5163 53.3675L38.5049 53.5116C38.4746 53.7844 38.4461 54.0194 38.4083 54.2695C38.3704 54.5196 38.3287 54.7621 38.2851 54.9914L38.2631 55.1077C38.2478 55.1855 38.2314 55.263 38.215 55.3362L38.1666 55.5555L38.1411 55.664V55.6811C38.1288 55.7342 38.116 55.7844 38.1032 55.8332L38.0653 55.9767L38.0654 55.9973C38.0399 56.099 38.0127 56.1877 37.9838 56.2799L37.9438 56.4089L37.9087 56.5192L37.9004 56.5432C37.8152 56.8218 37.7185 57.1117 37.603 57.43V57.449C37.5574 57.5765 37.5094 57.7041 37.4629 57.8277L37.4286 57.9189L37.2522 58.358C36.6733 59.7787 35.8429 61.0839 34.8005 62.2106L34.8356 62.1721C34.82 62.1837 34.805 62.1965 34.7911 62.2106C34.3313 62.6983 33.8162 63.1307 33.2563 63.4991L33.1634 63.5612C32.199 64.1939 31.0761 64.5449 29.9214 64.5734H29.5519C29.5138 64.5724 29.4758 64.5711 29.4377 64.5694L29.3411 64.5642L29.1996 64.5539C28.1352 64.4638 27.1096 64.1014 26.2228 63.4991L26.0945 63.413C25.5849 63.0643 25.1139 62.6619 24.6899 62.2125C24.6789 62.2009 24.6673 62.1902 24.6549 62.1807C23.5895 61.0219 22.7476 59.6759 22.1717 58.2107L22.0561 57.9227C22.0365 57.8715 22.0169 57.8195 21.9974 57.7671L21.8799 57.4508L21.8458 57.4319C21.7131 57.0624 21.5862 56.674 21.4668 56.2799C21.4535 56.2346 21.4385 56.181 21.4242 56.1297L21.4241 56.1293L21.4102 56.0797L21.3711 55.9446C21.3641 55.9194 21.3571 55.8921 21.3498 55.863L21.3067 55.688C21.3043 55.6775 21.3019 55.6671 21.2995 55.6565C21.2977 55.6482 21.2959 55.6399 21.294 55.6314C21.2876 55.6021 21.2807 55.5705 21.2717 55.5333L21.2528 55.4544C21.2405 55.4011 21.2287 55.3464 21.2186 55.2908V55.2718C21.1997 55.1941 21.1826 55.1146 21.1674 55.0293L21.1561 54.9762L21.0823 54.5525C21.0738 54.5017 21.0658 54.4495 21.0594 54.3964C21.0594 54.3939 21.0609 54.3933 21.0624 54.3926C21.0653 54.3914 21.0683 54.3901 21.0594 54.3737C21.0462 54.3491 21.0462 54.3225 21.0462 54.2979V54.2486C21.0405 54.2101 21.035 54.1707 21.0296 54.1309L20.9845 53.7996C20.9724 53.7073 20.9614 53.611 20.9514 53.5116L20.9408 53.4154L20.9382 53.3675C20.9392 53.3556 20.9392 53.3435 20.9382 53.3315L20.9173 53.1569L20.9173 53.089C20.9161 53.0736 20.9139 53.0569 20.9114 53.0384C20.9063 53.0001 20.9003 52.9545 20.9003 52.8995L20.8991 52.8704C20.8969 52.8416 20.8914 52.8134 20.883 52.7865L20.8733 52.6717C20.7637 51.2846 20.6335 47.5258 22.1357 45.091C24.2089 41.7331 27.5978 41.1991 29.5615 41.1978ZM39.3582 53.2088L39.3215 53.2147L39.2998 53.3893C39.297 53.4091 39.2948 53.424 39.2931 53.4339L39.2818 53.576C39.2536 53.8396 39.2254 54.0771 39.1934 54.291L39.1794 54.3813L39.1694 54.4441L39.1693 54.4448C39.1338 54.6667 39.0939 54.9163 39.0525 55.1392C39.0373 55.2226 39.0213 55.3042 39.0045 55.3854L38.9786 55.5068L38.9726 55.5343C38.9488 55.6429 38.9292 55.7328 38.9047 55.8308V55.8497L38.8867 55.9224C39.1405 55.9093 39.3769 55.7798 39.5243 55.5674C39.7066 55.3169 39.7365 54.9863 39.602 54.7072C39.5456 54.6192 39.571 54.5023 39.6588 54.4457C39.7467 54.3893 39.8637 54.4148 39.9203 54.5025C40.1199 54.8821 40.1073 55.3382 39.8871 55.7062C39.6669 56.0742 39.271 56.3009 38.8422 56.3045L38.8497 56.3083C38.8284 56.3082 38.807 56.3074 38.7857 56.3059L38.7584 56.4019L38.7304 56.4959C38.6982 56.602 38.6716 56.6853 38.6394 56.7763C38.5925 56.9292 38.5406 57.0899 38.4836 57.2584L38.4689 57.2576C39.255 57.3301 40.0177 56.9752 40.4689 56.3313L40.5039 56.2799C40.9135 55.6904 41.0514 54.9539 40.8829 54.2562C40.7882 53.8629 40.5295 53.5291 40.1723 53.3391C39.9371 53.2259 39.6763 53.1789 39.4179 53.2022L39.3582 53.2088ZM19.2954 53.3334C19.49 53.2402 19.703 53.1916 19.9188 53.1913C20.006 53.1927 20.0929 53.2022 20.1784 53.2198V53.2633C20.1843 53.2841 20.1845 53.3018 20.1848 53.3186C20.185 53.3339 20.1852 53.3484 20.1897 53.3638C20.1954 53.3831 20.1977 53.3997 20.1986 53.4131L20.1992 53.4358C20.2023 53.4878 20.208 53.5397 20.2162 53.5911C20.2207 53.6366 20.2255 53.6819 20.2306 53.7268L20.2617 53.9909C20.2769 54.1198 20.2939 54.2429 20.3129 54.3699V54.4135L20.3299 54.5158C20.3356 54.5594 20.3423 54.603 20.3491 54.6451L20.3898 54.8854C20.402 54.9548 20.4151 55.0245 20.4283 55.0947L20.4342 55.1259L20.4436 55.1809L20.5078 55.4854L20.5573 55.7095L20.6028 55.899V55.9198L20.6047 55.9274C20.3345 55.9276 20.0791 55.7949 19.9244 55.5693C19.7435 55.3188 19.7144 54.9893 19.8487 54.711C19.905 54.623 19.8796 54.5061 19.7918 54.4495C19.7039 54.3931 19.5869 54.4186 19.5303 54.5063C19.3308 54.8859 19.3433 55.342 19.5635 55.71C19.7837 56.078 20.1797 56.3047 20.6085 56.3083C20.6408 56.3089 20.6732 56.3078 20.7054 56.3053L20.7169 56.3043L20.7335 56.3026C20.728 56.3032 20.7224 56.3038 20.7169 56.3043C20.7131 56.3046 20.7093 56.3049 20.7054 56.3053L20.705 56.3053L20.7601 56.494C20.8377 56.7517 20.9173 57.0037 21.0007 57.2519C20.1939 57.3268 19.4114 56.9508 18.9657 56.2742L18.9255 56.2148C18.5461 55.6361 18.4226 54.925 18.5867 54.2505C18.6808 53.8575 18.9388 53.5236 19.2954 53.3334Z" fill="#32335C"/>
<path fill-rule="evenodd" clip-rule="evenodd" d="M35.3341 69.1382C35.3363 69.1344 35.3384 69.1305 35.3406 69.1266L35.3337 69.1382L35.3341 69.1382ZM20.7169 56.3043L20.7335 56.3026C20.728 56.3032 20.7224 56.3038 20.7169 56.3043Z" fill="#32335C"/>
<g style="mix-blend-mode:multiply" opacity="0.15">
<path fill-rule="evenodd" clip-rule="evenodd" d="M26.48 57.103C26.48 58.2597 25.6317 59.1973 24.5852 59.1973C23.5388 59.1973 22.6904 58.2597 22.6904 57.103C22.6904 55.9464 23.5388 55.0088 24.5852 55.0088C25.6317 55.0088 26.48 55.9464 26.48 57.103ZM36.7122 57.103C36.7122 58.2597 35.8639 59.1973 34.8174 59.1973C33.771 59.1973 32.9226 58.2597 32.9226 57.103C32.9226 55.9464 33.771 55.0088 34.8174 55.0088C35.8639 55.0088 36.7122 55.9464 36.7122 57.103Z" fill="#FF1300"/>
</g>
<path d="M29.6897 59.3038C28.9147 59.3038 28.2003 59.0366 27.7816 58.5914C27.7004 58.5051 27.6713 58.382 27.7055 58.2685C27.7396 58.155 27.8317 58.0683 27.9471 58.0411C28.0624 58.0139 28.1835 58.0503 28.2648 58.1366C28.5566 58.4474 29.1023 58.6406 29.6897 58.6406C30.277 58.6406 30.8265 58.4512 31.1145 58.1366C31.1958 58.0503 31.3169 58.0139 31.4323 58.0411C31.5476 58.0683 31.6397 58.155 31.6738 58.2685C31.708 58.382 31.679 58.5051 31.5977 58.5914C31.1752 59.0366 30.4646 59.3038 29.6897 59.3038Z" fill="#32335C"/>
<path d="M30.1954 60.2081H29.1836C29.079 60.2081 28.9941 60.1232 28.9941 60.0186C28.9941 59.9139 29.079 59.8291 29.1836 59.8291H30.1954C30.3001 59.8291 30.3849 59.9139 30.3849 60.0186C30.3849 60.1232 30.3001 60.2081 30.1954 60.2081Z" fill="#32335C"/>
<path d="M29.696 56.8225C29.2822 56.8281 28.8931 56.6261 28.6596 56.2844C28.5602 56.1306 28.6043 55.9253 28.7581 55.8259C28.9119 55.7265 29.1172 55.7706 29.2167 55.9244C29.332 56.0744 29.5111 56.1616 29.7003 56.1597C29.8895 56.1578 30.0669 56.0672 30.1792 55.9149C30.2744 55.758 30.4789 55.7079 30.6359 55.8031C30.7928 55.8984 30.8429 56.1028 30.7477 56.2598C30.5184 56.617 30.1204 56.83 29.696 56.8225Z" fill="#32335C"/>
<path d="M25.8804 54.5408C26.7217 54.5408 26.7236 53.2334 25.8804 53.2334C25.0373 53.2334 25.0373 54.5408 25.8804 54.5408Z" fill="#32335C"/>
<path d="M33.6434 54.5408C34.4828 54.5408 34.4847 53.2334 33.6434 53.2334C32.8021 53.2334 32.8002 54.5408 33.6434 54.5408Z" fill="#32335C"/>
<path d="M27.5985 52.2777C27.5379 52.2779 27.4781 52.2636 27.4242 52.236C25.933 51.4686 24.3925 52.236 24.3925 52.236C24.2063 52.3318 23.9776 52.2584 23.8819 52.0721C23.7861 51.8858 23.8595 51.6572 24.0458 51.5615C24.1216 51.5236 25.9406 50.6141 27.7785 51.5615C27.9343 51.6412 28.0151 51.8173 27.9742 51.9874C27.9332 52.1576 27.7811 52.2775 27.6061 52.2777H27.5985Z" fill="#32335C"/>
<path d="M35.2889 52.2771C35.229 52.2771 35.1699 52.2628 35.1165 52.2355C33.6234 51.4681 32.0848 52.2355 32.0848 52.2355C31.9638 52.3019 31.8162 52.2973 31.6996 52.2234C31.583 52.1495 31.5157 52.018 31.5241 51.8802C31.5325 51.7424 31.6152 51.6201 31.74 51.5609C31.8157 51.5211 33.6348 50.6135 35.4727 51.5609C35.6305 51.6416 35.7114 51.8209 35.6673 51.9925C35.6233 52.1642 35.4661 52.2824 35.2889 52.2771Z" fill="#32335C"/>
<path d="M29.7747 38.2185C30.7682 38.2172 31.7579 38.3394 32.7211 38.5823C32.5098 38.091 32.2428 37.6257 31.9253 37.1953C30.9211 35.8424 29.0528 34.3721 25.7312 34.6279C19.8687 35.0826 17.8034 42.4761 17.1364 46.5651C16.6417 49.5927 14.975 51.3182 13.5241 52.8203C11.8241 54.5803 10.4203 56.0336 11.5448 58.9154C11.5448 58.9154 10.1275 63.4213 15.217 63.2545C15.217 63.2545 17.1042 66.0323 19.8062 63.2545C21.034 61.9907 21.3637 59.8439 21.3372 57.6327C20.3141 57.8213 19.2774 57.3805 18.7034 56.5128C17.7636 55.0709 18.188 53.4944 19.1809 53.0226C19.2503 52.9896 19.3218 52.9613 19.395 52.9379V52.9392C19.7753 52.8139 20.1857 52.8139 20.566 52.9392L20.8066 52.2154L22.745 45.8167C22.745 45.8167 22.745 47.8915 23.2812 49.1402C23.3748 49.3537 23.5862 49.4914 23.8194 49.4907H35.8608C36.1014 49.4888 36.3163 49.34 36.4028 49.1155C36.8386 47.9786 36.8386 46.1539 36.8386 46.1539L38.9797 52.9392C39.3599 52.8139 39.7704 52.8139 40.1507 52.9392V47.0938C40.1507 43.0711 37.0167 39.6718 32.7193 38.5842C31.756 38.3413 30.7663 38.2191 29.7728 38.2204C25.5866 38.2204 21.9795 40.343 20.3386 43.3944C21.5947 41.0555 24.0057 39.2632 26.9477 38.552C27.8736 38.3299 28.8225 38.218 29.7747 38.2185Z" fill="#78B2FF"/>
<path fill-rule="evenodd" clip-rule="evenodd" d="M32.2249 36.9622C32.5287 37.3698 32.7889 37.8078 33.0013 38.2693C37.4524 39.469 40.5393 43.0776 40.5393 47.0994V52.9449C40.5396 53.0672 40.4809 53.1821 40.3817 53.2535C40.2824 53.3249 40.1549 53.344 40.039 53.3049C39.7316 53.2023 39.3991 53.2023 39.0916 53.3049C39.0558 53.3145 39.0188 53.319 38.9817 53.3182C38.8166 53.3186 38.6702 53.2121 38.6198 53.0548L37.0547 48.0942C36.9922 48.4878 36.8932 48.8747 36.7591 49.25C36.6142 49.6219 36.2563 49.867 35.8572 49.8677H23.8157C23.4313 49.8689 23.0833 49.6408 22.9309 49.2879C22.7406 48.8145 22.6065 48.3203 22.5311 47.8157L21.1706 52.3083V52.3348L20.93 53.0586C20.8649 53.2554 20.6539 53.3634 20.4563 53.3011C20.1726 53.2074 19.8678 53.2011 19.5813 53.2824L19.5202 53.3011C19.4882 53.3119 19.4553 53.3183 19.4223 53.3203C19.3938 53.331 19.3659 53.343 19.3383 53.3561C18.982 53.5466 18.7242 53.8803 18.6297 54.2732C18.4663 54.9476 18.5897 55.6585 18.9685 56.2374L19.0086 56.2968C19.7286 57.392 20.9205 57.303 21.2672 57.2442C21.3759 57.2273 21.4865 57.2584 21.5704 57.3295C21.6543 57.4003 21.7034 57.504 21.7049 57.6137C21.7366 60.3649 21.2194 62.2751 20.1188 63.4493L20.0659 63.5046C19.2 64.416 18.3075 64.8689 17.4151 64.8689C17.3368 64.8689 17.2591 64.8651 17.182 64.8575C16.0736 64.7609 15.3175 63.9859 15.0276 63.6354C13.4322 63.6543 12.2859 63.2128 11.617 62.3299C10.6791 61.0945 11.0182 59.4138 11.1414 58.9306C10.0591 56.0202 11.4634 54.4055 13.0477 52.7605L13.4993 52.2922C14.8549 50.8797 16.3064 49.2393 16.7576 46.4912L16.7935 46.2744C17.4089 42.6441 19.4804 34.7186 25.6973 34.2432C29.2235 33.9722 31.1922 35.5696 32.2249 36.9622ZM25.7541 35.0011C19.9466 35.4464 18.0499 43.2719 17.5042 46.6163C17.0047 49.6736 15.3833 51.4225 13.9141 52.9438L13.4805 53.3932C11.946 54.9934 10.9249 56.2612 11.8878 58.7478L11.9082 58.784C12.0486 59.0219 12.5303 59.6092 13.7468 59.3039C13.8483 59.2788 13.9508 59.3407 13.976 59.4422C14.0011 59.5437 13.9392 59.6463 13.8377 59.6715C13.5998 59.7362 13.3547 59.7712 13.1082 59.7757C12.4865 59.7757 12.0847 59.5361 11.8391 59.2979L11.8251 59.3697C11.7193 59.9337 11.611 61.0588 12.2252 61.86C12.7652 62.5686 13.7676 62.9059 15.202 62.8566L15.2114 62.8718C15.3264 62.8722 15.4343 62.9247 15.5056 63.0134L15.5444 63.0662C15.6649 63.2258 16.3116 64.0233 17.254 64.1034C17.9854 64.1659 18.7509 63.7908 19.5278 62.9912C20.4638 62.0267 20.9318 60.4085 20.9527 58.0476C19.9218 58.0895 18.9449 57.5856 18.3814 56.7213C17.8445 55.9484 17.6683 54.981 17.8983 54.0685C18.0507 53.4641 18.4569 52.955 19.0124 52.6721V47.0824C19.0124 42.9536 22.2336 39.291 26.8531 38.1768C28.5485 37.7727 30.3093 37.725 32.024 38.0366C31.8992 37.8226 31.7626 37.6158 31.6147 37.417C30.6977 36.1797 28.9336 34.7643 25.7541 35.0011ZM24.3581 39.9439C25.9187 39.0887 27.7765 38.5918 29.7692 38.5918C30.7313 38.591 31.6898 38.7094 32.6228 38.9442C36.8292 40.0148 39.7681 43.3629 39.7681 47.0919V52.4731C39.5892 52.4577 39.4092 52.4641 39.2319 52.4921L37.1968 46.0402C37.1412 45.8611 36.9629 45.7496 36.7774 45.7781C36.592 45.8065 36.4553 45.9663 36.456 46.1539C36.456 46.171 36.4503 47.9161 36.0448 48.981L36.0341 49.0033C35.9984 49.0679 35.9304 49.1091 35.8553 49.1098L34.334 49.1098C34.7468 47.4668 34.2177 45.5916 34.0835 45.1628L34.0553 45.0758C34.0212 44.977 33.9135 44.9244 33.8146 44.9583C33.7668 44.9743 33.7273 45.0087 33.7049 45.0538C33.6825 45.099 33.679 45.1512 33.6952 45.199C33.7042 45.2222 34.4219 47.37 33.9425 49.1098L29.838 49.1097C29.5029 47.6947 29.7866 45.9454 29.9101 45.3038L29.9646 45.0313C29.9766 44.9373 29.9165 44.8472 29.8223 44.8238C29.7733 44.8118 29.7215 44.8199 29.6785 44.8462C29.6354 44.8725 29.6047 44.9149 29.593 44.964L29.5899 44.9757C29.5382 45.1777 29.0503 47.3301 29.4397 49.1098L25.6986 49.1099C25.4902 48.4689 25.1829 46.9613 26.0175 45.0853C26.0379 45.0393 26.0392 44.9871 26.021 44.9402C26.0029 44.8933 25.9669 44.8555 25.9209 44.8352C25.8749 44.8148 25.8227 44.8135 25.7758 44.8316C25.7289 44.8498 25.6911 44.8858 25.6707 44.9318C24.8618 46.7401 25.0445 48.2114 25.2584 48.9956L25.2912 49.1098L23.8138 49.1098C23.7321 49.1109 23.6576 49.0632 23.6244 48.9886C23.2055 48.0269 23.1334 46.4963 23.121 45.9863L23.1185 45.8148C23.1204 45.6254 22.9823 45.4637 22.795 45.436C22.6077 45.4083 22.4287 45.5231 22.3757 45.7049L20.4373 52.1036V52.115L20.3104 52.4939C20.1943 52.4766 20.0771 52.4678 19.9598 52.4674L19.7722 52.4672L19.7722 47.0824C19.7722 44.2014 21.5102 41.562 24.2324 40.0138L24.3581 39.9439Z" fill="#32335C"/>
<path fill-rule="evenodd" clip-rule="evenodd" d="M32.4668 38.0663C32.517 38.1605 32.5081 38.2753 32.4439 38.3606C32.3797 38.4459 32.2719 38.4863 32.1675 38.4642C31.3797 38.3053 30.578 38.2253 29.7743 38.2254C28.9378 38.2255 28.1034 38.3119 27.2846 38.4831C27.2027 38.5015 27.117 38.4818 27.0514 38.4295C26.9858 38.3772 26.9475 38.2979 26.9473 38.2141C26.9439 37.6714 27.3064 37.1945 27.8303 37.0526C28.5711 36.8631 29.7895 36.7229 31.5138 37.1056C31.7889 37.168 32.0285 37.3361 32.1807 37.5736C32.2849 37.7366 32.3816 37.9014 32.4668 38.0663Z" fill="#F26E29"/>
<path fill-rule="evenodd" clip-rule="evenodd" d="M31.5916 36.7285C31.9628 36.8138 32.2863 37.0401 32.4936 37.3595C32.5746 37.486 32.6534 37.6157 32.7278 37.7469L32.8005 37.8787C32.9225 38.1008 32.9025 38.374 32.7494 38.576C32.5986 38.7817 32.3415 38.8803 32.0919 38.828C30.5277 38.5157 28.9165 38.5221 27.3549 38.8469C27.31 38.8565 27.2643 38.8616 27.2184 38.8621C26.8564 38.8621 26.5628 38.5686 26.5628 38.2065C26.5609 37.7534 26.7525 37.3356 27.0689 37.0431C26.3136 36.7517 25.451 36.8383 24.7609 37.3008C24.3234 37.5729 23.9383 37.9214 23.624 38.3296C23.5859 38.382 23.5238 38.4113 23.4592 38.4073C23.4192 38.408 23.3801 38.3961 23.3474 38.3732C23.3063 38.3439 23.2786 38.2994 23.2704 38.2496C23.2636 38.2082 23.2708 38.1658 23.2905 38.1292L23.3038 38.1079L23.3059 38.1051C23.3783 38.0093 25.1282 35.6923 27.4253 36.7955C27.5205 36.747 27.6218 36.7079 27.7281 36.6793C28.4861 36.4784 29.7726 36.3249 31.5916 36.7285ZM35.8133 41.8843C35.3002 41.2394 34.5868 40.784 33.7858 40.5901C33.6812 40.5687 33.579 40.6361 33.5575 40.7408C33.536 40.8454 33.6035 40.9476 33.7081 40.9691L33.7766 40.9869C34.0316 41.0571 34.9398 41.3494 35.5082 42.1192C35.5444 42.1675 35.6014 42.1956 35.6617 42.195C35.7029 42.1925 35.7422 42.1765 35.7735 42.1496C35.814 42.1197 35.8409 42.0749 35.8484 42.0252C35.8559 41.9754 35.8432 41.9247 35.8133 41.8843ZM18.9797 59.4575C19.0742 59.4946 19.1227 59.5995 19.0897 59.6954C18.9354 60.0886 18.7498 60.4688 18.5346 60.8323C18.5014 60.8913 18.4393 60.9282 18.3716 60.9289C18.3035 60.9289 18.2407 60.8924 18.207 60.8332C18.1733 60.7741 18.1739 60.7014 18.2087 60.6428C18.4132 60.2954 18.59 59.9324 18.7373 59.5571C18.7784 59.4644 18.8853 59.4205 18.9797 59.4575ZM17.8349 61.3925C17.9018 61.4035 17.9578 61.4493 17.9817 61.5128C18.0057 61.5763 17.994 61.6477 17.951 61.7001C16.7551 63.1532 15.0303 63.356 14.2442 63.3671L14.1727 63.3676L14.1001 63.367C13.9534 63.3647 13.8525 63.3564 13.8294 63.3544L13.8292 63.3544L13.8279 63.3543C13.7232 63.3433 13.6473 63.2496 13.6583 63.1449C13.6685 63.0477 13.75 62.9753 13.8454 62.9743L13.9657 62.9807C14.426 62.9992 16.3991 62.9887 17.6573 61.4595C17.7003 61.407 17.768 61.3815 17.8349 61.3925ZM27.9195 37.4107C28.4114 37.2876 28.917 37.2277 29.424 37.2325C30.0982 37.2376 30.7698 37.3164 31.4268 37.4675C31.6043 37.5095 31.7586 37.6189 31.8569 37.7726L31.8995 37.8362C31.9419 37.9021 31.9839 37.9739 32.0237 38.0435C30.4707 37.7618 28.8787 37.774 27.3302 38.0795C27.3769 37.7596 27.608 37.4973 27.9195 37.4107Z" fill="#32335C"/>
<path d="M29.5711 79.3952C25.971 79.3952 22.8218 75.5942 21.5333 69.7108C21.4884 69.5063 21.6177 69.3039 21.8223 69.2589C22.0269 69.2139 22.2292 69.3433 22.2742 69.5479C23.4642 74.9841 26.3973 78.6429 29.5711 78.6429C32.7449 78.6429 35.6762 74.9898 36.868 69.5479C36.913 69.3433 37.1153 69.2139 37.3199 69.2589C37.5245 69.3039 37.6539 69.5063 37.6089 69.7108C36.3185 75.5942 33.1636 79.3952 29.5711 79.3952Z" fill="#32335C"/>
<path fill-rule="evenodd" clip-rule="evenodd" d="M29.4895 79.0146C29.4895 79.0146 27.3105 79.6115 28.2409 81.385C28.5641 82.0104 28.9857 82.5798 29.4895 83.0714C29.4895 83.0714 33.1844 80.1004 29.4895 79.0146Z" fill="#EBB759"/>
<path fill-rule="evenodd" clip-rule="evenodd" d="M29.2379 83.3516C29.3069 83.4144 29.3966 83.4494 29.4899 83.4502C29.5788 83.4513 29.6654 83.4211 29.7343 83.3649C29.9427 83.1963 31.7731 81.6766 31.487 80.2347C31.343 79.509 30.7082 78.9746 29.6036 78.6506C29.5362 78.6308 29.4644 78.6308 29.397 78.6506C29.3459 78.6639 28.1692 78.9955 27.7675 79.9164C27.5515 80.4242 27.5989 80.968 27.9115 81.561C28.2531 82.2262 28.7011 82.831 29.2379 83.3516ZM28.4531 80.2215C28.6387 79.7914 29.1939 79.5166 29.4895 79.4124H29.4933C30.238 79.6493 30.6567 79.9752 30.7325 80.3845C30.8765 81.0988 30.0504 82.0462 29.5085 82.5502C29.142 82.1436 28.8276 81.693 28.5724 81.2087C28.3716 80.8241 28.3318 80.5019 28.4531 80.2215Z" fill="#32335C"/>
<path fill-rule="evenodd" clip-rule="evenodd" d="M27.2012 78.3815C27.2012 78.3815 25.4163 78.0025 25.4258 79.6169C25.4257 80.1854 25.5165 80.7502 25.6949 81.29C25.6949 81.29 29.4466 80.5321 27.2012 78.3815Z" fill="#FF8EC1"/>
<path fill-rule="evenodd" clip-rule="evenodd" d="M25.3406 81.423C25.3958 81.5709 25.537 81.6691 25.6949 81.6694C25.7248 81.6707 25.7547 81.6682 25.784 81.6618C26.0019 81.6182 27.9156 81.1975 28.2586 80.0171C28.4234 79.4145 28.1695 78.7722 27.476 78.109C27.4236 78.0587 27.3578 78.0245 27.2865 78.0105L27.2819 78.0096C27.1511 77.9851 26.2193 77.8105 25.5812 78.3307C25.3349 78.5297 25.0469 78.9162 25.0469 79.6192C25.0465 80.2324 25.1457 80.8416 25.3406 81.423ZM26.0566 78.9101C26.2681 78.7701 26.5198 78.7035 26.7728 78.7206H26.7747C26.8569 78.7172 26.9392 78.7191 27.0211 78.7263C27.328 79.0371 27.6198 79.4407 27.5175 79.795C27.3697 80.3028 26.5114 80.6571 25.9543 80.8239C25.8576 80.4249 25.8074 80.016 25.8046 79.6055C25.7756 79.3471 25.8688 79.0899 26.0566 78.9101Z" fill="#32335C"/>
<path fill-rule="evenodd" clip-rule="evenodd" d="M31.942 78.3815C31.942 78.3815 33.7269 78.0025 33.7174 79.6169C33.7176 80.1855 33.6261 80.7504 33.4465 81.29C33.4465 81.29 29.6967 80.5321 31.942 78.3815Z" fill="#FF8EC1"/>
<path fill-rule="evenodd" clip-rule="evenodd" d="M33.3724 81.6686C33.397 81.6714 33.4218 81.6714 33.4463 81.6686C33.6071 81.6752 33.7545 81.5794 33.8139 81.4299C34.011 80.8489 34.1109 80.2395 34.1095 79.626C34.1133 78.923 33.8215 78.527 33.5752 78.3376C32.9234 77.8108 31.976 77.9965 31.8699 78.0173C31.7986 78.0313 31.7328 78.0655 31.6804 78.1159C30.9869 78.779 30.7235 79.4214 30.8978 80.0239C31.2408 81.2044 33.1545 81.625 33.3724 81.6686ZM31.6232 79.8059C31.5209 79.4516 31.8184 79.0404 32.1197 78.7353H32.1216C32.3603 78.705 32.817 78.7012 33.0803 78.9172C33.2704 79.0966 33.3651 79.3548 33.3361 79.6145C33.3326 80.0251 33.2818 80.4339 33.1846 80.8329C32.6294 80.668 31.771 80.3137 31.6232 79.8059Z" fill="#32335C"/>
<path fill-rule="evenodd" clip-rule="evenodd" d="M25.5752 77.1572C25.5752 77.1572 24.3379 76.4126 23.9306 77.6233C23.7841 78.0503 23.7079 78.4983 23.7051 78.9497C23.7051 78.9497 26.7027 79.3381 25.5752 77.1572Z" fill="#F26E29"/>
<path fill-rule="evenodd" clip-rule="evenodd" d="M23.654 79.3191C23.8369 79.342 24.021 79.3534 24.2054 79.3532C24.77 79.3532 25.6094 79.249 26.0016 78.6882C26.3048 78.2599 26.2745 77.6839 25.9107 76.9828C25.8789 76.9203 25.8303 76.8678 25.7705 76.8313C25.6928 76.7858 25.0012 76.3879 24.3494 76.6285C23.9663 76.7806 23.678 77.1054 23.5725 77.5039C23.4116 77.971 23.3284 78.4613 23.3262 78.9553C23.3319 79.1404 23.4705 79.2942 23.654 79.3191ZM25.3819 78.2587C25.1848 78.5391 24.569 78.5959 24.1029 78.5959V78.594C24.1352 78.3059 24.1981 78.0219 24.2904 77.7471C24.4003 77.4211 24.5576 77.3605 24.6107 77.3416C24.8411 77.2921 25.0816 77.3264 25.289 77.4382C25.4216 77.7186 25.5221 78.0559 25.3819 78.2587Z" fill="#32335C"/>
<path fill-rule="evenodd" clip-rule="evenodd" d="M33.567 77.1572C33.567 77.1572 34.8024 76.4126 35.2098 77.6233C35.3562 78.0504 35.433 78.4982 35.4372 78.9497C35.4372 78.9497 32.4396 79.3381 33.567 77.1572Z" fill="#F26E29"/>
<path fill-rule="evenodd" clip-rule="evenodd" d="M33.1405 78.6921C33.5327 79.2491 34.3683 79.3534 34.9367 79.3534C35.1204 79.3548 35.3039 79.3447 35.4862 79.323C35.6705 79.299 35.8101 79.1449 35.8159 78.9592C35.8126 78.4653 35.7294 77.9752 35.5696 77.5078C35.4634 77.1091 35.1745 76.7843 34.7908 76.6324C34.1296 76.3918 33.4474 76.7897 33.3716 76.8352C33.3111 76.8715 33.2619 76.924 33.2295 76.9868C32.8676 77.684 32.8373 78.2601 33.1405 78.6921ZM33.7601 78.2567C33.618 78.054 33.7204 77.7167 33.8511 77.4362C34.0579 77.3266 34.2964 77.2924 34.5256 77.3396C34.5296 77.3416 34.5341 77.3437 34.5392 77.3461C34.6019 77.3753 34.7443 77.4417 34.8478 77.7451C34.9407 78.0206 35.0042 78.3051 35.0372 78.594C34.5768 78.6053 33.9591 78.539 33.7601 78.2567Z" fill="#32335C"/>
<path fill-rule="evenodd" clip-rule="evenodd" d="M19.054 61.8184C17.7712 61.0339 19.6357 58.6465 19.6357 58.6465C19.6357 58.6465 21.4983 61.032 20.2193 61.8184C19.8604 62.0326 19.4129 62.0326 19.054 61.8184Z" fill="#F26E29"/>
<path fill-rule="evenodd" clip-rule="evenodd" d="M18.857 62.1407C19.0914 62.2841 19.361 62.3595 19.6358 62.3586C19.9111 62.3598 20.1814 62.2843 20.4164 62.1407C20.7372 61.9497 20.9581 61.6277 21.0209 61.2597C21.2293 60.1228 20.0678 58.5899 19.9351 58.4174C19.8628 58.3259 19.7524 58.2728 19.6358 58.2734C19.5198 58.2734 19.4102 58.3265 19.3383 58.4174C19.1981 58.5823 18.0422 60.1114 18.2507 61.2597C18.3136 61.6281 18.5353 61.9503 18.857 62.1407ZM18.9956 61.1252C18.9085 60.6459 19.2723 59.8766 19.6361 59.3081C19.9658 59.8292 20.3694 60.6136 20.2746 61.1158C20.2523 61.2747 20.1579 61.4146 20.0188 61.4947C19.7827 61.6367 19.4875 61.6367 19.2514 61.4947C19.1149 61.4163 19.0209 61.2806 18.9956 61.1252Z" fill="#32335C"/>
<path d="M19.6362 61.9966C19.5765 61.9966 19.5204 61.9685 19.4846 61.9208C19.1056 61.4187 19.4543 60.7536 19.4694 60.7252C19.4984 60.6606 19.561 60.6175 19.6317 60.6136C19.7024 60.6096 19.7694 60.6454 19.8054 60.7064C19.8415 60.7673 19.8405 60.8433 19.8029 60.9033C19.8029 60.9146 19.5566 61.3865 19.7878 61.6915C19.8179 61.7317 19.8309 61.7823 19.8238 61.832C19.8167 61.8817 19.7901 61.9266 19.7499 61.9568C19.7173 61.9821 19.6774 61.996 19.6362 61.9966Z" fill="#32335C"/>
<path d="M19.6358 58.8365C19.5311 58.8365 19.4463 58.7516 19.4463 58.647V57.6787C19.4463 57.5741 19.5311 57.4893 19.6358 57.4893C19.7404 57.4893 19.8252 57.5741 19.8252 57.6787V58.6546C19.8212 58.7562 19.7375 58.8365 19.6358 58.8365Z" fill="#32335C"/>
<path fill-rule="evenodd" clip-rule="evenodd" d="M38.8226 61.7637C37.5398 60.9792 39.4043 58.5918 39.4043 58.5918C39.4043 58.5918 41.2668 60.9792 39.986 61.7637C39.6282 61.9797 39.1803 61.9797 38.8226 61.7637Z" fill="#F26E29"/>
<path fill-rule="evenodd" clip-rule="evenodd" d="M38.6242 62.0889C38.86 62.2303 39.1298 62.305 39.4048 62.3049C39.6802 62.3057 39.9504 62.2303 40.1855 62.087C40.5062 61.8959 40.7271 61.5739 40.7899 61.2059C40.9984 60.069 39.8368 58.5342 39.7042 58.3637C39.6323 58.2714 39.5218 58.2176 39.4048 58.2178C39.2879 58.2176 39.1774 58.2714 39.1055 58.3637C38.9652 58.5304 37.8113 60.069 38.0178 61.2059C38.0808 61.5748 38.3024 61.8976 38.6242 62.0889ZM39.4036 59.2557C39.4039 59.2552 39.4042 59.2547 39.4045 59.2543H39.4026C39.4029 59.2547 39.4032 59.2552 39.4036 59.2557ZM38.766 61.0714C38.6789 60.5924 39.0401 59.824 39.4036 59.2557C39.735 59.7768 40.132 60.5603 40.0449 61.0714C40.0217 61.227 39.928 61.3633 39.791 61.4409C39.5544 61.5831 39.2584 61.5831 39.0218 61.4409C38.8845 61.3633 38.7902 61.2272 38.766 61.0714Z" fill="#32335C"/>
<path d="M39.3344 61.9414C39.2934 61.9414 39.2535 61.9281 39.2207 61.9035C39.1805 61.8734 39.1539 61.8285 39.1468 61.7787C39.1397 61.729 39.1526 61.6784 39.1828 61.6382C39.4158 61.3313 39.1695 60.8538 39.1676 60.85C39.1338 60.7904 39.1343 60.7173 39.1689 60.6582C39.2036 60.5991 39.2672 60.563 39.3357 60.5635C39.4042 60.564 39.4673 60.6009 39.5011 60.6605C39.5163 60.6889 39.8649 61.354 39.4859 61.8561C39.4522 61.9074 39.3957 61.9392 39.3344 61.9414Z" fill="#32335C"/>
<path d="M39.4043 58.7815C39.2997 58.7815 39.2148 58.6967 39.2148 58.5921V57.6162C39.2148 57.5116 39.2997 57.4268 39.4043 57.4268C39.509 57.4268 39.5938 57.5116 39.5938 57.6162V58.5921C39.5938 58.6967 39.509 58.7815 39.4043 58.7815Z" fill="#32335C"/>
<path fill-rule="evenodd" clip-rule="evenodd" d="M38.8274 53.7947C39.3246 51.5021 39.1476 49.1146 38.3177 46.9204C38.2798 46.82 38.24 46.7309 38.1983 46.6229C38.0998 46.3861 37.9918 46.153 37.8781 45.9256C37.1318 44.4161 36.0176 43.1187 34.638 42.1531C34.4334 42.011 34.2249 41.8783 34.0089 41.7552C33.8327 41.6528 33.6527 41.5657 33.4689 41.469C32.7849 41.1307 32.0592 40.8842 31.3107 40.7358H31.2634L31.2008 40.7244C29.9995 40.5038 28.7664 40.5225 27.5723 40.7793L27.4377 40.8059C26.8779 40.9287 26.3287 41.0953 25.795 41.3042C25.6813 41.3478 25.5714 41.3933 25.4634 41.4406C25.0403 41.6178 24.63 41.8242 24.2355 42.0583C22.7971 42.89 21.6443 44.1379 20.9291 45.6376C20.8154 45.8782 20.7131 46.1208 20.6221 46.3633C20.5842 46.4637 20.5482 46.5661 20.516 46.6684C20.5047 46.7006 20.4933 46.7347 20.4838 46.7669C20.4156 46.9753 20.3569 47.1819 20.3057 47.3884C19.5137 50.547 20.3682 53.5598 20.3682 53.5598C20.3682 53.5598 18.392 51.2026 19.4208 46.4126C19.4493 46.2837 19.4796 46.1511 19.5118 46.0185C19.5629 45.8062 19.6217 45.5883 19.6861 45.3667C19.7505 45.145 19.815 44.9517 19.8889 44.7527C19.9059 44.7035 19.9249 44.6542 19.9438 44.6049C20.171 44.0214 20.462 43.4647 20.8116 42.9451C21.842 41.4645 23.2947 40.3287 24.9802 39.686C25.3175 39.5509 25.6604 39.4328 26.0091 39.3317C26.6441 39.1459 27.2929 39.011 27.9493 38.9281H28.0024C29.7612 38.7031 31.5478 38.8516 33.2453 39.3639C33.3647 39.3999 33.4822 39.4397 33.5978 39.4814C33.8062 39.5553 34.007 39.6368 34.2022 39.7239C34.5379 39.8723 34.8617 40.0465 35.1704 40.245C35.4075 40.3866 35.6359 40.5423 35.8545 40.7111C36.0004 40.8191 36.1614 40.948 36.3357 41.0901C36.5669 41.2796 36.8208 41.524 37.0823 41.7949C38.1754 42.9169 38.9899 44.2799 39.4603 45.774C39.4969 45.8915 39.531 46.0109 39.5626 46.1322C39.6403 46.4202 39.7047 46.7195 39.7521 47.0303C40.078 48.8815 39.9074 51.1306 38.8274 53.7947Z" fill="#F26E29"/>
<path fill-rule="evenodd" clip-rule="evenodd" d="M38.7164 54.1568C38.752 54.1682 38.7891 54.1739 38.8263 54.1739C38.9785 54.1788 39.1187 54.0922 39.1826 53.9541C40.183 51.4814 40.507 49.1337 40.147 46.9755C40.0902 46.6477 40.022 46.3332 39.9443 46.0433C39.9102 45.9107 39.8761 45.7875 39.8382 45.6643C39.3542 44.1125 38.5102 42.6971 37.3749 41.5337C37.1305 41.2817 36.8709 41.0353 36.6018 40.8042C36.4275 40.6545 36.257 40.5181 36.1016 40.4025C35.8725 40.2273 35.634 40.0648 35.3873 39.9155C35.0643 39.7087 34.7261 39.5269 34.3755 39.3717C34.1595 39.2751 33.9529 39.1917 33.7445 39.1197C33.6232 39.0742 33.5001 39.0325 33.3788 38.9965C31.6311 38.4685 29.7916 38.3148 27.9805 38.5456H27.9199C27.2437 38.6322 26.5753 38.7716 25.9208 38.9624C25.557 39.0685 25.1989 39.1917 24.8579 39.3281C22.9953 40.0747 21.5325 41.2116 20.5131 42.7274C20.1446 43.2736 19.8388 43.8597 19.6017 44.4744L19.5486 44.6146C19.4979 44.7524 19.4579 44.8794 19.4154 45.0143C19.3913 45.0909 19.3664 45.17 19.3383 45.2551C19.2606 45.49 19.2 45.7136 19.1488 45.9239C19.1166 46.0585 19.0863 46.193 19.056 46.3275C17.993 51.2407 19.9901 53.6945 20.0773 53.7968C20.1925 53.9321 20.3863 53.9691 20.5433 53.8858C20.7003 53.8025 20.7783 53.6214 20.731 53.4501L20.7306 53.4486C20.7089 53.3688 19.9212 50.465 20.6722 47.4739C20.7215 47.273 20.7784 47.0722 20.8447 46.8694C20.8522 46.8429 20.8617 46.8164 20.8769 46.7766C20.9053 46.68 20.9394 46.5852 20.9754 46.4905C21.0626 46.2555 21.163 46.0206 21.2691 45.7951C21.9549 44.3663 23.0557 43.1777 24.4277 42.3844C24.8087 42.1581 25.2051 41.9586 25.6139 41.7876C25.7162 41.7421 25.8204 41.6985 25.9303 41.6568C26.4486 41.4542 26.9821 41.2926 27.5257 41.1737L27.6489 41.1509C28.7942 40.9038 29.9771 40.8851 31.1297 41.096L31.1865 41.1073H31.2149H31.2358C31.5244 41.1641 31.8097 41.2368 32.0903 41.3252C32.5071 41.4553 32.9132 41.6175 33.3049 41.8103C33.3256 41.821 33.3461 41.8316 33.3664 41.8421C33.5082 41.9152 33.6447 41.9857 33.8203 42.0851C34.0211 42.1987 34.2182 42.3238 34.4209 42.464C35.7473 43.3943 36.819 44.6426 37.5379 46.0945C37.6591 46.3256 37.7577 46.553 37.8486 46.7709C37.863 46.8076 37.8777 46.8435 37.8923 46.8793C37.9162 46.9377 37.94 46.9959 37.9623 47.057C38.7668 49.1828 38.9379 51.4962 38.455 53.7173C38.4152 53.9094 38.5286 54.1001 38.7164 54.1568ZM28.0585 39.2995C28.5791 39.2368 29.103 39.2052 29.6274 39.2048C30.826 39.1786 32.0215 39.3358 33.1726 39.6709C33.2844 39.705 33.3962 39.7429 33.508 39.7827C33.6974 39.8509 33.8869 39.9267 34.0764 40.0158C34.3947 40.1554 34.7013 40.3201 34.9935 40.5084L35.0124 40.5198C35.2356 40.6545 35.4513 40.8012 35.6586 40.9594C35.685 40.9809 35.7117 41.0026 35.7387 41.0246C35.8591 41.1225 35.9856 41.2254 36.1171 41.3383C36.3672 41.5543 36.6117 41.7836 36.839 42.0205C37.893 43.097 38.6767 44.4081 39.1261 45.8461C39.1621 45.9597 39.1943 46.0753 39.2265 46.1928C39.3023 46.46 39.3648 46.7518 39.416 47.0549C39.5788 48.058 39.5923 49.0796 39.4558 50.0866C39.3626 48.9471 39.1074 47.8268 38.6978 46.7594C38.658 46.6551 38.6164 46.5509 38.5728 46.4505C38.478 46.2193 38.3662 45.9768 38.2412 45.7286C37.4659 44.163 36.3101 42.817 34.8798 41.8139C34.6581 41.6623 34.4307 41.5089 34.2242 41.4009C34.1527 41.3635 34.0838 41.3263 34.0168 41.2903C33.8903 41.2221 33.771 41.1579 33.6558 41.1034C32.9429 40.754 32.1874 40.4992 31.4085 40.3454H31.3706H31.3498L31.2892 40.3341C30.044 40.1056 28.7662 40.1236 27.528 40.3871L27.3745 40.4175C26.7936 40.545 26.2235 40.7173 25.6692 40.9328C25.5498 40.9783 25.4342 41.0257 25.3262 41.0731C24.8876 41.2578 24.4621 41.4724 24.0529 41.7154C22.55 42.5859 21.3453 43.8904 20.5968 45.4576C20.4793 45.7077 20.3732 45.9616 20.2785 46.2155C20.2368 46.3236 20.1989 46.4316 20.1686 46.5282C20.1648 46.539 20.1604 46.55 20.156 46.5609C20.1451 46.5881 20.1344 46.6145 20.1344 46.6362C20.0606 46.8484 19.998 47.0663 19.945 47.2823C19.701 48.2786 19.5832 49.3016 19.5944 50.3273C19.4434 49.0425 19.5146 47.7414 19.8048 46.4808C19.816 46.4337 19.8272 46.3852 19.8386 46.3356C19.8562 46.2595 19.8743 46.181 19.8938 46.1019C19.9412 45.9029 19.9999 45.6888 20.0643 45.4652C20.1117 45.2738 20.178 45.0749 20.2538 44.8702C20.2623 44.8435 20.2724 44.8175 20.2836 44.7887C20.2898 44.7727 20.2963 44.7559 20.3031 44.7376C20.5198 44.1801 20.7975 43.6482 21.1311 43.1517C22.0653 41.7722 23.4106 40.7225 25.131 40.0328C25.4494 39.904 25.7848 39.7903 26.1258 39.6898C26.739 39.5097 27.3657 39.3791 27.9998 39.2995H28.0585Z" fill="#32335C"/>
<path fill-rule="evenodd" clip-rule="evenodd" d="M36.3465 41.0987C35.7269 41.2882 34.8477 41.5648 34.0083 41.7713C33.1569 41.2776 32.2289 40.9299 31.2627 40.7425C31.9843 40.2187 32.7734 39.7949 33.6085 39.4824C34.1601 39.6736 34.6879 39.928 35.1811 40.2403C35.5941 40.4915 35.9841 40.7788 36.3465 41.0987Z" fill="#53607E"/>
<path fill-rule="evenodd" clip-rule="evenodd" d="M33.8192 42.0906C33.8768 42.124 33.9421 42.1417 34.0087 42.1418C34.0393 42.1423 34.0698 42.1391 34.0996 42.1323C34.9674 41.9182 35.8637 41.6416 36.4624 41.4521C36.5929 41.41 36.6905 41.3007 36.7176 41.1664C36.7447 41.032 36.6971 40.8934 36.5932 40.8041C36.215 40.473 35.8086 40.1756 35.3786 39.9154C34.8634 39.5875 34.3122 39.3198 33.7358 39.1177C33.6518 39.0884 33.5603 39.0884 33.4762 39.1177C32.6087 39.4424 31.7891 39.8828 31.0395 40.427C30.9176 40.5159 30.86 40.6686 30.8929 40.8159C30.9258 40.9631 31.0429 41.0768 31.1911 41.1053C32.1158 41.2855 33.004 41.6185 33.8192 42.0906ZM34.0636 41.357C33.4715 41.0273 32.8449 40.7636 32.1953 40.5707C32.6469 40.2987 33.1203 40.0648 33.6107 39.8715C34.0884 40.0474 34.5458 40.2742 34.975 40.5479L34.9939 40.5612C35.1867 40.6768 35.3727 40.8033 35.551 40.9402C35.0981 41.0785 34.5789 41.2282 34.0636 41.357Z" fill="#32335C"/>
<path fill-rule="evenodd" clip-rule="evenodd" d="M37.0933 41.7946C36.2806 41.9678 35.4579 42.0899 34.63 42.1603C34.4254 42.0182 34.217 41.8855 34.001 41.7624C33.8247 41.6601 33.6447 41.5729 33.4609 41.4763C34.2131 41.0916 35.0225 40.8311 35.8579 40.7051C36.0038 40.8131 36.1648 40.9419 36.3391 41.084C36.5779 41.2887 36.8318 41.5236 37.0933 41.7946Z" fill="#FF9966"/>
<path fill-rule="evenodd" clip-rule="evenodd" d="M34.4219 42.4713C34.4853 42.5155 34.5606 42.5393 34.6379 42.5395L34.672 42.5433C35.5141 42.4695 36.3507 42.3429 37.1769 42.1643C37.3105 42.1343 37.4175 42.0345 37.4568 41.9033C37.496 41.7721 37.4615 41.63 37.3664 41.5315C37.122 41.2795 36.8624 41.0331 36.5933 40.802C36.419 40.6523 36.2485 40.5159 36.0912 40.3984C36.0107 40.3389 35.9099 40.3137 35.8108 40.3283C34.93 40.46 34.0767 40.7352 33.285 41.143C33.1603 41.2117 33.0847 41.3444 33.089 41.4867C33.0934 41.6289 33.1772 41.7568 33.3059 41.8176C33.3266 41.8283 33.3471 41.8389 33.3674 41.8494C33.5091 41.9225 33.6456 41.9929 33.8212 42.0923C34.0221 42.206 34.2192 42.3311 34.4219 42.4713ZM34.7403 41.7708C34.6001 41.676 34.4599 41.5889 34.3215 41.5055C34.7884 41.3235 35.272 41.1876 35.7654 41.1C35.8715 41.1834 35.9833 41.2743 36.0989 41.3729L36.3092 41.5623C35.79 41.6514 35.2348 41.7272 34.7403 41.7708Z" fill="#32335C"/>
<path fill-rule="evenodd" clip-rule="evenodd" d="M20.9282 45.6359C20.8145 45.8765 20.7122 46.119 20.6212 46.3616C20.5833 46.462 20.5473 46.5643 20.5151 46.6666C20.5037 46.6989 20.4924 46.733 20.4829 46.7652C20.1161 46.1559 19.9137 45.4619 19.8955 44.751C19.9126 44.7017 19.9315 44.6525 19.9505 44.6032C20.1776 44.0196 20.4687 43.463 20.8183 42.9434C20.7709 43.5895 20.8808 44.7226 20.9282 45.6359Z" fill="#53607E"/>
<path fill-rule="evenodd" clip-rule="evenodd" d="M20.166 46.973C20.2361 47.0795 20.355 47.1436 20.4824 47.1436L20.5374 47.1474C20.6829 47.1255 20.8026 47.0213 20.8443 46.8802C20.8519 46.8537 20.8614 46.8271 20.8766 46.7874C20.905 46.6907 20.9391 46.596 20.9751 46.5012C21.0622 46.2663 21.1627 46.0313 21.2688 45.804C21.298 45.7453 21.3104 45.6797 21.3048 45.6145C21.2915 45.3606 21.2745 45.0877 21.2555 44.8149C21.2003 44.2013 21.18 43.5852 21.1949 42.9693C21.2066 42.7985 21.1023 42.6411 20.9405 42.5852C20.7786 42.5294 20.5994 42.5889 20.5033 42.7306C20.1348 43.2768 19.829 43.8628 19.5919 44.4776C19.5729 44.5269 19.554 44.578 19.5369 44.6273C19.5207 44.6735 19.5137 44.7224 19.5161 44.7713C19.5333 45.5499 19.7577 46.3099 20.166 46.973ZM20.4466 45.7794C20.3546 45.462 20.298 45.1354 20.278 44.8055L20.278 44.8055C20.2856 44.7846 20.2931 44.7638 20.3026 44.7411C20.3538 44.6084 20.4087 44.4777 20.4675 44.3507C20.4769 44.5213 20.4883 44.6937 20.4997 44.8642C20.5167 45.1011 20.5319 45.336 20.5433 45.5615C20.5348 45.5803 20.5263 45.5992 20.5178 45.6182C20.4935 45.6719 20.469 45.7262 20.4466 45.7794Z" fill="#32335C"/>
<path fill-rule="evenodd" clip-rule="evenodd" d="M39.7689 47.0304C39.2832 47.034 38.7979 46.9998 38.3175 46.9281C38.2796 46.8276 38.2398 46.7386 38.1982 46.6306C38.0996 46.3937 37.9916 46.1607 37.8779 45.9333C38.389 45.7549 38.9352 45.7003 39.4715 45.7741C39.5081 45.8916 39.5422 46.011 39.5738 46.1322C39.659 46.4203 39.7159 46.7196 39.7689 47.0304Z" fill="#8BCBC9"/>
<path fill-rule="evenodd" clip-rule="evenodd" d="M38.2587 47.3034C38.7224 47.3714 39.1903 47.4068 39.659 47.4095L39.7726 47.4171C39.8837 47.4151 39.9883 47.3646 40.0588 47.2788C40.129 47.1938 40.1587 47.0824 40.1402 46.9737C40.0834 46.6459 40.0152 46.3314 39.9375 46.0415C39.9034 45.9088 39.8693 45.7857 39.8314 45.6625C39.789 45.524 39.6713 45.4218 39.5282 45.3991C38.9308 45.3166 38.3223 45.377 37.7528 45.5754C37.6497 45.6107 37.5669 45.6887 37.5254 45.7895C37.484 45.8905 37.4881 46.0044 37.5368 46.1021C37.658 46.3333 37.7566 46.5606 37.8475 46.7786C37.8854 46.8714 37.9252 46.9661 37.9593 47.0609C38.0075 47.1902 38.1222 47.2831 38.2587 47.3034ZM39.3066 46.6436C39.0717 46.6322 38.8273 46.6114 38.5866 46.581H38.5885C38.5753 46.5488 38.562 46.5166 38.5506 46.4844C38.5089 46.384 38.4654 46.2817 38.418 46.1793C38.6672 46.1284 38.9219 46.1093 39.1759 46.1225C39.1793 46.1352 39.184 46.1479 39.1888 46.1606C39.1975 46.1839 39.2062 46.2072 39.2062 46.2305C39.2403 46.3631 39.2744 46.5015 39.3066 46.6436Z" fill="#32335C"/>
<path fill-rule="evenodd" clip-rule="evenodd" d="M39.9052 48.8168C39.5291 48.8826 39.142 48.8041 38.8213 48.597C38.6964 48.0239 38.5272 47.4614 38.3154 46.9144C38.7897 46.8705 39.2663 46.8578 39.7422 46.8765C39.8595 47.5164 39.914 48.1663 39.9052 48.8168Z" fill="#53607E"/>
<path fill-rule="evenodd" clip-rule="evenodd" d="M38.6274 48.9232C38.9292 49.1169 39.2805 49.2195 39.6392 49.2188C39.7456 49.2213 39.8521 49.2149 39.9575 49.1999C40.1421 49.169 40.2765 49.008 40.2739 48.8209C40.2819 48.1455 40.2241 47.4709 40.1015 46.8067C40.0694 46.6348 39.9238 46.5071 39.7491 46.4979C39.2561 46.4785 38.7624 46.4918 38.2711 46.5377C38.1523 46.5476 38.0451 46.6129 37.9818 46.7139C37.9184 46.8149 37.9063 46.9398 37.949 47.0512C38.1542 47.5795 38.3177 48.123 38.4379 48.6769C38.4629 48.7823 38.5319 48.872 38.6274 48.9232ZM39.5255 48.4551C39.3941 48.4423 39.2659 48.407 39.1465 48.3509H39.1503C39.0644 47.9821 38.9652 47.6176 38.8528 47.2576C39.0423 47.2462 39.2318 47.2462 39.4212 47.2462C39.481 47.6467 39.5158 48.0504 39.5255 48.4551Z" fill="#32335C"/>
<path fill-rule="evenodd" clip-rule="evenodd" d="M26.145 40.8336C26.397 40.8734 29.1501 41.4305 29.3662 38.1051C29.3662 38.0672 29.3377 38.0615 29.3017 38.0615C28.6478 38.0838 27.9975 38.1682 27.3596 38.3135C25.1673 38.8213 26.018 40.5873 26.1147 40.8109C26.12 40.8233 26.1316 40.832 26.145 40.8336Z" fill="#53607E"/>
<path fill-rule="evenodd" clip-rule="evenodd" d="M26.1139 41.2129C26.3368 41.2501 26.5624 41.2691 26.7884 41.2697C27.45 41.2925 28.0993 41.0878 28.6283 40.6899C29.299 40.1575 29.6761 39.2972 29.7519 38.1338C29.7605 38.0198 29.7214 37.9073 29.6439 37.8231C29.5582 37.7331 29.4384 37.6835 29.3142 37.6867C28.6304 37.7093 27.9502 37.7968 27.283 37.9481C26.4853 38.1338 25.9471 38.4957 25.68 39.0263C25.4962 39.3939 25.3616 40.023 25.7652 40.9419V40.9647C25.8223 41.0985 25.9452 41.1927 26.0893 41.2129H26.1139ZM28.1475 40.0924C27.7173 40.4353 27.0977 40.5736 26.391 40.4865H26.3948C26.1769 39.9237 26.247 39.5656 26.3493 39.361C26.5084 39.0426 26.876 38.8134 27.4445 38.6826C27.9404 38.5733 28.443 38.4967 28.949 38.4534C28.8447 39.2037 28.5776 39.7494 28.1475 40.0924Z" fill="#32335C"/>
<path fill-rule="evenodd" clip-rule="evenodd" d="M25.6233 40.8554C25.2444 40.9217 21.8337 42.5436 20.7878 36.9502C20.7764 36.8952 20.8257 36.8725 20.8806 36.882C21.5832 37.0204 22.294 37.1135 23.0085 37.1605C26.7375 37.5603 25.8033 40.4821 25.6612 40.8194C25.6549 40.8366 25.6409 40.85 25.6233 40.8554Z" fill="#53607E"/>
<path fill-rule="evenodd" clip-rule="evenodd" d="M22.6194 41.0732C23.0989 41.3602 23.6484 41.5091 24.2073 41.5033C24.6744 41.4982 25.1379 41.4202 25.581 41.2722L25.6928 41.2381C25.842 41.2118 25.9668 41.1099 26.0225 40.969C26.0471 40.916 26.6061 39.474 25.8785 38.2632C25.3801 37.4352 24.4289 36.9407 23.0495 36.7948C22.8032 36.7682 22.608 36.7493 22.4375 36.7341C21.9394 36.696 21.4443 36.6245 20.9558 36.52C20.8044 36.4878 20.647 36.5325 20.5351 36.6394C20.4359 36.7387 20.3913 36.8801 20.4157 37.0183C20.7966 39.059 21.5375 40.4233 22.6194 41.0732ZM23.0103 40.4231C22.2031 39.9362 21.6101 38.8978 21.2557 37.3384C21.725 37.421 21.9953 37.4459 22.3595 37.4796L22.3699 37.4805L22.9705 37.5374C24.0923 37.6586 24.8597 38.0319 25.2291 38.6439C25.6536 39.3526 25.466 40.2071 25.3675 40.5387H25.3542L25.341 40.5429C24.9113 40.6779 23.9311 40.9857 23.0103 40.4231Z" fill="#32335C"/>
<path d="M25.4346 41.0217C23.9718 41.0217 22.8709 39.5949 22.8217 39.5304C22.7584 39.4467 22.7749 39.3275 22.8586 39.2642C22.9423 39.2009 23.0615 39.2175 23.1248 39.3012C23.1248 39.3144 24.1177 40.5859 25.3569 40.6408C25.1153 40.1936 24.8411 39.7649 24.5365 39.358C24.4935 39.3056 24.4818 39.2341 24.5057 39.1707C24.5296 39.1072 24.5856 39.0614 24.6525 39.0504C24.7195 39.0394 24.7872 39.0649 24.8302 39.1174C25.2069 39.6283 25.5439 40.1674 25.8382 40.7299C25.8678 40.7855 25.8678 40.8523 25.8382 40.908C25.8087 40.9628 25.7542 40.9996 25.6923 41.0065C25.6068 41.0171 25.5207 41.0222 25.4346 41.0217Z" fill="#32335C"/>
<path d="M26.145 41.0235H26.1317C26.0285 41.0154 25.9509 40.9259 25.9574 40.8226C25.9574 40.7733 26.0522 39.6043 27.5642 39.1533C27.6641 39.1238 27.769 39.1805 27.7992 39.2802C27.8139 39.3285 27.8088 39.3806 27.7849 39.4251C27.7611 39.4695 27.7205 39.5026 27.6722 39.5171C26.4216 39.896 26.3458 40.8093 26.3345 40.8435C26.3294 40.9444 26.2461 41.0236 26.145 41.0235Z" fill="#32335C"/>
<path fill-rule="evenodd" clip-rule="evenodd" d="M57.3158 8C57.3158 4.13401 54.1818 1 50.3158 1H8C4.13401 1 1 4.13401 1 8V101C1 104.866 4.13401 108 8 108H50.3158C54.1818 108 57.3158 104.866 57.3158 101V8ZM29.1579 80.9838C41.1203 80.9838 50.8178 69.0968 50.8178 54.4334C50.8178 39.77 41.1203 27.883 29.1579 27.883C17.1954 27.883 7.49793 39.77 7.49793 54.4334C7.49793 69.0968 17.1954 80.9838 29.1579 80.9838Z" fill="#333333"/>
</svg>
