<svg width="49" height="52" viewBox="0 0 49 52" fill="none" xmlns="http://www.w3.org/2000/svg">
<path d="M26.9299 13.0005C30.5199 13.0005 33.4302 10.0902 33.4302 6.50023C33.4302 2.91025 30.5199 0 26.9299 0C23.3399 0 20.4297 2.91025 20.4297 6.50023C20.4297 10.0902 23.3399 13.0005 26.9299 13.0005Z" fill="white"/>
<path d="M40.8587 20.4274C43.9359 20.4274 46.4304 17.9329 46.4304 14.8558C46.4304 11.7787 43.9359 9.28418 40.8587 9.28418C37.7816 9.28418 35.2871 11.7787 35.2871 14.8558C35.2871 17.9329 37.7816 20.4274 40.8587 20.4274Z" fill="white"/>
<path d="M43.644 35.2851C46.2083 35.2851 48.287 33.2063 48.287 30.642C48.287 28.0778 46.2083 25.999 43.644 25.999C41.0797 25.999 39.001 28.0778 39.001 30.642C39.001 33.2063 41.0797 35.2851 43.644 35.2851Z" fill="white"/>
<path d="M35.2867 48.2853C37.3381 48.2853 39.0011 46.6223 39.0011 44.5709C39.0011 42.5194 37.3381 40.8564 35.2867 40.8564C33.2353 40.8564 31.5723 42.5194 31.5723 44.5709C31.5723 46.6223 33.2353 48.2853 35.2867 48.2853Z" fill="white"/>
<path d="M18.5718 52.0001C20.6233 52.0001 22.2863 50.3371 22.2863 48.2857C22.2863 46.2343 20.6233 44.5713 18.5718 44.5713C16.5204 44.5713 14.8574 46.2343 14.8574 48.2857C14.8574 50.3371 16.5204 52.0001 18.5718 52.0001Z" fill="white"/>
<path d="M4.64324 40.8568C6.1818 40.8568 7.42905 39.6095 7.42905 38.071C7.42905 36.5324 6.1818 35.2852 4.64324 35.2852C3.10467 35.2852 1.85742 36.5324 1.85742 38.071C1.85742 39.6095 3.10467 40.8568 4.64324 40.8568Z" fill="white"/>
<path d="M1.85721 24.1422C2.88292 24.1422 3.71442 23.3107 3.71442 22.2849C3.71442 21.2592 2.88292 20.4277 1.85721 20.4277C0.831501 20.4277 0 21.2592 0 22.2849C0 23.3107 0.831501 24.1422 1.85721 24.1422Z" fill="white"/>
<path d="M11.1433 11.1412C12.1691 11.1412 13.0006 10.3097 13.0006 9.28397C13.0006 8.25826 12.1691 7.42676 11.1433 7.42676C10.1176 7.42676 9.28613 8.25826 9.28613 9.28397C9.28613 10.3097 10.1176 11.1412 11.1433 11.1412Z" fill="white"/>
</svg>
