<svg width="161" height="40" viewBox="0 0 161 40" fill="none" xmlns="http://www.w3.org/2000/svg">
<path fill-rule="evenodd" clip-rule="evenodd" d="M73.39 4.16196C78.3377 0.2205 85.8197 -0.944601 92.2023 0.765399C94.5938 1.36211 97.326 2.48949 97.8704 4.78676C97.9309 6.68463 97.0127 8.50742 96.6499 10.3724C93.6262 7.98592 89.2282 7.18734 85.2315 7.72759C80.9159 8.47919 77.8595 11.6549 76.2541 14.9903C74.4124 18.9271 73.5438 23.4416 75.2206 27.5334C76.1057 29.7273 78.1288 31.6017 80.7619 32.297C84.9237 33.368 89.3931 32.0245 92.4937 29.5582C91.878 31.94 91.5757 34.3828 90.8004 36.727C90.0144 38.6671 87.4909 39.3624 85.3524 39.7006C79.7173 40.5791 73.214 39.5926 69.2338 35.8297C65.3304 32.1888 64.4344 26.9931 64.6269 22.2343C64.9237 15.6199 67.5296 8.71887 73.39 4.16196Z" fill="white"/>
<path fill-rule="evenodd" clip-rule="evenodd" d="M37.1097 0.950796C40.9871 0.289952 44.9466 -0.0895814 48.8956 0.0181537C52.5127 0.200961 56.4004 0.903934 59.0826 3.31263C62.2756 6.10554 62.3676 11.0635 59.7978 14.236C58.2345 16.1527 55.9509 17.568 53.3965 18.0975C55.3992 18.8612 57.3711 19.9532 58.3572 21.8088C60.6766 26.1669 59.4249 31.8606 55.4656 35.0753C52.3237 37.7229 47.9608 38.6508 43.8226 38.9133C40.7369 39.0164 37.5745 38.9274 34.6165 38.0511C33.0429 37.6106 31.7913 36.4249 31.2805 35.005C30.5039 32.9244 30.8104 30.6656 31.2753 28.5568C33.2626 19.3627 35.0967 10.1403 37.1097 0.950796ZM44.3742 6.59755C43.843 9.24059 43.2145 11.8696 42.7904 14.5266C42.6526 15.2717 43.6334 15.5857 44.2822 15.4779C46.9082 15.5716 49.8713 15.2717 51.8024 13.4628C53.5496 11.7665 53.7796 8.40172 51.3375 7.14592C49.2225 6.05864 46.6834 6.55546 44.3742 6.59755ZM41.3091 21.4527C40.6296 23.9737 40.2311 26.5558 39.6436 29.0958C39.4495 30.1877 38.8569 31.392 39.7509 32.3573C42.5403 32.348 45.5546 32.5355 47.9964 31.05C50.929 29.4847 51.8945 25.2718 49.4627 22.971C47.2456 21.1245 44.0576 21.5557 41.3091 21.4527Z" fill="white"/>
<path fill-rule="evenodd" clip-rule="evenodd" d="M104.205 2.02297C106.976 1.22678 109.937 1.17029 112.829 1.06184C116.816 1.01002 121.075 1.11847 124.58 3.04058C127.284 4.42091 128.903 7.1157 129.233 9.84352C130.16 15.902 126.812 22.4316 120.756 25.3573C116.769 27.4067 112.058 27.5196 107.594 27.2559C106.866 30.2569 106.379 33.305 105.614 36.2967C105.221 37.8796 104.1 39.4343 102.292 39.9148C100.238 40.0891 98.1691 39.9336 96.1152 39.9854C98.9393 27.3596 101.423 14.663 104.205 2.02297ZM112.221 7.75647C111.446 11.4218 110.639 15.0823 109.921 18.7523C109.669 19.4967 110.261 20.1846 110.963 20.5143C113.127 20.8723 115.443 20.5426 117.35 19.5485C120.95 17.6357 122.464 13.1602 120.813 9.74924C119.095 7.05921 115.129 7.52557 112.221 7.75647Z" fill="white"/>
<path fill-rule="evenodd" clip-rule="evenodd" d="M10.9852 4.55374C12.48 3.88897 14.3955 4.22376 15.5138 5.27514C17.2299 7.50049 17.3131 10.268 17.2299 12.8375C17.1747 14.9214 16.765 16.9959 15.9014 18.9478C12.9838 15.7182 9.19153 13.0921 4.92871 11.2392C6.03599 8.55187 7.92935 5.89272 10.9852 4.55374Z" fill="white"/>
<path fill-rule="evenodd" clip-rule="evenodd" d="M134.315 11.1748C135.799 8.46121 137.818 5.56342 141.489 4.39767C143.345 3.84087 145.298 4.59594 146.415 5.78052C148.614 9.9855 148.091 14.7003 146.367 18.9478C143.033 15.7669 138.965 13.0909 134.315 11.1748Z" fill="white"/>
<path fill-rule="evenodd" clip-rule="evenodd" d="M15.9321 5.2627C20.625 7.6178 24.403 10.9574 27.502 14.5889C30.0699 17.6082 30.3296 21.8332 27.8386 24.937C24.7985 28.969 20.324 32.172 15.7492 35.0735C13.1577 36.6137 10.0468 38.4507 6.62305 37.7347C3.41182 37.0848 1.43431 34.7861 0 32.5676C6.85917 29.3553 13.5473 25.0832 16.3454 18.9223C17.2662 16.9722 17.7031 14.8997 17.762 12.8178C17.8507 10.2508 17.762 7.48591 15.9321 5.2627Z" fill="#F57E2E"/>
<path fill-rule="evenodd" clip-rule="evenodd" d="M147.25 5.2627C151.36 6.94529 154.309 10.014 157.117 12.8915C159.275 15.0281 160.679 17.7719 160.343 20.5729C160.113 22.9532 158.556 25.0754 156.786 26.9254C153.254 30.6154 148.901 33.751 144.159 36.3848C142.207 37.403 139.813 38.292 137.459 37.7089C134.251 37.054 132.116 34.7453 130.818 32.4128C137.795 29.2819 144.283 24.7791 147.202 18.5988C148.895 14.2968 149.408 9.52159 147.25 5.2627Z" fill="#F57E2E"/>
</svg>
