<svg xmlns="http://www.w3.org/2000/svg" width="22" height="22" viewBox="0 0 22 22">
    <g fill="none" fill-rule="evenodd">
        <g fill="#FF7800">
            <g>
                <g>
                    <g>
                        <path d="M18.375 2.625c.483 0 .875.392.875.875s-.392.875-.875.875h-1.626C18.33 5.987 19.25 8.167 19.25 10.5c0 4.166-2.933 7.73-6.962 8.567-.584.121-1.182.183-1.788.183-.483 0-.875-.392-.875-.875s.392-.875.875-.875c.486 0 .965-.05 1.432-.146 3.221-.67 5.568-3.522 5.568-6.854 0-1.74-.639-3.372-1.75-4.63V7c0 .483-.392.875-.875.875S14 7.483 14 7V3.5c0-.483.392-.875.875-.875h3.5zM10.5 1.75c.483 0 .875.392.875.875s-.392.875-.875.875c-.486 0-.965.05-1.432.146C5.847 4.316 3.5 7.168 3.5 10.5c0 1.74.639 3.373 1.75 4.631V14c0-.483.392-.875.875-.875S7 13.517 7 14v3.5c0 .449-.338.819-.773.87l-.102.005h-3.5c-.483 0-.875-.392-.875-.875s.392-.875.875-.875h1.626c-1.58-1.61-2.501-3.792-2.501-6.125 0-4.166 2.933-7.73 6.962-8.567.584-.121 1.182-.183 1.788-.183zm0 7c.966 0 1.75.784 1.75 1.75s-.784 1.75-1.75 1.75-1.75-.784-1.75-1.75.784-1.75 1.75-1.75z" transform="translate(-613 -525) translate(432 112) translate(168 400) translate(13.5 13.5)"/>
                    </g>
                </g>
            </g>
        </g>
    </g>
</svg>
