<svg xmlns="http://www.w3.org/2000/svg" width="22" height="22" viewBox="0 0 22 22">
    <g fill="none" fill-rule="evenodd">
        <g fill="#FF7800">
            <g>
                <g>
                    <g>
                        <path d="M6.125 2.625c.449 0 .819.338.87.773L7 3.5V7c0 .483-.392.875-.875.875-.449 0-.819-.338-.87-.773L5.25 7V5.87C4.138 7.128 3.5 8.76 3.5 10.5c0 3.332 2.347 6.184 5.568 6.854.467.097.946.146 1.432.146.483 0 .875.392.875.875s-.392.875-.875.875c-.606 0-1.204-.062-1.788-.183-4.03-.837-6.962-4.401-6.962-8.567 0-2.236.845-4.332 2.306-5.92l.195-.205H2.625c-.483 0-.875-.392-.875-.875 0-.449.338-.819.773-.87l.102-.005h3.5zM10.5 1.75c.606 0 1.204.062 1.788.183 4.03.837 6.962 4.401 6.962 8.567 0 2.236-.845 4.332-2.307 5.921l-.194.205 1.626-.001c.483 0 .875.392.875.875 0 .449-.338.819-.773.87l-.102.005h-3.5l-.102-.006c-.402-.047-.72-.365-.767-.767L14 17.5V14c0-.483.392-.875.875-.875.449 0 .819.338.87.773l.005.102v1.131c1.111-1.258 1.75-2.89 1.75-4.631 0-3.332-2.347-6.184-5.568-6.854-.467-.097-.946-.146-1.432-.146-.483 0-.875-.392-.875-.875s.392-.875.875-.875zm0 7c.966 0 1.75.784 1.75 1.75s-.784 1.75-1.75 1.75-1.75-.784-1.75-1.75.784-1.75 1.75-1.75z" transform="translate(-677 -525) translate(432 112) translate(168 400) translate(77.5 13.5)"/>
                    </g>
                </g>
            </g>
        </g>
    </g>
</svg>
