<svg xmlns="http://www.w3.org/2000/svg" width="100" height="100" viewBox="0 0 100 100">
    <g fill="none" fill-rule="evenodd">
        <g>
            <g>
                <g transform="translate(-334 -356) translate(204 356) translate(130)">
                    <circle cx="50" cy="50" r="44" fill="#DCEDFF"/>
                    <path fill="#FFC8E9" d="M77.018 28.75c1.368 2.7.397 6.007-2.162 7.503l-.205.114c-2.197 1.163-3.964 7.249-2.06 13.205.09.137.176.275.26.414l.248.42.12.212.231.429.222.435.214.442.207.447.301.684.293.699.484 1.197.7 1.75.322.775.34.792.239.537.25.545.264.552c.045.093.09.186.137.279l.286.564.148.284.31.575.163.29.338.587.358.595c.307.499.636 1.006.992 1.521l.439.623c1.957 2.717 3.261 4.377 7.163 7.585-5.895 9.82-15.378 16.438-24.79 19.265-6.571-8.585-16.29-16.459-26.245-19.815-6.537-1.635-13.841-1.916-19.764-1.467l-1.002.084c-2.303.212-4.365.535-6.05.929-2.539.594-5.068-1.03-5.65-3.624-.562-2.513.909-5.017 3.309-5.712-1.601-.464-2.91-1.784-3.308-3.56-.581-2.595 1.006-5.18 3.545-5.774.701-.164 1.5-.316 2.381-.452l-.013-.056c-.581-2.595 1.006-5.18 3.546-5.774.746-.175 1.603-.34 2.554-.491-.076-2.262 1.423-4.333 3.661-4.856l.689-.153.512-.106.553-.108.904-.163.649-.11.685-.108.72-.108.753-.106.784-.103.814-.1 1.274-.141.883-.088.908-.083.931-.076.953-.068.974-.061.993-.052 1.01-.043c.34-.013.682-.023 1.027-.033l1.04-.022.527-.006 1.06-.005c2.488.004 5.066.11 7.65.36.345-.452.633-.752.85-.869l1.157.19 1.31.233 1.174.223 1.34.27 1.17.25.928.206.638.147.98.234.669.166.677.173 1.027.273.691.191.693.2.694.205.692.214c.091-1.304.274-2.592.549-3.852 1.238-5.674 4.164-9.986 8.238-12.142 2.712-1.436 6.049-.353 7.454 2.418z"/>
                    <path fill="#FFB4DE" d="M64.57 62.32c.105-1.781-6.57-5.701-12.221-5.474-3.767.152-7.243 1.979-10.428 5.482 5.426 1.297 9.458 2.042 12.096 2.235 6.8.287 10.187-.51 10.552-2.243z" transform="rotate(-7 53.246 60.728)"/>
                    <path fill="#003CE5" d="M65.42 60.297c1.432.754 2.551 1.852 2.995 2.939.07.169-.009.364-.174.435-.041.017-.084.025-.126.025-.127 0-.248-.077-.3-.204-.73-1.787-3.852-4.003-7.816-3.524-.176.023-.34-.109-.361-.291-.022-.182.106-.348.284-.37 2.428-.296 4.33.376 5.499.99zm-30.383.456c.177.029.299.199.27.38-.027.181-.194.306-.37.277-1.558-.249-3.08-.434-4.56-.566l-1.102-.089c-2.37-.172-4.621-.209-6.725-.152l-.96.032c-.317.013-.63.028-.939.045l-.915.056-.893.066-.868.076-.844.084-.82.093-.792.099-1.138.159-.725.111-.696.116-.667.118-.637.12-.606.12-.85.18-.779.177-.92.225-.78.206c-.03.007-.057.011-.085.011-.144 0-.275-.098-.315-.246-.046-.178.057-.36.23-.408l.76-.201.834-.207.905-.21.974-.208 1.04-.204.919-.165 1.16-.188 1.013-.147.84-.11.868-.101.893-.092.917-.083.468-.037.954-.065c4.347-.267 9.407-.156 14.94.728zm-7.55-9.926l1.131.044c.38.017.765.037 1.152.06l1.172.077c2.362.172 4.838.452 7.4.862.177.028.298.198.27.38-.028.18-.195.306-.371.276-3.387-.54-6.62-.854-9.637-.991l-1.121-.043c-.926-.03-1.83-.042-2.71-.04l-1.044.01c-1.032.017-2.03.054-2.988.11l-.945.061-.919.073-.891.083c-1.024.104-1.99.228-2.894.369l-.943.157-.895.168-.344.07-.662.145c-.43.098-.839.2-1.223.306-.029.007-.057.011-.085.011-.143 0-.275-.098-.314-.246-.046-.178.057-.36.23-.408l.602-.157.636-.152.33-.074.688-.144.72-.137.751-.13c.64-.105 1.312-.202 2.015-.29l.857-.099.44-.046.9-.085.462-.038.941-.069.481-.03.98-.05 1.007-.037 1.03-.024c1.217-.02 2.482-.013 3.79.028zm6.759-6.074l1.141.052 1.162.069c2.539.167 5.213.458 7.988.902.177.028.299.198.27.38-.027.181-.195.307-.37.277-3.387-.542-6.62-.855-9.638-.992l-1.121-.043c-1.296-.041-2.549-.05-3.753-.03l-1.021.024c-.672.02-1.329.049-1.967.086l-.946.061-.462.035-.906.078-.442.044-.863.093c-.707.082-1.385.175-2.03.275l-.944.157-.895.168-.679.142-.645.148c-.315.075-.616.152-.905.231-.028.008-.057.011-.085.011-.143 0-.275-.098-.314-.246-.046-.178.057-.36.23-.407.487-.133 1.01-.262 1.57-.384l.686-.144.356-.07.736-.133c1.002-.173 2.089-.326 3.252-.453l.887-.09.454-.04.928-.074.474-.033.968-.057c2.125-.109 4.432-.13 6.884-.037z"/>
                    <g>
                        <path fill="#003CE5" d="M22.888 47.974c11.908-.614 20.989-11.845 20.283-25.085C42.465 9.649 32.24-.587 20.331.026 8.425.64-.657 11.871.049 25.111c.706 13.24 10.931 23.476 22.84 22.863z" transform="translate(24 16)"/>
                        <path fill="#005CFF" d="M20.38 46.883c10.584-.56 18.635-11.213 17.983-23.792C37.711 10.51 28.603.769 18.02 1.329 7.436 1.89-.615 12.543.037 25.122c.652 12.58 9.76 22.322 20.343 21.761z" transform="translate(24 16)"/>
                        <path fill="#06A0FF" d="M19.377 42.151c8.157-.417 14.347-8.628 13.826-18.339-.521-9.711-7.556-17.245-15.713-16.828-8.157.418-14.347 8.629-13.826 18.34.521 9.71 7.556 17.245 15.713 16.827z" transform="translate(24 16)"/>
                        <path fill="#FFF" d="M21.041 41.284c8.107-.835 13.837-9.362 12.798-19.045C32.8 12.555 25.386 5.38 17.279 6.216c-8.106.835-13.836 9.362-12.797 19.046 1.039 9.684 8.453 16.857 16.56 16.022z" transform="translate(24 16)"/>
                        <path fill="#005CFF" d="M18.275 36.407c.659-.07 1.25.409 1.319 1.068.069.659-.41 1.25-1.068 1.319-.66.069-1.25-.41-1.32-1.068-.069-.66.41-1.25 1.069-1.32zm11.2-12c.659-.07 1.25.409 1.319 1.068.069.659-.41 1.25-1.068 1.319-.66.069-1.25-.41-1.32-1.068-.069-.66.41-1.25 1.069-1.32zm-22.8-2.4c.659-.07 1.25.409 1.319 1.068.069.659-.41 1.25-1.068 1.319-.66.069-1.25-.41-1.32-1.068-.069-.66.41-1.25 1.069-1.32zm11.6-14c.659-.07 1.25.409 1.319 1.068.069.659-.41 1.25-1.068 1.319-.66.069-1.25-.41-1.32-1.068-.069-.66.41-1.25 1.069-1.32z" transform="translate(24 16)"/>
                        <path fill="#FF7800" d="M18.27 12.584c.528.006.956.42.987.94l.001.071-.103 8.818c.667.314 1.175.928 1.331 1.687l5.138.492c.55.052.952.54.9 1.09-.05.527-.501.92-1.023.905l-.068-.004-5.407-.516c-.387.493-.966.836-1.639.907-1.318.138-2.5-.818-2.638-2.136-.11-1.059.484-2.029 1.405-2.442l.105-8.824c.006-.552.459-.995 1.011-.988z" transform="translate(24 16)"/>
                    </g>
                </g>
            </g>
        </g>
    </g>
</svg>
