<svg xmlns="http://www.w3.org/2000/svg" width="100" height="100" viewBox="0 0 100 100">
    <g fill="none" fill-rule="evenodd">
        <g>
            <g>
                <g>
                    <path fill="#DCEDFF" d="M50 94c24.3 0 44-19.7 44-44S74.3 6 50 6 6 25.7 6 50s19.7 44 44 44z" transform="translate(-550 -120) translate(420 120) translate(130)"/>
                    <g transform="translate(-550 -120) translate(420 120) translate(130) translate(11.765 23.398)">
                        <path fill="#005CFF" d="M73.435 42.981l-44.64-7.952L.537 39.375c-.345.053-.583.377-.53.723.037.239.207.436.438.508l38.32 11.97c.89.279 1.84.303 2.744.07l30.533-7.868c.769-.198 1.32-.86 1.386-1.64l.007-.157z"/>
                        <path fill="#06A0FF" d="M73.435 42.981l-44.64-9.39L.537 37.937c-.345.053-.583.377-.53.723.037.239.207.436.438.508l38.32 11.97c.89.279 1.84.303 2.744.07l31.926-8.227z"/>
                        <path fill="#0B7EFF" d="M40.356 1.561L79.22.003c2.074-.083 3.822 1.53 3.905 3.604.015.358-.022.716-.109 1.063L73.435 42.98l-44.64-9.39 8.09-29.276c.434-1.575 1.838-2.689 3.47-2.754z"/>
                        <path fill="#FFF" d="M40.593 4.47l34.993-.927c1.383-.037 2.534 1.054 2.57 2.438.007.22-.016.439-.068.653L70.736 37.14c-.312 1.296-1.584 2.12-2.895 1.876l-33.92-6.329c-1.36-.253-2.257-1.562-2.004-2.922.013-.065.027-.13.045-.194l6.279-23.25c.289-1.068 1.245-1.821 2.352-1.85z"/>
                        <path fill="#80DAFC" d="M31.674 35.59l30.77 6.316c.195.04.32.23.28.425-.029.143-.142.255-.286.281l-12.82 2.372c-1.35.25-2.736.22-4.073-.089l-30.303-6.98c-.194-.045-.315-.238-.27-.432.034-.146.155-.256.303-.276l13.065-1.735c1.11-.147 2.237-.108 3.334.118zm-8.268 5.463l8.807 2.198c.193.048.31.244.262.437-.034.137-.146.241-.285.267l-5.173.939c-.726.132-1.472.102-2.185-.088l-8.223-2.19c-.192-.05-.306-.248-.255-.44.035-.133.143-.234.278-.26l4.58-.915c.726-.145 1.475-.127 2.194.052z"/>
                        <circle cx="54.675" cy="2.678" r="1" fill="#83F0FF"/>
                        <path fill="#FF7800" d="M52.383 14.16c.069.043.123.107.156.181l5.017 11.574c.088.203-.005.438-.208.526-.072.032-.153.04-.23.027l-10.952-2c-.218-.04-.362-.249-.322-.466.01-.05.027-.096.054-.139l5.934-9.573c.116-.188.363-.246.55-.13zm-1.435 8.358c-.288-.007-.531.19-.563.473-.034.314.205.623.535.691.33.07.626-.135.66-.458.032-.292-.159-.574-.438-.67l-.096-.026-.098-.01zm.601-4.691c-.296-.02-.565.176-.641.452l-.018.094-.294 2.71c-.035.318.204.617.534.67.297.05.566-.125.642-.398l.018-.095.293-2.788c.034-.333-.205-.622-.534-.645z"/>
                        <path fill="#80DAFC" d="M60.497 22.423l.1.013c.365.074.612.407.588.769l-.013.099-.758 3.74c-.353 1.747-2.011 2.897-3.754 2.64l-.241-.044-2.591-.575c-.397-.088-.648-.482-.56-.879.081-.363.418-.604.78-.574l.099.015 2.625.583c.962.195 1.9-.388 2.165-1.317l.034-.142.757-3.74c.068-.331.349-.566.671-.588h.098zM44.223 21.3c.364.082.603.42.57.782l-.015.099-.374 1.65c-.213.959.352 1.908 1.275 2.19l.141.036 1.094.243c.397.088.648.482.56.879-.081.364-.418.604-.78.574l-.099-.015-1.094-.243c-1.74-.386-2.858-2.065-2.57-3.803l.038-.195.373-1.642c.09-.397.484-.645.881-.555zm18.656-6.879c.006.172-.002.344-.023.514l-.041.254-.682 3.367c-.08.398-.47.656-.868.575-.365-.074-.612-.406-.589-.768l.014-.1.681-3.366c.029-.141.041-.285.036-.43-.03-.98-.813-1.76-1.777-1.804l-.146-.001-2.677.084c-.406.013-.746-.306-.76-.712-.01-.373.256-.69.614-.75l.1-.01 2.676-.084c1.843-.058 3.384 1.389 3.442 3.231zm-13.062-2.927c.407-.013.747.306.76.712.011.373-.256.69-.614.75l-.1.01-1.638.051c-.796.025-1.481.552-1.719 1.3l-.041.152-.26 1.14c-.09.397-.484.646-.88.556-.364-.083-.603-.421-.57-.783l.015-.098.258-1.14c.323-1.421 1.525-2.461 2.962-2.587l.189-.012 1.638-.051z"/>
                    </g>
                    <path fill="#FFC8E9" d="M6.562 43.776c4.354-.36 8.733-1.07 13.116-2.183l.08.107c8.683-1.988 18.82-5.717 25.266-9.745 2.078-1.3 4.815-.673 6.113 1.4 1.298 2.071.666 4.804-1.413 6.103-3.135 1.96-6.931 3.821-10.996 5.483l.184.147c.128.105.252.217.37.335.224.227.493.53.782.916.573.765 1.046 1.607 1.351 2.597.255.825.369 1.694.29 2.602-.077.91-.4 1.74-.898 2.432.222.764.334 1.588.303 2.474-.06 1.778-.724 3.455-1.92 4.908.053 1.089-.058 2.171-.31 3.162-.39 1.572-1.122 2.91-1.949 4.082-.887 1.17-1.8 2.123-3.275 3.06-1.668 1.058-3.87.571-4.928-1.089-.646-1.012-.713-2.226-.29-3.258l.719-1.725.048-.106.142-.272.268-.504c.06-.119.12-.24.172-.357l.138-.344-3.226 1-1.562.47-1.258.366-.876.248-.904.248-.93.248-.475.123-1.21.303-1.242.295-1.014.227-.514.11-1.038.214c-.348.069-.698.136-1.05.201l-1.063.188c-1.067.18-2.148.339-3.234.467-.565-1.2-1.08-2.435-1.541-3.704-2.561-7.036-3.215-14.3-2.226-21.23z" transform="translate(-550 -120) translate(420 120) translate(130)"/>
                    <path fill="#003CE5" d="M32.625 50.115c2.433 1.714 3.698 4.914 3.818 9.571.004.166-.127.304-.293.308-.165.004-.303-.127-.307-.292-.115-4.486-1.31-7.51-3.564-9.096-.135-.096-.168-.283-.072-.418.095-.136.282-.168.418-.073zm2.762-4.437c2.603 2.086 3.965 4.895 4.08 8.405.005.166-.125.304-.29.31-.166.005-.305-.125-.31-.29-.109-3.338-1.391-5.982-3.855-7.957-.13-.103-.15-.292-.047-.421.104-.13.293-.15.422-.047zm2.367-3.711c1.433 1.146 2.421 2.425 2.959 3.839.059.155-.02.328-.174.387-.155.059-.328-.02-.387-.174-.497-1.307-1.42-2.502-2.773-3.583-.13-.104-.15-.293-.047-.422.104-.13.292-.15.422-.047z" transform="translate(-550 -120) translate(420 120) translate(130) rotate(-20 36.442 50.948)"/>
                </g>
            </g>
        </g>
    </g>
</svg>
