<svg xmlns="http://www.w3.org/2000/svg" width="100" height="100" viewBox="0 0 100 100">
    <g fill="none" fill-rule="evenodd">
        <g>
            <g>
                <g>
                    <path fill="#DCEDFF" d="M87.888 72.39C82.684 81.17 74.52 87.987 64.764 91.46 60.15 93.105 55.177 94 49.998 94 25.698 94 6 74.302 6 50.002 6 25.698 25.698 6 49.998 6 74.302 6 94 25.698 94 50.002c0 8.177-2.228 15.83-6.112 22.387z" transform="translate(-334 -326) translate(204 326) translate(130)"/>
                    <path fill="#FFC8E9" d="M43.566 47.738c4.317-.39 9.107 1.575 13.47 4.249l.723.452c.24.152.478.307.714.463l.705.473.348.24.688.484.676.49c.112.082.223.164.333.247l.657.495.641.496.627.496.307.248.896.737.575.484.556.478.536.469.515.458.964.878.662.618.793.76.84.827.657.666.751.788c4.608 4.646 9.661 8.473 14.9 11.43-5.198 7.44-12.633 13.2-21.336 16.296-4.257 1.518-8.82 2.397-13.568 2.524l-.824-.609-.8-.6-1.156-.881-.74-.574-.714-.563-.69-.55-.986-.798-.928-.765-.868-.728-1.063-.91-.951-.832-.838-.749-.722-.657-.734-.683-.989-.952-1.189-1.213-1.415-1.484-1.352-1.45-1.052-1.157-.873-.978-.662-.756-.663-.771-.46-.544c-1.755-2.09-3.403-4.238-4.42-5.998-.021-.038-.028-.11-.021-.215l.022-.18c.01-.068.025-.143.043-.225l.064-.269.085-.308.106-.348.126-.383.146-.418.165-.449.185-.478.205-.506.223-.531.242-.553.26-.574.278-.592.295-.608.155-.31.322-.627.339-.637.355-.646c.182-.325.37-.651.565-.979l.396-.656c3.1-5.031 7.591-10.074 12.903-10.552z" transform="translate(-334 -326) translate(204 326) translate(130)"/>
                    <g transform="translate(-334 -326) translate(204 326) translate(130) rotate(-8 79.3 -156.716)">
                        <path fill="#005CFF" d="M6 0h27.6c3.314 0 6 2.686 6 6v60c0 3.314-2.686 6-6 6H6c-3.314 0-6-2.686-6-6V6c0-3.314 2.686-6 6-6z"/>
                        <path fill="#FFF" d="M6.8 2.8h26c2.21 0 4 1.79 4 4v58c0 2.21-1.79 4-4 4h-26c-2.21 0-4-1.79-4-4v-58c0-2.21 1.79-4 4-4z"/>
                        <path fill="#005CFF" d="M19.6 0c2.21 0 4 1.79 4 4s-1.79 4-4 4-4-1.79-4-4 1.79-4 4-4z"/>
                        <circle cx="19.6" cy="4" r="2" fill="#83F0FF"/>
                        <path fill="#FF7800" d="M20.271 24.361l.047.081 7.201 14.4c.056.111.084.234.084.358 0 .41-.308.748-.706.795l-.094.005H12.401c-.125 0-.247-.029-.358-.084-.367-.184-.531-.611-.395-.988l.037-.086 7.202-14.4c.077-.155.202-.28.357-.358.367-.183.808-.058 1.027.277zm-.669 11.642c-.442 0-.8.358-.8.8 0 .44.358.799.8.799.442 0 .8-.358.8-.8 0-.441-.358-.8-.8-.8zm0-6.396c-.408 0-.744.305-.794.7l-.006.1v3.997l.006.1c.05.394.386.7.794.7.408 0 .744-.306.794-.7l.006-.1v-3.998l-.006-.1c-.05-.394-.386-.7-.794-.7z"/>
                        <path fill="#80DAFC" d="M8.402 35.184c.616 0 1.123.463 1.192 1.06l.008.14V40l.007.18c.087 1.179 1.027 2.121 2.205 2.213l.188.007h3.609l.14.008c.596.07 1.06.577 1.06 1.192s-.464 1.123-1.06 1.192l-.14.008h-3.609l-.24-.006c-2.457-.12-4.429-2.09-4.553-4.547L7.202 40v-3.616l.008-.14c.07-.597.577-1.06 1.192-1.06zm22.4 0c.616 0 1.123.463 1.192 1.06l.008.14V40c0 2.57-2.02 4.67-4.56 4.794l-.24.006h-3.608c-.662 0-1.2-.537-1.2-1.2 0-.615.464-1.123 1.06-1.192l.14-.008h3.608c1.266 0 2.302-.98 2.394-2.22l.006-.18v-3.616c0-.663.538-1.2 1.2-1.2zM15.608 20c.663 0 1.2.537 1.2 1.2 0 .615-.463 1.123-1.06 1.192l-.14.008H12c-1.265 0-2.302.98-2.393 2.22l-.007.18v3.616c0 .663-.537 1.2-1.2 1.2-.615 0-1.123-.463-1.192-1.06l-.008-.14V24.8c0-2.57 2.02-4.67 4.56-4.794L12 20h3.608zM27.2 20l.24.006c2.457.12 4.43 2.09 4.554 4.547L32 24.8v3.616l-.008.14c-.07.597-.577 1.06-1.192 1.06s-1.123-.463-1.192-1.06l-.008-.14V24.8l-.007-.18c-.087-1.179-1.026-2.121-2.205-2.213L27.2 22.4h-3.608l-.14-.008c-.597-.07-1.06-.577-1.06-1.192s.463-1.123 1.06-1.192l.14-.008H27.2z"/>
                    </g>
                    <path fill="#FFC8E9" d="M20.342 41.264c1.348-1.897 3.14-3.417 5.508-4.167 2.27-.72 4.685.528 5.394 2.786.71 2.26-.556 4.674-2.826 5.393-.319.101-.707.43-1.057.923l-.22.337-.046.082c-.944 2.181-3.479 3.196-5.662 2.267-2.182-.93-3.186-3.45-2.242-5.632.226-.522.6-1.214 1.15-1.989z" transform="translate(-334 -326) translate(204 326) translate(130)"/>
                    <path fill="#FFC8E9" d="M29.323 53.445c-.747 2.088-2.988 3.296-5.17 2.724-2.297-.602-3.659-2.95-3.042-5.242.16-.592.456-1.338.948-2.164 1.148-1.926 2.914-3.487 5.36-4.263 2.27-.72 4.684.528 5.394 2.787.71 2.258-.555 4.673-2.825 5.393-.182.057-.315.149-.426.286l-.152.222.014-.067-.1.324z" transform="translate(-334 -326) translate(204 326) translate(130)"/>
                    <path fill="#FFC8E9" d="M31.037 60.33c-.748 2.087-2.99 3.295-5.171 2.722-2.297-.603-3.658-2.95-3.04-5.243.159-.591.455-1.338.948-2.163 1.148-1.925 2.914-3.486 5.36-4.261 2.269-.72 4.684.528 5.394 2.786.71 2.259-.555 4.673-2.825 5.393-.183.058-.316.15-.427.287l-.152.222.013-.065-.1.321z" transform="translate(-334 -326) translate(204 326) translate(130)"/>
                    <path fill="#FFC8E9" d="M33.415 67.426c-.747 2.088-2.987 3.296-5.17 2.725-2.296-.602-3.659-2.949-3.042-5.242.16-.592.455-1.338.948-2.164 1.148-1.926 2.913-3.487 5.359-4.263 2.27-.72 4.685.528 5.394 2.787.71 2.259-.555 4.673-2.825 5.393-.182.057-.314.149-.425.285l-.152.222.014-.066-.1.323zM69.676 45.953c1.357-1.954 4.04-2.451 5.994-1.11 1.864 1.281 2.39 3.774 1.253 5.698l-.282.452-.193.344c-.1.186-.204.393-.31.62-.528 1.123-.97 2.422-1.254 3.864-.821 4.17-.183 8.631 2.543 13.353 1.183 2.05.47 4.676-1.593 5.867-2.063 1.191-4.694.495-5.878-1.554-3.793-6.57-4.732-13.135-3.523-19.274.426-2.166 1.094-4.129 1.91-5.863.182-.388.36-.74.528-1.056l.247-.446.117-.202.305-.49.136-.203z" transform="translate(-334 -326) translate(204 326) translate(130)"/>
                    <path fill="#FFC8E9" d="M54.973 74.058s3.938-13.045 19.81-22.487c14.98-8.908-7.135 25.28-7.135 25.28l-12.675-2.793z" transform="translate(-334 -326) translate(204 326) translate(130) rotate(-30 67.48 63.47)"/>
                    <path fill="#003CE5" d="M33.21 57.986c.165-.004.303.127.307.292.005.166-.126.303-.292.308-2.156.055-4.44 1.496-6.845 4.352-.106.127-.296.143-.422.036-.127-.106-.143-.296-.037-.422 2.504-2.975 4.93-4.506 7.289-4.566zm-1.614-6.88c.165 0 .3.134.3.3 0 .165-.135.3-.3.3-2.692 0-5.235 1.413-7.636 4.265-.107.127-.296.143-.423.036-.127-.106-.143-.296-.036-.422 2.507-2.978 5.208-4.48 8.095-4.48zm-2.231-6.923c.165-.008.306.118.315.284.01.165-.118.307-.283.315-2.795.15-5.09 1.553-6.906 4.234-.093.137-.28.173-.417.08-.137-.093-.173-.28-.08-.416 1.917-2.83 4.38-4.337 7.37-4.497z" transform="translate(-334 -326) translate(204 326) translate(130)"/>
                </g>
            </g>
        </g>
    </g>
</svg>
