<svg width="99" height="66" viewBox="0 0 99 66" fill="none" xmlns="http://www.w3.org/2000/svg">
<rect x="1" y="1" width="96.9476" height="64.2877" rx="5.55042" fill="#C0E1F6" stroke="#32335C" stroke-width="1.13449"/>
<rect x="7.9375" y="46.0967" width="33.9963" height="5.55042" rx="2.77521" fill="#53607E"/>
<rect x="13.4883" y="55.8105" width="23.5893" height="5.55042" rx="2.77521" fill="#203864"/>
<rect x="48.1787" y="46.0967" width="45.0972" height="5.55042" rx="2.77521" fill="#53607E"/>
<rect x="48.1787" y="54.4229" width="45.0972" height="5.55042" rx="2.77521" fill="#53607E"/>
<rect x="59.2793" y="8.63184" width="33.9963" height="28.4459" rx="2.77521" fill="white"/>
<g clip-path="url(#clip0_4_905)">
<path d="M75.938 22.8514C75.938 23.3003 76.3022 23.634 76.7206 23.634C79.1682 23.5959 81.5277 23.9092 83.8856 24.5741C84.2481 24.6943 84.9493 24.5283 84.9493 23.8203C84.9493 23.4646 84.7164 23.1387 84.3565 23.0371C82.7348 22.5797 80.1083 22.0174 76.7511 22.0377C76.3039 22.0384 75.938 22.4009 75.938 22.8514ZM73.1703 22.8819C73.1635 24.9857 74.7625 26.4051 76.5952 26.3746C78.2169 26.3492 79.843 26.5017 81.4227 26.8276C81.8326 26.9207 82.2906 26.637 82.3838 26.1968C82.4727 25.7869 82.1932 25.3288 81.753 25.2357C80.0551 24.8844 78.3111 24.7235 76.6003 24.7489C75.6873 24.7621 74.7896 24.1049 74.7964 22.9056C74.8133 21.8429 75.6558 20.9665 76.6765 20.9536C78.2721 20.924 79.9372 21.0468 81.5379 21.3134C81.9478 21.3854 82.3973 21.0848 82.4736 20.6403C82.5837 19.9671 81.9614 19.734 81.8004 19.7086C80.1371 19.4292 78.3755 19.2981 76.6816 19.3275C74.7557 19.3587 73.1974 20.9509 73.1703 22.8819ZM72.4995 26.6287C72.2149 26.981 72.2657 27.4892 72.6147 27.7771C73.6818 28.6393 75.0335 29.1092 76.4089 29.0882C77.6834 29.067 78.9622 29.1686 80.2065 29.393C80.6164 29.4735 81.0704 29.1813 81.1507 28.7409C81.2692 28.0593 80.6469 27.8222 80.4945 27.8228C79.1438 27.5815 77.7633 27.4671 76.3818 27.4926C75.3723 27.4756 74.4237 27.1504 73.6445 26.544C73.2922 26.229 72.7841 26.2798 72.4995 26.6287ZM70.3869 22.953C70.3744 23.4443 70.4337 23.9694 70.5563 24.4741C70.6274 24.9101 71.0678 25.1811 71.5343 25.0795C71.9703 24.9736 72.2373 24.568 72.1356 24.1276C72.0523 23.7221 72.0083 23.3392 72.0117 22.9429C72.0498 20.3896 74.0951 18.2814 76.5715 18.2374C77.8544 18.2204 79.1157 18.2839 80.4199 18.4279C80.8644 18.4787 81.2364 18.1569 81.3177 17.7124C81.355 17.145 80.9156 16.8485 80.6022 16.8147C79.2556 16.658 77.9005 16.5903 76.5471 16.6114C73.2041 16.6689 70.4377 19.4976 70.3869 22.953ZM74.5016 14.3821C74.0917 14.4795 73.7817 14.9076 73.879 15.3521C73.9764 15.762 74.4125 16.0675 74.8485 15.9703C75.5769 15.8094 76.1189 15.8052 76.936 15.8094C77.3849 15.8136 77.7531 15.4537 77.7575 15.0048C77.7575 14.5603 77.3978 14.1877 76.9489 14.1833C76.2022 14.1789 75.457 14.1721 74.5016 14.3821ZM71.429 15.7711C69.0789 17.4226 67.6449 20.1209 67.6042 22.9971C67.5746 25.3597 68.4458 27.5434 70.0759 29.1695C71.6468 30.7404 73.7346 31.5863 75.957 31.5524L76.6853 31.5566C77.1373 31.5397 77.5099 31.1882 77.5235 30.7394C77.5268 30.7309 77.5268 30.7224 77.5268 30.7139C77.5268 30.304 77.1755 29.9138 76.7351 29.9314L75.935 29.9272C74.1561 29.9222 72.4825 29.2491 71.2257 27.9906C69.913 26.6738 69.206 24.8952 69.2314 22.9869C69.2348 20.6369 70.4381 18.4237 72.3606 17.072C72.7288 16.8137 72.8179 16.3098 72.5596 15.9415C72.2996 15.6017 71.7982 15.4832 71.429 15.7711Z" fill="#32335C"/>
</g>
<rect x="8.28538" y="5.50901" width="36.7715" height="36.7715" rx="1.0407" fill="#53607E" fill-opacity="0.4" stroke="#32335C" stroke-width="0.693802"/>
<path fill-rule="evenodd" clip-rule="evenodd" d="M33.4179 20.7349L33.4178 20.7318C33.5061 19.7523 33.6426 16.925 32.4972 15.0611C31.1083 12.8119 28.8323 12.1536 26.9068 12.1857C24.9787 12.1536 22.7027 12.8119 21.3138 15.0611C20.1698 16.917 20.3062 19.7483 20.3959 20.7238V20.7313C20.0744 20.6243 19.724 20.6455 19.4178 20.7907C18.7166 21.1238 18.4116 22.2371 19.0806 23.2553C19.5875 24.0291 20.4429 24.1671 21.0951 24.0181C21.1193 24.0809 21.1432 24.1441 21.1669 24.2068C21.1869 24.2599 21.2069 24.3126 21.2268 24.3646L21.3098 24.572C21.7313 25.6483 22.3518 26.6356 23.1389 27.4822C23.4781 27.8409 23.8574 28.1592 24.2695 28.4309C25.0093 28.9321 25.8771 29.2107 26.7703 29.2337H27.0379C27.9312 29.2111 28.7992 28.9324 29.5388 28.4309C29.8507 28.2251 30.1439 27.9927 30.4152 27.7364C30.1437 27.9946 29.85 28.2289 29.5374 28.4363C28.7979 28.9378 27.9299 29.2164 27.0366 29.2391H26.769C25.8758 29.216 25.0079 28.9374 24.2682 28.4363C23.8561 28.1645 23.4767 27.8462 23.1375 27.4876V31.9205C23.2058 32.3527 24.0715 32.722 25.2971 32.8946C25.8128 32.9662 26.3327 33.0024 26.8533 33.003H26.947C27.4675 33.0024 27.9875 32.9662 28.5031 32.8946C29.7355 32.7167 30.6038 32.3487 30.6641 31.9139V27.488L30.6707 27.4809C31.4574 26.6347 32.0775 25.6479 32.4985 24.572L32.5815 24.3646C32.6277 24.2509 32.6714 24.1333 32.7137 24.017C33.3666 24.1677 34.2249 24.031 34.7331 23.2553C35.3967 22.2371 35.097 21.1238 34.3932 20.7947C34.0879 20.6498 33.7385 20.6284 33.4179 20.7349ZM20.8254 23.1858C20.8522 23.2783 20.8797 23.37 20.908 23.4609C20.8784 23.3725 20.8491 23.2835 20.82 23.1938C20.7986 23.1229 20.7732 23.0346 20.7572 22.9744L20.7571 22.9742L20.7571 22.974C20.741 22.9138 20.7197 22.8338 20.709 22.7884C20.7047 22.7702 20.7013 22.7549 20.6978 22.7392L20.6978 22.739C20.6925 22.7153 20.687 22.6907 20.6782 22.6546C20.6709 22.6245 20.6645 22.5933 20.6581 22.5622C20.6518 22.5311 20.6454 22.5 20.6381 22.4699C20.6233 22.4097 20.6113 22.3495 20.5993 22.2866L20.5912 22.2451C20.5765 22.1648 20.5618 22.0832 20.5484 22.0003C20.5377 21.9423 20.5283 21.8834 20.5203 21.8236C20.5189 21.8167 20.5174 21.8098 20.5159 21.8028L20.5159 21.8026C20.5101 21.7758 20.5043 21.7484 20.5043 21.7219C20.4922 21.6376 20.4802 21.552 20.4695 21.465C20.457 21.3696 20.4463 21.2773 20.4374 21.1881C20.4293 21.1506 20.4253 21.1131 20.4253 21.0757C20.4253 21.0757 20.4347 21.0502 20.4253 21.0302C20.4202 21.0193 20.4199 21.0017 20.4196 20.9853C20.4193 20.9715 20.419 20.9586 20.416 20.9512C20.4118 20.9414 20.4118 20.9396 20.4114 20.93C20.4112 20.9241 20.4108 20.915 20.4093 20.899L20.4085 20.8918L20.408 20.8865C20.4084 20.8882 20.4088 20.8897 20.4093 20.891C20.4123 20.8995 20.412 20.9044 20.4117 20.9103C20.4113 20.9173 20.4108 20.9257 20.416 20.9432C20.4211 20.9607 20.4214 20.9738 20.4217 20.9869C20.422 20.9979 20.4223 21.0088 20.4253 21.0221C20.432 21.0516 20.432 21.0676 20.432 21.0676C20.4331 21.0826 20.435 21.0976 20.4369 21.1126C20.4398 21.1351 20.4427 21.1576 20.4427 21.18C20.4514 21.2669 20.4624 21.3561 20.4725 21.438L20.4748 21.457C20.4855 21.544 20.4976 21.6296 20.5096 21.7139C20.5115 21.7256 20.5132 21.7374 20.5149 21.7492C20.5181 21.7714 20.5213 21.7938 20.5257 21.8156C20.5337 21.8754 20.5431 21.9342 20.5538 21.9922C20.5672 22.0752 20.5819 22.1568 20.5966 22.2371L20.6046 22.2786C20.6106 22.31 20.6173 22.3401 20.624 22.3702C20.6307 22.4003 20.6374 22.4304 20.6434 22.4619C20.6503 22.4977 20.6593 22.5375 20.6675 22.5737C20.6738 22.601 20.6795 22.6264 20.6836 22.6465C20.6929 22.6934 20.7036 22.7375 20.7143 22.7803L20.7227 22.8132C20.735 22.8615 20.7461 22.9049 20.7625 22.9663C20.7826 23.0413 20.804 23.1149 20.8254 23.1858ZM20.4005 20.8153C20.4011 20.8236 20.4017 20.8317 20.4023 20.8393C20.3998 20.8177 20.3976 20.7953 20.3973 20.7719C20.3985 20.7863 20.3996 20.8011 20.4005 20.8153Z" fill="#FFD6CB"/>
<g style="mix-blend-mode:multiply" opacity="0.15">
<path fill-rule="evenodd" clip-rule="evenodd" d="M30.3964 27.7566V31.6771C27.0619 31.7292 24.5919 30.0125 23.4131 28.9862V27.7539C23.6783 28.0073 23.9663 28.2358 24.2735 28.4363C25.0134 28.937 25.8811 29.2156 26.7743 29.2391H27.0419C27.935 29.2156 28.8027 28.937 29.5427 28.4363C29.8469 28.2356 30.1326 28.0081 30.3964 27.7566Z" fill="#7C3830"/>
</g>
<path d="M10.3545 42.1909C10.3805 42.0876 10.3942 42.0324 10.4207 41.9321L10.4207 41.932C10.4392 41.8623 10.4574 41.7933 10.475 41.7253C10.5499 41.4577 10.6262 41.1901 10.7038 40.9452L10.7316 40.857C10.7517 40.7934 10.7715 40.7305 10.7907 40.6683C10.8122 40.6013 10.8336 40.5344 10.855 40.4729C10.9138 40.2963 10.9727 40.125 11.0316 39.9604C11.1645 39.5911 11.2983 39.2513 11.433 38.9408C11.4665 38.8619 11.4999 38.7843 11.5334 38.7093L11.5534 38.6652C11.6257 38.4993 11.6993 38.3441 11.7729 38.1969C11.982 37.7585 12.2301 37.3398 12.5142 36.9458C12.5179 36.9402 12.522 36.9348 12.5259 36.9296L12.5259 36.9296C12.5304 36.9237 12.5347 36.918 12.5382 36.9124C12.6118 36.816 12.6827 36.729 12.751 36.6541L12.759 36.6447C12.8071 36.5907 12.8581 36.5381 12.9088 36.4859L12.9597 36.4333C13.3912 35.9993 13.866 35.6106 14.3767 35.2732L14.5319 35.1702C14.6104 35.1185 14.6907 35.0676 14.7728 35.0177C14.9708 34.8946 15.1742 34.7755 15.3843 34.6591C15.7308 34.4664 16.0894 34.2844 16.4547 34.1118C16.8963 33.9031 17.3458 33.7104 17.7927 33.5284L18.0965 33.408C18.1835 33.3732 18.2718 33.3398 18.3641 33.3076C18.7548 33.1591 19.1428 33.0226 19.5215 32.8955C20.2548 32.6493 20.9492 32.4433 21.562 32.2733C22.1963 32.0981 22.7395 31.9616 23.1396 31.8652C23.1376 31.8839 23.1376 31.9028 23.1396 31.9214C23.2078 32.3536 24.0762 32.7243 25.2992 32.8955C25.8148 32.9671 26.3348 33.0033 26.8553 33.0039H26.949C27.4696 33.0033 27.9895 32.9671 28.5052 32.8955C29.7375 32.7216 30.6059 32.3496 30.6661 31.9147C30.6674 31.8983 30.6674 31.8817 30.6661 31.8652C31.0675 31.9629 31.6161 32.0994 32.2544 32.276C32.8645 32.4446 33.555 32.6507 34.2842 32.8955C34.7472 33.0507 35.2208 33.2207 35.7039 33.408C35.9492 33.5026 36.194 33.602 36.4384 33.7064L36.7181 33.8255L36.9429 33.9245C37.4473 34.152 37.9437 34.3955 38.4147 34.6591C38.7091 34.8223 38.9955 34.9923 39.2684 35.1702L39.3447 35.2211C39.4785 35.3067 39.6123 35.395 39.73 35.4887C40.1256 35.769 40.4967 36.0823 40.8393 36.4253C40.9115 36.4976 40.9811 36.5711 41.048 36.6461C41.1297 36.7365 41.2065 36.8312 41.2782 36.9297V36.9378C41.3397 37.0207 41.4039 37.1117 41.4668 37.2054C41.6713 37.5203 41.8563 37.8474 42.0208 38.1848C42.0997 38.3454 42.1787 38.5153 42.2603 38.6973C42.3111 38.8124 42.362 38.9315 42.4128 39.0546C42.4476 39.1374 42.4814 39.2224 42.516 39.3095L42.5279 39.3396C42.6037 39.5322 42.68 39.7352 42.7567 39.9484C42.8156 40.113 42.8745 40.2842 42.9333 40.4609C43.0011 40.6687 43.0694 40.8846 43.1381 41.1085L43.1679 41.2087L43.168 41.2088C43.1866 41.2711 43.2054 41.334 43.2237 41.3975L43.2319 41.4259C43.2579 41.5164 43.2867 41.6165 43.3133 41.7133C43.3602 41.8792 43.3628 42.0157 43.4043 42.1909H10.3545Z" fill="#F26E29"/>
<g style="mix-blend-mode:soft-light" opacity="0.8">
<path d="M32.2613 32.2754C31.9308 32.7812 31.3782 33.1826 30.669 33.4796C30.0624 33.7244 29.4278 33.893 28.7797 33.9814C27.5401 34.1562 26.2821 34.1562 25.0425 33.9814C24.3907 33.892 23.7525 33.7221 23.1425 33.4756C22.4373 33.1786 21.8887 32.7772 21.5596 32.2714C22.1938 32.0961 22.7371 31.9596 23.1371 31.8633C23.1352 31.882 23.1352 31.9008 23.1371 31.9195C23.2054 32.3517 24.0738 32.7223 25.2967 32.8936C25.8124 32.9652 26.3323 33.0014 26.8529 33.002H26.9465C27.4671 33.0014 27.9871 32.9652 28.5027 32.8936C29.735 32.7196 30.6034 32.3477 30.6636 31.9128C30.665 31.8963 30.665 31.8798 30.6636 31.8633C31.0758 31.9623 31.623 32.0988 32.2613 32.2754Z" fill="white"/>
</g>
<path fill-rule="evenodd" clip-rule="evenodd" d="M27.052 11.9249L26.9173 11.9261C25.4455 11.8994 22.7346 12.2593 21.1102 14.9274C20.0766 16.6051 20.0425 18.9879 20.1196 20.2937L20.1261 20.3971C19.8456 20.3708 19.5608 20.4201 19.3025 20.5431C18.9105 20.7432 18.6237 21.1026 18.5157 21.5293C18.3533 22.1735 18.4773 22.8565 18.8556 23.4026L18.8817 23.442C19.271 24.0157 19.9252 24.3544 20.6205 24.3392C20.7221 24.3367 20.8234 24.3277 20.9235 24.3123C20.943 24.3645 20.9628 24.4167 20.9831 24.469L21.0661 24.6777C21.488 25.7488 22.1 26.7345 22.8723 27.5874L22.8791 27.5948L22.8792 31.6499C22.4168 31.7633 21.9501 31.8858 21.4782 32.0156C20.7489 32.2176 20.0772 32.4223 19.4243 32.6418C19.0001 32.789 18.6174 32.9228 18.2588 33.0566C18.2285 33.0673 18.2 33.0778 18.1716 33.0886L17.8892 33.1979C17.821 33.2247 17.7526 33.2524 17.6848 33.28L17.4888 33.359C17.0971 33.5188 16.7079 33.69 16.3294 33.8701C15.944 34.0521 15.5774 34.2381 15.2429 34.4254C15.0127 34.5538 14.8094 34.6729 14.6234 34.788L14.5597 34.8271C14.4966 34.8663 14.4354 34.9054 14.3772 34.9446C14.3223 34.9793 14.2674 35.0155 14.2179 35.0503C13.6929 35.3935 13.2042 35.7894 12.7595 36.2318C12.7181 36.2792 12.677 36.3207 12.6381 36.3601C12.6079 36.3907 12.579 36.42 12.5521 36.4499L12.5427 36.4619C12.4731 36.5368 12.3982 36.6278 12.3152 36.7375C12.31 36.7432 12.3055 36.7495 12.3019 36.7563L12.2885 36.7737L12.2159 36.8758C11.9526 37.2523 11.7209 37.65 11.5231 38.0649C11.4581 38.1843 11.4054 38.2984 11.3562 38.4098L11.2983 38.5426L11.2439 38.6652C11.2212 38.7171 11.1989 38.77 11.1766 38.8236L11.132 38.9292C11.013 39.2143 10.8941 39.526 10.7751 39.8579C10.7163 40.0238 10.6561 40.1977 10.5972 40.3757L10.5748 40.442L10.5303 40.5764L10.4119 40.9585C10.3681 41.1005 10.3239 41.2496 10.2797 41.4042L10.2132 41.6401C10.1921 41.7233 10.17 41.8077 10.1477 41.8928L10.1476 41.8933C10.1247 41.9806 10.1017 42.0686 10.0794 42.1566L10.0432 42.2904C10.0319 42.3346 10.032 42.413 10.0205 42.459H43.8062L43.7018 42.1044C43.7018 42.1044 43.6189 41.7913 43.576 41.6415C43.5546 41.5625 43.5319 41.4823 43.5091 41.4046L43.4864 41.323L43.3994 41.03C43.3651 40.9247 43.3329 40.8211 43.3012 40.7193L43.3011 40.7189L43.301 40.7187C43.2647 40.6021 43.2291 40.4878 43.192 40.3757C43.1331 40.1977 43.0729 40.0238 43.0141 39.8579C42.9351 39.6424 42.8575 39.4324 42.7812 39.241L42.7692 39.2076C42.7344 39.1193 42.6996 39.0336 42.6648 38.952C42.614 38.8262 42.5618 38.7058 42.5096 38.5881C42.4434 38.4405 42.3824 38.3081 42.3239 38.185L42.2661 38.0649C42.0962 37.7191 41.9064 37.3836 41.6974 37.06C41.6702 37.0217 41.6439 36.9831 41.6171 36.9439L41.6171 36.9438L41.6167 36.9432L41.6164 36.9428L41.6163 36.9426C41.5789 36.8879 41.5408 36.8319 41.4981 36.7737L41.4873 36.7603C41.4004 36.6425 41.3174 36.5408 41.2465 36.4632C41.1756 36.3856 41.102 36.3067 41.0284 36.2331C40.675 35.8794 40.2923 35.5562 39.8844 35.267C39.7506 35.1707 39.6181 35.0797 39.4937 34.9994C39.4656 34.9807 39.4375 34.9606 39.4134 34.9459L39.3239 34.888C39.0833 34.7341 38.8266 34.5822 38.5423 34.4241C38.0887 34.1725 37.6003 33.929 37.0464 33.6801L36.8176 33.5797L36.7466 33.549L36.5379 33.4593C36.2984 33.3576 36.0562 33.26 35.7953 33.1583C35.3417 32.9816 34.8734 32.813 34.3636 32.6418C33.7053 32.4197 33.0175 32.2109 32.3204 32.0182C31.9028 31.9023 31.5294 31.8052 31.2194 31.7272L30.9313 31.6555L30.9316 27.6129C31.7161 26.7537 32.337 25.7581 32.7633 24.675L32.8476 24.4636C32.8659 24.4163 32.8839 24.3685 32.9019 24.3209C32.9979 24.3327 33.0946 24.3388 33.1915 24.3392C33.8988 24.3539 34.5637 24.0022 34.9496 23.4092L34.9814 23.3621C35.3345 22.824 35.4474 22.162 35.2908 21.536C35.1819 21.1094 34.8948 20.7502 34.5027 20.5498C34.2558 20.432 33.9845 20.3817 33.716 20.4009C33.7996 19.1198 33.791 16.648 32.7312 14.9287C31.1321 12.3394 28.5385 11.9243 27.052 11.9249ZM21.2753 32.6387L21.4549 32.5877C21.8102 33.0471 22.3414 33.4274 23.037 33.7202C23.67 33.9767 24.3326 34.1529 25.0093 34.2448C25.6412 34.3356 26.2789 34.3803 26.9173 34.3786C27.5534 34.3823 28.1888 34.3398 28.8187 34.2514C29.4883 34.1593 30.144 33.9849 30.7709 33.7323C31.4754 33.4382 32.012 33.0527 32.3689 32.59C32.9969 32.7666 33.6158 32.9573 34.211 33.1569C34.7128 33.3255 35.1731 33.4914 35.6187 33.6654C35.8742 33.7644 36.1124 33.8607 36.3479 33.9611L36.6249 34.0788L36.8443 34.1765C37.3836 34.4187 37.8599 34.6555 38.3001 34.9004C38.6065 35.0717 38.8822 35.2362 39.1418 35.4048L39.2889 35.5012C39.3875 35.5665 39.4883 35.6361 39.59 35.7099C39.9718 35.982 40.3299 36.2859 40.6604 36.6185L40.6611 36.6191L40.6612 36.6192L40.6614 36.6194C40.728 36.6874 40.7959 36.7566 40.8611 36.8312C40.9365 36.9141 41.0071 37.0012 41.0726 37.0921L41.0846 37.1068C41.1502 37.1938 41.2064 37.2768 41.2612 37.3611C41.4586 37.6667 41.6373 37.9839 41.7964 38.3111L41.8242 38.3675C41.8706 38.463 41.9184 38.565 41.9688 38.6757L42.0306 38.8129C42.0814 38.9266 42.131 39.043 42.1818 39.1661L42.2152 39.2472C42.2375 39.3018 42.2598 39.3574 42.2821 39.4136L42.2942 39.4457C42.3678 39.6317 42.4441 39.8338 42.5203 40.0465L42.5642 40.1694C42.608 40.2936 42.6511 40.4219 42.6943 40.5523L42.7354 40.6764C42.79 40.8431 42.8441 41.0149 42.8977 41.1919L42.9284 41.2949L43.006 41.5599C43.0127 41.5837 43.0196 41.6077 43.0264 41.6319C43.0415 41.685 43.0569 41.7389 43.0716 41.794L43.1131 41.9438L10.6895 41.9238L10.7663 41.6794C10.833 41.4418 10.8994 41.2172 10.9638 41.0099L11.0508 40.7343C11.0561 40.7181 11.0613 40.7021 11.0664 40.6862L11.0671 40.6843L11.0672 40.6837C11.0827 40.636 11.0978 40.5895 11.1137 40.5429L11.1489 40.4384C11.1956 40.3 11.2419 40.1653 11.289 40.0358C11.4134 39.6719 11.5472 39.3347 11.681 39.0296C11.7131 38.9533 11.7466 38.8771 11.7787 38.8048L11.8393 38.6675C11.8926 38.5483 11.9499 38.4278 12.0142 38.3004C12.2157 37.878 12.4553 37.475 12.73 37.0961L12.7568 37.0587L12.7783 37.0316C12.8416 36.9518 12.8969 36.882 12.9414 36.8339L12.9615 36.8125C13.0177 36.7456 13.0846 36.6787 13.1515 36.6118C13.5713 36.1948 14.0321 35.8214 14.527 35.4972L14.6796 35.3968C14.7558 35.3473 14.8321 35.2978 14.9137 35.2483L14.9822 35.206C15.144 35.107 15.319 35.0053 15.5145 34.8964C15.8383 34.7198 16.1929 34.5391 16.5689 34.3612C17.0011 34.1564 17.4466 33.9624 17.8962 33.7845L17.9853 33.7483L18.2834 33.6306C18.3402 33.6084 18.3976 33.5864 18.4555 33.565L18.5626 33.5249C18.8139 33.4312 19.0767 33.3371 19.3579 33.2405L19.6036 33.1569C20.1399 32.9763 20.6902 32.8059 21.2753 32.6387ZM22.0308 32.4301C22.3398 32.3475 22.6489 32.2679 22.9554 32.1922C23.2877 32.7899 24.5081 33.0523 25.1555 33.1517L25.2635 33.1676C25.7916 33.2411 26.324 33.2782 26.8571 33.2787H26.9521C27.4848 33.2783 28.0168 33.2411 28.5444 33.1676C29.1359 33.085 30.4156 32.8402 30.8167 32.2578C30.8314 32.2369 30.845 32.2155 30.8573 32.1937L30.8571 32.1936L30.8619 32.1855C30.8604 32.1882 30.8589 32.191 30.8573 32.1937C31.0436 32.2364 31.2585 32.2907 31.4994 32.3542L31.8009 32.4347C31.451 32.783 31.0324 33.0545 30.5716 33.2319L30.4614 33.2752C29.9088 33.4876 29.3333 33.6351 28.7465 33.7149C27.5331 33.8862 26.3016 33.8862 25.0882 33.7149C24.4586 33.6288 23.842 33.4652 23.2524 33.2278C22.7921 33.0485 22.3742 32.775 22.0254 32.425L22.0308 32.4301ZM23.4103 28.1152V31.8898C23.4692 32.0958 24.0901 32.4504 25.3398 32.6257C25.8434 32.696 26.3513 32.7313 26.8598 32.7314H26.9521C27.4602 32.7313 27.9676 32.6959 28.4708 32.6257C29.0049 32.5503 29.4239 32.4427 29.7333 32.3282L29.7603 32.318C30.1696 32.1611 30.375 31.993 30.3909 31.8778C30.391 31.8521 30.3946 31.8269 30.4014 31.8027L30.4017 28.1268C30.212 28.2912 30.0132 28.4448 29.8061 28.587L29.7018 28.6571C29.033 29.1097 28.265 29.3899 27.4662 29.4758C27.3234 29.4919 27.1796 29.5018 27.0351 29.5054H26.7742L26.7657 29.505L26.7635 29.5054C26.6164 29.5014 26.47 29.4909 26.3247 29.474L26.1893 29.4563L26.1115 29.4445L25.9992 29.4251L25.9094 29.4077C25.3025 29.2845 24.7218 29.0479 24.1985 28.7081L24.1275 28.6611C23.8758 28.4964 23.6361 28.314 23.4103 28.1152ZM26.7809 12.4631L26.9066 12.464C28.2567 12.4426 30.7509 12.7678 32.2588 15.2124C33.3292 16.9476 33.2264 19.6467 33.1489 20.5986L33.1393 20.7104V20.7278L33.3829 20.7484L33.1433 20.7425L33.1431 20.744L33.1393 20.7439C33.133 20.8041 33.1271 20.8564 33.1219 20.8994L33.1045 21.0342C33.1038 21.0418 33.1038 21.0494 33.1045 21.057L33.0965 21.1587C33.075 21.3513 33.055 21.5172 33.0282 21.6939C33.0014 21.8705 32.972 22.0418 32.9412 22.2037L32.9257 22.2858C32.9149 22.3407 32.9033 22.3955 32.8917 22.4472L32.8575 22.602L32.8395 22.6787V22.6907C32.8308 22.7282 32.8218 22.7636 32.8128 22.7981L32.786 22.8995L32.7861 22.914C32.7681 22.9858 32.7489 23.0485 32.7285 23.1135L32.7002 23.2047L32.6755 23.2826L32.6696 23.2995C32.6094 23.4962 32.5412 23.7009 32.4595 23.9257V23.9391C32.4274 24.0292 32.3935 24.1193 32.3606 24.2066L32.3364 24.2709L32.2118 24.5811C31.803 25.5843 31.2167 26.506 30.4806 27.3016L30.5053 27.2745C30.4943 27.2826 30.4837 27.2917 30.4739 27.3016C30.1492 27.646 29.7855 27.9514 29.3901 28.2115L29.3245 28.2554C28.6434 28.7022 27.8505 28.9501 27.0351 28.9702H26.7742C26.7473 28.9695 26.7204 28.9685 26.6935 28.9673L26.6253 28.9637L26.5254 28.9564C25.7737 28.8928 25.0495 28.6369 24.4232 28.2115L24.3327 28.1507C23.9727 27.9045 23.6402 27.6203 23.3407 27.303C23.333 27.2948 23.3248 27.2872 23.3161 27.2805C22.5637 26.4622 21.9692 25.5117 21.5625 24.477L21.4809 24.2736C21.467 24.2375 21.4532 24.2008 21.4394 24.1638L21.3564 23.9405L21.3323 23.9271C21.2387 23.6662 21.149 23.3919 21.0647 23.1135C21.0553 23.0816 21.0447 23.0437 21.0346 23.0075L21.0345 23.0072L21.0247 22.9722L20.9971 22.8768C20.9922 22.859 20.9872 22.8397 20.9821 22.8192L20.9517 22.6956C20.9499 22.6882 20.9483 22.6808 20.9466 22.6733C20.9453 22.6675 20.944 22.6616 20.9427 22.6556C20.9382 22.6349 20.9333 22.6126 20.9269 22.5863L20.9136 22.5306C20.9049 22.493 20.8966 22.4543 20.8894 22.4151V22.4017C20.8761 22.3468 20.864 22.2906 20.8533 22.2304L20.8453 22.193L20.7932 21.8937C20.7872 21.8579 20.7815 21.821 20.777 21.7835C20.777 21.7817 20.7781 21.7813 20.7791 21.7808C20.7812 21.78 20.7833 21.7791 20.777 21.7675C20.7677 21.7501 20.7677 21.7313 20.7677 21.7139V21.6792C20.7637 21.6519 20.7598 21.6241 20.756 21.596L20.7241 21.3621C20.7156 21.2969 20.7078 21.2289 20.7008 21.1587L20.6932 21.0908L20.6914 21.057C20.6921 21.0485 20.6921 21.04 20.6914 21.0315L20.6766 20.9082L20.6767 20.8603C20.6758 20.8494 20.6743 20.8376 20.6725 20.8246C20.6689 20.7975 20.6647 20.7653 20.6647 20.7265L20.6639 20.7059C20.6623 20.6855 20.6584 20.6657 20.6524 20.6466L20.6456 20.5656C20.5682 19.586 20.4763 16.9317 21.5371 15.2124C23.0011 12.8411 25.3943 12.464 26.7809 12.4631ZM33.6991 20.9448L33.6731 20.949L33.6578 21.0723C33.6558 21.0863 33.6542 21.0969 33.6531 21.1038L33.6451 21.2041C33.6251 21.3903 33.6052 21.558 33.5827 21.7091L33.5728 21.7728L33.5657 21.8172L33.5656 21.8177C33.5406 21.9744 33.5124 22.1507 33.4831 22.308C33.4724 22.3669 33.4611 22.4246 33.4492 22.4819L33.431 22.5676L33.4267 22.5871C33.4099 22.6638 33.3961 22.7272 33.3788 22.7964V22.8098L33.3661 22.8611C33.5453 22.8519 33.7123 22.7604 33.8163 22.6104C33.9451 22.4335 33.9662 22.2001 33.8712 22.003C33.8314 21.9409 33.8493 21.8583 33.9113 21.8183C33.9734 21.7785 34.056 21.7965 34.096 21.8584C34.2369 22.1265 34.228 22.4486 34.0725 22.7084C33.9171 22.9683 33.6374 23.1284 33.3346 23.1309L33.34 23.1336C33.3249 23.1335 33.3098 23.133 33.2948 23.132L33.2755 23.1997L33.2557 23.2661C33.2329 23.341 33.2142 23.3999 33.1915 23.4641C33.1583 23.5721 33.1216 23.6855 33.0814 23.8045L33.071 23.804C33.6261 23.8552 34.1648 23.6045 34.4834 23.1499L34.5081 23.1135C34.7973 22.6973 34.8947 22.1772 34.7757 21.6845C34.7088 21.4068 34.5262 21.171 34.2739 21.0369C34.1079 20.9569 33.9237 20.9238 33.7412 20.9402L33.6991 20.9448ZM19.5313 21.0329C19.6688 20.967 19.8192 20.9327 19.9715 20.9325C20.0331 20.9335 20.0945 20.9402 20.1549 20.9526V20.9834C20.1591 20.9981 20.1592 21.0105 20.1594 21.0224C20.1595 21.0332 20.1597 21.0434 20.1629 21.0543C20.1669 21.0679 20.1685 21.0797 20.1691 21.0892L20.1696 21.1051C20.1718 21.1419 20.1758 21.1785 20.1816 21.2148C20.1847 21.247 20.1882 21.2789 20.1917 21.3106L20.2137 21.4972C20.2244 21.5882 20.2365 21.6751 20.2499 21.7648V21.7956L20.2619 21.8678C20.2659 21.8986 20.2706 21.9294 20.2754 21.9591L20.3042 22.1288C20.3128 22.1778 20.322 22.227 20.3314 22.2766L20.3355 22.2987L20.3422 22.3375L20.3875 22.5525L20.4225 22.7108L20.4546 22.8446V22.8593L20.4559 22.8646C20.2651 22.8648 20.0848 22.7711 19.9756 22.6118C19.8477 22.4349 19.8272 22.2022 19.922 22.0056C19.9618 21.9435 19.9439 21.861 19.8819 21.821C19.8198 21.7812 19.7372 21.7991 19.6972 21.8611C19.5563 22.1292 19.5652 22.4512 19.7207 22.7111C19.8762 22.971 20.1558 23.1311 20.4586 23.1336C20.4814 23.134 20.5043 23.1333 20.5271 23.1315L20.5351 23.1308L20.5469 23.1296C20.543 23.13 20.5391 23.1304 20.5351 23.1308C20.5325 23.131 20.5298 23.1313 20.5271 23.1315L20.5268 23.1315L20.5656 23.2647C20.6205 23.4467 20.6767 23.6247 20.7356 23.8C20.1658 23.8528 19.6133 23.5874 19.2985 23.1095L19.2701 23.0676C19.0022 22.6589 18.915 22.1567 19.0309 21.6805C19.0973 21.4029 19.2795 21.1672 19.5313 21.0329Z" fill="#32335C"/>
<path fill-rule="evenodd" clip-rule="evenodd" d="M30.8573 32.1937C30.8589 32.191 30.8604 32.1882 30.8619 32.1855L30.8571 32.1936L30.8573 32.1937ZM20.5351 23.1308L20.5469 23.1296C20.543 23.13 20.5391 23.1304 20.5351 23.1308Z" fill="#32335C"/>
<g style="mix-blend-mode:multiply" opacity="0.15">
<path fill-rule="evenodd" clip-rule="evenodd" d="M24.6048 23.6957C24.6048 24.5125 24.0057 25.1746 23.2668 25.1746C22.5278 25.1746 21.9287 24.5125 21.9287 23.6957C21.9287 22.8789 22.5278 22.2168 23.2668 22.2168C24.0057 22.2168 24.6048 22.8789 24.6048 23.6957ZM31.8308 23.6957C31.8308 24.5125 31.2317 25.1746 30.4927 25.1746C29.7538 25.1746 29.1547 24.5125 29.1547 23.6957C29.1547 22.8789 29.7538 22.2168 30.4927 22.2168C31.2317 22.2168 31.8308 22.8789 31.8308 23.6957Z" fill="#FF1300"/>
</g>
<path d="M26.872 25.2485C26.3248 25.2485 25.8203 25.0599 25.5246 24.7454C25.4673 24.6845 25.4468 24.5976 25.4709 24.5174C25.495 24.4373 25.56 24.376 25.6415 24.3568C25.7229 24.3376 25.8085 24.3634 25.8658 24.4243C26.0719 24.6437 26.4572 24.7802 26.872 24.7802C27.2868 24.7802 27.6749 24.6464 27.8782 24.4243C27.9356 24.3634 28.0211 24.3376 28.1026 24.3568C28.1841 24.376 28.2491 24.4373 28.2732 24.5174C28.2973 24.5976 28.2768 24.6845 28.2194 24.7454C27.9211 25.0599 27.4193 25.2485 26.872 25.2485Z" fill="#32335C"/>
<path d="M27.2292 25.8868H26.5147C26.4408 25.8868 26.3809 25.8268 26.3809 25.7529C26.3809 25.679 26.4408 25.6191 26.5147 25.6191H27.2292C27.3031 25.6191 27.363 25.679 27.363 25.7529C27.363 25.8268 27.3031 25.8868 27.2292 25.8868Z" fill="#32335C"/>
<path d="M26.8759 23.4971C26.5837 23.501 26.3089 23.3584 26.144 23.1171C26.0738 23.0085 26.1049 22.8635 26.2136 22.7933C26.3222 22.7231 26.4672 22.7542 26.5374 22.8629C26.6188 22.9688 26.7453 23.0304 26.8789 23.029C27.0125 23.0277 27.1377 22.9637 27.2171 22.8562C27.2843 22.7453 27.4287 22.71 27.5396 22.7772C27.6504 22.8445 27.6857 22.9889 27.6185 23.0997C27.4566 23.352 27.1756 23.5024 26.8759 23.4971Z" fill="#32335C"/>
<path d="M24.1809 21.8871C24.775 21.8871 24.7764 20.9639 24.1809 20.9639C23.5855 20.9639 23.5855 21.8871 24.1809 21.8871Z" fill="#32335C"/>
<path d="M29.6629 21.8871C30.2556 21.8871 30.257 20.9639 29.6629 20.9639C29.0688 20.9639 29.0674 21.8871 29.6629 21.8871Z" fill="#32335C"/>
<path d="M25.3945 20.2867C25.3517 20.2869 25.3095 20.2768 25.2714 20.2573C24.2184 19.7154 23.1305 20.2573 23.1305 20.2573C22.999 20.3249 22.8375 20.2731 22.7699 20.1415C22.7023 20.01 22.7541 19.8485 22.8857 19.7809C22.9392 19.7542 24.2237 19.1119 25.5216 19.7809C25.6316 19.8373 25.6887 19.9616 25.6598 20.0817C25.6308 20.2019 25.5234 20.2866 25.3998 20.2867H25.3945Z" fill="#32335C"/>
<path d="M30.8261 20.287C30.7837 20.287 30.742 20.2769 30.7043 20.2576C29.6499 19.7157 28.5634 20.2576 28.5634 20.2576C28.478 20.3045 28.3737 20.3012 28.2914 20.2491C28.209 20.1969 28.1616 20.104 28.1675 20.0067C28.1734 19.9094 28.2318 19.823 28.3199 19.7812C28.3734 19.7531 29.6579 19.1122 30.9558 19.7812C31.0673 19.8382 31.1244 19.9648 31.0933 20.086C31.0622 20.2073 30.9512 20.2908 30.8261 20.287Z" fill="#32335C"/>
<path d="M26.9313 10.36C27.6328 10.359 28.3317 10.4453 29.0119 10.6169C28.8627 10.2699 28.6741 9.9413 28.4499 9.63741C27.7408 8.68204 26.4215 7.64371 24.0759 7.82435C19.9359 8.14548 18.4775 13.3665 18.0065 16.254C17.6571 18.392 16.4802 19.6105 15.4556 20.6713C14.2551 21.9141 13.2638 22.9404 14.0579 24.9754C14.0579 24.9754 13.057 28.1573 16.651 28.0396C16.651 28.0396 17.9837 30.0011 19.8918 28.0396C20.7588 27.1471 20.9917 25.6311 20.9729 24.0696C20.2505 24.2028 19.5184 23.8915 19.113 23.2788C18.4494 22.2605 18.7491 21.1473 19.4502 20.8141C19.4992 20.7908 19.5497 20.7708 19.6014 20.7543V20.7552C19.87 20.6667 20.1598 20.6667 20.4283 20.7552L20.5983 20.2441L21.9671 15.7255C21.9671 15.7255 21.9671 17.1907 22.3458 18.0725C22.4118 18.2233 22.5611 18.3205 22.7258 18.32H31.2291C31.3989 18.3187 31.5507 18.2136 31.6117 18.0551C31.9195 17.2522 31.9195 15.9637 31.9195 15.9637L33.4315 20.7552C33.7 20.6667 33.9899 20.6667 34.2584 20.7552V16.6274C34.2584 13.7867 32.0453 11.3862 29.0106 10.6182C28.3304 10.4467 27.6314 10.3604 26.9299 10.3613C23.9737 10.3613 21.4265 11.8602 20.2678 14.015C21.1548 12.3633 22.8573 11.0977 24.9349 10.5954C25.5888 10.4386 26.2588 10.3596 26.9313 10.36Z" fill="#78B2FF"/>
<path fill-rule="evenodd" clip-rule="evenodd" d="M28.6619 9.47276C28.8764 9.76052 29.0601 10.0699 29.2101 10.3957C32.3534 11.2429 34.5332 13.7912 34.5332 16.6313V20.7592C34.5334 20.8455 34.492 20.9267 34.4219 20.9771C34.3519 21.0275 34.2618 21.041 34.18 21.0134C33.9628 20.941 33.7281 20.941 33.5109 21.0134C33.4857 21.0202 33.4595 21.0234 33.4333 21.0228C33.3167 21.0231 33.2133 20.9479 33.1778 20.8368L32.0725 17.3338C32.0284 17.6117 31.9585 17.885 31.8638 18.15C31.7614 18.4126 31.5087 18.5856 31.2269 18.5862H22.7236C22.4522 18.587 22.2064 18.426 22.0987 18.1768C21.9644 17.8424 21.8697 17.4935 21.8164 17.1371L20.8557 20.3096V20.3283L20.6858 20.8395C20.6398 20.9784 20.4908 21.0547 20.3512 21.0107C20.1509 20.9445 19.9357 20.9401 19.7334 20.9975L19.6903 21.0107C19.6676 21.0184 19.6444 21.0229 19.6211 21.0243C19.601 21.0318 19.5813 21.0403 19.5618 21.0495C19.3102 21.1841 19.1281 21.4198 19.0614 21.6972C18.946 22.1734 19.0332 22.6754 19.3007 23.0842L19.329 23.1262C19.8374 23.8996 20.6791 23.8367 20.9239 23.7952C21.0007 23.7833 21.0788 23.8053 21.138 23.8554C21.1973 23.9054 21.2319 23.9786 21.233 24.0561C21.2554 25.9989 20.8901 27.3479 20.1129 28.177L20.0756 28.2161C19.4641 28.8597 18.8339 29.1795 18.2037 29.1795C18.1484 29.1795 18.0935 29.1768 18.0391 29.1715C17.2563 29.1033 16.7225 28.556 16.5177 28.3085C15.3911 28.3218 14.5816 28.0101 14.1093 27.3865C13.4469 26.5141 13.6864 25.3273 13.7734 24.9861C13.0091 22.9308 14.0008 21.7906 15.1196 20.6289L15.4385 20.2983C16.3957 19.3008 17.4208 18.1424 17.7394 16.2018L17.7647 16.0487C18.1993 13.4851 19.6621 7.88835 24.0523 7.55266C26.5424 7.36132 27.9326 8.48929 28.6619 9.47276ZM24.0924 8.08788C19.9913 8.40232 18.6519 13.9285 18.2666 16.2901C17.9139 18.4491 16.7689 19.6841 15.7314 20.7584L15.4252 21.0757C14.3416 22.2058 13.6205 23.101 14.3005 24.857L14.3149 24.8826C14.414 25.0506 14.7542 25.4653 15.6132 25.2497C15.6849 25.232 15.7573 25.2757 15.7751 25.3474C15.7928 25.419 15.7491 25.4915 15.6774 25.5093C15.5094 25.555 15.3364 25.5797 15.1623 25.5828C14.7232 25.5828 14.4395 25.4137 14.2661 25.2455L14.2562 25.2962C14.1815 25.6945 14.105 26.4889 14.5388 27.0547C14.9201 27.5551 15.6279 27.7933 16.6408 27.7585L16.6475 27.7692C16.7287 27.7695 16.8049 27.8066 16.8552 27.8692L16.8827 27.9065C16.9678 28.0192 17.4244 28.5824 18.0899 28.639C18.6064 28.6831 19.147 28.4182 19.6956 27.8535C20.3566 27.1724 20.6871 26.0298 20.7018 24.3625C19.9738 24.3921 19.284 24.0363 18.8861 23.4259C18.5069 22.8802 18.3825 22.197 18.5449 21.5526C18.6526 21.1258 18.9394 20.7663 19.3317 20.5665V16.6193C19.3317 13.7037 21.6063 11.1172 24.8685 10.3304C26.0657 10.0451 27.3091 10.0114 28.52 10.2314C28.4319 10.0803 28.3354 9.93426 28.231 9.79389C27.5834 8.92014 26.3377 7.92062 24.0924 8.08788ZM23.1066 11.5783C24.2087 10.9744 25.5206 10.6235 26.9277 10.6235C27.6071 10.6229 28.284 10.7065 28.9429 10.8724C31.9133 11.6284 33.9886 13.9927 33.9886 16.626V20.426C33.8623 20.4151 33.7352 20.4196 33.61 20.4394L32.1729 15.8833C32.1336 15.7568 32.0077 15.6781 31.8767 15.6982C31.7458 15.7183 31.6493 15.8312 31.6497 15.9636C31.6497 15.9757 31.6457 17.208 31.3594 17.96L31.3518 17.9758C31.3266 18.0214 31.2785 18.0505 31.2256 18.051L30.1513 18.051C30.4428 16.8907 30.0691 15.5665 29.9744 15.2638L29.9544 15.2023C29.9304 15.1325 29.8543 15.0954 29.7845 15.1193C29.7507 15.1306 29.7228 15.1549 29.707 15.1868C29.6912 15.2187 29.6887 15.2555 29.7002 15.2892C29.7065 15.3056 30.2133 16.8224 29.8748 18.0509L26.9763 18.0509C26.7397 17.0516 26.9401 15.8163 27.0273 15.3633L27.0658 15.1709C27.0742 15.1045 27.0317 15.0408 26.9652 15.0243C26.9306 15.0159 26.8941 15.0216 26.8637 15.0402C26.8333 15.0587 26.8116 15.0887 26.8033 15.1233L26.8011 15.1316C26.7646 15.2743 26.4201 16.7942 26.6951 18.0509L24.0532 18.051C23.906 17.5984 23.6891 16.5338 24.2784 15.209C24.2928 15.1765 24.2937 15.1396 24.2809 15.1065C24.2681 15.0734 24.2427 15.0467 24.2102 15.0323C24.1777 15.0179 24.1408 15.0171 24.1077 15.0299C24.0746 15.0427 24.0479 15.0681 24.0336 15.1006C23.4623 16.3776 23.5913 17.4166 23.7424 17.9703L23.7655 18.051L22.7223 18.051C22.6646 18.0517 22.612 18.018 22.5885 17.9653C22.2927 17.2862 22.2418 16.2054 22.233 15.8452L22.2312 15.7241C22.2326 15.5904 22.135 15.4762 22.0028 15.4567C21.8705 15.4371 21.7441 15.5181 21.7067 15.6465L20.3379 20.1651V20.1731L20.2482 20.4407C20.1663 20.4285 20.0835 20.4222 20.0007 20.422L19.8682 20.4219L19.8682 16.6193C19.8682 14.5848 21.0955 12.7209 23.0179 11.6276L23.1066 11.5783Z" fill="#32335C"/>
<path fill-rule="evenodd" clip-rule="evenodd" d="M28.8333 10.2528C28.8687 10.3194 28.8624 10.4004 28.8171 10.4607C28.7717 10.5209 28.6956 10.5494 28.6219 10.5338C28.0656 10.4216 27.4995 10.3651 26.9319 10.3652C26.3412 10.3653 25.752 10.4263 25.1737 10.5472C25.1159 10.5602 25.0554 10.5463 25.0091 10.5093C24.9628 10.4724 24.9357 10.4164 24.9356 10.3572C24.9332 9.97397 25.1892 9.63719 25.5591 9.53698C26.0823 9.40318 26.9426 9.30416 28.1603 9.57445C28.3546 9.6185 28.5237 9.73721 28.6313 9.90495C28.7048 10.02 28.7731 10.1364 28.8333 10.2528Z" fill="#F26E29"/>
<path fill-rule="evenodd" clip-rule="evenodd" d="M28.2145 9.3085C28.4766 9.3687 28.705 9.52849 28.8514 9.75407C28.9086 9.84339 28.9643 9.93496 29.0168 10.0277L29.0682 10.1207C29.1543 10.2776 29.1402 10.4705 29.032 10.6131C28.9256 10.7584 28.744 10.828 28.5677 10.7911C27.4632 10.5705 26.3254 10.5751 25.2226 10.8044C25.191 10.8112 25.1587 10.8148 25.1263 10.8151C24.8706 10.8151 24.6633 10.6079 24.6633 10.3522C24.6619 10.0323 24.7973 9.73718 25.0207 9.53063C24.4873 9.32486 23.8782 9.38602 23.3908 9.71259C23.0819 9.90476 22.81 10.1509 22.588 10.4392C22.5611 10.4761 22.5172 10.4968 22.4716 10.494C22.4434 10.4945 22.4158 10.4861 22.3927 10.4699C22.3636 10.4492 22.3441 10.4178 22.3383 10.3827C22.3335 10.3534 22.3386 10.3235 22.3525 10.2976L22.3619 10.2826L22.3634 10.2806C22.4145 10.2129 23.6502 8.57676 25.2724 9.35578C25.3396 9.32154 25.4111 9.29393 25.4862 9.27371C26.0214 9.13188 26.93 9.0235 28.2145 9.3085ZM31.1957 12.9493C30.8334 12.4939 30.3296 12.1723 29.764 12.0354C29.6901 12.0203 29.6179 12.0679 29.6027 12.1418C29.5876 12.2157 29.6352 12.2879 29.7091 12.3031L29.7575 12.3156C29.9376 12.3652 30.5788 12.5716 30.9802 13.1152C31.0058 13.1493 31.046 13.1692 31.0886 13.1688C31.1177 13.167 31.1455 13.1557 31.1676 13.1367C31.1962 13.1156 31.2152 13.084 31.2205 13.0488C31.2257 13.0137 31.2168 12.9779 31.1957 12.9493ZM19.3084 25.359C19.3751 25.3851 19.4093 25.4592 19.3861 25.527C19.2771 25.8046 19.146 26.0731 18.994 26.3298C18.9706 26.3715 18.9267 26.3975 18.8789 26.398C18.8309 26.398 18.7865 26.3722 18.7627 26.3305C18.7389 26.2887 18.7394 26.2374 18.7639 26.196C18.9083 25.9507 19.0332 25.6943 19.1372 25.4293C19.1662 25.3638 19.2417 25.3328 19.3084 25.359ZM18.4999 26.7254C18.5472 26.7331 18.5867 26.7655 18.6036 26.8103C18.6205 26.8552 18.6123 26.9056 18.5819 26.9426C17.7374 27.9687 16.5194 28.112 15.9643 28.1198L15.9138 28.1201L15.8625 28.1197C15.759 28.1181 15.6877 28.1122 15.6714 28.1108L15.6713 28.1108L15.6703 28.1107C15.5964 28.103 15.5428 28.0368 15.5506 27.9629C15.5578 27.8943 15.6153 27.8431 15.6827 27.8424L15.7677 27.847C16.0927 27.86 17.486 27.8526 18.3745 26.7727C18.4049 26.7356 18.4527 26.7176 18.4999 26.7254ZM25.6214 9.7902C25.9687 9.70329 26.3257 9.66102 26.6838 9.66442C27.1599 9.66802 27.6341 9.72365 28.0981 9.83034C28.2235 9.86002 28.3324 9.93727 28.4018 10.0458L28.4319 10.0907C28.4619 10.1373 28.4915 10.1879 28.5196 10.2371C27.4229 10.0382 26.2987 10.0468 25.2052 10.2625C25.2382 10.0366 25.4014 9.85138 25.6214 9.7902Z" fill="#32335C"/>
<path d="M26.7878 39.4376C24.2455 39.4376 22.0217 36.7535 21.1118 32.5989C21.08 32.4544 21.1714 32.3115 21.3158 32.2797C21.4603 32.248 21.6032 32.3393 21.635 32.4838C22.4752 36.3227 24.5465 38.9064 26.7878 38.9064C29.029 38.9064 31.099 36.3267 31.9406 32.4838C31.9724 32.3393 32.1152 32.248 32.2597 32.2797C32.4042 32.3115 32.4955 32.4544 32.4638 32.5989C31.5526 36.7535 29.3247 39.4376 26.7878 39.4376Z" fill="#32335C"/>
<path fill-rule="evenodd" clip-rule="evenodd" d="M26.7295 39.1689C26.7295 39.1689 25.1908 39.5904 25.8478 40.8428C26.076 41.2845 26.3737 41.6865 26.7295 42.0337C26.7295 42.0337 29.3387 39.9356 26.7295 39.1689Z" fill="#EBB759"/>
<path fill-rule="evenodd" clip-rule="evenodd" d="M26.552 42.2306C26.6007 42.2749 26.6641 42.2997 26.7299 42.3002C26.7928 42.301 26.8539 42.2797 26.9026 42.24C27.0497 42.1209 28.3423 41.0478 28.1402 40.0295C28.0386 39.517 27.5903 39.1397 26.8102 38.9109C26.7626 38.8969 26.712 38.8969 26.6644 38.9109C26.6283 38.9203 25.7973 39.1544 25.5137 39.8047C25.3611 40.1633 25.3946 40.5473 25.6153 40.9661C25.8566 41.4358 26.173 41.863 26.552 42.2306ZM25.9981 40.0199C26.1292 39.7161 26.5213 39.5221 26.73 39.4485H26.7327C27.2586 39.6158 27.5543 39.8459 27.6078 40.1349C27.7095 40.6394 27.1261 41.3084 26.7434 41.6643C26.4846 41.3772 26.2626 41.059 26.0824 40.717C25.9406 40.4454 25.9125 40.2179 25.9981 40.0199Z" fill="#32335C"/>
<path fill-rule="evenodd" clip-rule="evenodd" d="M25.1141 38.7217C25.1141 38.7217 23.8537 38.454 23.8604 39.5941C23.8603 39.9955 23.9244 40.3944 24.0504 40.7756C24.0504 40.7756 26.6997 40.2403 25.1141 38.7217Z" fill="#FF8EC1"/>
<path fill-rule="evenodd" clip-rule="evenodd" d="M23.7992 40.8699C23.8382 40.9744 23.9379 41.0437 24.0494 41.0439C24.0705 41.0448 24.0917 41.043 24.1123 41.0385C24.2662 41.0077 25.6176 40.7107 25.8598 39.8771C25.9762 39.4516 25.7969 38.998 25.3072 38.5297C25.2702 38.4941 25.2237 38.47 25.1734 38.4601L25.1702 38.4595C25.0778 38.4422 24.4197 38.3189 23.9691 38.6862C23.7952 38.8267 23.5918 39.0997 23.5918 39.5961C23.5916 40.0291 23.6616 40.4593 23.7992 40.8699ZM24.3053 39.0954C24.4547 38.9965 24.6324 38.9494 24.8111 38.9615H24.8124C24.8704 38.9591 24.9285 38.9605 24.9864 38.9656C25.2031 39.185 25.4092 39.47 25.3369 39.7202C25.2326 40.0788 24.6264 40.329 24.2331 40.4468C24.1648 40.165 24.1293 39.8763 24.1274 39.5864C24.1068 39.4039 24.1727 39.2223 24.3053 39.0954Z" fill="#32335C"/>
<path fill-rule="evenodd" clip-rule="evenodd" d="M28.461 38.7217C28.461 38.7217 29.7214 38.454 29.7147 39.5941C29.7148 39.9956 29.6502 40.3946 29.5234 40.7756C29.5234 40.7756 26.8754 40.2403 28.461 38.7217Z" fill="#FF8EC1"/>
<path fill-rule="evenodd" clip-rule="evenodd" d="M29.4718 41.0444C29.4891 41.0463 29.5066 41.0463 29.524 41.0444C29.6375 41.049 29.7416 40.9814 29.7836 40.8758C29.9228 40.4655 29.9933 40.0351 29.9923 39.6019C29.995 39.1055 29.7889 38.8259 29.615 38.6921C29.1547 38.3201 28.4857 38.4512 28.4107 38.4659C28.3604 38.4758 28.3139 38.5 28.2769 38.5355C27.7872 39.0038 27.6012 39.4574 27.7243 39.8829C27.9665 40.7165 29.3179 41.0136 29.4718 41.0444ZM28.2366 39.7287C28.1643 39.4785 28.3744 39.1882 28.5872 38.9727H28.5885C28.7571 38.9513 29.0796 38.9487 29.2656 39.1012C29.3998 39.2278 29.4667 39.4102 29.4462 39.5936C29.4437 39.8835 29.4078 40.1722 29.3392 40.454C28.9471 40.3375 28.341 40.0873 28.2366 39.7287Z" fill="#32335C"/>
<path fill-rule="evenodd" clip-rule="evenodd" d="M23.9652 37.8582C23.9652 37.8582 23.0914 37.3324 22.8038 38.1874C22.7003 38.4889 22.6465 38.8052 22.6445 39.124C22.6445 39.124 24.7613 39.3983 23.9652 37.8582Z" fill="#F26E29"/>
<path fill-rule="evenodd" clip-rule="evenodd" d="M22.6094 39.3849C22.7386 39.401 22.8686 39.4091 22.9988 39.409C23.3975 39.409 23.9903 39.3354 24.2673 38.9393C24.4813 38.6369 24.4599 38.2302 24.203 37.7351C24.1806 37.6909 24.1463 37.6539 24.104 37.628C24.0492 37.5959 23.5608 37.3149 23.1005 37.4849C22.8299 37.5923 22.6264 37.8217 22.5519 38.1031C22.4383 38.4329 22.3795 38.7791 22.3779 39.128C22.382 39.2587 22.4799 39.3673 22.6094 39.3849ZM23.8299 38.6352C23.6908 38.8333 23.2559 38.8734 22.9267 38.8734V38.8721C22.9496 38.6686 22.994 38.4681 23.0592 38.274C23.1368 38.0438 23.2479 38.001 23.2853 37.9876C23.448 37.9527 23.6179 37.9769 23.7644 38.0559C23.858 38.2539 23.9289 38.4921 23.8299 38.6352Z" fill="#32335C"/>
<path fill-rule="evenodd" clip-rule="evenodd" d="M29.6097 37.8582C29.6097 37.8582 30.4821 37.3324 30.7698 38.1874C30.8732 38.489 30.9274 38.8052 30.9304 39.124C30.9304 39.124 28.8136 39.3983 29.6097 37.8582Z" fill="#F26E29"/>
<path fill-rule="evenodd" clip-rule="evenodd" d="M29.3092 38.9413C29.5862 39.3347 30.1762 39.4083 30.5776 39.4083C30.7073 39.4093 30.8369 39.4022 30.9657 39.3869C31.0958 39.3699 31.1944 39.2611 31.1985 39.1299C31.1961 38.7812 31.1374 38.435 31.0246 38.105C30.9496 37.8234 30.7455 37.5941 30.4746 37.4868C30.0076 37.3169 29.5259 37.5979 29.4724 37.63C29.4297 37.6556 29.3949 37.6927 29.3721 37.737C29.1165 38.2294 29.0951 38.6362 29.3092 38.9413ZM29.7468 38.6335C29.6465 38.4903 29.7187 38.2522 29.8111 38.0541C29.9571 37.9767 30.1255 37.9525 30.2874 37.9859C30.2902 37.9873 30.2934 37.9888 30.297 37.9904C30.3412 38.0111 30.4418 38.058 30.5149 38.2722C30.5805 38.4668 30.6254 38.6677 30.6487 38.8717C30.3235 38.8797 29.8873 38.8329 29.7468 38.6335Z" fill="#32335C"/>
<path fill-rule="evenodd" clip-rule="evenodd" d="M19.3601 27.025C18.4542 26.4711 19.7709 24.7852 19.7709 24.7852C19.7709 24.7852 21.0862 26.4698 20.183 27.025C19.9296 27.1763 19.6136 27.1763 19.3601 27.025Z" fill="#F26E29"/>
<path fill-rule="evenodd" clip-rule="evenodd" d="M19.2213 27.2505C19.3868 27.3517 19.5772 27.405 19.7712 27.4044C19.9657 27.4052 20.1565 27.3519 20.3225 27.2505C20.549 27.1156 20.705 26.8882 20.7493 26.6283C20.8965 25.8255 20.0763 24.743 19.9826 24.6212C19.9315 24.5566 19.8536 24.5191 19.7712 24.5195C19.6893 24.5195 19.6119 24.557 19.5611 24.6212C19.4621 24.7376 18.6459 25.8174 18.7931 26.6283C18.8376 26.8885 18.9941 27.116 19.2213 27.2505ZM19.3192 26.5338C19.2577 26.1953 19.5146 25.652 19.7715 25.2506C20.0043 25.6186 20.2893 26.1725 20.2224 26.5271C20.2066 26.6394 20.14 26.7381 20.0417 26.7947C19.875 26.8949 19.6666 26.8949 19.4998 26.7947C19.4034 26.7394 19.3371 26.6435 19.3192 26.5338Z" fill="#32335C"/>
<path d="M19.7714 27.1497C19.7293 27.1497 19.6896 27.1299 19.6643 27.0962C19.3967 26.7416 19.6429 26.2719 19.6536 26.2519C19.6741 26.2062 19.7183 26.1759 19.7682 26.1731C19.8181 26.1703 19.8654 26.1955 19.8909 26.2386C19.9163 26.2816 19.9156 26.3353 19.8891 26.3776C19.8891 26.3857 19.7152 26.7188 19.8784 26.9343C19.8997 26.9627 19.9089 26.9983 19.9038 27.0335C19.8988 27.0686 19.88 27.1003 19.8517 27.1216C19.8287 27.1394 19.8005 27.1493 19.7714 27.1497Z" fill="#32335C"/>
<path d="M19.7715 24.9181C19.6976 24.9181 19.6377 24.8582 19.6377 24.7843V24.1006C19.6377 24.0267 19.6976 23.9668 19.7715 23.9668C19.8454 23.9668 19.9053 24.0267 19.9053 24.1006V24.7897C19.9024 24.8615 19.8434 24.9182 19.7715 24.9181Z" fill="#32335C"/>
<path fill-rule="evenodd" clip-rule="evenodd" d="M33.3201 26.985C32.4142 26.4311 33.7308 24.7451 33.7308 24.7451C33.7308 24.7451 35.0462 26.4311 34.1416 26.985C33.889 27.1375 33.5727 27.1375 33.3201 26.985Z" fill="#F26E29"/>
<path fill-rule="evenodd" clip-rule="evenodd" d="M33.1809 27.2141C33.3475 27.314 33.538 27.3667 33.7322 27.3666C33.9267 27.3672 34.1175 27.314 34.2835 27.2128C34.51 27.0778 34.666 26.8504 34.7103 26.5906C34.8575 25.7877 34.0373 24.7039 33.9436 24.5835C33.8928 24.5184 33.8148 24.4803 33.7322 24.4805C33.6496 24.4803 33.5716 24.5184 33.5208 24.5835C33.4218 24.7012 32.6069 25.7877 32.7528 26.5906C32.7972 26.8511 32.9537 27.079 33.1809 27.2141ZM33.7315 25.2133C33.7317 25.2129 33.7319 25.2126 33.7322 25.2122H33.7308C33.731 25.2126 33.7313 25.2129 33.7315 25.2133ZM33.2812 26.4954C33.2197 26.1572 33.4748 25.6146 33.7315 25.2133C33.9655 25.5812 34.2459 26.1345 34.1844 26.4954C34.168 26.6053 34.1018 26.7016 34.0051 26.7563C33.838 26.8568 33.629 26.8568 33.4619 26.7563C33.3649 26.7016 33.2984 26.6054 33.2812 26.4954Z" fill="#32335C"/>
<path d="M33.6823 27.1117C33.6534 27.1117 33.6252 27.1023 33.602 27.085C33.5736 27.0637 33.5549 27.032 33.5498 26.9968C33.5448 26.9617 33.554 26.926 33.5753 26.8976C33.7398 26.6809 33.5659 26.3437 33.5646 26.341C33.5407 26.2989 33.541 26.2473 33.5655 26.2056C33.59 26.1638 33.6349 26.1383 33.6832 26.1387C33.7316 26.139 33.7761 26.1651 33.8 26.2072C33.8108 26.2273 34.057 26.6969 33.7893 27.0515C33.7655 27.0877 33.7256 27.1102 33.6823 27.1117Z" fill="#32335C"/>
<path d="M33.7315 24.8796C33.6576 24.8796 33.5977 24.8196 33.5977 24.7458V24.0567C33.5977 23.9828 33.6576 23.9229 33.7315 23.9229C33.8054 23.9229 33.8653 23.9828 33.8653 24.0567V24.7458C33.8653 24.8196 33.8054 24.8796 33.7315 24.8796Z" fill="#32335C"/>
<path fill-rule="evenodd" clip-rule="evenodd" d="M33.3231 21.3584C33.6742 19.7394 33.5492 18.0534 32.9631 16.504C32.9364 16.433 32.9083 16.3702 32.8788 16.2939C32.8092 16.1266 32.733 15.962 32.6527 15.8015C32.1257 14.7355 31.3388 13.8193 30.3646 13.1374C30.2201 13.0371 30.0729 12.9434 29.9204 12.8564C29.796 12.7842 29.6689 12.7226 29.5391 12.6544C29.056 12.4155 28.5436 12.2414 28.015 12.1366H27.9816L27.9374 12.1285C27.0891 11.9728 26.2183 11.986 25.3751 12.1673L25.2801 12.1861C24.8847 12.2728 24.4969 12.3905 24.12 12.538C24.0397 12.5688 23.9621 12.6009 23.8858 12.6343C23.587 12.7595 23.2973 12.9052 23.0188 13.0705C22.003 13.6578 21.1889 14.539 20.6839 15.5981C20.6036 15.768 20.5313 15.9393 20.4671 16.1106C20.4403 16.1815 20.4149 16.2537 20.3922 16.326C20.3841 16.3487 20.3761 16.3728 20.3694 16.3956C20.3213 16.5428 20.2798 16.6886 20.2436 16.8345C19.6843 19.065 20.2878 21.1925 20.2878 21.1925C20.2878 21.1925 18.8922 19.5279 19.6188 16.1454C19.6389 16.0544 19.6603 15.9607 19.683 15.867C19.7191 15.7172 19.7606 15.5633 19.8061 15.4068C19.8516 15.2502 19.8971 15.1137 19.9493 14.9732C19.9613 14.9384 19.9747 14.9037 19.9881 14.8689C20.1485 14.4568 20.354 14.0637 20.6009 13.6967C21.3285 12.6512 22.3544 11.8491 23.5446 11.3953C23.7828 11.2998 24.025 11.2164 24.2712 11.1451C24.7196 11.0139 25.1778 10.9186 25.6413 10.8601H25.6788C26.9208 10.7012 28.1824 10.806 29.3812 11.1678C29.4655 11.1932 29.5484 11.2213 29.63 11.2508C29.7772 11.303 29.9191 11.3605 30.0569 11.4221C30.294 11.5268 30.5226 11.6499 30.7406 11.79C30.9081 11.89 31.0694 11.9999 31.2237 12.1192C31.3267 12.1954 31.4404 12.2864 31.5635 12.3868C31.7268 12.5206 31.9061 12.6932 32.0907 12.8845C32.8627 13.6769 33.4378 14.6393 33.77 15.6944C33.7958 15.7774 33.8199 15.8617 33.8422 15.9473C33.8971 16.1507 33.9426 16.3621 33.976 16.5816C34.2062 17.8888 34.0857 19.4771 33.3231 21.3584Z" fill="#F26E29"/>
<path fill-rule="evenodd" clip-rule="evenodd" d="M33.2447 21.6143C33.2698 21.6223 33.296 21.6264 33.3223 21.6264C33.4297 21.6298 33.5288 21.5687 33.5739 21.4712C34.2803 19.725 34.5092 18.0672 34.2549 16.5431C34.2148 16.3116 34.1666 16.0895 34.1118 15.8848C34.0877 15.7911 34.0636 15.7042 34.0368 15.6172C33.6951 14.5213 33.099 13.5218 32.2974 12.7003C32.1248 12.5223 31.9414 12.3483 31.7514 12.1851C31.6283 12.0794 31.5079 11.9831 31.3982 11.9014C31.2364 11.7778 31.068 11.663 30.8937 11.5576C30.6657 11.4115 30.4268 11.2832 30.1792 11.1735C30.0267 11.1053 29.8808 11.0464 29.7337 10.9956C29.648 10.9635 29.5611 10.934 29.4754 10.9086C28.2412 10.5357 26.9423 10.4272 25.6633 10.5902H25.6205C25.143 10.6513 24.671 10.7497 24.2089 10.8845C23.952 10.9595 23.6991 11.0464 23.4582 11.1428C22.1429 11.67 21.1099 12.4728 20.3901 13.5432C20.1298 13.9289 19.914 14.3428 19.7465 14.7769L19.709 14.8759C19.6732 14.9732 19.6449 15.0629 19.615 15.1582C19.5979 15.2122 19.5804 15.2681 19.5605 15.3282C19.5056 15.4941 19.4628 15.652 19.4267 15.8005C19.4039 15.8955 19.3825 15.9905 19.3611 16.0855C18.6105 19.5551 20.0208 21.2878 20.0823 21.3601C20.1637 21.4556 20.3006 21.4817 20.4114 21.4229C20.5223 21.3641 20.5774 21.2362 20.544 21.1152L20.5437 21.1142C20.5284 21.0577 19.9721 19.0073 20.5025 16.895C20.5373 16.7532 20.5774 16.6114 20.6242 16.4682C20.6296 16.4495 20.6363 16.4307 20.647 16.4026C20.6671 16.3344 20.6911 16.2675 20.7166 16.2006C20.7781 16.0347 20.849 15.8688 20.924 15.7095C21.4082 14.7006 22.1856 13.8612 23.1545 13.301C23.4235 13.1412 23.7034 13.0004 23.9921 12.8796C24.0644 12.8474 24.1379 12.8167 24.2156 12.7872C24.5816 12.6441 24.9583 12.53 25.3422 12.446L25.4292 12.43C26.238 12.2555 27.0733 12.2423 27.8872 12.3912L27.9273 12.3992H27.9474H27.9621C28.1659 12.4393 28.3674 12.4906 28.5655 12.5531C28.8599 12.6449 29.1466 12.7595 29.4232 12.8956C29.4379 12.9032 29.4523 12.9106 29.4667 12.9181C29.5668 12.9697 29.6632 13.0194 29.7872 13.0896C29.929 13.1699 30.0682 13.2582 30.2113 13.3572C31.148 14.0142 31.9048 14.8957 32.4124 15.9209C32.4981 16.0842 32.5676 16.2447 32.6319 16.3986C32.642 16.4245 32.6524 16.4499 32.6627 16.4752C32.6796 16.5164 32.6964 16.5575 32.7122 16.6007C33.2802 18.1018 33.4011 19.7355 33.0601 21.3039C33.032 21.4396 33.1121 21.5743 33.2447 21.6143ZM25.7185 11.1228C26.0862 11.0785 26.4561 11.0562 26.8264 11.0559C27.6728 11.0374 28.5171 11.1484 29.3299 11.385C29.4089 11.4091 29.4878 11.4359 29.5668 11.464C29.7006 11.5121 29.8344 11.5657 29.9682 11.6286C30.1929 11.7272 30.4095 11.8435 30.6158 11.9765L30.6292 11.9845C30.7868 12.0796 30.9391 12.1832 31.0854 12.2949C31.1041 12.3101 31.123 12.3255 31.142 12.341C31.227 12.4101 31.3164 12.4827 31.4092 12.5625C31.5859 12.7151 31.7585 12.877 31.919 13.0442C32.6633 13.8044 33.2168 14.7303 33.5341 15.7457C33.5595 15.826 33.5822 15.9076 33.605 15.9906C33.6585 16.1793 33.7027 16.3853 33.7388 16.5994C33.8538 17.3077 33.8633 18.0292 33.7669 18.7403C33.7011 17.9356 33.5209 17.1444 33.2317 16.3907C33.2036 16.3171 33.1741 16.2435 33.1434 16.1726C33.0765 16.0093 32.9975 15.8381 32.9092 15.6628C32.3617 14.5572 31.5456 13.6067 30.5355 12.8984C30.3789 12.7913 30.2184 12.6829 30.0725 12.6067C30.0221 12.5803 29.9734 12.554 29.9261 12.5286C29.8367 12.4805 29.7525 12.4351 29.6711 12.3966C29.1677 12.1499 28.6342 11.97 28.0842 11.8614H28.0574H28.0427L27.9999 11.8534C27.1206 11.692 26.2182 11.7047 25.3439 11.8908L25.2355 11.9122C24.8253 12.0023 24.4227 12.124 24.0313 12.2762C23.947 12.3083 23.8653 12.3417 23.7891 12.3752C23.4793 12.5056 23.1789 12.6572 22.8899 12.8288C21.8286 13.4435 20.9779 14.3647 20.4493 15.4714C20.3663 15.6481 20.2914 15.8274 20.2245 16.0066C20.1951 16.0829 20.1683 16.1592 20.1469 16.2274C20.1442 16.2351 20.1411 16.2428 20.138 16.2505C20.1303 16.2697 20.1228 16.2884 20.1228 16.3037C20.0706 16.4536 20.0265 16.6074 19.989 16.76C19.8167 17.4635 19.7335 18.1859 19.7415 18.9102C19.6348 18.003 19.6851 17.0842 19.89 16.194C19.8979 16.1607 19.9058 16.1264 19.9139 16.0914C19.9263 16.0377 19.9391 15.9823 19.9529 15.9264C19.9863 15.7859 20.0278 15.6347 20.0733 15.4768C20.1068 15.3416 20.1536 15.2011 20.2071 15.0566C20.2131 15.0377 20.2202 15.0194 20.2281 14.9991C20.2325 14.9878 20.2371 14.9759 20.2419 14.963C20.395 14.5693 20.5911 14.1937 20.8266 13.843C21.4863 12.8689 22.4363 12.1277 23.6512 11.6406C23.876 11.5496 24.1129 11.4693 24.3537 11.3984C24.7867 11.2712 25.2293 11.179 25.6771 11.1228H25.7185Z" fill="#32335C"/>
<path fill-rule="evenodd" clip-rule="evenodd" d="M31.5714 12.3943C31.1339 12.5281 30.513 12.7234 29.9203 12.8693C29.319 12.5207 28.6637 12.2751 27.9814 12.1427C28.491 11.7729 29.0482 11.4736 29.6379 11.2529C30.0275 11.388 30.4002 11.5676 30.7485 11.7881C31.0402 11.9655 31.3155 12.1684 31.5714 12.3943Z" fill="#53607E"/>
<path fill-rule="evenodd" clip-rule="evenodd" d="M29.7868 13.0934C29.8274 13.117 29.8736 13.1295 29.9206 13.1296C29.9422 13.1299 29.9637 13.1277 29.9848 13.1229C30.5976 12.9717 31.2305 12.7763 31.6533 12.6425C31.7455 12.6128 31.8144 12.5356 31.8335 12.4407C31.8527 12.3459 31.8191 12.248 31.7457 12.1849C31.4786 11.9511 31.1916 11.7411 30.888 11.5574C30.5241 11.3258 30.1349 11.1368 29.7279 10.994C29.6685 10.9733 29.6039 10.9733 29.5446 10.994C28.932 11.2233 28.3532 11.5343 27.8238 11.9186C27.7377 11.9814 27.6971 12.0893 27.7203 12.1932C27.7436 12.2972 27.8263 12.3775 27.9309 12.3977C28.5839 12.5249 29.2111 12.76 29.7868 13.0934ZM29.9594 12.5757C29.5413 12.3429 29.0988 12.1566 28.6401 12.0204C28.9589 11.8283 29.2933 11.6632 29.6396 11.5266C29.9769 11.6509 30.2999 11.811 30.603 12.0043L30.6164 12.0137C30.7525 12.0953 30.8838 12.1847 31.0097 12.2813C30.69 12.379 30.3233 12.4847 29.9594 12.5757Z" fill="#32335C"/>
<path fill-rule="evenodd" clip-rule="evenodd" d="M32.0982 12.8856C31.5244 13.0079 30.9434 13.0942 30.3588 13.1438C30.2143 13.0435 30.0671 12.9498 29.9145 12.8628C29.7901 12.7906 29.663 12.729 29.5332 12.6608C30.0643 12.3891 30.6359 12.2052 31.2258 12.1162C31.3289 12.1925 31.4426 12.2835 31.5657 12.3838C31.7343 12.5283 31.9136 12.6942 32.0982 12.8856Z" fill="#FF9966"/>
<path fill-rule="evenodd" clip-rule="evenodd" d="M30.2118 13.3629C30.2566 13.3941 30.3098 13.4109 30.3644 13.411L30.3885 13.4137C30.9831 13.3616 31.5739 13.2722 32.1574 13.1461C32.2517 13.1249 32.3272 13.0544 32.355 12.9618C32.3827 12.8692 32.3583 12.7688 32.2912 12.6992C32.1186 12.5212 31.9353 12.3473 31.7453 12.1841C31.6222 12.0783 31.5017 11.982 31.3907 11.899C31.3338 11.857 31.2626 11.8392 31.1926 11.8495C30.5706 11.9426 29.9681 12.1369 29.409 12.4249C29.321 12.4734 29.2675 12.5671 29.2706 12.6676C29.2737 12.768 29.3329 12.8583 29.4237 12.9012C29.4384 12.9088 29.4528 12.9163 29.4672 12.9237C29.5673 12.9753 29.6637 13.0251 29.7877 13.0953C29.9295 13.1755 30.0687 13.2639 30.2118 13.3629ZM30.4369 12.8678C30.3378 12.8009 30.2388 12.7393 30.1411 12.6805C30.4708 12.5519 30.8123 12.456 31.1607 12.3941C31.2357 12.453 31.3146 12.5172 31.3962 12.5868L31.5448 12.7206C31.1781 12.7835 30.7861 12.837 30.4369 12.8678Z" fill="#32335C"/>
<path fill-rule="evenodd" clip-rule="evenodd" d="M20.6833 15.5977C20.6031 15.7676 20.5308 15.9389 20.4666 16.1101C20.4398 16.181 20.4144 16.2533 20.3916 16.3256C20.3836 16.3483 20.3756 16.3724 20.3689 16.3951C20.1098 15.9649 19.9669 15.4748 19.9541 14.9728C19.9661 14.938 19.9795 14.9032 19.9929 14.8684C20.1533 14.4563 20.3589 14.0632 20.6057 13.6963C20.5723 14.1526 20.6499 14.9527 20.6833 15.5977Z" fill="#53607E"/>
<path fill-rule="evenodd" clip-rule="evenodd" d="M20.1458 16.5419C20.1953 16.6171 20.2793 16.6623 20.3693 16.6623L20.4081 16.665C20.5108 16.6495 20.5953 16.576 20.6248 16.4763C20.6302 16.4576 20.6369 16.4389 20.6476 16.4108C20.6676 16.3425 20.6917 16.2756 20.7171 16.2087C20.7787 16.0428 20.8496 15.8769 20.9245 15.7163C20.9452 15.6749 20.954 15.6286 20.95 15.5825C20.9406 15.4032 20.9286 15.2106 20.9152 15.0179C20.8762 14.5846 20.8619 14.1495 20.8724 13.7146C20.8806 13.594 20.807 13.4828 20.6927 13.4434C20.5784 13.4039 20.4519 13.446 20.384 13.546C20.1237 13.9317 19.9078 14.3456 19.7404 14.7797C19.727 14.8145 19.7136 14.8506 19.7016 14.8854C19.6901 14.918 19.6851 14.9526 19.6868 14.9871C19.699 15.5369 19.8574 16.0736 20.1458 16.5419ZM20.3436 15.6992C20.2786 15.475 20.2386 15.2444 20.2245 15.0114L20.2245 15.0114C20.2299 14.9967 20.2352 14.982 20.2419 14.9659C20.278 14.8723 20.3168 14.7799 20.3583 14.6903C20.365 14.8107 20.373 14.9325 20.381 15.0529C20.3931 15.2202 20.4038 15.3861 20.4118 15.5453C20.3891 15.5961 20.365 15.6483 20.3436 15.6992Z" fill="#32335C"/>
<path fill-rule="evenodd" clip-rule="evenodd" d="M33.9887 16.5816C33.6457 16.5841 33.303 16.56 32.9637 16.5093C32.937 16.4384 32.9089 16.3755 32.8795 16.2992C32.8099 16.132 32.7336 15.9674 32.6533 15.8068C33.0142 15.6808 33.3999 15.6423 33.7786 15.6944C33.8045 15.7774 33.8286 15.8617 33.8509 15.9473C33.9111 16.1507 33.9512 16.3621 33.9887 16.5816Z" fill="#8BCBC9"/>
<path fill-rule="evenodd" clip-rule="evenodd" d="M32.9216 16.7744C33.2491 16.8224 33.5795 16.8474 33.9104 16.8493L33.9907 16.8546C34.0691 16.8533 34.143 16.8176 34.1928 16.757C34.2424 16.6969 34.2634 16.6183 34.2503 16.5415C34.2102 16.3101 34.162 16.0879 34.1071 15.8832C34.083 15.7896 34.059 15.7026 34.0322 15.6156C34.0023 15.5178 33.9192 15.4456 33.8181 15.4296C33.3962 15.3713 32.9666 15.414 32.5644 15.5541C32.4916 15.579 32.4331 15.6341 32.4038 15.7053C32.3746 15.7766 32.3775 15.857 32.4118 15.926C32.4975 16.0893 32.567 16.2498 32.6313 16.4037C32.6357 16.4145 32.6401 16.4253 32.6446 16.4362C32.6672 16.4913 32.6901 16.5472 32.7102 16.6031C32.7442 16.6944 32.8252 16.76 32.9216 16.7744ZM33.6611 16.309C33.4952 16.301 33.3226 16.2863 33.1526 16.2648H33.154C33.1446 16.2421 33.1352 16.2194 33.1272 16.1966C33.0978 16.1257 33.067 16.0534 33.0336 15.9812C33.2095 15.9452 33.3894 15.9318 33.5688 15.941C33.5711 15.95 33.5745 15.959 33.5779 15.968C33.584 15.9844 33.5902 16.0009 33.5902 16.0173C33.6143 16.111 33.6383 16.2087 33.6611 16.309Z" fill="#32335C"/>
<path fill-rule="evenodd" clip-rule="evenodd" d="M34.0845 17.8438C33.819 17.8903 33.5456 17.8349 33.3192 17.6886C33.2309 17.2839 33.1115 16.8867 32.9619 16.5004C33.2968 16.4694 33.6334 16.4605 33.9695 16.4737C34.0523 16.9256 34.0908 17.3845 34.0845 17.8438Z" fill="#53607E"/>
<path fill-rule="evenodd" clip-rule="evenodd" d="M33.1824 17.919C33.3955 18.0558 33.6436 18.1282 33.8969 18.1277C33.972 18.1295 34.0472 18.125 34.1217 18.1143C34.252 18.0925 34.3469 17.9789 34.3451 17.8467C34.3507 17.3698 34.3099 16.8934 34.2234 16.4244C34.2007 16.303 34.0978 16.2128 33.9745 16.2063C33.6263 16.1926 33.2777 16.202 32.9308 16.2344C32.8469 16.2414 32.7712 16.2875 32.7265 16.3588C32.6817 16.4302 32.6732 16.5184 32.7033 16.597C32.8482 16.9701 32.9637 17.3539 33.0486 17.745C33.0662 17.8195 33.1149 17.8828 33.1824 17.919ZM33.8171 17.5884C33.7243 17.5794 33.6338 17.5545 33.5495 17.5149H33.5522C33.4915 17.2544 33.4215 16.997 33.3421 16.7428C33.4759 16.7348 33.6097 16.7348 33.7435 16.7348C33.7857 17.0175 33.8102 17.3026 33.8171 17.5884Z" fill="#32335C"/>
<path fill-rule="evenodd" clip-rule="evenodd" d="M24.3675 12.2066C24.5455 12.2347 26.4897 12.6281 26.6422 10.2798C26.6422 10.253 26.6221 10.249 26.5967 10.249C26.135 10.2648 25.6757 10.3244 25.2252 10.427C23.6771 10.7856 24.2779 12.0326 24.3461 12.1905C24.3499 12.1993 24.358 12.2054 24.3675 12.2066Z" fill="#53607E"/>
<path fill-rule="evenodd" clip-rule="evenodd" d="M24.3462 12.4746C24.5036 12.5009 24.6629 12.5143 24.8225 12.5147C25.2897 12.5308 25.7482 12.3863 26.1218 12.1053C26.5954 11.7293 26.8617 11.1218 26.9152 10.3003C26.9213 10.2197 26.8937 10.1402 26.839 10.0808C26.7785 10.0172 26.6939 9.98223 26.6061 9.98448C26.1233 10.0005 25.643 10.0623 25.1718 10.1691C24.6084 10.3003 24.2284 10.5558 24.0398 10.9305C23.91 11.1901 23.815 11.6343 24.1 12.2832V12.2993C24.1403 12.3938 24.2271 12.4603 24.3288 12.4746H24.3462ZM25.7819 11.6838C25.4782 11.926 25.0406 12.0237 24.5415 11.9621H24.5442C24.3903 11.5647 24.4398 11.3118 24.5121 11.1673C24.6245 10.9425 24.8841 10.7806 25.2855 10.6883C25.6357 10.6111 25.9906 10.557 26.3479 10.5264C26.2743 11.0563 26.0856 11.4416 25.7819 11.6838Z" fill="#32335C"/>
<path fill-rule="evenodd" clip-rule="evenodd" d="M23.9998 12.2214C23.7322 12.2683 21.3237 13.4136 20.5851 9.46371C20.5771 9.4249 20.6119 9.40885 20.6507 9.41554C21.1468 9.51333 21.6488 9.57903 22.1533 9.61223C24.7866 9.89456 24.127 11.9578 24.0266 12.196C24.0222 12.2082 24.0123 12.2176 23.9998 12.2214Z" fill="#53607E"/>
<path fill-rule="evenodd" clip-rule="evenodd" d="M21.8772 12.3759C22.2158 12.5785 22.6039 12.6837 22.9985 12.6796C23.3284 12.676 23.6557 12.6209 23.9686 12.5164L24.0475 12.4923C24.1529 12.4737 24.241 12.4018 24.2803 12.3023C24.2977 12.2648 24.6924 11.2466 24.1786 10.3916C23.8267 9.80683 23.155 9.4576 22.1809 9.35457C22.007 9.33584 21.8692 9.32246 21.7487 9.31175C21.397 9.28486 21.0474 9.23435 20.7024 9.16055C20.5955 9.13783 20.4843 9.16938 20.4053 9.24485C20.3353 9.31495 20.3038 9.41485 20.321 9.51246C20.59 10.9535 21.1132 11.9169 21.8772 12.3759ZM22.153 11.9164C21.583 11.5725 21.1642 10.8393 20.914 9.73804C21.2454 9.79636 21.4362 9.81398 21.6934 9.83771L21.7008 9.83839L22.1249 9.87853C22.9171 9.96417 23.459 10.2278 23.7199 10.66C24.0196 11.1604 23.8871 11.7638 23.8176 11.998H23.8082L23.7989 12.0009C23.4954 12.0962 22.8033 12.3137 22.153 11.9164Z" fill="#32335C"/>
<path d="M23.8655 12.3382C22.8325 12.3382 22.0551 11.3306 22.0203 11.2851C21.9756 11.226 21.9873 11.1418 22.0464 11.0971C22.1055 11.0524 22.1897 11.0641 22.2344 11.1232C22.2344 11.1326 22.9356 12.0304 23.8106 12.0692C23.64 11.7535 23.4464 11.4507 23.2313 11.1634C23.2009 11.1263 23.1926 11.0759 23.2095 11.0311C23.2264 10.9863 23.266 10.9539 23.3132 10.9461C23.3605 10.9383 23.4083 10.9564 23.4387 10.9934C23.7047 11.3542 23.9427 11.7349 24.1505 12.1321C24.1714 12.1714 24.1714 12.2186 24.1505 12.2579C24.1297 12.2966 24.0912 12.3226 24.0475 12.3275C23.9871 12.335 23.9263 12.3385 23.8655 12.3382Z" fill="#32335C"/>
<path d="M24.3671 12.3398H24.3577C24.2849 12.3341 24.23 12.271 24.2346 12.198C24.2346 12.1632 24.3015 11.3376 25.3693 11.0192C25.4399 10.9984 25.514 11.0384 25.5352 11.1088C25.5456 11.1429 25.542 11.1797 25.5252 11.2111C25.5084 11.2425 25.4797 11.2659 25.4456 11.2761C24.5625 11.5437 24.5089 12.1886 24.5009 12.2127C24.4973 12.284 24.4385 12.3399 24.3671 12.3398Z" fill="#32335C"/>
<defs>
<clipPath id="clip0_4_905">
<rect width="17.3451" height="17.3451" fill="white" transform="translate(67.6045 31.5273) rotate(-90)"/>
</clipPath>
</defs>
</svg>
