<svg width="97" height="65" viewBox="0 0 97 65" fill="none" xmlns="http://www.w3.org/2000/svg">
<path d="M0 7.39213C0 3.70329 2.9904 0.712891 6.67924 0.712891H90.1698C93.8587 0.712891 96.8491 3.70329 96.8491 7.39214V58.3214C96.8491 62.0102 93.8587 65.0006 90.1698 65.0006H6.67924C2.9904 65.0006 0 62.0102 0 58.3214V7.39213Z" fill="black" fill-opacity="0.8"/>
<rect x="19.2041" y="13.2354" width="58.3945" height="38.7225" rx="1.194" fill="#C0E1F6" stroke="#32335C" stroke-width="0.244049"/>
<rect x="23.3838" y="40.3994" width="20.477" height="3.34319" rx="0.596999" fill="#53607E"/>
<rect x="26.7266" y="46.249" width="14.2086" height="3.34319" rx="0.596999" fill="#203864"/>
<rect x="47.6211" y="40.3994" width="27.1634" height="3.34319" rx="0.596999" fill="#53607E"/>
<rect x="47.6211" y="45.4131" width="27.1634" height="3.34319" rx="0.596999" fill="#53607E"/>
<rect x="54.3076" y="17.832" width="20.477" height="17.1339" rx="0.596999" fill="white"/>
<g clip-path="url(#clip0_4_877)">
<path d="M64.3424 26.3972C64.3424 26.6676 64.5617 26.8686 64.8138 26.8686C66.288 26.8456 67.7093 27.0343 69.1295 27.4348C69.3478 27.5072 69.7702 27.4073 69.7702 26.9808C69.7702 26.7665 69.6299 26.5702 69.4131 26.509C68.4363 26.2335 66.8543 25.8948 64.8321 25.9071C64.5628 25.9075 64.3424 26.1258 64.3424 26.3972ZM62.6753 26.4156C62.6712 27.6827 63.6343 28.5377 64.7383 28.5193C65.715 28.504 66.6945 28.5959 67.646 28.7922C67.8929 28.8483 68.1688 28.6774 68.2249 28.4122C68.2785 28.1653 68.1101 27.8894 67.8449 27.8333C66.8222 27.6217 65.7718 27.5248 64.7413 27.5401C64.1914 27.5481 63.6507 27.1522 63.6547 26.4298C63.6649 25.7897 64.1724 25.2619 64.7872 25.2541C65.7483 25.2362 66.7512 25.3102 67.7154 25.4708C67.9623 25.5142 68.2331 25.3331 68.279 25.0654C68.3453 24.6599 67.9704 24.5195 67.8735 24.5042C66.8716 24.3359 65.8105 24.2569 64.7903 24.2746C63.6302 24.2934 62.6916 25.2525 62.6753 26.4156ZM62.2713 28.6724C62.0999 28.8846 62.1305 29.1907 62.3406 29.3641C62.9834 29.8834 63.7976 30.1665 64.626 30.1538C65.3937 30.141 66.164 30.2023 66.9134 30.3374C67.1604 30.3859 67.4338 30.2099 67.4821 29.9446C67.5536 29.5341 67.1787 29.3912 67.0869 29.3916C66.2733 29.2463 65.4418 29.1774 64.6097 29.1927C64.0016 29.1825 63.4303 28.9866 62.961 28.6214C62.7487 28.4316 62.4427 28.4622 62.2713 28.6724ZM60.9988 26.4584C60.9912 26.7543 61.027 27.0706 61.1008 27.3746C61.1437 27.6372 61.4089 27.8005 61.6899 27.7392C61.9525 27.6755 62.1133 27.4311 62.0521 27.1659C62.0019 26.9216 61.9754 26.691 61.9774 26.4523C62.0004 24.9144 63.2323 23.6445 64.724 23.618C65.4967 23.6078 66.2564 23.6461 67.042 23.7328C67.3097 23.7634 67.5338 23.5695 67.5827 23.3018C67.6052 22.96 67.3405 22.7815 67.1518 22.7611C66.3407 22.6667 65.5245 22.6259 64.7093 22.6387C62.6957 22.6732 61.0294 24.3771 60.9988 26.4584ZM63.4772 21.2959C63.2303 21.3546 63.0436 21.6124 63.1022 21.8801C63.1608 22.127 63.4235 22.3111 63.6862 22.2525C64.1249 22.1556 64.4514 22.153 64.9435 22.1556C65.2139 22.1581 65.4357 21.9413 65.4384 21.6709C65.4384 21.4032 65.2217 21.1788 64.9513 21.1761C64.5016 21.1735 64.0526 21.1694 63.4772 21.2959ZM61.6265 22.1325C60.2109 23.1273 59.3472 24.7525 59.3227 26.4849C59.3049 27.908 59.8296 29.2233 60.8115 30.2028C61.7577 31.149 63.0152 31.6585 64.3538 31.6381L64.7925 31.6406C65.0647 31.6304 65.2892 31.4187 65.2974 31.1483C65.2994 31.1432 65.2994 31.1381 65.2994 31.133C65.2994 30.8861 65.0878 30.6511 64.8225 30.6617L64.3406 30.6591C63.2691 30.6562 62.2611 30.2507 61.504 29.4927C60.7133 28.6995 60.2875 27.6282 60.3028 26.4788C60.3048 25.0633 61.0296 23.7302 62.1876 22.9161C62.4094 22.7605 62.4631 22.457 62.3075 22.2351C62.1509 22.0305 61.8489 21.9591 61.6265 22.1325Z" fill="#32335C"/>
</g>
<rect x="23.4574" y="15.8178" width="22.4173" height="22.4173" rx="0.223874" fill="#53607E" fill-opacity="0.4" stroke="#32335C" stroke-width="0.14925"/>
<path fill-rule="evenodd" clip-rule="evenodd" d="M38.7304 25.1237L38.7303 25.1219C38.7835 24.5319 38.8657 22.829 38.1758 21.7063C37.3392 20.3515 35.9683 19.955 34.8085 19.9743C33.6471 19.955 32.2762 20.3515 31.4397 21.7063C30.7506 22.8241 30.8328 24.5295 30.8868 25.1171V25.1216C30.6931 25.0571 30.4821 25.0699 30.2976 25.1574C29.8753 25.358 29.6916 26.0286 30.0945 26.6419C30.3999 27.1079 30.9151 27.1911 31.3079 27.1013C31.3225 27.1392 31.3369 27.1772 31.3512 27.215C31.3633 27.247 31.3753 27.2787 31.3873 27.31L31.4372 27.435C31.6911 28.0833 32.0649 28.678 32.539 29.1879C32.7433 29.4039 32.9718 29.5956 33.22 29.7593C33.6656 30.0612 34.1883 30.229 34.7263 30.2429H34.8875C35.4255 30.2292 35.9484 30.0614 36.3938 29.7593C36.5817 29.6354 36.7583 29.4954 36.9217 29.341C36.7582 29.4965 36.5813 29.6376 36.393 29.7625C35.9475 30.0646 35.4247 30.2324 34.8867 30.2461H34.7255C34.1875 30.2322 33.6647 30.0644 33.2192 29.7625C32.971 29.5989 32.7425 29.4071 32.5382 29.1911V31.8612C32.5793 32.1215 33.1007 32.344 33.839 32.448C34.1495 32.4911 34.4627 32.5129 34.7763 32.5132H34.8327C35.1463 32.5129 35.4594 32.4911 35.77 32.448C36.5123 32.3408 37.0354 32.1191 37.0716 31.8572V29.1913L37.0756 29.1871C37.5495 28.6774 37.9229 28.083 38.1766 27.435L38.2265 27.31C38.2544 27.2416 38.2807 27.1707 38.3062 27.1006C38.6994 27.1915 39.2164 27.1091 39.5225 26.6419C39.9223 26.0286 39.7417 25.358 39.3178 25.1598C39.1339 25.0725 38.9235 25.0596 38.7304 25.1237ZM31.1455 26.6C31.1616 26.6557 31.1782 26.711 31.1952 26.7657C31.1774 26.7125 31.1598 26.6589 31.1423 26.6048C31.1294 26.5621 31.1141 26.5089 31.1044 26.4727L31.1043 26.4725L31.1043 26.4725C31.0947 26.4362 31.0818 26.388 31.0754 26.3606C31.0728 26.3497 31.0707 26.3405 31.0686 26.331L31.0686 26.3309C31.0654 26.3166 31.0622 26.3018 31.0568 26.28C31.0524 26.2619 31.0486 26.2432 31.0447 26.2244C31.0409 26.2057 31.0371 26.1869 31.0327 26.1688C31.0238 26.1325 31.0165 26.0963 31.0093 26.0584L31.0044 26.0334C30.9956 25.9851 30.9867 25.9359 30.9787 25.8859C30.9722 25.851 30.9666 25.8155 30.9617 25.7795C30.9609 25.7754 30.96 25.7712 30.9591 25.767L30.9591 25.7669C30.9556 25.7507 30.9521 25.7342 30.9521 25.7183C30.9448 25.6675 30.9376 25.6159 30.9311 25.5635C30.9236 25.5061 30.9171 25.4504 30.9118 25.3967C30.9069 25.3741 30.9045 25.3516 30.9045 25.329C30.9045 25.329 30.9101 25.3137 30.9045 25.3016C30.9014 25.2951 30.9012 25.2845 30.901 25.2746C30.9009 25.2663 30.9007 25.2585 30.8989 25.2541C30.8964 25.2481 30.8963 25.247 30.8961 25.2413C30.896 25.2377 30.8958 25.2323 30.8948 25.2226L30.8944 25.2183L30.894 25.2151C30.8943 25.2161 30.8946 25.217 30.8948 25.2178C30.8967 25.2229 30.8965 25.2259 30.8963 25.2294C30.8961 25.2336 30.8958 25.2387 30.8989 25.2492C30.9019 25.2598 30.9021 25.2677 30.9023 25.2756C30.9025 25.2822 30.9027 25.2887 30.9045 25.2968C30.9085 25.3145 30.9085 25.3242 30.9085 25.3242C30.9092 25.3332 30.9103 25.3422 30.9115 25.3513C30.9132 25.3648 30.915 25.3783 30.915 25.3919C30.9202 25.4442 30.9268 25.4979 30.9329 25.5472L30.9343 25.5587C30.9408 25.6111 30.948 25.6627 30.9553 25.7135C30.9564 25.7205 30.9574 25.7276 30.9585 25.7347C30.9604 25.7481 30.9623 25.7616 30.965 25.7747C30.9698 25.8107 30.9754 25.8462 30.9819 25.8811C30.9899 25.9311 30.9988 25.9802 31.0077 26.0286L31.0125 26.0536C31.0161 26.0725 31.0202 26.0906 31.0242 26.1088C31.0282 26.1269 31.0322 26.145 31.0359 26.164C31.04 26.1856 31.0454 26.2095 31.0504 26.2313C31.0541 26.2478 31.0576 26.2631 31.0601 26.2752C31.0657 26.3034 31.0721 26.33 31.0786 26.3558L31.0836 26.3756C31.091 26.4047 31.0977 26.4308 31.1076 26.4678C31.1197 26.513 31.1326 26.5573 31.1455 26.6ZM30.8896 25.1722C30.8899 25.1772 30.8903 25.1821 30.8906 25.1867C30.8891 25.1736 30.8878 25.1601 30.8876 25.1461C30.8884 25.1547 30.889 25.1637 30.8896 25.1722Z" fill="#FFD6CB"/>
<g style="mix-blend-mode:multiply" opacity="0.15">
<path fill-rule="evenodd" clip-rule="evenodd" d="M36.9103 29.3532V31.7146C34.9019 31.746 33.4141 30.712 32.7041 30.0938V29.3516C32.8638 29.5042 33.0373 29.6418 33.2223 29.7626C33.668 30.0642 34.1907 30.232 34.7286 30.2462H34.8898C35.4278 30.232 35.9504 30.0642 36.3961 29.7626C36.5794 29.6417 36.7515 29.5047 36.9103 29.3532Z" fill="#7C3830"/>
</g>
<path d="M24.8379 38.0476C24.8536 37.9853 24.8618 37.9521 24.8778 37.8917L24.8778 37.8917C24.8889 37.8497 24.8999 37.8081 24.9105 37.7672C24.9556 37.606 25.0015 37.4448 25.0483 37.2973L25.065 37.2441C25.0771 37.2059 25.0891 37.168 25.1007 37.1305C25.1136 37.0902 25.1264 37.0499 25.1393 37.0128C25.1748 36.9064 25.2103 36.8032 25.2457 36.7041C25.3258 36.4817 25.4064 36.277 25.4875 36.09C25.5077 36.0424 25.5278 35.9957 25.548 35.9505L25.56 35.924C25.6036 35.824 25.6479 35.7305 25.6922 35.6419C25.8182 35.3778 25.9676 35.1256 26.1387 34.8883C26.141 34.8849 26.1434 34.8817 26.1458 34.8786L26.1458 34.8786C26.1485 34.875 26.1511 34.8716 26.1532 34.8682C26.1976 34.8101 26.2403 34.7577 26.2814 34.7126L26.2862 34.707C26.3152 34.6744 26.3459 34.6427 26.3764 34.6113L26.4071 34.5796C26.667 34.3182 26.953 34.084 27.2606 33.8809L27.3541 33.8188C27.4014 33.7877 27.4497 33.757 27.4992 33.7269C27.6184 33.6528 27.7409 33.5811 27.8675 33.5109C28.0762 33.3949 28.2922 33.2853 28.5122 33.1813C28.7782 33.0556 29.049 32.9395 29.3182 32.8299L29.5011 32.7574C29.5535 32.7364 29.6067 32.7163 29.6623 32.6969C29.8977 32.6075 30.1314 32.5253 30.3595 32.4487C30.8011 32.3004 31.2194 32.1763 31.5885 32.0739C31.9706 31.9684 32.2978 31.8862 32.5388 31.8281C32.5376 31.8394 32.5376 31.8507 32.5388 31.862C32.5799 32.1223 33.1029 32.3455 33.8396 32.4487C34.1501 32.4918 34.4633 32.5136 34.7769 32.514H34.8333C35.1468 32.5136 35.46 32.4918 35.7706 32.4487C36.5129 32.3439 37.0359 32.1199 37.0722 31.8579C37.073 31.848 37.073 31.838 37.0722 31.8281C37.314 31.887 37.6444 31.9692 38.0289 32.0756C38.3964 32.1771 38.8122 32.3012 39.2515 32.4487C39.5303 32.5422 39.8157 32.6445 40.1066 32.7574C40.2544 32.8143 40.4018 32.8742 40.5491 32.9371L40.7175 33.0088L40.8529 33.0685C41.1568 33.2055 41.4558 33.3522 41.7395 33.5109C41.9168 33.6093 42.0892 33.7116 42.2536 33.8188L42.2996 33.8494C42.3802 33.901 42.4608 33.9542 42.5317 34.0106C42.7699 34.1795 42.9935 34.3682 43.1998 34.5748C43.2433 34.6183 43.2853 34.6626 43.3256 34.7078C43.3748 34.7622 43.421 34.8193 43.4642 34.8786V34.8835C43.5013 34.9334 43.5399 34.9882 43.5778 35.0447C43.701 35.2343 43.8124 35.4313 43.9115 35.6346C43.959 35.7313 44.0066 35.8337 44.0557 35.9433C44.0864 36.0126 44.117 36.0843 44.1476 36.1585C44.1686 36.2084 44.1889 36.2596 44.2098 36.3121L44.2169 36.3301C44.2626 36.4462 44.3085 36.5684 44.3548 36.6969C44.3902 36.796 44.4257 36.8991 44.4611 37.0055C44.502 37.1307 44.5431 37.2607 44.5844 37.3956L44.6024 37.456L44.6026 37.4565C44.6138 37.4939 44.6251 37.5316 44.636 37.5697L44.641 37.5868L44.6411 37.5874C44.6568 37.6418 44.6741 37.7018 44.69 37.7599C44.7182 37.8598 44.7198 37.942 44.7448 38.0476H24.8379Z" fill="#F26E29"/>
<g style="mix-blend-mode:soft-light" opacity="0.8">
<path d="M38.0339 32.0744C37.8348 32.3791 37.5019 32.6208 37.0748 32.7998C36.7094 32.9472 36.3272 33.0487 35.9368 33.102C35.1901 33.2073 34.4324 33.2073 33.6858 33.102C33.2932 33.0481 32.9088 32.9458 32.5413 32.7973C32.1166 32.6184 31.7862 32.3766 31.5879 32.072C31.9699 31.9664 32.2971 31.8842 32.5381 31.8262C32.5369 31.8374 32.5369 31.8488 32.5381 31.86C32.5792 32.1203 33.1023 32.3436 33.8389 32.4468C34.1495 32.4899 34.4627 32.5117 34.7762 32.512H34.8326C35.1462 32.5117 35.4594 32.4899 35.77 32.4468C36.5122 32.342 37.0353 32.1179 37.0716 31.856C37.0724 31.8461 37.0724 31.8361 37.0716 31.8262C37.3198 31.8858 37.6494 31.968 38.0339 32.0744Z" fill="white"/>
</g>
<path fill-rule="evenodd" clip-rule="evenodd" d="M34.8953 19.8175L34.8142 19.8182C33.9277 19.8021 32.2948 20.0189 31.3164 21.6259C30.6938 22.6365 30.6732 24.0717 30.7197 24.8582L30.7236 24.9205C30.5547 24.9046 30.3831 24.9343 30.2276 25.0085C29.9914 25.129 29.8187 25.3455 29.7537 25.6025C29.6558 25.9905 29.7305 26.4019 29.9584 26.7308L29.9741 26.7546C30.2086 27.1001 30.6026 27.3041 31.0214 27.295C31.0826 27.2934 31.1436 27.2881 31.204 27.2788C31.2157 27.3102 31.2276 27.3417 31.2398 27.3731L31.2898 27.4989C31.544 28.144 31.9126 28.7377 32.3777 29.2515L32.3818 29.2559L32.3819 31.6984C32.1034 31.7667 31.8223 31.8405 31.538 31.9187C31.0988 32.0404 30.6942 32.1637 30.3009 32.2959C30.0454 32.3845 29.8149 32.4651 29.5989 32.5457C29.5807 32.5522 29.5635 32.5585 29.5464 32.565L29.3763 32.6308C29.3352 32.647 29.294 32.6636 29.2532 32.6803L29.1351 32.7279C28.8992 32.8241 28.6647 32.9273 28.4367 33.0357C28.2046 33.1453 27.9838 33.2574 27.7823 33.3702C27.6437 33.4476 27.5212 33.5193 27.4092 33.5886L27.3708 33.6122C27.3328 33.6357 27.2959 33.6593 27.2609 33.6829C27.2278 33.7038 27.1948 33.7256 27.165 33.7466C26.8487 33.9533 26.5544 34.1918 26.2865 34.4582C26.2615 34.4868 26.2368 34.5118 26.2134 34.5355C26.1952 34.554 26.1778 34.5716 26.1616 34.5896L26.1559 34.5968C26.114 34.642 26.0689 34.6968 26.0189 34.7629C26.0158 34.7663 26.0131 34.7701 26.0108 34.7741L26.0028 34.7846L25.9591 34.8462C25.8005 35.0729 25.6609 35.3125 25.5418 35.5624C25.5026 35.6343 25.4709 35.703 25.4413 35.7701L25.4064 35.8501L25.3736 35.9239C25.3599 35.9552 25.3465 35.9871 25.333 36.0193L25.3062 36.083C25.2345 36.2547 25.1629 36.4425 25.0913 36.6423C25.0558 36.7423 25.0195 36.847 24.9841 36.9542L24.9706 36.9942L24.9438 37.0751L24.8725 37.3053C24.8461 37.3908 24.8195 37.4806 24.7928 37.5738L24.7528 37.7159C24.74 37.7659 24.7267 37.8168 24.7133 37.868L24.7132 37.8684C24.6995 37.9209 24.6856 37.9739 24.6722 38.027L24.6504 38.1075C24.6436 38.1341 24.6437 38.1814 24.6367 38.2091H44.9869L44.924 37.9955C44.924 37.9955 44.874 37.8069 44.8483 37.7167C44.8354 37.6691 44.8217 37.6208 44.808 37.574L44.7943 37.5248L44.7419 37.3483C44.7212 37.2849 44.7018 37.2225 44.6827 37.1612L44.6827 37.161L44.6826 37.1609C44.6607 37.0906 44.6393 37.0217 44.617 36.9542C44.5815 36.847 44.5452 36.7423 44.5098 36.6423C44.4622 36.5126 44.4155 36.386 44.3695 36.2708L44.3623 36.2506C44.3413 36.1975 44.3204 36.1459 44.2994 36.0967C44.2688 36.0209 44.2374 35.9484 44.2059 35.8775C44.166 35.7886 44.1293 35.7088 44.0941 35.6347L44.0592 35.5624C43.9569 35.3541 43.8426 35.152 43.7167 34.9571C43.7003 34.934 43.6845 34.9108 43.6684 34.8872L43.6683 34.8871L43.6681 34.8867L43.6679 34.8865L43.6678 34.8864C43.6453 34.8534 43.6223 34.8197 43.5966 34.7846L43.5902 34.7766C43.5378 34.7056 43.4878 34.6444 43.4451 34.5976C43.4024 34.5509 43.3581 34.5033 43.3137 34.459C43.1009 34.246 42.8703 34.0513 42.6246 33.8771C42.5441 33.8191 42.4643 33.7643 42.3893 33.7159C42.3724 33.7047 42.3555 33.6926 42.341 33.6837L42.2871 33.6489C42.1422 33.5561 41.9875 33.4647 41.8163 33.3694C41.5431 33.2179 41.2489 33.0712 40.9152 32.9213L40.7774 32.8608L40.7347 32.8423L40.609 32.7883C40.4647 32.727 40.3188 32.6682 40.1617 32.607C39.8885 32.5006 39.6064 32.399 39.2993 32.2959C38.9028 32.1621 38.4885 32.0363 38.0686 31.9203C37.8171 31.8504 37.5922 31.792 37.4055 31.745L37.232 31.7018L37.2321 29.2668C37.7047 28.7493 38.0786 28.1496 38.3354 27.4972L38.3862 27.3699C38.3972 27.3414 38.4081 27.3126 38.4189 27.2839C38.4767 27.2911 38.535 27.2947 38.5933 27.295C39.0194 27.3038 39.4198 27.092 39.6523 26.7348L39.6715 26.7064C39.8841 26.3823 39.9521 25.9836 39.8578 25.6065C39.7922 25.3495 39.6193 25.1332 39.3831 25.0125C39.2344 24.9415 39.071 24.9113 38.9093 24.9228C38.9596 24.1512 38.9544 22.6623 38.3161 21.6267C37.3529 20.0671 35.7907 19.8171 34.8953 19.8175ZM31.4158 32.294L31.524 32.2633C31.738 32.54 32.058 32.7691 32.477 32.9455C32.8582 33.0999 33.2573 33.2061 33.6649 33.2614C34.0456 33.3161 34.4297 33.343 34.8142 33.342C35.1973 33.3442 35.5801 33.3186 35.9595 33.2654C36.3628 33.2099 36.7577 33.1049 37.1353 32.9527C37.5597 32.7756 37.8829 32.5434 38.0979 32.2647C38.4761 32.371 38.8489 32.4859 39.2074 32.6061C39.5097 32.7077 39.7869 32.8076 40.0553 32.9124C40.2092 32.972 40.3527 33.0301 40.4945 33.0905L40.6614 33.1614L40.7935 33.2203C41.1183 33.3662 41.4053 33.5088 41.6704 33.6563C41.855 33.7595 42.021 33.8586 42.1773 33.9601L42.266 34.0182C42.3254 34.0575 42.3861 34.0994 42.4473 34.1439C42.6773 34.3078 42.893 34.4908 43.0921 34.6911L43.0925 34.6915L43.0926 34.6916L43.0927 34.6917C43.1328 34.7326 43.1737 34.7744 43.213 34.8193C43.2584 34.8692 43.3009 34.9217 43.3403 34.9764L43.3476 34.9853C43.3871 35.0377 43.4209 35.0877 43.454 35.1384C43.5729 35.3225 43.6805 35.5136 43.7763 35.7107L43.7931 35.7447C43.821 35.8021 43.8498 35.8636 43.8802 35.9303L43.9174 36.0129C43.948 36.0814 43.9778 36.1515 44.0085 36.2257L44.0286 36.2745C44.042 36.3074 44.0555 36.3409 44.0689 36.3748L44.0762 36.3941C44.1205 36.5061 44.1664 36.6278 44.2124 36.756L44.2388 36.83C44.2652 36.9048 44.2911 36.982 44.3171 37.0606L44.3419 37.1353C44.3748 37.2358 44.4074 37.3393 44.4396 37.4459L44.4582 37.5079L44.5049 37.6675C44.509 37.6819 44.5131 37.6963 44.5172 37.7109C44.5263 37.7429 44.5356 37.7753 44.5444 37.8085L44.5694 37.8988L25.0397 37.8867L25.0859 37.7395C25.1261 37.5964 25.1661 37.4611 25.2049 37.3363L25.2573 37.1702C25.2605 37.1605 25.2636 37.1508 25.2667 37.1413L25.2671 37.1401L25.2672 37.1398C25.2765 37.1111 25.2856 37.083 25.2952 37.055L25.3164 36.992C25.3445 36.9087 25.3724 36.8275 25.4007 36.7495C25.4757 36.5303 25.5563 36.3272 25.6369 36.1435C25.6562 36.0975 25.6764 36.0516 25.6957 36.0081L25.7322 35.9253C25.7643 35.8535 25.7989 35.7809 25.8376 35.7042C25.959 35.4498 26.1033 35.207 26.2687 34.9789L26.2849 34.9563L26.2978 34.94C26.3359 34.8919 26.3693 34.8499 26.3961 34.8209L26.4082 34.808C26.442 34.7677 26.4823 34.7274 26.5226 34.6871C26.7755 34.436 27.053 34.211 27.3511 34.0158L27.443 33.9553C27.489 33.9255 27.5349 33.8957 27.5841 33.8658L27.6253 33.8404C27.7227 33.7807 27.8282 33.7195 27.9459 33.6539C28.141 33.5475 28.3545 33.4387 28.581 33.3315C28.8413 33.2082 29.1097 33.0913 29.3805 32.9841L29.4342 32.9624L29.6137 32.8915C29.6479 32.8781 29.6825 32.8649 29.7174 32.852L29.7819 32.8278C29.9333 32.7713 30.0916 32.7147 30.2609 32.6565L30.4089 32.6061C30.732 32.4973 31.0634 32.3947 31.4158 32.294ZM31.8709 32.1684C32.057 32.1186 32.2432 32.0707 32.4278 32.0251C32.628 32.3851 33.363 32.5431 33.753 32.603L33.8181 32.6126C34.1361 32.6568 34.4568 32.6792 34.7779 32.6795H34.8352C35.156 32.6792 35.4765 32.6569 35.7942 32.6126C36.1505 32.5628 36.9213 32.4154 37.1629 32.0646C37.1718 32.052 37.1799 32.0391 37.1874 32.026L37.1872 32.0259L37.1901 32.021C37.1892 32.0227 37.1883 32.0243 37.1874 32.026C37.2996 32.0517 37.429 32.0844 37.5741 32.1227L37.7557 32.1711C37.545 32.3809 37.2928 32.5445 37.0153 32.6513L36.9489 32.6774C36.616 32.8053 36.2694 32.8942 35.9159 32.9422C35.1851 33.0454 34.4433 33.0454 33.7125 32.9422C33.3332 32.8903 32.9618 32.7918 32.6067 32.6489C32.3294 32.5408 32.0777 32.3761 31.8677 32.1653L31.8709 32.1684ZM32.7018 29.5693V31.8429C32.7373 31.967 33.1112 32.1806 33.864 32.2862C34.1674 32.3285 34.4733 32.3498 34.7796 32.3499H34.8352C35.1412 32.3498 35.4468 32.3285 35.7499 32.2862C36.0716 32.2408 36.324 32.176 36.5104 32.107L36.5266 32.1008C36.7731 32.0063 36.8969 31.9051 36.9065 31.8357C36.9065 31.8202 36.9087 31.805 36.9128 31.7904L36.9129 29.5764C36.7987 29.6754 36.6789 29.7679 36.5542 29.8535L36.4914 29.8957C36.0885 30.1684 35.626 30.3371 35.1448 30.3889C35.0588 30.3986 34.9721 30.4046 34.8851 30.4067H34.728L34.7229 30.4065L34.7215 30.4067C34.6329 30.4043 34.5448 30.398 34.4572 30.3878L34.3757 30.3772L34.3288 30.37L34.2612 30.3584L34.2071 30.3479C33.8415 30.2736 33.4917 30.1312 33.1766 29.9265L33.1338 29.8982C32.9822 29.799 32.8378 29.6891 32.7018 29.5693ZM34.732 20.1416L34.8078 20.1422C35.621 20.1293 37.1233 20.3251 38.0316 21.7976C38.6763 22.8428 38.6144 24.4685 38.5677 25.0419L38.5619 25.1092V25.1197L38.7086 25.1321L38.5643 25.1286L38.5642 25.1295L38.5619 25.1294C38.5581 25.1656 38.5545 25.1972 38.5514 25.2231L38.5409 25.3043C38.5405 25.3088 38.5405 25.3134 38.5409 25.318L38.5361 25.3792C38.5232 25.4953 38.5111 25.5952 38.495 25.7016C38.4789 25.808 38.4611 25.9111 38.4426 26.0087L38.4332 26.0582C38.4267 26.0912 38.4198 26.1242 38.4128 26.1553L38.3922 26.2486L38.3813 26.2948V26.302C38.3761 26.3246 38.3707 26.346 38.3652 26.3667L38.3491 26.4278L38.3491 26.4365C38.3383 26.4798 38.3267 26.5175 38.3144 26.5567L38.2974 26.6116L38.2825 26.6585L38.279 26.6687C38.2427 26.7872 38.2016 26.9105 38.1524 27.0459V27.054C38.1331 27.1082 38.1127 27.1625 38.0929 27.2151L38.0783 27.2539L38.0032 27.4407C37.757 28.0449 37.4038 28.6001 36.9604 29.0793L36.9754 29.063C36.9687 29.0679 36.9624 29.0733 36.9564 29.0793C36.7609 29.2868 36.5418 29.4707 36.3036 29.6274L36.2641 29.6538C35.8539 29.9229 35.3763 30.0722 34.8851 30.0843H34.728C34.7118 30.0839 34.6956 30.0833 34.6794 30.0826L34.6383 30.0804L34.5781 30.076C34.1254 30.0377 33.6891 29.8836 33.3119 29.6274L33.2574 29.5908C33.0406 29.4424 32.8403 29.2713 32.6599 29.0801C32.6552 29.0752 32.6503 29.0706 32.645 29.0666C32.1919 28.5737 31.8338 28.0012 31.5888 27.378L31.5396 27.2555C31.5313 27.2337 31.523 27.2116 31.5147 27.1893L31.4647 27.0548L31.4502 27.0467C31.3938 26.8896 31.3398 26.7243 31.289 26.5567C31.2833 26.5374 31.277 26.5146 31.2709 26.4929L31.2708 26.4927L31.2649 26.4716L31.2483 26.4141C31.2453 26.4034 31.2423 26.3918 31.2392 26.3794L31.2209 26.305C31.2199 26.3005 31.2189 26.2961 31.2178 26.2915C31.2171 26.288 31.2163 26.2845 31.2155 26.2809C31.2128 26.2684 31.2098 26.255 31.206 26.2392L31.198 26.2056C31.1927 26.1829 31.1877 26.1596 31.1834 26.136V26.1279C31.1754 26.0949 31.1681 26.061 31.1617 26.0248L31.1568 26.0022L31.1254 25.822C31.1218 25.8004 31.1184 25.7782 31.1157 25.7556C31.1157 25.7545 31.1163 25.7543 31.117 25.754C31.1182 25.7534 31.1195 25.7529 31.1157 25.7459C31.1101 25.7354 31.1101 25.7242 31.1101 25.7137V25.6927C31.1077 25.6763 31.1053 25.6596 31.103 25.6427L31.0838 25.5017C31.0787 25.4625 31.074 25.4215 31.0698 25.3792L31.0652 25.3383L31.0641 25.318C31.0646 25.3129 31.0646 25.3077 31.0641 25.3027L31.0552 25.2284L31.0553 25.1995C31.0547 25.193 31.0538 25.1858 31.0528 25.178C31.0506 25.1617 31.048 25.1423 31.048 25.1189L31.0475 25.1065C31.0466 25.0942 31.0443 25.0823 31.0407 25.0708L31.0366 25.022C30.9899 24.432 30.9345 22.8332 31.5735 21.7976C32.4553 20.3693 33.8968 20.1422 34.732 20.1416ZM38.8991 25.2504L38.8834 25.253L38.8742 25.3272C38.873 25.3356 38.872 25.342 38.8714 25.3462L38.8665 25.4066C38.8545 25.5187 38.8425 25.6198 38.8289 25.7108L38.823 25.7491L38.8187 25.7759L38.8187 25.7762C38.8036 25.8705 38.7866 25.9767 38.769 26.0715C38.7625 26.107 38.7557 26.1417 38.7486 26.1762L38.7376 26.2279L38.735 26.2396C38.7249 26.2858 38.7165 26.324 38.7061 26.3657V26.3738L38.6985 26.4047C38.8064 26.3991 38.907 26.344 38.9697 26.2537C39.0472 26.1471 39.0599 26.0065 39.0027 25.8878C38.9788 25.8504 38.9896 25.8006 39.0269 25.7765C39.0643 25.7526 39.114 25.7634 39.1381 25.8007C39.223 25.9622 39.2177 26.1562 39.124 26.3127C39.0304 26.4692 38.8619 26.5657 38.6795 26.5672L38.6828 26.5688C38.6737 26.5688 38.6646 26.5684 38.6555 26.5678L38.6439 26.6086L38.632 26.6486C38.6183 26.6937 38.607 26.7292 38.5933 26.7679C38.5733 26.8329 38.5512 26.9012 38.527 26.9729L38.5208 26.9726C38.8551 27.0034 39.1796 26.8525 39.3715 26.5786L39.3864 26.5567C39.5606 26.306 39.6192 25.9927 39.5475 25.696C39.5073 25.5287 39.3972 25.3867 39.2453 25.3059C39.1453 25.2577 39.0344 25.2377 38.9244 25.2476L38.8991 25.2504ZM30.3654 25.3035C30.4482 25.2638 30.5388 25.2431 30.6305 25.243C30.6676 25.2436 30.7046 25.2476 30.741 25.2551V25.2736C30.7435 25.2825 30.7436 25.29 30.7437 25.2971C30.7438 25.3036 30.7439 25.3098 30.7458 25.3164C30.7482 25.3246 30.7492 25.3316 30.7496 25.3374L30.7498 25.347C30.7511 25.3691 30.7535 25.3912 30.7571 25.4131C30.759 25.4324 30.761 25.4517 30.7632 25.4708L30.7764 25.5831C30.7829 25.6379 30.7901 25.6903 30.7982 25.7443V25.7628L30.8054 25.8064C30.8078 25.8249 30.8107 25.8434 30.8136 25.8614L30.8309 25.9636C30.8361 25.9931 30.8417 26.0227 30.8473 26.0526L30.8498 26.0659L30.8538 26.0893L30.8811 26.2188L30.9021 26.3141L30.9215 26.3947V26.4036L30.9223 26.4068C30.8074 26.4069 30.6988 26.3504 30.633 26.2545C30.556 26.1479 30.5436 26.0078 30.6007 25.8894C30.6247 25.852 30.6139 25.8022 30.5765 25.7782C30.5391 25.7542 30.4894 25.765 30.4653 25.8023C30.3804 25.9638 30.3858 26.1578 30.4794 26.3143C30.5731 26.4708 30.7415 26.5673 30.9239 26.5688C30.9377 26.569 30.9514 26.5686 30.9651 26.5675L30.97 26.5671L30.9771 26.5664C30.9747 26.5666 30.9724 26.5669 30.97 26.5671C30.9684 26.5672 30.9668 26.5674 30.9651 26.5675L30.965 26.5675L30.9884 26.6478C31.0214 26.7574 31.0553 26.8646 31.0907 26.9702C30.7475 27.002 30.4148 26.8421 30.2251 26.5543L30.2081 26.529C30.0467 26.2829 29.9941 25.9804 30.064 25.6935C30.104 25.5264 30.2137 25.3843 30.3654 25.3035Z" fill="#32335C"/>
<path fill-rule="evenodd" clip-rule="evenodd" d="M37.1874 32.026C37.1883 32.0243 37.1892 32.0227 37.1901 32.021L37.1872 32.0259L37.1874 32.026ZM30.97 26.5671L30.9771 26.5664C30.9747 26.5666 30.9724 26.5669 30.97 26.5671Z" fill="#32335C"/>
<g style="mix-blend-mode:multiply" opacity="0.15">
<path fill-rule="evenodd" clip-rule="evenodd" d="M33.4215 26.9064C33.4215 27.3984 33.0606 27.7972 32.6155 27.7972C32.1704 27.7972 31.8096 27.3984 31.8096 26.9064C31.8096 26.4144 32.1704 26.0156 32.6155 26.0156C33.0606 26.0156 33.4215 26.4144 33.4215 26.9064ZM37.7736 26.9064C37.7736 27.3984 37.4128 27.7972 36.9677 27.7972C36.5225 27.7972 36.1617 27.3984 36.1617 26.9064C36.1617 26.4144 36.5225 26.0156 36.9677 26.0156C37.4128 26.0156 37.7736 26.4144 37.7736 26.9064Z" fill="#FF1300"/>
</g>
<path d="M34.7865 27.8436C34.4568 27.8436 34.153 27.73 33.9749 27.5406C33.9403 27.5039 33.928 27.4515 33.9425 27.4032C33.957 27.3549 33.9962 27.3181 34.0453 27.3065C34.0943 27.2949 34.1458 27.3104 34.1804 27.3471C34.3045 27.4793 34.5366 27.5615 34.7865 27.5615C35.0363 27.5615 35.27 27.4809 35.3925 27.3471C35.4271 27.3104 35.4786 27.2949 35.5277 27.3065C35.5767 27.3181 35.6159 27.3549 35.6304 27.4032C35.645 27.4515 35.6326 27.5039 35.5981 27.5406C35.4183 27.73 35.1161 27.8436 34.7865 27.8436Z" fill="#32335C"/>
<path d="M35.0022 28.2286H34.5718C34.5273 28.2286 34.4912 28.1925 34.4912 28.148C34.4912 28.1035 34.5273 28.0674 34.5718 28.0674H35.0022C35.0467 28.0674 35.0828 28.1035 35.0828 28.148C35.0828 28.1925 35.0467 28.2286 35.0022 28.2286Z" fill="#32335C"/>
<path d="M34.7896 26.7881C34.6136 26.7905 34.4481 26.7045 34.3488 26.5592C34.3065 26.4938 34.3253 26.4065 34.3907 26.3642C34.4561 26.3219 34.5434 26.3407 34.5857 26.4061C34.6348 26.4699 34.711 26.507 34.7914 26.5062C34.8719 26.5054 34.9474 26.4668 34.9951 26.4021C35.0357 26.3353 35.1226 26.314 35.1894 26.3545C35.2561 26.395 35.2774 26.482 35.2369 26.5487C35.1394 26.7007 34.9701 26.7913 34.7896 26.7881V26.7881Z" fill="#32335C"/>
<path d="M33.1664 25.8178C33.5243 25.8178 33.5251 25.2617 33.1664 25.2617C32.8078 25.2617 32.8078 25.8178 33.1664 25.8178Z" fill="#32335C"/>
<path d="M36.4689 25.8178C36.8259 25.8178 36.8267 25.2617 36.4689 25.2617C36.111 25.2617 36.1102 25.8178 36.4689 25.8178Z" fill="#32335C"/>
<path d="M33.8966 24.8546C33.8708 24.8547 33.8454 24.8486 33.8224 24.8368C33.1882 24.5104 32.5329 24.8368 32.5329 24.8368C32.4537 24.8776 32.3565 24.8464 32.3157 24.7671C32.275 24.6879 32.3062 24.5907 32.3854 24.5499C32.4177 24.5338 33.1914 24.1469 33.9732 24.5499C34.0394 24.5839 34.0738 24.6587 34.0564 24.7311C34.039 24.8035 33.9743 24.8545 33.8998 24.8546H33.8966Z" fill="#32335C"/>
<path d="M37.168 24.8548C37.1425 24.8547 37.1174 24.8487 37.0947 24.837C36.4596 24.5106 35.8052 24.837 35.8052 24.837C35.7537 24.8653 35.6909 24.8633 35.6413 24.8319C35.5917 24.8005 35.5631 24.7445 35.5667 24.6859C35.5703 24.6273 35.6054 24.5753 35.6585 24.5501C35.6907 24.5332 36.4644 24.1471 37.2462 24.5501C37.3134 24.5844 37.3477 24.6607 37.329 24.7337C37.3103 24.8067 37.2434 24.857 37.168 24.8548Z" fill="#32335C"/>
<path d="M34.8224 18.8737C35.245 18.8731 35.666 18.9251 36.0757 19.0284C35.9858 18.8195 35.8722 18.6215 35.7372 18.4385C35.31 17.863 34.5154 17.2376 33.1025 17.3464C30.6089 17.5398 29.7305 20.6847 29.4468 22.4239C29.2363 23.7117 28.5274 24.4456 27.9103 25.0845C27.1872 25.8331 26.5901 26.4513 27.0684 27.6771C27.0684 27.6771 26.4656 29.5936 28.6303 29.5227C28.6303 29.5227 29.4331 30.7042 30.5823 29.5227C31.1046 28.9851 31.2448 28.072 31.2335 27.1314C30.7984 27.2117 30.3574 27.0242 30.1133 26.6551C29.7135 26.0418 29.8941 25.3712 30.3164 25.1706C30.3459 25.1565 30.3763 25.1445 30.4075 25.1345V25.1351C30.5692 25.0818 30.7438 25.0818 30.9055 25.1351L31.0079 24.8272L31.8324 22.1055C31.8324 22.1055 31.8324 22.988 32.0605 23.5192C32.1003 23.61 32.1902 23.6686 32.2893 23.6683H37.4111C37.5135 23.6675 37.6049 23.6042 37.6416 23.5087C37.827 23.0251 37.827 22.249 37.827 22.249L38.7377 25.1351C38.8995 25.0818 39.0741 25.0818 39.2358 25.1351V22.6487C39.2358 20.9377 37.9028 19.4918 36.0749 19.0292C35.6652 18.9259 35.2442 18.8739 34.8216 18.8745C33.041 18.8745 31.5067 19.7773 30.8088 21.0752C31.3431 20.0804 32.3686 19.318 33.62 19.0155C34.0138 18.9211 34.4174 18.8735 34.8224 18.8737Z" fill="#78B2FF"/>
<path fill-rule="evenodd" clip-rule="evenodd" d="M35.8645 18.3394C35.9937 18.5127 36.1044 18.699 36.1947 18.8953C38.088 19.4056 39.401 20.9405 39.401 22.6512V25.1375C39.4011 25.1895 39.3762 25.2384 39.3339 25.2688C39.2917 25.2991 39.2375 25.3073 39.1882 25.2906C39.0574 25.247 38.916 25.247 38.7852 25.2906C38.77 25.2947 38.7543 25.2966 38.7385 25.2963C38.6682 25.2965 38.606 25.2512 38.5846 25.1843L37.9188 23.0743C37.8922 23.2417 37.8501 23.4063 37.7931 23.5659C37.7314 23.7241 37.5792 23.8283 37.4095 23.8287H32.2877C32.1242 23.8292 31.9761 23.7321 31.9113 23.582C31.8304 23.3806 31.7733 23.1705 31.7413 22.9558L31.1626 24.8667V24.878L31.0602 25.1859C31.0326 25.2696 30.9428 25.3155 30.8587 25.289C30.7381 25.2492 30.6084 25.2465 30.4866 25.2811L30.4606 25.289C30.447 25.2936 30.433 25.2963 30.419 25.2972C30.4068 25.3017 30.3949 25.3069 30.3832 25.3124C30.2317 25.3935 30.122 25.5354 30.0818 25.7025C30.0123 25.9894 30.0648 26.2917 30.2259 26.538L30.243 26.5632C30.5493 27.0291 31.0562 26.9912 31.2037 26.9662C31.2499 26.959 31.297 26.9723 31.3326 27.0025C31.3683 27.0326 31.3892 27.0767 31.3899 27.1234C31.4033 28.2936 31.1833 29.1061 30.7152 29.6055L30.6927 29.6291C30.3244 30.0167 29.9448 30.2093 29.5652 30.2093C29.5319 30.2093 29.4988 30.2077 29.4661 30.2045C28.9946 30.1634 28.673 29.8338 28.5497 29.6847C27.8711 29.6927 27.3835 29.5049 27.099 29.1294C26.7001 28.6039 26.8443 27.889 26.8967 27.6835C26.4363 26.4456 27.0337 25.7588 27.7075 25.0591L27.8996 24.8599C28.4762 24.2591 29.0936 23.5614 29.2855 22.3925L29.3008 22.3002C29.5625 20.7561 30.4436 17.385 33.088 17.1828C34.5879 17.0676 35.4252 17.747 35.8645 18.3394ZM33.1122 17.5052C30.6419 17.6946 29.8352 21.0232 29.6031 22.4457C29.3906 23.7461 28.701 24.49 28.0761 25.1371L27.8916 25.3282C27.2389 26.0088 26.8046 26.5481 27.2142 27.6058L27.2228 27.6212C27.2826 27.7223 27.4875 27.9721 28.0049 27.8423C28.0481 27.8316 28.0917 27.858 28.1024 27.9011C28.113 27.9443 28.0867 27.9879 28.0436 27.9986C27.9424 28.0262 27.8381 28.0411 27.7333 28.043C27.4688 28.043 27.2979 27.9411 27.1935 27.8397L27.1875 27.8703C27.1425 28.1102 27.0964 28.5887 27.3577 28.9295C27.5874 29.2309 28.0137 29.3744 28.6238 29.3534L28.6279 29.3599C28.6768 29.36 28.7227 29.3824 28.753 29.4201L28.7695 29.4426C28.8208 29.5105 29.0958 29.8497 29.4967 29.8837C29.8078 29.9103 30.1334 29.7508 30.4638 29.4107C30.862 29.0004 31.061 28.3121 31.0699 27.3079C30.6314 27.3258 30.2159 27.1114 29.9762 26.7438C29.7479 26.415 29.6729 26.0036 29.7707 25.6154C29.8356 25.3583 30.0083 25.1418 30.2446 25.0215V22.6439C30.2446 20.8878 31.6147 19.3299 33.5796 18.856C34.3007 18.6841 35.0497 18.6638 35.7791 18.7963C35.726 18.7053 35.6678 18.6173 35.605 18.5328C35.2149 18.0065 34.4646 17.4045 33.1122 17.5052ZM32.5184 19.6076C33.1822 19.2438 33.9724 19.0325 34.82 19.0325C35.2292 19.0321 35.6369 19.0825 36.0337 19.1824C37.8229 19.6377 39.073 21.0618 39.073 22.6479V24.9368C38.9969 24.9303 38.9203 24.933 38.8449 24.9449L37.9793 22.2006C37.9556 22.1244 37.8798 22.077 37.8009 22.0891C37.722 22.1012 37.6639 22.1692 37.6642 22.249C37.6642 22.2563 37.6617 22.9985 37.4893 23.4515L37.4847 23.461C37.4695 23.4884 37.4406 23.506 37.4087 23.5063L36.7616 23.5063C36.9372 22.8074 36.7121 22.0098 36.655 21.8274L36.643 21.7904C36.6285 21.7484 36.5827 21.726 36.5407 21.7404C36.5203 21.7472 36.5035 21.7619 36.494 21.7811C36.4845 21.8003 36.483 21.8225 36.4899 21.8428C36.4937 21.8527 36.799 22.7663 36.5951 23.5063L34.8492 23.5062C34.7067 22.9043 34.8274 22.1603 34.8799 21.8874L34.9031 21.7715C34.9082 21.7315 34.8826 21.6932 34.8425 21.6832C34.8217 21.6781 34.7997 21.6816 34.7814 21.6928C34.7631 21.704 34.75 21.722 34.745 21.7429L34.7437 21.7478C34.7217 21.8338 34.5142 22.7493 34.6798 23.5063L33.0885 23.5063C32.9999 23.2337 32.8692 22.5924 33.2242 21.7944C33.2329 21.7749 33.2334 21.7527 33.2257 21.7327C33.218 21.7128 33.2027 21.6967 33.1831 21.6881C33.1635 21.6794 33.1413 21.6789 33.1214 21.6866C33.1014 21.6943 33.0854 21.7096 33.0767 21.7292C32.7326 22.4983 32.8103 23.1242 32.9013 23.4577L32.9153 23.5063L32.2869 23.5063C32.2521 23.5067 32.2204 23.4864 32.2063 23.4547C32.0281 23.0457 31.9975 22.3946 31.9922 22.1777L31.9911 22.1047C31.9919 22.0242 31.9332 21.9554 31.8535 21.9436C31.7738 21.9319 31.6977 21.9807 31.6752 22.058L30.8507 24.7797V24.7845L30.7967 24.9457C30.7473 24.9383 30.6975 24.9346 30.6476 24.9344L30.5678 24.9343L30.5678 22.6439C30.5678 21.4185 31.3071 20.2958 32.4649 19.6373L32.5184 19.6076Z" fill="#32335C"/>
<path fill-rule="evenodd" clip-rule="evenodd" d="M35.9679 18.8095C35.9892 18.8496 35.9854 18.8984 35.9581 18.9347C35.9308 18.971 35.8849 18.9882 35.8405 18.9788C35.5054 18.9112 35.1644 18.8772 34.8226 18.8772V18.8772C34.4668 18.8773 34.1119 18.914 33.7636 18.9869C33.7288 18.9947 33.6923 18.9863 33.6644 18.964C33.6365 18.9418 33.6202 18.9081 33.6201 18.8724V18.8724C33.6187 18.6416 33.7729 18.4387 33.9957 18.3784C34.3108 18.2978 34.829 18.2381 35.5625 18.4009C35.6795 18.4275 35.7814 18.499 35.8462 18.6C35.8905 18.6693 35.9316 18.7394 35.9679 18.8095Z" fill="#F26E29"/>
<path fill-rule="evenodd" clip-rule="evenodd" d="M35.5951 18.2404C35.753 18.2767 35.8906 18.3729 35.9788 18.5088C36.0132 18.5626 36.0468 18.6177 36.0784 18.6736L36.1093 18.7296C36.1612 18.8241 36.1527 18.9403 36.0876 19.0262C36.0235 19.1137 35.9141 19.1556 35.8079 19.1334C35.1426 19.0006 34.4573 19.0033 33.793 19.1415C33.774 19.1455 33.7545 19.1477 33.735 19.1479C33.581 19.1479 33.4561 19.023 33.4561 18.869C33.4553 18.6763 33.5368 18.4986 33.6714 18.3742C33.3501 18.2503 32.9832 18.2871 32.6897 18.4838C32.5036 18.5995 32.3398 18.7478 32.2061 18.9214C32.1899 18.9437 32.1635 18.9562 32.136 18.9545C32.119 18.9548 32.1024 18.9497 32.0885 18.94C32.071 18.9275 32.0592 18.9086 32.0557 18.8874C32.0528 18.8698 32.0559 18.8517 32.0643 18.8362L32.0699 18.8271L32.0708 18.8259C32.1016 18.7852 32.8459 17.7996 33.823 18.2689C33.8635 18.2483 33.9066 18.2316 33.9518 18.2194C34.2742 18.134 34.8214 18.0687 35.5951 18.2404ZM37.3908 20.4334C37.1726 20.1591 36.8691 19.9654 36.5284 19.8829C36.4839 19.8738 36.4404 19.9025 36.4313 19.947C36.4222 19.9915 36.4509 20.035 36.4954 20.0441L36.5245 20.0517C36.633 20.0815 37.0192 20.2059 37.261 20.5333C37.2764 20.5538 37.3007 20.5658 37.3263 20.5656C37.3438 20.5645 37.3605 20.5577 37.3739 20.5462C37.3911 20.5335 37.4026 20.5145 37.4057 20.4933C37.4089 20.4721 37.4035 20.4506 37.3908 20.4334ZM30.2307 27.9081C30.2709 27.9239 30.2915 27.9685 30.2775 28.0093C30.2119 28.1765 30.1329 28.3383 30.0414 28.4929C30.0272 28.518 30.0008 28.5336 29.972 28.534C29.9431 28.534 29.9164 28.5184 29.902 28.4933C29.8877 28.4681 29.888 28.4372 29.9027 28.4123C29.9897 28.2645 30.0649 28.1101 30.1276 27.9505C30.1451 27.911 30.1905 27.8923 30.2307 27.9081ZM29.7438 28.7311C29.7722 28.7358 29.796 28.7553 29.8062 28.7823C29.8164 28.8093 29.8114 28.8397 29.7931 28.862C29.2845 29.48 28.5508 29.5663 28.2164 29.571L28.1861 29.5712L28.1552 29.571C28.0928 29.57 28.0499 29.5665 28.04 29.5656L28.04 29.5656L28.0394 29.5656C27.9949 29.5609 27.9626 29.521 27.9672 29.4765C27.9716 29.4352 28.0063 29.4044 28.0468 29.4039L28.098 29.4067C28.2938 29.4145 29.133 29.4101 29.6682 28.7596C29.6865 28.7373 29.7153 28.7264 29.7438 28.7311ZM34.0332 18.5305C34.2424 18.4782 34.4575 18.4527 34.6731 18.4548C34.9599 18.4569 35.2455 18.4905 35.525 18.5547C35.6005 18.5726 35.6661 18.6191 35.708 18.6845L35.7261 18.7116C35.7441 18.7396 35.762 18.7701 35.7789 18.7997C35.1184 18.6799 34.4412 18.6851 33.7826 18.815C33.8024 18.679 33.9007 18.5674 34.0332 18.5305Z" fill="#32335C"/>
<path d="M34.7361 36.3875C33.2048 36.3875 31.8653 34.7708 31.3173 32.2683C31.2981 32.1813 31.3532 32.0952 31.4402 32.0761C31.5272 32.0569 31.6133 32.112 31.6324 32.199C32.1385 34.5112 33.3861 36.0675 34.7361 36.0675C36.0861 36.0675 37.3329 34.5137 37.8398 32.199C37.859 32.112 37.945 32.0569 38.032 32.0761C38.119 32.0952 38.1741 32.1813 38.1549 32.2683C37.6061 34.7708 36.2642 36.3875 34.7361 36.3875Z" fill="#32335C"/>
<path fill-rule="evenodd" clip-rule="evenodd" d="M34.7017 36.2256C34.7017 36.2256 33.7748 36.4795 34.1706 37.2338C34.308 37.4998 34.4874 37.742 34.7017 37.9511C34.7017 37.9511 36.2733 36.6874 34.7017 36.2256Z" fill="#EBB759"/>
<path fill-rule="evenodd" clip-rule="evenodd" d="M34.594 38.0703C34.6233 38.097 34.6615 38.1119 34.7012 38.1122C34.739 38.1127 34.7758 38.0999 34.8051 38.076C34.8938 38.0043 35.6723 37.3579 35.5506 36.7446C35.4894 36.4359 35.2194 36.2086 34.7495 36.0708C34.7209 36.0623 34.6904 36.0623 34.6617 36.0708C34.6399 36.0764 34.1394 36.2175 33.9686 36.6092C33.8767 36.8252 33.8968 37.0565 34.0298 37.3087C34.1751 37.5916 34.3657 37.8489 34.594 38.0703ZM34.2603 36.7389C34.3393 36.5559 34.5754 36.4391 34.7011 36.3947H34.7028C35.0195 36.4955 35.1976 36.6341 35.2298 36.8082C35.2911 37.112 34.9397 37.515 34.7092 37.7294C34.5533 37.5564 34.4196 37.3647 34.3111 37.1588C34.2256 36.9952 34.2087 36.8581 34.2603 36.7389Z" fill="#32335C"/>
<path fill-rule="evenodd" clip-rule="evenodd" d="M33.7278 35.9559C33.7278 35.9559 32.9686 35.7947 32.9727 36.4814C32.9726 36.7232 33.0112 36.9634 33.0871 37.193C33.0871 37.193 34.6829 36.8707 33.7278 35.9559Z" fill="#FF8EC1"/>
<path fill-rule="evenodd" clip-rule="evenodd" d="M32.9364 37.2505C32.96 37.3134 33.02 37.3552 33.0872 37.3553C33.0999 37.3559 33.1126 37.3548 33.125 37.352C33.2177 37.3335 34.0317 37.1546 34.1776 36.6525C34.2477 36.3962 34.1397 36.123 33.8447 35.8409C33.8225 35.8195 33.7945 35.8049 33.7642 35.799C33.7636 35.7989 33.7629 35.7988 33.7622 35.7986C33.7066 35.7882 33.3102 35.7139 33.0388 35.9352C32.934 36.0198 32.8115 36.1842 32.8115 36.4832C32.8114 36.7441 32.8536 37.0032 32.9364 37.2505ZM33.2412 36.1817C33.3311 36.1221 33.4382 36.0938 33.5458 36.1011H33.5466C33.5815 36.0997 33.6165 36.1005 33.6514 36.1035C33.7819 36.2357 33.9061 36.4074 33.8625 36.5581C33.7997 36.7741 33.4346 36.9248 33.1976 36.9957C33.1565 36.826 33.1351 36.6521 33.134 36.4775C33.1216 36.3676 33.1612 36.2582 33.2412 36.1817Z" fill="#32335C"/>
<path fill-rule="evenodd" clip-rule="evenodd" d="M35.7442 35.9559C35.7442 35.9559 36.5034 35.7947 36.4994 36.4814C36.4994 36.7233 36.4605 36.9635 36.3841 37.193C36.3841 37.193 34.7891 36.8707 35.7442 35.9559Z" fill="#FF8EC1"/>
<path fill-rule="evenodd" clip-rule="evenodd" d="M36.3531 37.354C36.3635 37.3552 36.374 37.3552 36.3845 37.354C36.4529 37.3568 36.5156 37.3161 36.5408 37.2524C36.6247 37.0054 36.6672 36.7461 36.6666 36.4852C36.6682 36.1862 36.5441 36.0177 36.4393 35.9371C36.1621 35.7131 35.7591 35.7921 35.7139 35.8009C35.6836 35.8069 35.6556 35.8214 35.6333 35.8428C35.3384 36.1249 35.2263 36.3981 35.3005 36.6544C35.4464 37.1565 36.2604 37.3355 36.3531 37.354ZM35.6092 36.5618C35.5657 36.4111 35.6922 36.2362 35.8203 36.1064H35.8211C35.9227 36.0935 36.1169 36.0919 36.2289 36.1838C36.3098 36.2601 36.3501 36.3699 36.3378 36.4804C36.3363 36.655 36.3146 36.8289 36.2733 36.9986C36.0371 36.9285 35.672 36.7778 35.6092 36.5618Z" fill="#32335C"/>
<path fill-rule="evenodd" clip-rule="evenodd" d="M33.0367 35.4352C33.0367 35.4352 32.5104 35.1185 32.3371 35.6335C32.2748 35.8151 32.2424 36.0057 32.2412 36.1977C32.2412 36.1977 33.5162 36.3629 33.0367 35.4352Z" fill="#F26E29"/>
<path fill-rule="evenodd" clip-rule="evenodd" d="M32.2185 36.3548C32.2963 36.3645 32.3747 36.3694 32.4531 36.3693C32.6932 36.3693 33.0503 36.325 33.2171 36.0864C33.3461 35.9043 33.3332 35.6593 33.1784 35.3611C33.1649 35.3345 33.1442 35.3122 33.1188 35.2966C33.0857 35.2773 32.7916 35.108 32.5143 35.2104C32.3514 35.2751 32.2288 35.4132 32.1839 35.5827C32.1154 35.7814 32.08 35.99 32.0791 36.2001C32.0815 36.2788 32.1405 36.3442 32.2185 36.3548ZM32.9535 35.9034C32.8697 36.0227 32.6078 36.0469 32.4095 36.0469V36.0461C32.4233 35.9235 32.45 35.8027 32.4893 35.6858C32.5361 35.5472 32.6029 35.5214 32.6255 35.5133C32.7235 35.4923 32.8258 35.5068 32.914 35.5544C32.9705 35.6737 33.0132 35.8172 32.9535 35.9034Z" fill="#32335C"/>
<path fill-rule="evenodd" clip-rule="evenodd" d="M36.436 35.4352C36.436 35.4352 36.9615 35.1185 37.1347 35.6335C37.197 35.8151 37.2297 36.0056 37.2314 36.1977C37.2314 36.1977 35.9564 36.3629 36.436 35.4352Z" fill="#F26E29"/>
<path fill-rule="evenodd" clip-rule="evenodd" d="M36.254 36.0884C36.4208 36.3254 36.7763 36.3697 37.0181 36.3697C37.0962 36.3703 37.1742 36.366 37.2518 36.3568C37.3301 36.3466 37.3895 36.281 37.392 36.202C37.3906 35.992 37.3552 35.7835 37.2872 35.5847C37.2421 35.4151 37.1192 35.2769 36.956 35.2123C36.6747 35.11 36.3846 35.2792 36.3523 35.2986C36.3266 35.314 36.3056 35.3363 36.2919 35.3631C36.138 35.6596 36.1251 35.9046 36.254 36.0884ZM36.5175 35.903C36.457 35.8168 36.5006 35.6733 36.5562 35.554C36.6441 35.5074 36.7456 35.4928 36.8431 35.5129C36.8448 35.5138 36.8467 35.5147 36.8488 35.5157C36.8755 35.5281 36.9361 35.5564 36.9801 35.6854C37.0196 35.8026 37.0466 35.9236 37.0607 36.0465C36.8648 36.0513 36.6021 36.0231 36.5175 35.903Z" fill="#32335C"/>
<path fill-rule="evenodd" clip-rule="evenodd" d="M30.2639 28.9117C29.7182 28.578 30.5113 27.5625 30.5113 27.5625C30.5113 27.5625 31.3035 28.5772 30.7595 28.9117C30.6069 29.0028 30.4165 29.0028 30.2639 28.9117Z" fill="#F26E29"/>
<path fill-rule="evenodd" clip-rule="evenodd" d="M30.1797 29.0492C30.2794 29.1102 30.3941 29.1423 30.5109 29.1419C30.6281 29.1424 30.743 29.1103 30.843 29.0492C30.9794 28.968 31.0734 28.831 31.1001 28.6745C31.1887 28.1909 30.6947 27.5389 30.6383 27.4656C30.6075 27.4266 30.5606 27.404 30.5109 27.4043C30.4616 27.4043 30.415 27.4268 30.3844 27.4656C30.3248 27.5357 29.8331 28.1861 29.9218 28.6745C29.9486 28.8312 30.0429 28.9682 30.1797 29.0492ZM30.2385 28.6172C30.2014 28.4133 30.3562 28.0861 30.5109 27.8443C30.6512 28.066 30.8228 28.3996 30.7825 28.6132C30.773 28.6808 30.7329 28.7403 30.6737 28.7744C30.5733 28.8348 30.4477 28.8348 30.3473 28.7744C30.2892 28.741 30.2493 28.6833 30.2385 28.6172Z" fill="#32335C"/>
<path d="M30.5114 28.9878C30.486 28.9878 30.4622 28.9759 30.4469 28.9556C30.2857 28.742 30.434 28.4591 30.4405 28.447C30.4528 28.4195 30.4794 28.4012 30.5095 28.3995C30.5396 28.3979 30.5681 28.4131 30.5834 28.439C30.5987 28.4649 30.5983 28.4972 30.5823 28.5228C30.5823 28.5276 30.4776 28.7283 30.5759 28.858C30.5887 28.8751 30.5942 28.8966 30.5912 28.9178C30.5882 28.939 30.5769 28.958 30.5598 28.9709C30.5459 28.9816 30.5289 28.9876 30.5114 28.9878Z" fill="#32335C"/>
<path d="M30.5113 27.6433C30.4667 27.6433 30.4307 27.6073 30.4307 27.5627V27.1509C30.4307 27.1064 30.4667 27.0703 30.5113 27.0703C30.5558 27.0703 30.5919 27.1064 30.5919 27.1509V27.566C30.5901 27.6092 30.5545 27.6434 30.5113 27.6433V27.6433Z" fill="#32335C"/>
<path fill-rule="evenodd" clip-rule="evenodd" d="M38.6721 28.8892C38.1265 28.5555 38.9195 27.54 38.9195 27.54C38.9195 27.54 39.7118 28.5555 39.1669 28.8892C39.0148 28.9811 38.8242 28.9811 38.6721 28.8892Z" fill="#F26E29"/>
<path fill-rule="evenodd" clip-rule="evenodd" d="M38.5868 29.0264C38.6871 29.0866 38.8018 29.1184 38.9188 29.1183C39.0359 29.1187 39.1509 29.0866 39.2509 29.0256C39.3873 28.9444 39.4812 28.8074 39.508 28.6509C39.5966 28.1673 39.1026 27.5145 39.0461 27.4419C39.0156 27.4027 38.9686 27.3798 38.9188 27.3799C38.8691 27.3798 38.8221 27.4027 38.7915 27.4419C38.7318 27.5129 38.241 28.1673 38.3289 28.6509C38.3556 28.8078 38.4499 28.9451 38.5868 29.0264ZM38.9184 27.8214C38.9186 27.8212 38.9187 27.821 38.9188 27.8208H38.918C38.9182 27.821 38.9183 27.8212 38.9184 27.8214ZM38.6472 28.5937C38.6102 28.39 38.7638 28.0631 38.9184 27.8214C39.0594 28.0431 39.2283 28.3763 39.1912 28.5937C39.1813 28.6599 39.1415 28.7179 39.0832 28.7508C38.9826 28.8114 38.8567 28.8114 38.756 28.7508C38.6976 28.7179 38.6575 28.66 38.6472 28.5937Z" fill="#32335C"/>
<path d="M38.8902 28.965C38.8727 28.965 38.8558 28.9593 38.8418 28.9489C38.8247 28.9361 38.8134 28.917 38.8104 28.8958C38.8074 28.8746 38.8129 28.8531 38.8257 28.836C38.9248 28.7055 38.82 28.5024 38.8192 28.5008C38.8048 28.4754 38.8051 28.4443 38.8198 28.4192C38.8346 28.3941 38.8616 28.3787 38.8907 28.3789C38.9199 28.3791 38.9467 28.3948 38.9611 28.4202C38.9675 28.4323 39.1158 28.7152 38.9546 28.9287C38.9403 28.9506 38.9163 28.9641 38.8902 28.965Z" fill="#32335C"/>
<path d="M38.9195 27.6202C38.875 27.6202 38.8389 27.5841 38.8389 27.5396V27.1245C38.8389 27.08 38.875 27.0439 38.9195 27.0439C38.964 27.0439 39.0001 27.08 39.0001 27.1245V27.5396C39.0001 27.5841 38.964 27.6202 38.9195 27.6202Z" fill="#32335C"/>
<path fill-rule="evenodd" clip-rule="evenodd" d="M38.6747 25.4977C38.8862 24.5225 38.8109 23.507 38.4579 22.5737C38.4418 22.531 38.4249 22.4931 38.4071 22.4472C38.3652 22.3464 38.3193 22.2473 38.2709 22.1506C37.9535 21.5085 37.4796 20.9567 36.8928 20.5459C36.8057 20.4855 36.7171 20.4291 36.6252 20.3767C36.5502 20.3332 36.4737 20.2961 36.3955 20.255C36.1046 20.1111 35.7959 20.0062 35.4775 19.9431H35.4574L35.4308 19.9383C34.9198 19.8445 34.3953 19.8524 33.8874 19.9616L33.8302 19.9729C33.592 20.0252 33.3584 20.096 33.1314 20.1849C33.083 20.2034 33.0363 20.2228 32.9904 20.2429C32.8104 20.3183 32.6359 20.4061 32.4681 20.5056C31.8563 20.8594 31.366 21.3902 31.0617 22.0281C31.0134 22.1304 30.9699 22.2336 30.9312 22.3368C30.915 22.3795 30.8997 22.423 30.886 22.4665C30.8812 22.4802 30.8764 22.4947 30.8723 22.5084C30.8433 22.5971 30.8183 22.6849 30.7966 22.7728C30.4597 24.1163 30.8232 25.3977 30.8232 25.3977C30.8232 25.3977 29.9826 24.3951 30.4202 22.3577C30.4323 22.3029 30.4452 22.2465 30.4589 22.1901C30.4806 22.0998 30.5056 22.0071 30.533 21.9128C30.5604 21.8185 30.5878 21.7363 30.6193 21.6517C30.6265 21.6307 30.6346 21.6098 30.6426 21.5888C30.7393 21.3406 30.8631 21.1038 31.0118 20.8828C31.45 20.253 32.0679 19.77 32.7848 19.4966C32.9283 19.4391 33.0742 19.3889 33.2225 19.3459C33.4926 19.2669 33.7685 19.2095 34.0478 19.1742H34.0703C34.8184 19.0785 35.5783 19.1417 36.3004 19.3596C36.3512 19.3749 36.4011 19.3918 36.4503 19.4096C36.5389 19.441 36.6244 19.4756 36.7074 19.5127C36.8502 19.5758 36.9879 19.6499 37.1192 19.7344C37.2201 19.7946 37.3172 19.8608 37.4102 19.9326C37.4722 19.9786 37.5407 20.0334 37.6149 20.0938C37.7132 20.1744 37.8212 20.2784 37.9324 20.3936C38.3974 20.8709 38.7438 21.4506 38.9439 22.0861C38.9595 22.1361 38.974 22.1869 38.9874 22.2384C39.0205 22.3609 39.0479 22.4883 39.068 22.6205C39.2066 23.4079 39.1341 24.3645 38.6747 25.4977Z" fill="#F26E29"/>
<path fill-rule="evenodd" clip-rule="evenodd" d="M38.6275 25.6513C38.6427 25.6561 38.6584 25.6586 38.6743 25.6586C38.739 25.6606 38.7987 25.6238 38.8258 25.5651C39.2514 24.5133 39.3892 23.5147 39.236 22.5968C39.2119 22.4573 39.1828 22.3235 39.1498 22.2002C39.1353 22.1438 39.1208 22.0914 39.1047 22.039C38.8988 21.379 38.5398 20.7769 38.0569 20.2821C37.953 20.1749 37.8426 20.0701 37.7281 19.9718C37.654 19.9081 37.5814 19.8501 37.5153 19.8009C37.4179 19.7264 37.3165 19.6573 37.2115 19.5938C37.0741 19.5058 36.9303 19.4285 36.7811 19.3625C36.6892 19.3214 36.6014 19.2859 36.5127 19.2553C36.4612 19.236 36.4088 19.2182 36.3572 19.2029C35.6138 18.9783 34.8314 18.913 34.061 19.0111H34.0353C33.7476 19.0479 33.4634 19.1072 33.185 19.1884C33.0302 19.2335 32.8779 19.2859 32.7328 19.344C31.9406 19.6615 31.3184 20.1451 30.8848 20.7898C30.7281 21.0222 30.598 21.2714 30.4971 21.5329L30.4746 21.5926C30.453 21.6512 30.436 21.7052 30.4179 21.7625C30.4077 21.7951 30.3971 21.8288 30.3851 21.865C30.3521 21.9649 30.3263 22.06 30.3045 22.1495C30.2908 22.2067 30.2779 22.2639 30.265 22.3211C29.8129 24.4109 30.6624 25.4547 30.6994 25.4982C30.7485 25.5557 30.8309 25.5714 30.8977 25.536C30.9644 25.5006 30.9976 25.4235 30.9775 25.3507L30.9773 25.3501C30.9681 25.3161 30.633 24.081 30.9525 22.8087C30.9735 22.7233 30.9976 22.6379 31.0258 22.5516C31.0291 22.5403 31.0331 22.5291 31.0396 22.5121C31.0516 22.471 31.0661 22.4307 31.0815 22.3904C31.1185 22.2905 31.1612 22.1906 31.2064 22.0947C31.4981 21.4869 31.9663 20.9813 32.5499 20.6439C32.712 20.5477 32.8805 20.4628 33.0544 20.3901C33.0979 20.3707 33.1423 20.3522 33.189 20.3345C33.4095 20.2483 33.6364 20.1796 33.8676 20.1289L33.92 20.1193C34.4072 20.0142 34.9103 20.0062 35.4005 20.0959L35.4247 20.1007H35.4368H35.4457C35.5684 20.1249 35.6898 20.1558 35.8091 20.1934C35.9864 20.2488 36.1591 20.3177 36.3258 20.3997C36.3346 20.4043 36.3433 20.4088 36.3519 20.4133C36.4122 20.4444 36.4703 20.4743 36.545 20.5166C36.6304 20.565 36.7142 20.6182 36.8005 20.6778C37.3646 21.0735 37.8205 21.6045 38.1262 22.222C38.1778 22.3203 38.2197 22.417 38.2584 22.5097C38.2645 22.5253 38.2708 22.5406 38.277 22.5558C38.2872 22.5807 38.2973 22.6054 38.3068 22.6314C38.6489 23.5356 38.7217 24.5196 38.5163 25.4643C38.4994 25.546 38.5477 25.6272 38.6275 25.6513ZM34.094 19.3319C34.3155 19.3052 34.5383 19.2917 34.7613 19.2916C35.2711 19.2804 35.7797 19.3473 36.2693 19.4898C36.3168 19.5043 36.3644 19.5204 36.4119 19.5374C36.4925 19.5664 36.5731 19.5986 36.6537 19.6365C36.7891 19.6959 36.9195 19.766 37.0438 19.8461L37.0518 19.8509C37.1468 19.9082 37.2385 19.9706 37.3267 20.0379C37.3379 20.047 37.3493 20.0563 37.3608 20.0656C37.412 20.1073 37.4658 20.151 37.5217 20.1991C37.6281 20.2909 37.7321 20.3885 37.8288 20.4892C38.2771 20.9471 38.6104 21.5048 38.8015 22.1164C38.8169 22.1648 38.8306 22.2139 38.8443 22.2639C38.8765 22.3775 38.9031 22.5016 38.9249 22.6306C38.9941 23.0572 38.9998 23.4918 38.9418 23.9201C38.9022 23.4354 38.7936 22.9589 38.6194 22.5049C38.6025 22.4605 38.5847 22.4162 38.5662 22.3735C38.5259 22.2752 38.4784 22.172 38.4252 22.0664C38.0954 21.4005 37.6038 20.828 36.9954 20.4013C36.9011 20.3369 36.8044 20.2716 36.7166 20.2257C36.6862 20.2098 36.6568 20.194 36.6284 20.1786C36.5745 20.1496 36.5238 20.1223 36.4748 20.0991C36.1715 19.9505 35.8502 19.8422 35.5189 19.7767H35.5028H35.4939L35.4681 19.7719C34.9385 19.6747 34.395 19.6824 33.8683 19.7945L33.8031 19.8074C33.556 19.8616 33.3135 19.9349 33.0777 20.0266C33.0269 20.0459 32.9778 20.0661 32.9318 20.0862C32.7453 20.1648 32.5643 20.2561 32.3902 20.3594C31.751 20.7297 31.2386 21.2846 30.9202 21.9512C30.8702 22.0576 30.8251 22.1656 30.7848 22.2736C30.7671 22.3195 30.7509 22.3654 30.738 22.4065C30.7364 22.4112 30.7346 22.4158 30.7327 22.4205C30.7281 22.432 30.7235 22.4433 30.7235 22.4525C30.6921 22.5428 30.6655 22.6354 30.6429 22.7273C30.5392 23.1511 30.4891 23.5862 30.4938 24.0225C30.4296 23.476 30.4599 22.9226 30.5833 22.3864C30.5881 22.3664 30.5928 22.3457 30.5977 22.3246C30.6052 22.2922 30.6129 22.2589 30.6212 22.2252C30.6413 22.1406 30.6663 22.0495 30.6937 21.9544C30.7139 21.873 30.7421 21.7884 30.7743 21.7013C30.7779 21.6899 30.7822 21.6789 30.787 21.6667C30.7896 21.6599 30.7924 21.6527 30.7953 21.6449C30.8875 21.4078 31.0056 21.1816 31.1475 20.9703C31.5448 20.3836 32.117 19.9371 32.8488 19.6438C32.9842 19.589 33.1269 19.5406 33.2719 19.4979C33.5328 19.4212 33.7993 19.3657 34.069 19.3319H34.094Z" fill="#32335C"/>
<path fill-rule="evenodd" clip-rule="evenodd" d="M37.6194 20.0976C37.3558 20.1782 36.9819 20.2959 36.6248 20.3837C36.2627 20.1737 35.868 20.0258 35.457 19.9461C35.764 19.7233 36.0996 19.5431 36.4548 19.4102C36.6894 19.4915 36.9139 19.5997 37.1237 19.7325C37.2994 19.8394 37.4653 19.9615 37.6194 20.0976Z" fill="#53607E"/>
<path fill-rule="evenodd" clip-rule="evenodd" d="M36.5445 20.519C36.5689 20.5332 36.5967 20.5407 36.6251 20.5408C36.6381 20.541 36.6511 20.5396 36.6637 20.5367C37.0329 20.4457 37.4141 20.328 37.6688 20.2474C37.7243 20.2295 37.7658 20.183 37.7773 20.1259C37.7888 20.0687 37.7686 20.0098 37.7244 19.9718C37.5635 19.8309 37.3907 19.7045 37.2078 19.5938C36.9886 19.4543 36.7541 19.3404 36.509 19.2545C36.4732 19.242 36.4343 19.242 36.3986 19.2545C36.0296 19.3926 35.681 19.5799 35.3621 19.8114C35.3103 19.8492 35.2858 19.9142 35.2998 19.9768C35.3138 20.0394 35.3636 20.0878 35.4266 20.0999C35.8199 20.1765 36.1977 20.3182 36.5445 20.519ZM36.6485 20.2071C36.3966 20.0669 36.1302 19.9547 35.8538 19.8726C36.0459 19.757 36.2473 19.6575 36.4559 19.5752C36.6591 19.6501 36.8536 19.7465 37.0362 19.863L37.0442 19.8686C37.1262 19.9178 37.2053 19.9716 37.2812 20.0298C37.0885 20.0886 36.8677 20.1523 36.6485 20.2071Z" fill="#32335C"/>
<path fill-rule="evenodd" clip-rule="evenodd" d="M37.9366 20.3941C37.5909 20.4678 37.241 20.5197 36.8889 20.5496C36.8018 20.4892 36.7132 20.4328 36.6213 20.3804C36.5463 20.3369 36.4698 20.2998 36.3916 20.2587V20.2587C36.7115 20.0951 37.0558 19.9843 37.4111 19.9307C37.4732 19.9766 37.5417 20.0314 37.6158 20.0919C37.7174 20.1789 37.8254 20.2788 37.9366 20.3941Z" fill="#FF9966"/>
<path fill-rule="evenodd" clip-rule="evenodd" d="M36.8014 20.6818C36.8283 20.7006 36.8604 20.7107 36.8933 20.7108L36.9078 20.7124C37.2659 20.681 37.6218 20.6272 37.9732 20.5512C38.03 20.5385 38.0755 20.496 38.0922 20.4402C38.1089 20.3844 38.0943 20.324 38.0538 20.2821C37.9498 20.1749 37.8394 20.0701 37.725 19.9718C37.6508 19.9081 37.5783 19.8501 37.5114 19.8001C37.4772 19.7748 37.4343 19.7641 37.3921 19.7703C37.0175 19.8263 36.6546 19.9434 36.3178 20.1168C36.2648 20.146 36.2326 20.2025 36.2345 20.263C36.2363 20.3235 36.2719 20.3779 36.3267 20.4038C36.3355 20.4083 36.3442 20.4128 36.3529 20.4173C36.4131 20.4484 36.4712 20.4783 36.5459 20.5206C36.6313 20.569 36.7151 20.6222 36.8014 20.6818ZM36.9368 20.3836C36.8771 20.3433 36.8175 20.3062 36.7586 20.2707C36.9572 20.1933 37.1629 20.1355 37.3728 20.0982C37.4179 20.1337 37.4655 20.1724 37.5146 20.2143L37.6041 20.2949C37.3833 20.3328 37.1471 20.365 36.9368 20.3836Z" fill="#32335C"/>
<path fill-rule="evenodd" clip-rule="evenodd" d="M31.0613 22.0271C31.013 22.1294 30.9694 22.2326 30.9307 22.3358C30.9146 22.3785 30.8993 22.422 30.8856 22.4655C30.8808 22.4792 30.8759 22.4937 30.8719 22.5074C30.7159 22.2483 30.6298 21.9531 30.6221 21.6507C30.6293 21.6298 30.6374 21.6088 30.6454 21.5878C30.7421 21.3396 30.8659 21.1028 31.0146 20.8818C30.9944 21.1567 31.0412 21.6386 31.0613 22.0271Z" fill="#53607E"/>
<path fill-rule="evenodd" clip-rule="evenodd" d="M30.7366 22.5959C30.7664 22.6412 30.817 22.6684 30.8712 22.6684L30.8946 22.67C30.9565 22.6607 31.0074 22.6164 31.0251 22.5564C31.0284 22.5451 31.0324 22.5338 31.0388 22.5169C31.0509 22.4758 31.0654 22.4355 31.0807 22.3952C31.1178 22.2953 31.1605 22.1953 31.2057 22.0986C31.2181 22.0737 31.2234 22.0458 31.221 22.018C31.2153 21.91 31.2081 21.794 31.2 21.6779C31.1765 21.4169 31.1679 21.1549 31.1742 20.8929C31.1792 20.8203 31.1348 20.7533 31.066 20.7295C30.9972 20.7058 30.921 20.7311 30.8801 20.7914C30.7233 21.0237 30.5933 21.273 30.4924 21.5344C30.4843 21.5554 30.4763 21.5772 30.469 21.5981C30.4621 21.6178 30.4591 21.6386 30.4602 21.6594C30.4675 21.9906 30.5629 22.3138 30.7366 22.5959ZM30.856 22.088C30.8168 21.953 30.7928 21.8141 30.7843 21.6738C30.7875 21.6649 30.7907 21.6561 30.7947 21.6464C30.8165 21.59 30.8399 21.5344 30.8649 21.4804C30.8689 21.5529 30.8737 21.6262 30.8786 21.6988C30.8858 21.7995 30.8923 21.8995 30.8971 21.9954C30.8935 22.0034 30.8899 22.0114 30.8862 22.0195C30.8759 22.0424 30.8655 22.0654 30.856 22.088Z" fill="#32335C"/>
<path fill-rule="evenodd" clip-rule="evenodd" d="M39.0748 22.6202C38.8682 22.6217 38.6618 22.6072 38.4575 22.5767C38.4414 22.534 38.4244 22.4961 38.4067 22.4501C38.3648 22.3494 38.3189 22.2503 38.2705 22.1535C38.4879 22.0777 38.7202 22.0545 38.9483 22.0858C38.9639 22.1358 38.9784 22.1866 38.9918 22.2382C39.0281 22.3607 39.0523 22.488 39.0748 22.6202Z" fill="#8BCBC9"/>
<path fill-rule="evenodd" clip-rule="evenodd" d="M38.4324 22.7364C38.6296 22.7653 38.8286 22.7804 39.0279 22.7815L39.0763 22.7847C39.1235 22.7839 39.168 22.7624 39.198 22.7259C39.2279 22.6897 39.2405 22.6424 39.2327 22.5961C39.2085 22.4567 39.1795 22.3229 39.1464 22.1996C39.1319 22.1432 39.1174 22.0908 39.1013 22.0384C39.0833 21.9795 39.0332 21.936 38.9723 21.9264C38.7182 21.8913 38.4594 21.917 38.2172 22.0013C38.1733 22.0164 38.1381 22.0496 38.1205 22.0924C38.1028 22.1354 38.1046 22.1838 38.1253 22.2254C38.1769 22.3237 38.2188 22.4204 38.2575 22.5131C38.2601 22.5196 38.2628 22.5261 38.2655 22.5326C38.2791 22.5658 38.2929 22.5995 38.305 22.6332C38.3255 22.6882 38.3743 22.7277 38.4324 22.7364ZM38.878 22.4559C38.7781 22.451 38.6741 22.4422 38.5718 22.4293H38.5726C38.5669 22.4156 38.5613 22.4019 38.5564 22.3882C38.5387 22.3454 38.5202 22.3019 38.5 22.2584C38.606 22.2368 38.7144 22.2286 38.8224 22.2342C38.8238 22.2396 38.8259 22.245 38.8279 22.2504C38.8316 22.2603 38.8353 22.2703 38.8353 22.2802C38.8498 22.3366 38.8643 22.3954 38.878 22.4559Z" fill="#32335C"/>
<path fill-rule="evenodd" clip-rule="evenodd" d="M39.1332 23.3806C38.9733 23.4086 38.8086 23.3752 38.6722 23.2871V23.2871C38.6191 23.0434 38.5471 22.8041 38.457 22.5714C38.6588 22.5528 38.8615 22.5474 39.0639 22.5553C39.1138 22.8275 39.137 23.1039 39.1332 23.3806Z" fill="#53607E"/>
<path fill-rule="evenodd" clip-rule="evenodd" d="M38.5903 23.4259C38.7187 23.5083 38.8681 23.5519 39.0206 23.5516C39.0659 23.5527 39.1112 23.55 39.156 23.5436C39.2345 23.5304 39.2917 23.462 39.2906 23.3824C39.294 23.0951 39.2694 22.8082 39.2173 22.5257C39.2036 22.4525 39.1417 22.3982 39.0674 22.3943C38.8577 22.3861 38.6477 22.3917 38.4387 22.4112C38.3882 22.4154 38.3426 22.4432 38.3157 22.4862C38.2887 22.5291 38.2835 22.5823 38.3017 22.6296C38.389 22.8543 38.4585 23.0855 38.5097 23.3211C38.5203 23.366 38.5497 23.4041 38.5903 23.4259ZM38.9723 23.2268C38.9164 23.2213 38.8619 23.2063 38.8111 23.1825H38.8127C38.7761 23.0256 38.734 22.8706 38.6861 22.7174C38.7667 22.7126 38.8473 22.7126 38.9279 22.7126C38.9533 22.8829 38.9681 23.0546 38.9723 23.2268Z" fill="#32335C"/>
<path fill-rule="evenodd" clip-rule="evenodd" d="M33.2801 19.9848C33.3873 20.0017 34.5584 20.2386 34.6503 18.8242C34.6503 18.8081 34.6382 18.8057 34.6229 18.8057C34.3447 18.8151 34.0681 18.851 33.7968 18.9129C32.8643 19.1288 33.2262 19.88 33.2673 19.9751C33.2695 19.9804 33.2744 19.9841 33.2801 19.9848V19.9848Z" fill="#53607E"/>
<path fill-rule="evenodd" clip-rule="evenodd" d="M33.2671 20.1464C33.3619 20.1622 33.4579 20.1703 33.554 20.1706C33.8354 20.1803 34.1116 20.0932 34.3366 19.924C34.6219 19.6975 34.7823 19.3316 34.8145 18.8367C34.8182 18.7882 34.8016 18.7404 34.7686 18.7046C34.7322 18.6663 34.6812 18.6452 34.6284 18.6465C34.3375 18.6562 34.0482 18.6934 33.7644 18.7578C33.4251 18.8367 33.1962 18.9907 33.0826 19.2164C33.0044 19.3727 32.9472 19.6403 33.1188 20.0312V20.0408C33.1431 20.0977 33.1954 20.1378 33.2566 20.1464H33.2671ZM34.1319 19.6701C33.949 19.816 33.6854 19.8748 33.3848 19.8377H33.3864C33.2937 19.5984 33.3236 19.4461 33.3671 19.359C33.4348 19.2236 33.5911 19.1261 33.8329 19.0705C34.0439 19.024 34.2576 18.9914 34.4728 18.973C34.4285 19.2921 34.3149 19.5242 34.1319 19.6701Z" fill="#32335C"/>
<path fill-rule="evenodd" clip-rule="evenodd" d="M33.0585 19.9937C32.8973 20.0219 31.4466 20.7118 31.0017 18.3326C30.9968 18.3093 31.0178 18.2996 31.0412 18.3036C31.34 18.3625 31.6423 18.4021 31.9462 18.4221C33.5324 18.5922 33.135 19.8349 33.0746 19.9784C33.0719 19.9857 33.0659 19.9914 33.0585 19.9937V19.9937Z" fill="#53607E"/>
<path fill-rule="evenodd" clip-rule="evenodd" d="M31.78 20.0866C31.9839 20.2086 32.2177 20.2719 32.4553 20.2695C32.654 20.2673 32.8512 20.2342 33.0397 20.1712L33.0872 20.1567C33.1507 20.1455 33.2038 20.1022 33.2274 20.0422C33.2379 20.0197 33.4757 19.4063 33.1662 18.8913C32.9542 18.5391 32.5496 18.3288 31.9629 18.2667C31.8581 18.2554 31.7751 18.2474 31.7026 18.2409C31.4907 18.2247 31.2801 18.1943 31.0723 18.1499C31.008 18.1362 30.941 18.1552 30.8934 18.2006C30.8512 18.2429 30.8322 18.303 30.8426 18.3618C31.0046 19.2298 31.3198 19.8101 31.78 20.0866ZM31.946 19.8102C31.6027 19.603 31.3504 19.1614 31.1997 18.4981C31.3993 18.5332 31.5143 18.5438 31.6692 18.5581L31.6736 18.5585L31.9291 18.5827C32.4062 18.6343 32.7326 18.7931 32.8898 19.0534C33.0703 19.3548 32.9905 19.7183 32.9486 19.8593H32.943C32.9411 19.8599 32.9393 19.8605 32.9374 19.8611C32.7546 19.9185 32.3377 20.0495 31.946 19.8102Z" fill="#32335C"/>
<path d="M32.9774 20.0651C32.3552 20.0651 31.8869 19.4583 31.866 19.4309C31.839 19.3952 31.8461 19.3445 31.8817 19.3176C31.9173 19.2907 31.968 19.2977 31.9949 19.3333C31.9949 19.339 32.4172 19.8798 32.9443 19.9031C32.8416 19.7129 32.7249 19.5306 32.5954 19.3575C32.5771 19.3352 32.5721 19.3048 32.5823 19.2778C32.5925 19.2508 32.6163 19.2313 32.6447 19.2267C32.6732 19.222 32.702 19.2328 32.7203 19.2552C32.8805 19.4725 33.0239 19.7018 33.149 19.941C33.1617 19.9647 33.1617 19.9931 33.149 20.0168C33.1365 20.0401 33.1133 20.0558 33.087 20.0587C33.0506 20.0632 33.014 20.0654 32.9774 20.0651V20.0651Z" fill="#32335C"/>
<path d="M33.2801 20.0664H33.2745C33.2306 20.0629 33.1976 20.0249 33.2004 19.9809C33.2004 19.96 33.2407 19.4627 33.8838 19.2709C33.9263 19.2584 33.9709 19.2825 33.9837 19.3249C33.99 19.3454 33.9878 19.3676 33.9777 19.3865C33.9676 19.4054 33.9503 19.4195 33.9297 19.4256C33.3978 19.5868 33.3656 19.9753 33.3607 19.9898C33.3586 20.0327 33.3231 20.0664 33.2801 20.0664Z" fill="#32335C"/>
<rect x="19.2031" y="13.2363" width="58.2515" height="38.7769" rx="3.33962" stroke="#52C41A" stroke-width="2.50472"/>
<defs>
<clipPath id="clip0_4_877">
<rect width="10.4475" height="10.4475" fill="white" transform="translate(59.3232 31.623) rotate(-90)"/>
</clipPath>
</defs>
</svg>
