<svg width="58" height="58" viewBox="0 0 58 58" fill="none" xmlns="http://www.w3.org/2000/svg">
<path d="M34.6864 29L43.2151 20.4713C44.2616 19.4247 44.2616 17.7278 43.2151 16.6804L41.3196 14.7849C40.273 13.7384 38.5761 13.7384 37.5287 14.7849L29 23.3136L20.4713 14.7849C19.4247 13.7384 17.7278 13.7384 16.6804 14.7849L14.7849 16.6804C13.7384 17.727 13.7384 19.4239 14.7849 20.4713L23.3136 29L14.7849 37.5287C13.7384 38.5753 13.7384 40.2722 14.7849 41.3196L16.6804 43.2151C17.727 44.2616 19.4247 44.2616 20.4713 43.2151L29 34.6864L37.5287 43.2151C38.5753 44.2616 40.273 44.2616 41.3196 43.2151L43.2151 41.3196C44.2616 40.273 44.2616 38.5761 43.2151 37.5287L34.6864 29Z" fill="#F5222D"/>
<circle cx="29" cy="29" r="26" stroke="#F5222D" stroke-width="6"/>
</svg>
